<svg width="57" height="56" viewBox="0 0 57 56" fill="none" xmlns="http://www.w3.org/2000/svg">
    <path
        d="M53.2133 33.7412L51.5087 32.8902C52.2598 32.0124 52.7168 30.8762 52.7168 29.6318V5.01904C52.7168 2.25014 50.4654 0 47.6978 0H29.6483C26.8807 0 24.6293 2.25014 24.6293 5.01904V21.3244H21.8234C19.9177 21.3244 18.2035 22.3868 17.348 24.0965L14.0393 30.7476C13.8076 31.1785 13.4295 31.4809 12.9916 31.5923L3.80263 33.8933C1.56332 34.4739 0 36.4796 0 38.7698V45.2344C0 47.9931 2.26032 50.2363 5.03941 50.2363H7.03048C8.08012 53.1312 10.877 55.17 14.0743 55.17C17.2372 55.17 20.0081 53.1497 21.0723 50.2363H33.2995C34.3459 53.1312 37.1288 55.17 40.3089 55.17C43.4846 55.17 46.2649 53.1363 47.3152 50.2363H50.9759C53.7544 50.2363 56.0153 47.9931 56.0153 45.2344V38.2135C56.0147 36.3503 54.9154 34.5929 53.2133 33.7412ZM28.1035 5.01904C28.1035 4.16737 28.796 3.47482 29.6477 3.47482H47.6971C48.5488 3.47482 49.2414 4.16673 49.2414 5.01904V29.6311C49.2414 30.1308 48.9988 30.5713 48.6297 30.8539L45.2331 24.0971C44.3942 22.4142 42.638 21.325 40.7596 21.325H28.1035V5.01904ZM18.0164 48.2611C17.7465 50.2191 16.0514 51.6952 14.0743 51.6952C12.075 51.6952 10.3653 50.2191 10.0986 48.2783C10.0718 48.0746 10.0432 47.8677 10.0432 47.664C10.0432 45.4616 11.8516 43.6698 14.0743 43.6698C16.2774 43.6698 18.0698 45.4616 18.0698 47.664C18.0698 47.8607 18.0412 48.0542 18.0164 48.2611ZM44.251 48.2611C43.9823 50.2191 42.2873 51.6952 40.3089 51.6952C38.33 51.6952 36.6355 50.2191 36.3688 48.2783C36.3421 48.0746 36.3134 47.8677 36.3134 47.664C36.3134 45.4616 38.1059 43.6698 40.3089 43.6698C42.512 43.6698 44.3044 45.4616 44.3044 47.664C44.3044 47.8677 44.2752 48.0746 44.251 48.2611ZM52.5399 45.2344C52.5399 46.0759 51.8384 46.7614 50.9753 46.7614H47.7188C47.2707 43.067 44.1211 40.195 40.3083 40.195C36.4955 40.195 33.3459 43.067 32.8978 46.7614H21.4842C21.0361 43.067 17.8871 40.195 14.0737 40.195C10.2418 40.195 7.07758 43.067 6.62756 46.7614H5.03814C4.17564 46.7614 3.47355 46.0759 3.47355 45.2344V38.7698C3.47355 38.0505 3.95731 37.4433 4.66068 37.26L13.849 34.9595C14.1539 34.8806 14.4467 34.7692 14.73 34.6355C14.7802 34.64 14.828 34.6508 14.8789 34.6508H36.2103C37.1696 34.6508 37.9474 33.8736 37.9474 32.9131C37.9474 31.9526 37.1696 31.176 36.2103 31.176H17.707L20.4568 25.6484C20.7223 25.1156 21.2334 24.7999 21.8228 24.7999H40.7596C41.3312 24.7999 41.8665 25.1321 42.1256 25.6515L45.6545 32.6693C46.1001 33.6094 46.8569 34.393 47.9066 34.9735L51.6589 36.85C52.186 37.1148 52.5405 37.661 52.5405 38.2141L52.5399 45.2344Z"
        fill="#bf003b" />
    <path
        d="M32.9297 11.945H44.4159C45.3751 11.945 46.1529 11.1678 46.1529 10.2079C46.1529 9.24806 45.3751 8.47021 44.4159 8.47021H32.9297C31.9704 8.47021 31.1926 9.24742 31.1926 10.2079C31.1926 11.1685 31.9704 11.945 32.9297 11.945Z"
        fill="#bf003b" />
    <path
        d="M46.1536 17.1577C46.1536 16.1972 45.3757 15.4207 44.4165 15.4207H32.9297C31.9704 15.4207 31.1926 16.1979 31.1926 17.1577C31.1926 18.1183 31.9704 18.8948 32.9297 18.8948H44.4158C45.3757 18.8948 46.1536 18.1176 46.1536 17.1577Z"
        fill="#bf003b" />
    <path
        d="M9.13669 14.9656H10.2283C11.0234 14.9656 11.6694 15.6136 11.6694 16.408C11.6694 17.2018 11.0227 17.8504 10.2283 17.8504H6.59375C5.6345 17.8504 4.85666 18.6276 4.85666 19.5875C4.85666 20.548 5.6345 21.3252 6.59375 21.3252H7.94574V22.8523C7.94574 23.8128 8.72358 24.59 9.68283 24.59C10.6421 24.59 11.4199 23.8128 11.4199 22.8523V21.1731C13.5555 20.6384 15.1443 18.7078 15.1443 16.408C15.1443 13.6964 12.9393 11.4908 10.2283 11.4908H9.13669C8.34166 11.4908 7.69558 10.846 7.69558 10.0523C7.69558 9.25788 8.3423 8.60989 9.13669 8.60989H12.7706C13.7299 8.60989 14.5084 7.83268 14.5084 6.87216C14.5084 5.91164 13.7299 5.13507 12.7706 5.13507H11.4199V3.25858C11.4199 2.29805 10.6421 1.52148 9.68283 1.52148C8.72358 1.52148 7.94574 2.29869 7.94574 3.25858V5.2872C5.80954 5.82189 4.22076 7.75248 4.22076 10.0523C4.22076 12.7601 6.42634 14.9656 9.13669 14.9656Z"
        fill="#bf003b" />
</svg>