<svg width="57" height="56" viewBox="0 0 57 56" fill="none" xmlns="http://www.w3.org/2000/svg">
    <path fill-rule="evenodd" clip-rule="evenodd"
        d="M7.24615 5.57886C8.08745 5.57886 8.76946 6.26087 8.76946 7.10217V18.9986C8.76946 21.242 6.95077 23.0607 4.70729 23.0607C2.46381 23.0607 0.645111 21.242 0.645111 18.9986V15.5892C0.645111 14.7479 1.32712 14.0659 2.16843 14.0659C3.00973 14.0659 3.69174 14.7479 3.69174 15.5892V18.9986C3.69174 19.5594 4.14642 20.0141 4.70729 20.0141C5.26816 20.0141 5.72283 19.5594 5.72283 18.9986V7.10217C5.72283 6.26087 6.40484 5.57886 7.24615 5.57886Z"
        fill="black" />
    <path fill-rule="evenodd" clip-rule="evenodd"
        d="M8.84071 7.00361L19.1161 26.7837L16.4125 28.1882L6.07379 8.28609C4.97142 6.16404 6.69704 3.67477 9.07081 3.96252L15.1397 4.69813C16.1336 4.81861 17.0003 5.43112 17.4456 6.32784L27.6157 26.8083L24.887 28.1633L14.7342 7.71797L8.84071 7.00361Z"
        fill="black" />
    <path fill-rule="evenodd" clip-rule="evenodd"
        d="M0.5 29.6619C0.5 27.2181 2.48108 25.2371 4.92487 25.2371H52.0751C54.519 25.2371 56.5 27.2181 56.5 29.6619V40.978C56.5 43.4218 54.519 45.4029 52.0751 45.4029H46.4896V42.3562H52.0751C52.8364 42.3562 53.4534 41.7392 53.4534 40.978V29.6619C53.4534 28.9007 52.8364 28.2837 52.0751 28.2837H4.92487C4.16369 28.2837 3.54663 28.9007 3.54663 29.6619V40.978C3.54663 41.7392 4.16369 42.3562 4.92487 42.3562H10.5829V45.4029H4.92487C2.48108 45.4029 0.5 43.4218 0.5 40.978V29.6619Z"
        fill="black" />
    <path fill-rule="evenodd" clip-rule="evenodd"
        d="M29.6606 14.2838C29.6606 11.8399 31.6416 9.85889 34.0854 9.85889H37.5673C48.0235 9.85889 56.4999 18.3353 56.4999 28.7915V35.5377H53.4533V28.7915C53.4533 20.018 46.3409 12.9055 37.5673 12.9055H34.0854C33.3242 12.9055 32.7072 13.5225 32.7072 14.2838V27.8485H29.6606V14.2838Z"
        fill="black" />
    <path fill-rule="evenodd" clip-rule="evenodd"
        d="M16.0232 48.812C18.5471 48.812 20.5932 46.766 20.5932 44.2421C20.5932 41.7182 18.5471 39.6721 16.0232 39.6721C13.4993 39.6721 11.4533 41.7182 11.4533 44.2421C11.4533 46.766 13.4993 48.812 16.0232 48.812ZM16.0232 51.8587C20.2298 51.8587 23.6398 48.4486 23.6398 44.2421C23.6398 40.0355 20.2298 36.6255 16.0232 36.6255C11.8167 36.6255 8.40665 40.0355 8.40665 44.2421C8.40665 48.4486 11.8167 51.8587 16.0232 51.8587Z"
        fill="black" />
    <path fill-rule="evenodd" clip-rule="evenodd"
        d="M41.1217 48.812C43.6456 48.812 45.6916 46.766 45.6916 44.2421C45.6916 41.7182 43.6456 39.6721 41.1217 39.6721C38.5978 39.6721 36.5517 41.7182 36.5517 44.2421C36.5517 46.766 38.5978 48.812 41.1217 48.812ZM41.1217 51.8587C45.3282 51.8587 48.7383 48.4486 48.7383 44.2421C48.7383 40.0355 45.3282 36.6255 41.1217 36.6255C36.9151 36.6255 33.5051 40.0355 33.5051 44.2421C33.5051 48.4486 36.9151 51.8587 41.1217 51.8587Z"
        fill="black" />
    <path fill-rule="evenodd" clip-rule="evenodd"
        d="M21.2461 44.1698C21.2461 43.3285 21.9281 42.6465 22.7694 42.6465H33.9404C34.7817 42.6465 35.4637 43.3285 35.4637 44.1698C35.4637 45.0111 34.7817 45.6931 33.9404 45.6931H22.7694C21.9281 45.6931 21.2461 45.0111 21.2461 44.1698Z"
        fill="black" />
</svg>