<svg width="56" height="56" viewBox="0 0 56 56" fill="none" xmlns="http://www.w3.org/2000/svg">
<path d="M52.5487 34.3026L48.8569 32.5096C48.4188 32.2778 48.0628 31.9437 47.8717 31.5997L45.8349 27.6765L47.401 26.2207C49.7123 24.1006 51.2803 21.3632 51.9415 18.2955L53.3729 11.6619C53.3729 11.6587 53.3729 11.655 53.3747 11.6481C53.7752 9.69465 52.9523 7.76191 51.2903 6.73601L41.866 0.730346C40.3494 -0.231011 38.3929 -0.234144 36.8756 0.733479L27.4707 6.72284C25.7937 7.75941 24.969 9.69152 25.3707 11.6619L26.8021 18.2955C27.0747 19.5645 27.5403 20.764 28.1181 21.9084H21.4306C19.6752 21.9084 18.0765 22.8967 17.2518 24.4954L13.8908 31.1835C13.5944 31.7971 13.0661 32.0459 12.6775 32.1449L3.55213 34.4424C1.45896 34.94 0 36.8044 0 38.9791V45.9943C0 48.6873 2.19157 50.8826 4.88449 50.8826H7.33677C8.4805 53.3248 10.8989 55 13.6821 55C16.4465 55 18.8768 53.3085 20.0224 50.8826H33.5159C34.6596 53.3248 37.078 55 39.8612 55C42.6256 55 45.0559 53.3085 46.2015 50.8826H50.2613C52.9574 50.8826 55.1495 48.6873 55.1495 45.9943V38.4545C55.1495 36.6954 54.1575 35.1067 52.5487 34.3026ZM28.9535 9.08801L38.3734 3.08862C38.9613 2.71385 39.781 2.71698 40.3657 3.08548L49.8076 9.09866C50.4856 9.51792 50.8028 10.2781 50.6392 11.0828L49.2116 17.7089C48.6732 20.2038 47.3948 22.4367 45.5065 24.1683L39.5378 29.7177C39.5397 29.7415 39.1869 29.6839 39.1662 29.6801L33.2383 24.2021C31.35 22.4398 30.0665 20.1937 29.5332 17.7083L28.1031 11.0884C27.9376 10.2812 28.2585 9.51792 28.9535 9.08801ZM35.8936 30.4641L36.7628 31.2619L37.0561 31.5332L37.7925 33.6039H22.9272L23.9838 30.4647L35.8936 30.4641ZM17.8208 49.0927C17.2825 50.9265 15.581 52.2049 13.6827 52.2049C11.7569 52.2049 10.056 50.9333 9.52583 49.0382C9.40801 48.6904 9.35349 48.3225 9.35349 47.8794C9.35349 45.4729 11.295 43.5164 13.6827 43.5164C16.0686 43.5164 18.012 45.4729 18.012 47.8794C18.0113 48.3225 17.9556 48.6904 17.8208 49.0927ZM43.9999 49.0927C43.4616 50.9265 41.7601 52.2049 39.8618 52.2049C37.936 52.2049 36.2351 50.9333 35.7049 49.0382C35.5871 48.6904 35.5326 48.3225 35.5326 47.8794C35.5326 45.4729 37.4741 43.5164 39.8618 43.5164C42.2477 43.5164 44.1911 45.4729 44.1911 47.8794C44.1905 48.3225 44.1341 48.6904 43.9999 49.0927ZM52.3576 45.9943C52.3576 47.1706 51.437 48.0875 50.2613 48.0875H46.9498C46.9517 48.0136 46.9824 47.9546 46.9824 47.8794C46.9824 43.9319 43.7887 40.7213 39.8618 40.7213C35.9349 40.7213 32.7413 43.9325 32.7413 47.8794C32.7413 47.9572 32.7689 48.0104 32.772 48.0875H20.7707C20.7726 48.0136 20.8033 47.9546 20.8033 47.8794C20.8033 43.9319 17.6096 40.7213 13.6827 40.7213C9.75583 40.7213 6.56154 43.9319 6.56154 47.8794C6.56154 47.9572 6.58912 48.0104 6.59225 48.0875H4.88449C3.73074 48.0875 2.79132 47.15 2.79132 45.9943V38.9791C2.79132 38.0891 3.35535 37.3597 4.21455 37.1554L13.365 34.851C14.7337 34.5 15.8123 33.627 16.3951 32.4138L19.7392 25.7632C20.0763 25.1089 20.7243 24.7028 21.43 24.7028H29.9092C30.3504 25.2431 30.8192 25.7664 31.3394 26.2502L32.8735 27.6684H23.5952C22.6101 27.6684 21.7308 28.3095 21.4682 29.1819L20.0538 33.3914C19.7981 34.0764 19.8921 34.8435 20.3057 35.4401C20.7218 36.0398 21.403 36.3977 22.1294 36.3977H38.6034C39.3298 36.3977 40.011 36.0398 40.4271 35.4401C40.8414 34.8435 40.9347 34.0764 40.686 33.4152L40.3262 32.4018C40.7304 32.2684 41.1134 32.0703 41.4392 31.762L43.7129 29.6488L45.4119 32.9214C45.8876 33.7768 46.6271 34.4894 47.5916 34.997L51.3123 36.8038C51.9546 37.1278 52.357 37.7582 52.357 38.4539L52.3576 45.9943Z" fill="#505050"/>
<path d="M37.6013 19.5289C37.971 19.5289 38.5576 19.2833 38.8196 19.0244L45.4275 12.4146L43.454 10.4412L37.6013 16.2939L35.258 13.9557L33.2858 15.9292L36.3761 19.0175C36.7013 19.3484 37.1381 19.5289 37.6013 19.5289Z" fill="#505050"/>
</svg>
