<svg width="56" height="56" viewBox="0 0 56 56" fill="none" xmlns="http://www.w3.org/2000/svg">
<path d="M45.5467 14.6753L42.1917 21.3853C41.9578 21.8492 41.48 22.2285 40.9748 22.3651L31.7295 24.6418C29.6206 25.1946 28.2042 27.031 28.2042 29.2086V37.0026C28.2042 39.313 30.0844 41.197 32.3986 41.197H35.4944C36.6445 43.6147 39.0896 45.3024 41.9381 45.3024C44.7899 45.3024 47.235 43.6141 48.3851 41.197H55.9167V38.3986H49.0669C49.07 38.3128 49.0923 38.2321 49.0923 38.1463C49.0923 34.201 45.8822 30.9928 41.9375 30.9928C37.9941 30.9928 34.784 34.201 34.784 38.1463C34.784 38.2328 34.8081 38.3135 34.8113 38.3986H32.3986C31.6272 38.3986 30.9994 37.774 30.9994 37.0026V29.2073C30.9994 28.3203 31.5796 27.5692 32.4177 27.3506L41.6751 25.0707C42.0576 24.9678 42.7604 24.7429 42.7604 24.7429H55.9167V21.9445H45.0364L48.0464 15.9239C48.3692 15.279 49.0154 14.8793 49.736 14.8793H55.9167V12.0815H49.736C47.9511 12.0815 46.3435 13.0747 45.5467 14.6753ZM41.9375 33.7912C44.3419 33.7912 46.2977 35.7432 46.2977 38.1463C46.2977 40.5495 44.3419 42.504 41.9375 42.504C39.535 42.504 37.5792 40.5482 37.5792 38.1457C37.5792 35.7432 39.535 33.7912 41.9375 33.7912Z" fill="#505050"/>
<path d="M24.17 24.6341L14.9755 22.3746C14.4379 22.2278 13.9601 21.8491 13.7263 21.3846L10.3713 14.6714C9.57255 13.074 7.96876 12.0808 6.18705 12.0808H0V14.8792H6.18769C6.90444 14.8792 7.54939 15.2782 7.87027 15.92L10.8841 21.9437H0V24.7421H13.1582C13.1582 24.7421 13.88 24.9728 14.2759 25.0802L23.4806 27.3429C24.3409 27.5678 24.9191 28.3189 24.9191 29.2066V37.0025C24.9191 37.7739 24.2926 38.3985 23.5219 38.3985H21.1085C21.1117 38.3127 21.134 38.232 21.134 38.1462C21.134 34.2009 17.9238 30.9927 13.9792 30.9927C10.0358 30.9927 6.82565 34.2009 6.82565 38.1462C6.82565 38.2327 6.84979 38.3134 6.85297 38.3985H0V41.1969H7.53541C8.68551 43.6146 11.1306 45.3023 13.9792 45.3023C16.8309 45.3023 19.276 43.614 20.4261 41.1969H23.5219C25.8341 41.1969 27.7143 39.3129 27.7143 37.0025V29.2072C27.7143 27.0303 26.2999 25.1939 24.17 24.6341ZM13.9792 42.5039C11.5767 42.5039 9.62084 40.5481 9.62084 38.1456C9.62084 35.7431 11.5767 33.7905 13.9792 33.7905C16.3836 33.7905 18.3394 35.7425 18.3394 38.1456C18.3394 40.5487 16.3836 42.5039 13.9792 42.5039Z" fill="#505050"/>
<path d="M18.7858 17.2729L20.7616 15.2972L24.6399 19.1755L22.6641 21.1512L18.7858 17.2729Z" fill="#505050"/>
<path d="M26.5623 11H29.3575V18.6587H26.5623V11Z" fill="#505050"/>
<path d="M31.2709 19.1626L35.1492 15.2843L37.125 17.2601L33.2467 21.1384L31.2709 19.1626Z" fill="#505050"/>
</svg>
