<!DOCTYPE svg PUBLIC "-//W3C//DTD SVG 1.1//EN" "http://www.w3.org/Graphics/SVG/1.1/DTD/svg11.dtd">
<!-- Uploaded to: SVG Repo, www.svgrepo.com, Transformed by: SVG Repo Mixer Tools -->
<svg fill="#505050" height="800px" width="800px" version="1.1" id="Layer_1" xmlns="http://www.w3.org/2000/svg" xmlns:xlink="http://www.w3.org/1999/xlink" viewBox="0 0 512 512" xml:space="preserve" stroke="#505050" stroke-width="8.704">
<g id="SVGRepo_bgCarrier" stroke-width="0"/>
<g id="SVGRepo_tracerCarrier" stroke-linecap="round" stroke-linejoin="round"/>
<g id="SVGRepo_iconCarrier"> <g> <g> <g> <path d="M142.937,72.63l-33.914,33.914l-8.708-8.708c-3.17-3.17-8.309-3.17-11.478,0c-3.17,3.17-3.17,8.309,0,11.478 l14.448,14.448c1.584,1.584,3.662,2.378,5.739,2.378c2.077,0,4.155-0.792,5.739-2.378l39.653-39.653 c3.17-3.17,3.17-8.309,0-11.478C151.246,69.461,146.107,69.461,142.937,72.63z"/> <path d="M124.684,33.577c-35.404,0-64.208,28.804-64.208,64.208s28.804,64.209,64.208,64.209 c35.404,0,64.209-28.804,64.209-64.209C188.893,62.381,160.088,33.577,124.684,33.577z M124.684,145.76 c-26.453,0-47.974-21.521-47.974-47.975c0-26.453,21.521-47.974,47.974-47.974s47.975,21.521,47.975,47.974 S151.137,145.76,124.684,145.76z"/> <path d="M124.684,193.715c-35.404,0-64.208,28.804-64.208,64.208c0,35.404,28.804,64.209,64.208,64.209 c35.404,0,64.209-28.804,64.209-64.209C188.893,222.519,160.088,193.715,124.684,193.715z M124.684,305.898 c-26.453,0-47.974-21.521-47.974-47.975c0-26.453,21.521-47.974,47.974-47.974s47.975,21.521,47.975,47.974 C172.659,284.377,151.137,305.898,124.684,305.898z"/> <path d="M124.684,353.853c-35.404,0-64.208,28.804-64.208,64.209c0,35.404,28.804,64.208,64.208,64.208 c35.404,0,64.209-28.804,64.209-64.208C188.893,382.657,160.088,353.853,124.684,353.853z M124.684,466.036 c-26.453,0-47.974-21.521-47.974-47.974s21.521-47.975,47.974-47.975s47.975,21.521,47.975,47.975 C172.659,444.515,151.137,466.036,124.684,466.036z"/> <path d="M443.407,70.17h-236.98c-4.483,0-8.117,3.634-8.117,8.117s3.634,8.117,8.117,8.117h236.98 c4.483,0,8.117-3.634,8.117-8.117S447.89,70.17,443.407,70.17z"/> <path d="M456.108,0H55.892c-19.982,0-36.24,16.256-36.24,36.24V475.76c0,19.982,16.256,36.24,36.24,36.24h400.216 c19.982,0,36.24-16.257,36.24-36.24V36.24C492.348,16.256,476.09,0,456.108,0z M456.108,495.766H55.892 c-11.031,0-20.006-8.975-20.006-20.006V36.24c0-11.032,8.975-20.006,20.006-20.006h400.216c11.031,0,20.006,8.974,20.006,20.006 V475.76h0C476.114,486.792,467.14,495.766,456.108,495.766z"/> <path d="M206.427,125.4h191.234c4.483,0,8.117-3.634,8.117-8.117s-3.634-8.117-8.117-8.117H206.427 c-4.483,0-8.117,3.634-8.117,8.117S201.945,125.4,206.427,125.4z"/> <path d="M443.407,390.446h-236.98c-4.483,0-8.117,3.634-8.117,8.117c0,4.483,3.634,8.117,8.117,8.117h236.98 c4.483,0,8.117-3.634,8.117-8.117C451.524,394.08,447.89,390.446,443.407,390.446z"/> <path d="M443.407,230.308h-236.98c-4.483,0-8.117,3.634-8.117,8.117s3.634,8.117,8.117,8.117h236.98 c4.483,0,8.117-3.634,8.117-8.117S447.89,230.308,443.407,230.308z"/> <path d="M397.661,429.444H206.427c-4.483,0-8.117,3.634-8.117,8.117s3.634,8.117,8.117,8.117h191.234 c4.483,0,8.117-3.634,8.117-8.117S402.144,429.444,397.661,429.444z"/> <path d="M206.427,285.538h191.234c4.483,0,8.117-3.634,8.117-8.117s-3.634-8.117-8.117-8.117H206.427 c-4.483,0-8.117,3.634-8.117,8.117S201.945,285.538,206.427,285.538z"/> </g> </g> </g> </g>
</svg>