<svg width="88" height="88" viewBox="0 0 88 88" fill="none" xmlns="http://www.w3.org/2000/svg">
<g clip-path="url(#clip0_16_776)">
<path d="M56.5476 5.00007C56.5476 8.99899 56.5298 12.9267 56.5595 16.8544C56.5715 18.4089 61.7738 23.4283 63.1905 23.1851C63.7024 23.0961 64.125 22.5087 64.5834 22.1468C64.8155 21.9629 65.0179 21.7315 65.2619 21.5713C70.4226 18.2309 72.9941 13.7158 71.8869 7.42672C71.4643 5.01787 72.4643 4.88141 74.4643 5.84851C92.3095 14.4634 91.3572 34.1851 78.3631 44.2654C72.8215 45.4461 73.625 49.6231 73.7917 53.6279C74.1191 61.6139 74.2024 69.6117 74.5893 77.5977C74.7262 80.4397 73.4881 81.5432 70.9107 81.7687C66.5536 82.1603 62.2203 82.0772 57.8988 81.2762C56.2084 80.9618 55.7262 80.2083 55.7203 78.5173C55.6965 68.4488 55.5476 58.3863 55.4465 48.3178C55.4346 47.2557 55.6726 46.2708 54.2976 45.6301C41.4703 39.6376 39.8274 21.3933 48.5715 10.595C51.4524 7.03513 53.1191 5.81291 56.5536 4.99414L56.5476 5.00007ZM64.7381 78.4224C65.3334 78.4224 65.9286 78.4461 66.5179 78.4224C72.1786 78.191 71.2084 78.5826 71.2203 73.5216C71.2381 64.444 71.1012 55.3604 71.0595 46.2827C71.0595 45.0546 70.6965 43.5535 72.3393 43.0017C78.4524 40.9429 81.7441 36.6473 83.4643 30.5065C85.6012 22.8588 83.4226 16.9434 77.5238 12.0368C76.8572 11.479 76.2738 10.5357 75.2738 11.0519C74.4465 11.479 74.6905 12.4699 74.7619 13.1996C74.9881 15.4839 74.3453 17.1808 72.7084 18.9963C71.0357 20.8474 68.9226 22.0578 67.2203 23.8081C64.2679 26.8399 64.0179 26.4958 60.4048 24.0632C56.5357 21.4585 53.4048 18.8361 54.3691 13.5675C54.5238 12.725 54.0476 11.4019 53.0119 11.1883C52.1548 11.0103 51.6965 12.191 51.0179 12.7131C50.1072 13.4132 49.8096 14.4812 49.2381 15.383C43.7024 24.1759 45.6667 36.8253 54.7619 41.1031C58.2262 42.7347 58.8274 45.1791 58.8274 48.3474C58.8155 56.4402 58.8631 64.533 58.7976 72.6257C58.75 78.5292 58.6905 78.5292 64.7322 78.4224H64.7381Z" fill="#303030"/>
<path d="M5.47026 36.0124C6.04169 37.1693 8.07145 36.7837 7.53574 38.3204C7.08336 39.6197 5.67264 39.3112 4.66074 39.2578C3.08336 39.1747 0.744071 40.3436 0.107166 38.528C-0.529739 36.7066 1.72621 35.603 3.07145 34.5291C5.32145 32.7254 7.94645 31.9363 10.8453 32.2805C14.2441 32.6839 14.7976 33.6391 13.5179 36.7184C13.2976 37.2524 13.0655 37.7864 12.8631 38.2729C17.7679 38.2729 22.5655 38.2788 27.3631 38.2729C31.5238 38.261 35.6964 38.356 39.8512 38.1602C42.2619 38.0474 43.5655 38.7891 43.6965 41.5598C34.3691 41.5598 25.0834 41.5598 15.7976 41.5598C14.5119 41.5598 13.2024 41.4887 11.9405 41.6963C9.41074 42.1116 7.73812 43.6364 7.65478 46.2411C7.48812 51.4741 7.54169 56.713 7.49407 61.946C7.47026 64.2481 9.16074 64.0167 10.6191 64.0226C22.1191 64.082 33.6131 64.1235 45.1131 64.165C46.8988 64.171 48.6845 64.1235 50.4643 64.165C51.2441 64.1828 52.2976 63.7378 52.3453 65.2745C52.3869 66.7578 51.5595 66.7815 50.4762 66.7875C40.6667 66.8705 30.8512 67.0604 21.0417 67.007C18.875 66.9951 18.0834 67.6656 17.8215 69.665C17.5119 72.0383 16.6607 74.2751 15.1429 76.1618C13.6845 77.9595 11.7917 78.9682 9.39883 78.4698C7.15478 78.007 6.14883 76.2983 5.70836 74.281C3.64288 64.7702 3.27978 55.1704 4.43455 45.5172C4.73812 42.9957 6.2024 41.1742 8.42264 39.9579C8.59526 39.863 8.80359 39.8274 8.97026 39.7265C10.6369 38.6764 11.5893 36.7837 11.0238 35.2648C10.5 33.8646 8.57145 35.0453 7.28574 35.2351C6.66669 35.3301 6.09526 35.7335 5.47621 36.0124H5.47026ZM11.3393 67.0129C6.51193 66.8053 6.38693 66.9536 7.70836 71.6823C8.19645 73.4385 8.86907 75.1888 11.0357 75.3074C13.0536 75.4202 13.8988 73.836 14.6072 72.2815C16.8095 67.4282 16.6905 67.2502 11.3453 67.0189L11.3393 67.0129Z" fill="#303030"/>
<path d="M40.3214 24.7334C40.5178 26.3413 39.8155 26.9287 38.119 26.8634C34.9643 26.7507 31.7976 26.9346 28.6369 26.8278C26.5536 26.7566 25.0833 27.5517 23.8095 29.124C22.0774 31.2658 20.2321 33.3246 18.3869 35.3775C17.8928 35.9292 17.2857 36.8014 16.4286 36.2852C15.5119 35.7334 16.0714 34.8553 16.4762 34.2205C18.2559 31.3904 20 28.5306 21.9345 25.8073C23.1428 24.1105 25.0952 23.4163 27.119 23.3392C31.0655 23.1908 35.0178 23.2442 38.9702 23.1434C40.1547 23.1137 40.6309 23.5112 40.3274 24.7334H40.3214Z" fill="#303030"/>
<path d="M30.0238 53.7287C27.0834 52.6251 26.2857 48.6084 22.6012 48.8932C19.6667 49.1187 16.6965 48.9407 13.7441 48.9407C15.3572 54.3101 16.6072 55.301 22.006 55.9002C24.6607 56.1909 27.381 56.2562 29.8869 57.6089C25.6965 57.6089 21.5 57.6327 17.3096 57.5912C16.3631 57.5852 15.6369 57.0394 15.1667 56.2028C13.8691 53.877 12.5179 51.5868 11.3096 49.2195C10.5715 47.7718 10.8453 46.7217 12.8036 46.7513C16.6667 46.8047 20.5357 46.7335 24.3988 46.8878C27.0893 46.9946 28.9941 49.3856 30.0238 53.7346V53.7287Z" fill="#303030"/>
<path d="M64.7381 78.4222C58.6905 78.529 58.756 78.529 58.8036 72.6256C58.869 64.5328 58.8274 56.44 58.8333 48.3473C58.8333 45.1731 58.2381 42.7345 54.7679 41.1029C45.6726 36.8252 43.7083 24.1758 49.244 15.3829C49.8095 14.481 50.1131 13.4071 51.0238 12.713C51.7024 12.1909 52.1607 11.0161 53.0179 11.1882C54.0536 11.4017 54.5298 12.7189 54.375 13.5673C53.4107 18.8419 56.5417 21.4584 60.4107 24.063C64.0238 26.4956 64.2738 26.8457 67.2262 23.8079C68.9286 22.0576 71.0417 20.8473 72.7143 18.9961C74.3512 17.1806 75 15.4837 74.7679 13.1995C74.6964 12.4697 74.4524 11.4789 75.2798 11.0517C76.2798 10.5355 76.8631 11.4789 77.5298 12.0366C83.4286 16.9433 85.6071 22.8586 83.4702 30.5064C81.7559 36.6472 78.4583 40.9427 72.3452 43.0015C70.7024 43.5533 71.0595 45.0544 71.0655 46.2826C71.1071 55.3602 71.25 64.4438 71.2262 73.5215C71.2143 78.5824 72.1845 78.1909 66.5238 78.4222C65.9286 78.446 65.3333 78.4222 64.744 78.4222H64.7381Z" fill="#F3C401"/>
<path d="M11.3393 67.0129C16.6846 67.2443 16.8036 67.4164 14.6012 72.2756C13.8929 73.8301 13.0476 75.4142 11.0298 75.3015C8.86908 75.1828 8.19646 73.4326 7.70241 71.6764C6.38693 66.9536 6.51193 66.8053 11.3334 67.007L11.3393 67.0129Z" fill="#FDFDFD"/>
</g>
<defs>
<clipPath id="clip0_16_776">
<rect width="88" height="77" fill="white" transform="translate(0 5)"/>
</clipPath>
</defs>
</svg>
