<svg width="20" height="21" viewBox="0 0 20 21" fill="white" xmlns="http://www.w3.org/2000/svg">
<path d="M16.8607 9.65601C16.8607 15.0348 11.3515 18.3486 10.2066 18.9798C10.1432 19.0148 10.0719 19.0331 9.99949 19.0331C9.92706 19.0331 9.85581 19.0148 9.79238 18.9798C8.64664 18.3486 3.13916 15.0348 3.13916 9.65601C3.13916 5.36804 5.71195 2.36646 9.99992 2.36646C14.2879 2.36646 16.8607 5.36804 16.8607 9.65601Z" stroke="#f3c401" stroke-width="1.4" stroke-linecap="round" stroke-linejoin="round"/>
<path d="M6.56934 9.22726C6.56934 10.137 6.93075 11.0096 7.57407 11.6529C8.21739 12.2962 9.08992 12.6576 9.99972 12.6576C10.9095 12.6576 11.782 12.2962 12.4254 11.6529C13.0687 11.0096 13.4301 10.137 13.4301 9.22726C13.4301 8.31746 13.0687 7.44493 12.4254 6.80161C11.782 6.15829 10.9095 5.79688 9.99972 5.79688C9.08992 5.79688 8.21739 6.15829 7.57407 6.80161C6.93075 7.44493 6.56934 8.31746 6.56934 9.22726V9.22726Z" stroke="#f3c401" stroke-width="1.4" stroke-linecap="round" stroke-linejoin="round"/>
</svg>
 