<svg width="512" height="512" viewBox="0 0 512 512" fill="none" xmlns="http://www.w3.org/2000/svg">
<mask id="mask0_18512_123764" style="mask-type:alpha" maskUnits="userSpaceOnUse" x="0" y="0" width="512" height="512">
<rect width="512" height="512" fill="#D9D9D9"/>
</mask>
<g mask="url(#mask0_18512_123764)">
</g>
<g clip-path="url(#clip0_18512_123764)">
<mask id="mask1_18512_123764" style="mask-type:luminance" maskUnits="userSpaceOnUse" x="97" y="0" width="317" height="314">
<path d="M413.447 0H97V313.45H413.447V0Z" fill="white"/>
</mask>
<g mask="url(#mask1_18512_123764)">
<path d="M379.888 60.8131C381.406 60.5329 381.822 61.8756 382.519 62.803C388.814 71.4468 394.278 80.6651 398.837 90.3352C400.588 93.9289 398.247 94.5085 396.051 95.5905C368.967 108.471 342.495 122.497 316.637 137.671C256.003 173.391 198.932 214.823 146.201 261.401C142.622 264.57 141.065 264.299 138.086 260.87C129.189 250.699 121.499 239.535 115.171 227.599C114.783 227.144 114.507 226.605 114.363 226.025C114.219 225.445 114.213 224.839 114.343 224.256C114.473 223.673 114.737 223.128 115.114 222.664C115.491 222.199 115.971 221.829 116.515 221.581C190.818 163.684 270.844 113.512 355.348 71.8452C362.622 68.3385 370.002 65.1698 377.344 61.8467C378.156 61.4119 378.998 61.1705 379.888 60.8131Z" fill="#F86534"/>
<path d="M413.159 150.013C414.32 153.519 411.892 155.606 407.897 157.528C332.303 194.705 261.691 241.231 197.726 296.01C196.328 297.588 194.395 298.595 192.299 298.837C190.204 299.08 188.092 298.541 186.37 297.324C177.868 292.792 169.629 287.783 161.694 282.321C158.018 279.761 158.667 278.409 161.597 275.887C189.649 251.736 218.484 228.609 248.653 207.125C297.427 172.254 349.112 141.637 403.138 115.612C406.804 113.863 407.81 114.82 408.604 118.24C411.006 128.685 412.531 139.314 413.159 150.013Z" fill="#F86534"/>
<path d="M410.753 179.852C398.381 274.089 300.163 332.244 217.141 307.91C241.236 281.092 370.842 195.279 410.753 179.852Z" fill="#F86534"/>
<path d="M258.777 0.0339277C296.969 0.83665 333.527 15.6587 361.473 41.6702C364.83 44.7036 364.801 46.1043 360.506 47.9978C290.307 80.2679 223.436 119.317 160.849 164.589C143.679 176.664 126.858 189.29 109.902 201.675C104.398 205.694 104.417 205.713 102.657 199.424C92.876 164.025 95.7917 126.324 110.899 92.8441C126.007 59.3641 152.356 32.2104 185.389 16.0799C208.252 5.08406 233.375 -0.414472 258.748 0.0243464L258.777 0.0339277Z" fill="#017785"/>
</g>
<path d="M124.069 478.018C125.88 478.018 127.564 478.368 129.119 479.088C130.675 479.789 132.047 480.749 133.219 481.929C134.39 483.111 135.323 484.531 136 486.136C136.677 487.76 137.025 489.476 137.025 491.303C137.025 493.129 136.677 494.827 136 496.431C135.323 498.037 134.39 499.421 133.219 500.602C132.047 501.782 130.675 502.723 129.119 503.406C127.564 504.089 125.88 504.44 124.069 504.44C122.257 504.44 120.573 504.089 118.981 503.406C117.389 502.723 116.017 501.782 114.845 500.602C113.674 499.421 112.741 498.018 112.064 496.431C111.387 494.845 111.039 493.129 111.039 491.303C111.039 489.476 111.387 487.76 112.064 486.136C112.741 484.512 113.674 483.111 114.845 481.929C116.017 480.749 117.407 479.789 118.981 479.088C120.555 478.387 122.257 478.018 124.069 478.018Z" fill="#017785"/>
<path d="M152.061 478.018C153.872 478.018 155.556 478.368 157.112 479.088C158.667 479.789 160.04 480.749 161.211 481.929C162.382 483.111 163.315 484.531 163.992 486.136C164.669 487.76 165.017 489.476 165.017 491.303C165.017 493.129 164.669 494.827 163.992 496.431C163.315 498.037 162.382 499.421 161.211 500.602C160.04 501.782 158.667 502.723 157.112 503.406C155.556 504.089 153.872 504.44 152.061 504.44C150.249 504.44 148.565 504.089 146.973 503.406C145.381 502.723 144.009 501.782 142.838 500.602C141.666 499.421 140.733 498.018 140.056 496.431C139.379 494.845 139.031 493.129 139.031 491.303C139.031 489.476 139.379 487.76 140.056 486.136C140.733 484.512 141.666 483.111 142.838 481.929C144.009 480.749 145.4 479.789 146.973 479.088C148.547 478.387 150.249 478.018 152.061 478.018Z" fill="#017785"/>
<path d="M180.905 478.018C182.716 478.018 184.4 478.368 185.955 479.088C187.511 479.789 188.883 480.749 190.054 481.929C191.226 483.111 192.159 484.531 192.836 486.136C193.513 487.76 193.861 489.476 193.861 491.303C193.861 493.129 193.513 494.827 192.836 496.431C192.159 498.037 191.226 499.421 190.054 500.602C188.883 501.782 187.511 502.723 185.955 503.406C184.4 504.089 182.716 504.44 180.905 504.44C179.093 504.44 177.409 504.089 175.817 503.406C174.225 502.723 172.853 501.782 171.681 500.602C170.51 499.421 169.577 498.018 168.9 496.431C168.223 494.845 167.875 493.129 167.875 491.303C167.875 489.476 168.223 487.76 168.9 486.136C169.577 484.512 170.51 483.111 171.681 481.929C172.853 480.749 174.243 479.789 175.817 479.088C177.391 478.387 179.093 478.018 180.905 478.018Z" fill="#017785"/>
<path d="M228.432 366.485C228.432 362.647 230.244 359.473 233.849 357.001C235.606 355.931 237.418 355.414 239.266 355.414H250.556V431.764C250.611 433.83 251.032 435.767 251.838 437.539C252.643 439.31 253.722 440.841 255.076 442.132C256.431 443.424 258.004 444.439 259.779 445.214C261.555 445.97 263.458 446.358 265.471 446.358H266.075V468.757H265.471C260.402 468.757 255.626 467.78 251.161 465.842C246.696 463.887 242.779 461.247 239.412 457.908C236.045 454.568 233.392 450.657 231.433 446.173C229.475 441.69 228.468 436.893 228.414 431.782V366.485H228.432Z" fill="#017785"/>
<path d="M314.586 468.665L314.422 446.486L416.205 446.395V457.853C416.205 459.735 415.656 461.58 414.558 463.387C412.051 467.022 408.702 468.665 404.75 468.665H314.586Z" fill="#017785"/>
<path d="M108.346 468.667C104.375 468.667 101.172 467.08 98.647 463.426C97.549 461.6 97 459.755 97 457.892V446.434H147.892V468.759L108.346 468.685V468.667Z" fill="#017785"/>
<path d="M176.317 468.719H134.758V446.393L176.042 446.246L176.317 468.719Z" fill="#017785"/>
<path d="M175.289 446.256C206.728 442.953 172.599 409.595 213.005 413.395C215.42 441.661 207.753 467.419 175.289 468.729V446.256Z" fill="#017785"/>
<path d="M265.321 446.353H265.211C267.115 446.353 268.945 446.003 270.664 445.284C272.403 444.582 273.922 443.605 275.258 442.368C276.594 441.132 277.673 439.674 278.533 437.995C279.393 436.316 279.888 434.508 280.034 432.534V424.49C280.034 422.626 280.583 420.763 281.681 418.954C284.188 415.319 287.428 413.492 291.398 413.492H302.232V431.556C302.232 433.622 302.616 435.578 303.403 437.405C304.171 439.231 305.233 440.819 306.569 442.184C307.905 443.549 309.46 444.619 311.272 445.412C313.084 446.206 315.005 446.593 317.073 446.593V468.679H314.95C310.632 468.476 306.605 467.682 302.835 466.021C298.37 464.103 294.454 461.465 291.087 458.125C287.72 461.465 283.841 464.085 279.412 465.985C275.002 467.885 270.353 468.752 265.284 468.752L266.035 468.328L265.284 446.353H265.321Z" fill="#017785"/>
<path d="M291.381 376.285C293.193 376.285 294.877 376.636 296.432 377.355C297.987 378.056 299.36 379.015 300.53 380.197C301.702 381.377 302.635 382.798 303.312 384.403C303.989 386.027 304.338 387.742 304.338 389.569C304.338 391.396 303.989 393.093 303.312 394.699C302.635 396.285 301.702 397.688 300.53 398.868C299.36 400.05 297.987 400.991 296.432 401.674C294.877 402.356 293.193 402.706 291.381 402.706C289.569 402.706 287.886 402.356 286.294 401.674C284.72 400.991 283.329 400.05 282.158 398.868C280.986 397.688 280.053 396.285 279.376 394.699C278.699 393.112 278.352 391.396 278.352 389.569C278.352 387.742 278.68 386.027 279.376 384.403C280.053 382.78 280.986 381.377 282.158 380.197C283.329 379.015 284.72 378.056 286.294 377.355C287.868 376.654 289.569 376.285 291.381 376.285Z" fill="#017785"/>
</g>
<defs>
<clipPath id="clip0_18512_123764">
<rect width="319.204" height="512" fill="white" transform="translate(97)"/>
</clipPath>
</defs>
</svg>
