<svg width="36" height="36" viewBox="0 0 36 36" fill="none" xmlns="http://www.w3.org/2000/svg">
<path d="M11.7506 16.7501L16.7506 21.7501L25.5006 13.0001M3.5806 25.5001C1.86571 22.2083 1.32941 18.4286 2.06091 14.7897C2.7924 11.1508 4.74759 7.87195 7.6013 5.49853C10.455 3.12512 14.0352 1.80017 17.7465 1.74405C21.4578 1.68792 25.0764 2.90401 28.0006 5.19006L21.7506 8.00006M15.5006 28.0001L7.8006 30.6501C10.8245 33.0904 14.6228 34.3664 18.5067 34.2466C22.3906 34.1269 26.1031 32.6193 28.9709 29.9973C31.8387 27.3753 33.672 23.8124 34.1384 19.9548C34.6048 16.0971 33.6734 12.2 31.5131 8.97006" stroke="#f3c401" stroke-width="2.5" stroke-linecap="round" stroke-linejoin="round"/>
</svg>
