<svg width="28" height="28" viewBox="0 0 28 28" fill="none" xmlns="http://www.w3.org/2000/svg">
<rect width="28" height="28" rx="6" fill="#FFEDBE"/>
<path d="M23.3083 14.7898C23.1676 13.2113 22.936 12.9039 22.8485 12.7883C22.6473 12.5211 22.3255 12.3465 21.9848 12.1633C21.9656 12.1531 21.9489 12.1386 21.9362 12.1209C21.9236 12.1031 21.9152 12.0827 21.9117 12.0612C21.9083 12.0397 21.9099 12.0177 21.9164 11.9969C21.9229 11.9761 21.9342 11.9571 21.9493 11.9414C22.0124 11.8774 22.0608 11.8006 22.0914 11.7161C22.1219 11.6316 22.1338 11.5415 22.1262 11.452C22.1115 11.2932 22.0377 11.1458 21.9194 11.0389C21.8011 10.932 21.647 10.8735 21.4876 10.875H20.8782C20.8521 10.8752 20.826 10.8769 20.8001 10.8801C20.7823 10.8724 20.7638 10.8662 20.745 10.8617C20.384 10.0988 19.8899 9.0543 18.8657 8.54453C17.3465 7.78906 14.5481 7.75 14.0012 7.75C13.4544 7.75 10.6559 7.78906 9.13873 8.54336C8.11451 9.05312 7.62037 10.0977 7.25944 10.8605L7.25631 10.8668C7.23831 10.8693 7.22063 10.8738 7.20358 10.8801C7.17766 10.8769 7.15157 10.8752 7.12545 10.875H6.5149C6.35549 10.8735 6.20134 10.932 6.08304 11.0389C5.96474 11.1458 5.89092 11.2932 5.87623 11.452C5.86929 11.5413 5.88172 11.631 5.91267 11.7151C5.94361 11.7992 5.99234 11.8756 6.05553 11.9391C6.07065 11.9548 6.08191 11.9737 6.08843 11.9945C6.09495 12.0153 6.09655 12.0374 6.0931 12.0589C6.08966 12.0804 6.08126 12.1008 6.06857 12.1185C6.05588 12.1362 6.03925 12.1508 6.01998 12.1609C5.67936 12.3453 5.35592 12.5199 5.15631 12.7859C5.06881 12.9031 4.83756 13.209 4.69654 14.7875C4.61842 15.6758 4.6067 16.5953 4.66803 17.1875C4.79654 18.418 5.03756 19.1617 5.04772 19.1926C5.0847 19.3049 5.15278 19.4044 5.24405 19.4795C5.33532 19.5547 5.44603 19.6024 5.56334 19.6172V19.625C5.56334 19.7908 5.62919 19.9497 5.7464 20.0669C5.86361 20.1842 6.02258 20.25 6.18834 20.25H8.37584C8.5416 20.25 8.70057 20.1842 8.81778 20.0669C8.93499 19.9497 9.00084 19.7908 9.00084 19.625C9.33717 19.625 9.57115 19.5648 9.8192 19.5008C10.1773 19.4043 10.5434 19.3401 10.913 19.309C12.1047 19.1953 13.2899 19.1562 14.0012 19.1562C14.6981 19.1562 15.9356 19.1953 17.1294 19.309C17.5004 19.3402 17.8679 19.4046 18.2274 19.5016C18.4649 19.5625 18.6903 19.6187 19.0024 19.6246C19.0024 19.7904 19.0683 19.9493 19.1855 20.0666C19.3027 20.1838 19.4616 20.2496 19.6274 20.2496H21.8149C21.9807 20.2496 22.1396 20.1838 22.2568 20.0666C22.3741 19.9493 22.4399 19.7904 22.4399 19.6246V19.6199C22.5575 19.6054 22.6685 19.5578 22.7601 19.4827C22.8517 19.4075 22.92 19.3078 22.9571 19.1953C22.9672 19.1645 23.2083 18.4207 23.3368 17.1902C23.3981 16.5977 23.3872 15.6797 23.3083 14.7898ZM8.38912 11.3949C8.70162 10.7309 9.05904 9.9793 9.69537 9.6625C10.6149 9.20469 12.5208 8.99844 14.0012 8.99844C15.4817 8.99844 17.3876 9.20313 18.3071 9.6625C18.9434 9.9793 19.2993 10.7312 19.6133 11.3949L19.6524 11.4797C19.6752 11.5279 19.6853 11.5812 19.6817 11.6345C19.6781 11.6878 19.6609 11.7392 19.6318 11.784C19.6026 11.8287 19.5625 11.8652 19.5153 11.8901C19.468 11.9149 19.4152 11.9272 19.3618 11.9258C18.0637 11.8906 15.3294 11.7781 14.0012 11.7781C12.6731 11.7781 9.93873 11.8934 8.63873 11.9285C8.58536 11.9299 8.53252 11.9176 8.48526 11.8928C8.43799 11.868 8.39787 11.8314 8.36873 11.7867C8.33958 11.742 8.32239 11.6905 8.31878 11.6372C8.31517 11.584 8.32526 11.5307 8.34811 11.4824C8.36178 11.4535 8.37623 11.4242 8.38912 11.3949ZM8.85514 14.5055C8.18319 14.5863 7.50694 14.6263 6.83014 14.625C6.41608 14.625 5.98912 14.5078 5.90983 14.1391C5.85553 13.891 5.86139 13.7516 5.89069 13.6113C5.91529 13.4922 5.95436 13.4055 6.14967 13.375C6.65748 13.2969 6.94147 13.3949 7.77272 13.6398C8.32389 13.802 8.72154 14.018 8.94811 14.1891C9.06178 14.2734 9.00123 14.4938 8.85514 14.5055ZM17.5028 17.7086C16.9887 17.7672 15.9606 17.7457 14.013 17.7457C12.0653 17.7457 11.0376 17.7672 10.5235 17.7086C9.99303 17.6496 9.31686 17.148 9.77858 16.7012C10.086 16.4066 10.8032 16.1863 11.7583 16.0625C12.7133 15.9387 13.1176 15.875 14.009 15.875C14.9005 15.875 15.2637 15.9141 16.2598 16.0629C17.2559 16.2117 18.0087 16.4348 18.2395 16.7016C18.6606 17.1797 18.0329 17.6465 17.5028 17.7109V17.7086ZM22.0926 14.1387C22.0145 14.509 21.5848 14.6246 21.1723 14.6246C20.4826 14.6248 19.7934 14.5849 19.1083 14.5051C18.9887 14.4937 18.9333 14.284 19.0544 14.1887C19.2774 14.0133 19.6794 13.8016 20.2297 13.6395C21.061 13.3945 21.5403 13.2965 21.952 13.3781C22.0524 13.398 22.1055 13.5059 22.1118 13.5734C22.1393 13.7616 22.1328 13.9532 22.0926 14.1391V14.1387Z" fill="#F5B000"/>
</svg>
