<svg xmlns="http://www.w3.org/2000/svg" width="104.829" height="82" viewBox="0 0 104.829 82"><g id="Group_538" data-name="Group 538" transform="translate(-966.983 -2090.382)"><g id="Group_506" data-name="Group 506" transform="translate(968 2130.407)"><path id="Path_449" data-name="Path 449" d="M90.391,246.075l-23.566,0a4.613,4.613,0,1,1,0-9.227l18.424-.89L97.5,229.1a11.657,11.657,0,0,1,5.685-1.481h16.035v23.264a25.659,25.659,0,0,0-9.49,2.873L97.6,260.994a25.03,25.03,0,0,1-23.143,1.31c-.009,0-36.735-16.905-36.735-16.905l-.073-.03a4.328,4.328,0,0,1-2.1-6.238,4.41,4.41,0,0,1,5.346-1.693c.01,0,18.74,6.428,24.747,8.484m58.211,6.052a2.315,2.315,0,0,0,2.318,2.3h11.592V223.554H126.174a2.315,2.315,0,0,0-2.318,2.307Zm6.955-23.806a2.307,2.307,0,1,1-2.318,2.307,2.314,2.314,0,0,1,2.318-2.307" transform="translate(-34.953 -223.554)" fill="#fff" stroke="#42454a" stroke-linecap="round" stroke-linejoin="round" stroke-width="2"></path><path id="Path_450" data-name="Path 450" d="M90.391,246.075l-23.566,0a4.613,4.613,0,1,1,0-9.227l18.424-.89L97.5,229.1a11.657,11.657,0,0,1,5.685-1.481h16.035v23.264a25.659,25.659,0,0,0-9.49,2.873L97.6,260.994a25.03,25.03,0,0,1-23.143,1.31c-.009,0-36.735-16.905-36.735-16.905l-.073-.03a4.328,4.328,0,0,1-2.1-6.238,4.41,4.41,0,0,1,5.346-1.693c.01,0,18.74,6.428,24.747,8.484m58.211,6.052a2.315,2.315,0,0,0,2.318,2.3h11.592V223.554H126.174a2.315,2.315,0,0,0-2.318,2.307Zm6.955-23.806a2.307,2.307,0,1,1-2.318,2.307A2.314,2.314,0,0,1,130.81,228.167Z" transform="translate(-34.953 -223.554)" fill="#fff" stroke="#42454a" stroke-linecap="round" stroke-linejoin="round" stroke-width="2"></path></g><g id="Group_520" data-name="Group 520" transform="translate(971.867 2091.382)"><path id="Path_466" data-name="Path 466" d="M580.8,240.486l.1-.052a15.552,15.552,0,0,1,3.167-1.347,25.786,25.786,0,0,1,15.776,0,15.572,15.572,0,0,1,3.167,1.347l.1.052a13.112,13.112,0,0,1,6.154,11.092v2.681a4.56,4.56,0,0,1-4.476,4.626h-25.67a4.56,4.56,0,0,1-4.476-4.626v-2.681A13.114,13.114,0,0,1,580.8,240.486Z" transform="translate(-574.645 -214.445)" fill="#fff" stroke="#42454a" stroke-linecap="round" stroke-linejoin="round" stroke-width="2"></path><path id="Path_467" data-name="Path 467" d="M592.218,214.045a9.826,9.826,0,0,1,8.537,5.006,10.189,10.189,0,0,1,0,9.955,9.782,9.782,0,0,1-17.075,0,10.189,10.189,0,0,1,0-9.955A9.825,9.825,0,0,1,592.218,214.045Z" transform="translate(-574.905 -213.638)" fill="#fff" stroke="#ff4250" stroke-linecap="round" stroke-linejoin="round" stroke-width="2"></path><path id="Path_468" data-name="Path 468" d="M588.8,225.278a3.635,3.635,0,0,0,7.27,0" transform="translate(-575.125 -214.019)" fill="#fff" stroke="#42454a" stroke-linecap="round" stroke-linejoin="round" stroke-width="2"></path><g id="Group_503" data-name="Group 503" transform="translate(40.637 7.058)"><path id="Path_445" data-name="Path 445" d="M168.793,197.725h35.492l-4.759,18.031H172.265" transform="translate(-168.793 -197.725)" fill="#fff" stroke="#42454a" stroke-linecap="round" stroke-linejoin="round" stroke-width="2"></path></g><path id="Path_446" data-name="Path 446" d="M249.411,207.511l-4.442-25.089h-5.877" transform="translate(-205.702 -182.421)" fill="none" stroke="#42454a" stroke-linecap="round" stroke-linejoin="round" stroke-width="2"></path><g id="Group_504" data-name="Group 504" transform="translate(47.461 31.491)"><ellipse id="Ellipse_5" data-name="Ellipse 5" cx="2.993" cy="2.993" rx="2.993" ry="2.993" transform="translate(0)" fill="#fff" stroke="#42454a" stroke-linecap="round" stroke-linejoin="round" stroke-width="2"></ellipse><ellipse id="Ellipse_6" data-name="Ellipse 6" cx="2.993" cy="2.993" rx="2.993" ry="2.993" transform="translate(12.008)" fill="#fff" stroke="#42454a" stroke-linecap="round" stroke-linejoin="round" stroke-width="2"></ellipse></g><path id="Path_447" data-name="Path 447" d="M183.573,236.823a2.048,2.048,0,0,0,0,4.1h27.067" transform="translate(-140.386 -211.733)" fill="none" stroke="#42454a" stroke-linecap="round" stroke-linejoin="round" stroke-width="2"></path></g></g></svg>