<svg width="460" height="302" viewBox="0 0 460 302" fill="none" xmlns="http://www.w3.org/2000/svg">
<g filter="url(#filter0_f_4888_49166)">
<path d="M448 139.5C448 214.594 386.009 275.5 309.5 275.5C232.991 275.5 171 214.594 171 139.5C171 64.4062 232.991 3.5 309.5 3.5C386.009 3.5 448 64.4062 448 139.5Z" stroke="#EAF3FE" stroke-width="2"/>
</g>
<g filter="url(#filter1_f_4888_49166)">
<path d="M427 231C427 246.756 414.448 259.5 399 259.5C383.552 259.5 371 246.756 371 231C371 215.244 383.552 202.5 399 202.5C414.448 202.5 427 215.244 427 231Z" stroke="#FFEEC2" stroke-width="2"/>
</g>
<path d="M46.7248 191.668C38.4919 191.668 31.7559 184.932 31.7559 176.699V52.4572C31.7559 44.2243 38.4919 37.4883 46.7248 37.4883H257.787C266.02 37.4883 272.756 44.2243 272.756 52.4572V176.699C272.756 184.932 266.02 191.668 257.787 191.668H46.7248Z" fill="#0165E1"/>
<path d="M267.766 49.9624V174.205C267.766 180.941 262.278 186.679 255.292 186.679H44.23C37.2445 186.679 31.7559 181.19 31.7559 174.205V49.9624C31.7559 43.2264 37.2445 37.4883 44.23 37.4883H255.292C262.278 37.4883 267.766 43.2264 267.766 49.9624Z" fill="#E6F0FC" stroke="#0165E1" stroke-width="0.25" stroke-miterlimit="10"/>
<path d="M83.8977 37.4883L31.7559 89.6301V46.9686C31.7559 41.7295 35.9971 37.7378 40.9867 37.7378H83.8977V37.4883Z" fill="#0165E1"/>
<path d="M237.58 73.917C244.469 73.917 250.054 68.3321 250.054 61.4429C250.054 54.5536 244.469 48.9688 237.58 48.9688C230.69 48.9688 225.105 54.5536 225.105 61.4429C225.105 68.3321 230.69 73.917 237.58 73.917Z" fill="#0165E1"/>
<path d="M252.551 140.276H222.863C220.118 140.276 217.873 138.031 217.873 135.287V92.1264C217.873 89.3821 220.118 87.1367 222.863 87.1367H252.551C255.295 87.1367 257.541 89.3821 257.541 92.1264V135.287C257.541 138.031 255.295 140.276 252.551 140.276Z" fill="#CCE0F9"/>
<path opacity="0.4" d="M123.067 58.9433H176.457C178.951 58.9433 180.698 56.9475 180.698 54.7021C180.698 52.2073 178.702 50.4609 176.457 50.4609H123.067C120.573 50.4609 118.826 52.4568 118.826 54.7021C118.826 56.9475 120.573 58.9433 123.067 58.9433Z" fill="#4E94EA"/>
<path d="M77.1608 116.326H61.9424C54.9569 116.326 49.2188 110.588 49.2188 103.602V97.8642C49.2188 90.8787 54.9569 85.1406 61.9424 85.1406H77.1608C84.1463 85.1406 89.8844 90.8787 89.8844 97.8642V103.602C89.8844 110.588 84.1463 116.326 77.1608 116.326Z" fill="#0165E1"/>
<mask id="mask0_4888_49166" style="mask-type:luminance" maskUnits="userSpaceOnUse" x="49" y="85" width="41" height="32">
<path d="M77.4122 116.326H61.6948C54.7093 116.326 49.2207 110.837 49.2207 103.852V97.6147C49.2207 90.6292 54.7093 85.1406 61.6948 85.1406H77.4122C84.3977 85.1406 89.8863 90.6292 89.8863 97.6147V103.852C89.8863 110.588 84.1482 116.326 77.4122 116.326Z" fill="white"/>
</mask>
<g mask="url(#mask0_4888_49166)">
<path d="M59.4492 84.8945H60.6966V116.08H59.4492V84.8945Z" fill="#CCE0F9"/>
<path d="M49.2207 109.096H89.8863V110.343H49.2207V109.096ZM49.2207 91.1328H89.8863V92.3802H49.2207V91.1328ZM49.2207 97.1204H60.1979V98.3678H49.2207V97.1204ZM49.2207 103.108H60.1979V104.355H49.2207V103.108Z" fill="#CCE0F9"/>
<path d="M79.9081 109.592H78.9102V97.6172H89.8874V98.8646H79.9081V109.592Z" fill="#CCE0F9"/>
<path d="M79.4106 103.356H89.6394V104.604H79.4106V103.356ZM66.9365 84.8945H68.1839V91.6306H66.9365V84.8945ZM73.6725 84.8945H74.9199V91.6306H73.6725V84.8945ZM80.4085 84.8945H81.6559V91.6306H80.4085V84.8945ZM66.4375 109.593H67.6849V116.08H66.4375V109.593ZM73.423 109.593H74.6704V116.08H73.423V109.593ZM78.9116 109.593H80.159V116.08H78.9116V109.593Z" fill="#CCE0F9"/>
</g>
<path d="M44.9783 106.346L39.2402 100.857V100.608L44.9783 95.119C45.2278 94.8695 45.4773 95.119 45.4773 95.3684V106.595C45.4773 106.346 45.2278 106.595 44.9783 106.346Z" fill="#0165E1"/>
<path d="M113.838 171.961H53.713C49.4718 171.961 46.2285 168.718 46.2285 164.477V160.734C46.2285 156.493 49.4718 153.25 53.713 153.25H113.838C118.079 153.25 121.323 156.493 121.323 160.734V164.477C121.323 168.468 118.079 171.961 113.838 171.961Z" fill="#CCE0F9"/>
<path d="M201.906 74.9102H149.764M201.906 88.6317H132.051M201.906 102.353H149.764M201.906 116.075H143.028M201.906 129.796H135.793M201.906 143.268H156.75" stroke="#0165E1" stroke-miterlimit="10" stroke-linecap="round"/>
<path d="M118.327 133.542H49.4704C47.724 133.542 46.4766 132.045 46.4766 130.548C46.4766 128.802 47.9735 127.555 49.4704 127.555H118.327C120.074 127.555 121.321 129.052 121.321 130.548C121.321 132.045 120.074 133.542 118.327 133.542ZM80.6557 143.272H49.4704C47.724 143.272 46.4766 141.775 46.4766 140.278C46.4766 138.532 47.9735 137.285 49.4704 137.285H80.6557C82.402 137.285 83.6494 138.781 83.6494 140.278C83.8989 142.025 82.402 143.272 80.6557 143.272Z" fill="#CCE0F9"/>
<path d="M229.592 301.164C355.287 301.164 457.183 294.058 457.183 285.293C457.183 276.528 355.287 269.422 229.592 269.422C103.896 269.422 2 276.528 2 285.293C2 294.058 103.896 301.164 229.592 301.164Z" fill="#F0F0F0"/>
<g filter="url(#filter2_f_4888_49166)">
<ellipse cx="358.756" cy="277.488" rx="6" ry="2" fill="#A7A7A7"/>
</g>
<path d="M353.756 122.488C353.756 120.831 355.099 119.488 356.756 119.488H360.756C362.413 119.488 363.756 120.831 363.756 122.488V275.488C363.756 277.145 362.413 278.488 360.756 278.488H356.756C355.099 278.488 353.756 277.145 353.756 275.488V122.488Z" fill="#505050"/>
<path d="M355.295 120.258C355.295 119.833 355.639 119.488 356.064 119.488C356.489 119.488 356.833 119.833 356.833 120.258V277.719C356.833 278.144 356.489 278.488 356.064 278.488C355.639 278.488 355.295 278.144 355.295 277.719V120.258Z" fill="#707070"/>
<circle cx="358.756" cy="116.488" r="40" fill="white"/>
<path fill-rule="evenodd" clipRule="evenodd" d="M354.087 101.3C354.087 101.3 351.029 102.356 349.057 103.037C348.823 103.118 348.563 103.039 348.412 102.843C348.261 102.646 348.253 102.375 348.392 102.169C350.801 98.6081 356.977 89.4766 358.448 87.3018C358.519 87.1962 358.638 87.133 358.766 87.1328C358.893 87.1328 359.012 87.1962 359.084 87.3016C360.554 89.4725 366.717 98.5764 369.121 102.126C369.259 102.332 369.251 102.602 369.101 102.799C368.951 102.996 368.691 103.074 368.457 102.994C366.517 102.33 363.537 101.309 363.537 101.309L363.445 145.722L353.994 145.704L354.087 101.3Z" fill="#505050"/>
<path fill-rule="evenodd" clipRule="evenodd" d="M358.755 76.1836C381 76.1836 399.06 94.2433 399.06 116.488C399.06 138.732 381 156.792 358.755 156.792C336.511 156.792 318.451 138.732 318.451 116.488C318.451 94.2433 336.511 76.1836 358.755 76.1836ZM358.755 83.0562C377.207 83.0562 392.187 98.0364 392.187 116.488C392.187 134.939 377.207 149.919 358.755 149.919C340.304 149.919 325.324 134.939 325.324 116.488C325.324 98.0364 340.304 83.0562 358.755 83.0562Z" fill="#E14856"/>
<path fill-rule="evenodd" clipRule="evenodd" d="M331.872 88.1016L327.051 93.6112L385.638 144.877L390.459 139.368L331.872 88.1016Z" fill="#E14856"/>
<path d="M84.8452 264.59L147.535 266.64H286.205L346.035 263.6V250.53L338.365 239.45L317.505 232.08L291.035 239.45L280.535 249.36L161.795 250.53L138.535 233.58L120.355 227.02L93.7052 233.91L87.2052 245.83L83.3652 257.83L84.8452 264.59Z" fill="#263238"/>
<path opacity="0.6" d="M84.8452 264.59L147.535 266.64H286.205L346.035 263.6V250.53L338.365 239.45L317.505 232.08L291.035 239.45L280.535 249.36L161.795 250.53L138.535 233.58L120.355 227.02L93.7052 233.91L87.2052 245.83L83.3652 257.83L84.8452 264.59Z" fill="black"/>
<path d="M88.4955 254.679C90.7555 249.209 99.6155 240.109 105.066 237.829C110.366 235.609 122.946 235.189 128.066 237.829C133.466 240.619 140.296 251.829 142.146 257.639C142.826 259.779 142.626 264.919 142.406 268.309L290.406 269.869C290.096 265.759 289.886 260.089 290.856 257.719C293.096 252.259 301.976 243.159 307.426 240.879C312.726 238.649 325.306 238.239 330.426 240.879C335.826 243.659 342.666 254.879 344.516 260.689C344.962 262.903 345.11 265.166 344.956 267.419C346.091 266.584 347.101 265.59 347.956 264.469L349.346 262.589C351.203 260.088 352.206 257.055 352.206 253.939V249.109C352.205 246.447 351.475 243.836 350.096 241.559L346.536 235.709V195.949C346.537 193.993 346.142 192.058 345.376 190.259L331.156 156.829C330.073 154.283 328.285 152.099 326.004 150.535C323.722 148.971 321.041 148.091 318.276 147.999C303.006 147.479 273.046 146.579 260.876 146.999C243.176 147.599 195.716 152.439 181.566 153.909C178.953 154.182 176.498 155.29 174.566 157.069L132.566 195.669L90.7556 213.859C89.0105 214.627 87.4689 215.791 86.2536 217.26C85.0383 218.729 84.1829 220.461 83.7555 222.319L79.8155 239.319L78.5056 241.029C76.567 243.57 75.6953 246.766 76.0755 249.939L76.8855 256.559C77.2696 259.697 78.8537 262.564 81.3056 264.559L81.8255 264.979C83.6251 266.448 85.8078 267.371 88.1156 267.639C87.7556 263.519 87.4555 257.199 88.4955 254.679Z" fill="#4E94EA"/>
<path d="M114.635 287.34C127.199 287.34 137.385 277.154 137.385 264.59C137.385 252.025 127.199 241.84 114.635 241.84C102.07 241.84 91.8848 252.025 91.8848 264.59C91.8848 277.154 102.07 287.34 114.635 287.34Z" fill="#263238"/>
<path opacity="0.5" d="M114.635 280.438C123.389 280.438 130.485 273.342 130.485 264.588C130.485 255.835 123.389 248.738 114.635 248.738C105.881 248.738 98.7852 255.835 98.7852 264.588C98.7852 273.342 105.881 280.438 114.635 280.438Z" fill="white"/>
<g opacity="0.5">
<path d="M108.757 259.372L107.657 256.072C107.541 255.719 107.335 255.403 107.059 255.154C106.784 254.905 106.448 254.733 106.085 254.654C105.722 254.575 105.345 254.593 104.991 254.704C104.637 254.816 104.318 255.019 104.067 255.292C102.83 256.691 101.885 258.323 101.287 260.092C101.174 260.447 101.157 260.826 101.236 261.19C101.316 261.554 101.488 261.891 101.738 262.168C101.988 262.445 102.305 262.652 102.659 262.768C103.013 262.885 103.391 262.906 103.757 262.832L107.157 262.142C107.453 262.082 107.734 261.96 107.98 261.784C108.226 261.607 108.431 261.381 108.583 261.119C108.734 260.856 108.828 260.565 108.858 260.264C108.888 259.963 108.853 259.659 108.757 259.372Z" fill="black"/>
<path d="M116.237 256.921L118.537 254.311C118.786 254.036 118.958 253.701 119.036 253.339C119.115 252.977 119.097 252.601 118.985 252.247C118.872 251.894 118.669 251.577 118.396 251.327C118.123 251.076 117.789 250.902 117.427 250.821C115.587 250.435 113.687 250.435 111.847 250.821C111.487 250.905 111.156 251.081 110.885 251.332C110.614 251.584 110.414 251.901 110.303 252.254C110.193 252.607 110.177 252.982 110.257 253.343C110.336 253.704 110.509 254.038 110.757 254.311L113.067 256.921C113.266 257.145 113.51 257.324 113.784 257.447C114.057 257.57 114.353 257.633 114.652 257.633C114.952 257.633 115.248 257.57 115.521 257.447C115.794 257.324 116.038 257.145 116.237 256.921Z" fill="black"/>
<path d="M122.066 262.11L125.476 262.8C125.841 262.876 126.22 262.855 126.574 262.739C126.928 262.622 127.245 262.415 127.494 262.138C127.743 261.861 127.915 261.523 127.993 261.158C128.07 260.794 128.051 260.415 127.936 260.06C127.342 258.292 126.4 256.66 125.166 255.26C124.915 254.987 124.596 254.785 124.242 254.673C123.888 254.561 123.511 254.544 123.148 254.623C122.785 254.702 122.449 254.874 122.174 255.123C121.898 255.371 121.692 255.688 121.576 256.04L120.466 259.34C120.371 259.627 120.338 259.931 120.368 260.232C120.399 260.532 120.493 260.823 120.644 261.085C120.795 261.346 121 261.573 121.245 261.75C121.491 261.927 121.77 262.05 122.066 262.11Z" fill="black"/>
<path d="M120.466 269.801L121.576 273.101C121.692 273.454 121.898 273.771 122.174 274.019C122.449 274.268 122.785 274.44 123.148 274.519C123.511 274.598 123.888 274.581 124.242 274.469C124.596 274.357 124.915 274.154 125.166 273.881C126.4 272.482 127.342 270.85 127.936 269.081C128.051 268.727 128.07 268.348 127.993 267.984C127.915 267.619 127.743 267.281 127.494 267.004C127.245 266.727 126.928 266.519 126.574 266.403C126.22 266.287 125.841 266.266 125.476 266.341L122.066 267.031C121.77 267.092 121.491 267.215 121.245 267.392C121 267.569 120.795 267.795 120.644 268.057C120.493 268.319 120.399 268.61 120.368 268.91C120.338 269.211 120.371 269.515 120.466 269.801Z" fill="black"/>
<path d="M113.036 272.251L110.756 274.861C110.508 275.136 110.336 275.472 110.258 275.835C110.18 276.198 110.199 276.574 110.312 276.928C110.426 277.281 110.63 277.598 110.904 277.848C111.179 278.098 111.514 278.271 111.876 278.351C113.716 278.737 115.616 278.737 117.456 278.351C117.818 278.27 118.152 278.095 118.425 277.845C118.698 277.595 118.901 277.277 119.013 276.924C119.126 276.571 119.143 276.195 119.065 275.833C118.987 275.471 118.815 275.135 118.566 274.861L116.266 272.251C116.067 272.017 115.82 271.829 115.541 271.7C115.262 271.571 114.958 271.504 114.651 271.504C114.344 271.504 114.04 271.571 113.762 271.7C113.483 271.829 113.235 272.017 113.036 272.251Z" fill="black"/>
<path d="M107.196 267.032L103.796 266.342C103.428 266.265 103.046 266.286 102.688 266.404C102.33 266.522 102.01 266.732 101.76 267.013C101.509 267.294 101.337 267.636 101.261 268.004C101.185 268.373 101.207 268.755 101.326 269.112C101.925 270.881 102.87 272.513 104.106 273.912C104.358 274.185 104.677 274.388 105.031 274.5C105.385 274.612 105.762 274.629 106.125 274.55C106.487 274.471 106.823 274.299 107.099 274.05C107.375 273.802 107.581 273.485 107.696 273.132L108.796 269.832C108.898 269.544 108.937 269.237 108.909 268.932C108.882 268.627 108.789 268.332 108.637 268.066C108.485 267.8 108.278 267.571 108.029 267.392C107.781 267.214 107.497 267.091 107.196 267.032Z" fill="black"/>
</g>
<g opacity="0.5">
<path d="M112.576 263.601C113.167 263.601 113.646 263.122 113.646 262.531C113.646 261.94 113.167 261.461 112.576 261.461C111.985 261.461 111.506 261.94 111.506 262.531C111.506 263.122 111.985 263.601 112.576 263.601Z" fill="white"/>
<path d="M117.755 262.531C117.755 262.743 117.692 262.949 117.575 263.125C117.457 263.301 117.29 263.438 117.095 263.519C116.899 263.6 116.684 263.622 116.476 263.58C116.269 263.539 116.078 263.437 115.929 263.288C115.779 263.138 115.677 262.947 115.636 262.74C115.595 262.532 115.616 262.317 115.697 262.121C115.778 261.926 115.915 261.759 116.091 261.641C116.267 261.524 116.474 261.461 116.685 261.461C116.969 261.461 117.241 261.574 117.442 261.774C117.643 261.975 117.755 262.247 117.755 262.531Z" fill="white"/>
<path d="M113.646 266.64C113.646 266.852 113.583 267.059 113.466 267.235C113.348 267.411 113.181 267.548 112.985 267.629C112.79 267.71 112.575 267.731 112.367 267.69C112.16 267.648 111.969 267.547 111.819 267.397C111.67 267.247 111.568 267.057 111.526 266.849C111.485 266.642 111.506 266.426 111.587 266.231C111.668 266.035 111.805 265.868 111.981 265.751C112.157 265.633 112.364 265.57 112.576 265.57C112.86 265.57 113.132 265.683 113.332 265.884C113.533 266.084 113.646 266.357 113.646 266.64Z" fill="white"/>
<path d="M117.755 266.64C117.755 266.852 117.692 267.059 117.575 267.235C117.457 267.411 117.29 267.548 117.095 267.629C116.899 267.71 116.684 267.731 116.476 267.69C116.269 267.648 116.078 267.547 115.929 267.397C115.779 267.247 115.677 267.057 115.636 266.849C115.595 266.642 115.616 266.426 115.697 266.231C115.778 266.035 115.915 265.868 116.091 265.751C116.267 265.633 116.474 265.57 116.685 265.57C116.969 265.57 117.241 265.683 117.442 265.884C117.643 266.084 117.755 266.357 117.755 266.64Z" fill="white"/>
</g>
<path d="M318.496 287.34C331.061 287.34 341.246 277.154 341.246 264.59C341.246 252.025 331.061 241.84 318.496 241.84C305.932 241.84 295.746 252.025 295.746 264.59C295.746 277.154 305.932 287.34 318.496 287.34Z" fill="#263238"/>
<path opacity="0.5" d="M318.496 280.438C327.25 280.438 334.346 273.342 334.346 264.588C334.346 255.835 327.25 248.738 318.496 248.738C309.743 248.738 302.646 255.835 302.646 264.588C302.646 273.342 309.743 280.438 318.496 280.438Z" fill="white"/>
<g opacity="0.5">
<path d="M312.655 259.372L311.555 256.072C311.439 255.719 311.233 255.403 310.958 255.154C310.682 254.905 310.346 254.733 309.983 254.654C309.62 254.575 309.243 254.593 308.889 254.704C308.535 254.816 308.217 255.019 307.965 255.292C306.729 256.691 305.783 258.323 305.185 260.092C305.073 260.447 305.056 260.826 305.135 261.19C305.214 261.554 305.387 261.891 305.636 262.168C305.886 262.445 306.203 262.652 306.558 262.768C306.912 262.885 307.29 262.906 307.655 262.832L311.055 262.142C311.352 262.082 311.632 261.96 311.878 261.784C312.124 261.607 312.33 261.381 312.481 261.119C312.633 260.856 312.727 260.565 312.756 260.264C312.786 259.963 312.752 259.659 312.655 259.372Z" fill="black"/>
<path d="M320.094 256.921L322.394 254.311C322.643 254.036 322.815 253.701 322.893 253.339C322.972 252.977 322.954 252.601 322.841 252.247C322.729 251.894 322.526 251.577 322.253 251.327C321.98 251.076 321.646 250.902 321.284 250.821C319.444 250.435 317.544 250.435 315.704 250.821C315.342 250.901 315.007 251.074 314.732 251.324C314.458 251.573 314.254 251.891 314.14 252.244C314.027 252.597 314.008 252.974 314.086 253.337C314.164 253.7 314.336 254.036 314.584 254.311L316.894 256.921C317.093 257.15 317.339 257.334 317.615 257.459C317.891 257.585 318.191 257.65 318.494 257.65C318.798 257.65 319.097 257.585 319.373 257.459C319.65 257.334 319.895 257.15 320.094 256.921Z" fill="black"/>
<path d="M325.925 262.111L329.335 262.801C329.691 262.865 330.058 262.837 330.401 262.719C330.744 262.601 331.05 262.398 331.293 262.129C331.535 261.86 331.705 261.533 331.785 261.18C331.866 260.827 331.856 260.459 331.755 260.111C331.161 258.343 330.219 256.711 328.985 255.311C328.733 255.038 328.415 254.836 328.061 254.724C327.707 254.612 327.329 254.595 326.967 254.674C326.604 254.752 326.268 254.925 325.992 255.173C325.717 255.422 325.511 255.738 325.395 256.091L324.285 259.391C324.198 259.678 324.173 259.979 324.21 260.276C324.247 260.573 324.346 260.859 324.501 261.116C324.655 261.372 324.862 261.593 325.107 261.765C325.353 261.936 325.631 262.054 325.925 262.111Z" fill="black"/>
<path d="M324.325 269.803L325.435 273.103C325.551 273.455 325.757 273.772 326.032 274.02C326.308 274.269 326.644 274.441 327.007 274.52C327.37 274.599 327.747 274.582 328.101 274.47C328.455 274.358 328.773 274.156 329.025 273.883C330.241 272.489 331.169 270.867 331.755 269.113C331.87 268.758 331.889 268.379 331.811 268.015C331.734 267.65 331.562 267.312 331.313 267.035C331.064 266.758 330.747 266.551 330.392 266.434C330.038 266.318 329.66 266.297 329.295 266.373L325.885 267.063C325.596 267.129 325.324 267.254 325.086 267.431C324.848 267.608 324.65 267.832 324.503 268.09C324.356 268.347 324.265 268.633 324.234 268.928C324.203 269.222 324.234 269.52 324.325 269.803Z" fill="black"/>
<path d="M316.894 272.253L314.584 274.863C314.336 275.138 314.164 275.474 314.086 275.837C314.008 276.2 314.027 276.576 314.14 276.93C314.254 277.283 314.458 277.6 314.732 277.85C315.007 278.1 315.342 278.273 315.704 278.353C317.544 278.739 319.444 278.739 321.284 278.353C321.646 278.272 321.98 278.097 322.253 277.847C322.526 277.597 322.729 277.279 322.841 276.926C322.954 276.573 322.972 276.197 322.893 275.835C322.815 275.473 322.643 275.138 322.394 274.863L320.094 272.253C319.895 272.024 319.65 271.84 319.373 271.714C319.097 271.589 318.798 271.523 318.494 271.523C318.191 271.523 317.891 271.589 317.615 271.714C317.339 271.84 317.093 272.024 316.894 272.253Z" fill="black"/>
<path d="M311.055 267.03L307.655 266.34C307.29 266.266 306.912 266.288 306.558 266.404C306.203 266.52 305.886 266.727 305.636 267.004C305.387 267.281 305.214 267.618 305.135 267.982C305.056 268.346 305.073 268.725 305.185 269.08C305.783 270.849 306.729 272.481 307.965 273.88C308.217 274.153 308.535 274.356 308.889 274.468C309.243 274.579 309.62 274.597 309.983 274.518C310.346 274.439 310.682 274.267 310.958 274.018C311.233 273.77 311.439 273.453 311.555 273.1L312.655 269.8C312.752 269.514 312.786 269.209 312.756 268.908C312.727 268.607 312.633 268.316 312.481 268.054C312.33 267.791 312.124 267.565 311.878 267.388C311.632 267.212 311.352 267.09 311.055 267.03Z" fill="black"/>
</g>
<g opacity="0.5">
<path d="M317.505 262.531C317.505 262.743 317.442 262.949 317.325 263.125C317.207 263.301 317.04 263.438 316.845 263.519C316.649 263.6 316.434 263.622 316.226 263.58C316.019 263.539 315.828 263.437 315.679 263.288C315.529 263.138 315.427 262.947 315.386 262.74C315.345 262.532 315.366 262.317 315.447 262.121C315.528 261.926 315.665 261.759 315.841 261.641C316.017 261.524 316.224 261.461 316.435 261.461C316.719 261.461 316.991 261.574 317.192 261.774C317.393 261.975 317.505 262.247 317.505 262.531Z" fill="white"/>
<path d="M320.545 263.601C321.136 263.601 321.615 263.122 321.615 262.531C321.615 261.94 321.136 261.461 320.545 261.461C319.954 261.461 319.475 261.94 319.475 262.531C319.475 263.122 319.954 263.601 320.545 263.601Z" fill="white"/>
<path d="M317.505 266.64C317.505 266.852 317.442 267.059 317.325 267.235C317.207 267.411 317.04 267.548 316.845 267.629C316.649 267.71 316.434 267.731 316.226 267.69C316.019 267.648 315.828 267.547 315.679 267.397C315.529 267.247 315.427 267.057 315.386 266.849C315.345 266.642 315.366 266.426 315.447 266.231C315.528 266.035 315.665 265.868 315.841 265.751C316.017 265.633 316.224 265.57 316.435 265.57C316.719 265.57 316.991 265.683 317.192 265.884C317.393 266.084 317.505 266.357 317.505 266.64Z" fill="white"/>
<path d="M321.615 266.64C321.615 266.852 321.552 267.059 321.434 267.235C321.317 267.411 321.15 267.548 320.954 267.629C320.759 267.71 320.543 267.731 320.336 267.69C320.128 267.648 319.938 267.547 319.788 267.397C319.638 267.247 319.536 267.057 319.495 266.849C319.454 266.642 319.475 266.426 319.556 266.231C319.637 266.035 319.774 265.868 319.95 265.751C320.126 265.633 320.333 265.57 320.545 265.57C320.828 265.57 321.101 265.683 321.301 265.884C321.502 266.084 321.615 266.357 321.615 266.64Z" fill="white"/>
</g>
<path d="M173.266 163.54C174.04 162.829 174.504 161.842 174.556 160.792C174.608 159.742 174.245 158.714 173.546 157.93L132.466 195.66L131.266 196.18C131.346 196.28 131.406 196.38 131.496 196.48C132.213 197.26 133.211 197.724 134.271 197.769C135.33 197.814 136.364 197.437 137.146 196.72L173.266 163.54Z" fill="#B1C7E1"/>
<path opacity="0.5" d="M85.3055 241.829C85.2416 241.829 85.1783 241.816 85.1197 241.791C85.0611 241.765 85.0085 241.728 84.9652 241.681C84.9219 241.634 84.8889 241.578 84.8683 241.518C84.8477 241.457 84.8399 241.393 84.8455 241.329L86.7555 221.889C86.7626 221.821 86.7848 221.755 86.8206 221.697C86.8564 221.638 86.9048 221.588 86.9624 221.551C87.0199 221.513 87.085 221.489 87.1531 221.48C87.2211 221.472 87.2903 221.478 87.3555 221.499L89.0955 222.079C90.1465 222.411 91.0363 223.122 91.5911 224.074C92.1458 225.027 92.3256 226.151 92.0955 227.229L89.6955 238.329C89.4825 239.331 88.9283 240.227 88.1276 240.866C87.3269 241.504 86.3294 241.845 85.3055 241.829Z" fill="white"/>
<g opacity="0.2">
<path d="M96.1351 228.992C96.1311 228.795 96.166 228.599 96.2377 228.415C96.3094 228.232 96.4166 228.064 96.5531 227.922C96.6896 227.78 96.8528 227.666 97.0333 227.587C97.2138 227.508 97.4081 227.466 97.6051 227.462L335.275 222.852C335.671 222.849 336.053 223.001 336.339 223.275C336.625 223.55 336.792 223.925 336.805 224.322C336.81 224.72 336.658 225.105 336.381 225.392C336.103 225.678 335.724 225.844 335.325 225.852L97.6651 230.462C97.4677 230.467 97.2713 230.433 97.0872 230.362C96.9031 230.29 96.735 230.183 96.5926 230.047C96.4503 229.91 96.3365 229.746 96.258 229.565C96.1794 229.384 96.1376 229.189 96.1351 228.992Z" fill="white"/>
</g>
<path d="M246.166 200.899L290.396 200.129C291.525 200.11 292.637 199.85 293.658 199.367C294.679 198.883 295.585 198.188 296.316 197.327C297.047 196.465 297.585 195.458 297.896 194.372C298.206 193.286 298.281 192.146 298.116 191.029L293.756 161.269C293.629 160.425 293.208 159.654 292.568 159.09C291.927 158.527 291.109 158.208 290.256 158.189C282.586 158.009 274.896 157.879 268.786 157.879C265.786 157.879 263.256 157.879 261.226 157.979C257.226 158.119 250.916 158.569 243.526 159.189C242.666 159.259 241.859 159.636 241.253 160.251C240.648 160.866 240.283 161.678 240.226 162.539L238.156 192.409C238.08 193.503 238.231 194.601 238.6 195.633C238.97 196.666 239.549 197.611 240.301 198.408C241.054 199.206 241.964 199.839 242.973 200.268C243.982 200.696 245.069 200.911 246.166 200.899Z" fill="#B1C7E1"/>
<path d="M334.916 193.937L320.916 161.137C320.655 160.517 320.221 159.985 319.666 159.604C319.111 159.223 318.459 159.009 317.786 158.987C315.336 158.907 312.216 158.797 308.696 158.697C308.167 158.68 307.641 158.779 307.155 158.987C306.669 159.196 306.234 159.508 305.882 159.903C305.53 160.298 305.269 160.766 305.118 161.273C304.966 161.78 304.928 162.314 305.006 162.837L309.456 192.837C309.752 194.739 310.724 196.471 312.193 197.715C313.663 198.958 315.531 199.63 317.456 199.607L331.096 199.377C331.999 199.383 332.879 199.093 333.602 198.551C334.324 198.01 334.849 197.246 335.096 196.377C335.293 195.565 335.23 194.712 334.916 193.937Z" fill="#B1C7E1"/>
<path d="M225.055 160.839C208.855 162.359 192.415 164.059 185.415 164.839C183.149 165.074 181.02 166.035 179.345 167.579L154.815 190.109C153.766 191.086 153.037 192.357 152.725 193.756C152.413 195.156 152.532 196.616 153.067 197.946C153.602 199.276 154.528 200.413 155.722 201.206C156.916 201.999 158.322 202.412 159.755 202.389L219.205 201.389C221.192 201.356 223.094 200.579 224.535 199.21C225.976 197.842 226.85 195.982 226.985 193.999L228.985 164.709C229.025 164.186 228.951 163.66 228.766 163.168C228.582 162.676 228.293 162.23 227.919 161.862C227.545 161.494 227.094 161.211 226.6 161.035C226.105 160.858 225.578 160.791 225.055 160.839Z" fill="#B1C7E1"/>
<path d="M292.935 208.641L282.605 208.841C282.212 208.849 281.838 209.01 281.563 209.291C281.289 209.571 281.135 209.948 281.135 210.341C281.135 210.54 281.174 210.738 281.252 210.922C281.329 211.106 281.442 211.273 281.585 211.412C281.727 211.552 281.896 211.662 282.082 211.735C282.267 211.809 282.465 211.845 282.665 211.841L292.995 211.641C293.387 211.633 293.761 211.472 294.036 211.191C294.311 210.911 294.465 210.534 294.465 210.141C294.465 209.941 294.425 209.744 294.348 209.56C294.271 209.376 294.157 209.209 294.015 209.07C293.872 208.93 293.703 208.82 293.518 208.746C293.333 208.673 293.134 208.637 292.935 208.641Z" fill="#263238"/>
<path d="M220.465 211.571C220.465 211.371 220.425 211.174 220.348 210.99C220.271 210.806 220.157 210.639 220.015 210.499C219.872 210.36 219.703 210.25 219.518 210.176C219.333 210.102 219.134 210.067 218.935 210.071L208.605 210.271C208.212 210.278 207.838 210.44 207.563 210.72C207.289 211.001 207.135 211.378 207.135 211.771C207.135 211.97 207.174 212.168 207.252 212.352C207.329 212.536 207.442 212.702 207.585 212.842C207.727 212.982 207.896 213.092 208.082 213.165C208.267 213.239 208.465 213.275 208.665 213.271L218.995 213.071C219.388 213.065 219.764 212.905 220.039 212.624C220.314 212.343 220.467 211.964 220.465 211.571Z" fill="#263238"/>
<g opacity="0.2">
<path d="M88.4955 254.678C89.5971 252.331 91.0319 250.155 92.7555 248.218L80.2455 248.458C79.4008 248.471 78.5724 248.226 77.8704 247.756C77.1684 247.286 76.626 246.614 76.3155 245.828C76.0074 247.175 75.9329 248.566 76.0955 249.938L76.9055 256.558C77.2895 259.696 78.8736 262.563 81.3255 264.558L81.8455 264.978C83.645 266.447 85.8277 267.371 88.1355 267.638C87.7555 263.518 87.4555 257.198 88.4955 254.678Z" fill="black"/>
<path d="M290.396 269.868C290.086 265.758 289.876 260.088 290.846 257.718C292.456 253.778 297.536 247.948 302.276 244.148L136.916 247.358C139.064 250.562 140.817 254.014 142.136 257.638C142.816 259.778 142.616 264.918 142.396 268.308L290.396 269.868Z" fill="black"/>
<path d="M344.485 260.689C344.931 262.903 345.079 265.166 344.925 267.419C346.061 266.584 347.071 265.591 347.925 264.469L349.315 262.589C351.173 260.088 352.176 257.055 352.175 253.939V249.109C352.174 246.447 351.445 243.836 350.065 241.559L348.755 239.449C348.689 240.477 348.243 241.443 347.503 242.16C346.764 242.878 345.785 243.294 344.755 243.329L333.865 243.539C338.505 248.497 342.114 254.326 344.485 260.689Z" fill="black"/>
</g>
<g opacity="0.2">
<path d="M151.465 255.869C151.465 255.339 151.676 254.83 152.051 254.455C152.426 254.08 152.934 253.869 153.465 253.869L280.755 251.359C281.285 251.359 281.794 251.57 282.169 251.945C282.544 252.32 282.755 252.829 282.755 253.359C282.755 253.89 282.544 254.399 282.169 254.774C281.794 255.149 281.285 255.359 280.755 255.359L153.405 257.829C152.892 257.814 152.404 257.602 152.043 257.237C151.682 256.872 151.475 256.383 151.465 255.869Z" fill="white"/>
</g>
<path opacity="0.6" d="M161.805 183.648L154.805 190.068C153.74 191.042 152.998 192.318 152.677 193.726C152.357 195.133 152.473 196.604 153.011 197.944C153.549 199.283 154.483 200.426 155.688 201.22C156.893 202.014 158.312 202.422 159.755 202.388H161.825L161.805 183.648Z" fill="#0165E1"/>
<path d="M171.366 185.321H167.836C166.987 185.321 166.173 185.658 165.573 186.258C164.973 186.858 164.636 187.672 164.636 188.521V193.441L158.756 194.581C158.4 194.648 158.08 194.838 157.85 195.118C157.619 195.397 157.494 195.748 157.496 196.111V197.501C157.495 197.754 157.555 198.004 157.673 198.229C157.791 198.453 157.962 198.645 158.171 198.789C158.38 198.932 158.621 199.021 158.873 199.049C159.125 199.078 159.38 199.044 159.616 198.951L165.226 196.781C165.582 197.313 166.09 197.726 166.684 197.967C167.277 198.208 167.93 198.265 168.556 198.131L171.886 197.391C172.39 197.275 172.84 196.994 173.163 196.591C173.486 196.188 173.663 195.687 173.666 195.171V187.591C173.666 187.29 173.606 186.992 173.49 186.715C173.375 186.437 173.205 186.186 172.991 185.975C172.777 185.763 172.523 185.597 172.244 185.485C171.965 185.372 171.667 185.317 171.366 185.321Z" fill="#407BFF"/>
<circle cx="44.8362" cy="53.7191" r="41.8987" fill="#D8AB35"/>
<circle cx="48.1229" cy="52.2596" r="40.8768" fill="#F6D57E"/>
<path d="M23.77 56.2158H72.1376C74.3977 56.2158 75.9798 54.4077 75.9798 52.3735C75.9798 50.1134 74.1717 48.5312 72.1376 48.5312H23.77C21.5099 48.5312 19.9277 50.3394 19.9277 52.3735C19.9277 54.4077 21.5099 56.2158 23.77 56.2158Z" fill="white"/>
<path fill-rule="evenodd" clipRule="evenodd" d="M396.583 230.544L396.452 228.996C396.423 228.651 396.118 228.385 395.75 228.385H389.006C388.585 228.385 388.203 228.621 388.036 228.986L387.322 230.544H396.583ZM404.618 230.544C405.463 230.544 406.118 231.239 406.017 232.029L399.229 285.499H393.266L393.179 283.897C392.984 280.316 389.848 277.507 386.043 277.507H380.789C376.384 277.507 372.419 280.028 370.77 283.878L370.075 285.499H364.112L377.318 232.083C377.541 231.181 378.394 230.544 379.376 230.544H384.781L386.114 227.679C386.452 226.955 387.211 226.488 388.049 226.488H397.46C398.192 226.488 398.801 227.016 398.864 227.702L399.124 230.544H404.618Z" fill="#D0B204"/>
<path fill-rule="evenodd" clipRule="evenodd" d="M397.583 230.544L397.452 228.996C397.423 228.651 397.118 228.385 396.75 228.385H390.006C389.584 228.385 389.203 228.621 389.036 228.986L388.322 230.544H397.583ZM405.618 230.544C406.463 230.544 407.118 231.239 407.017 232.029L400.229 285.499H394.266L394.179 283.897C393.985 280.316 390.848 277.507 387.044 277.507H381.789C377.384 277.507 373.419 280.028 371.77 283.878L371.075 285.499H365.112L378.318 232.083C378.541 231.181 379.394 230.544 380.376 230.544H385.781L387.115 227.679C387.452 226.955 388.211 226.488 389.049 226.488H398.46C399.191 226.488 399.801 227.016 399.864 227.702L400.124 230.544H405.618Z" fill="#EAB830"/>
<path fill-rule="evenodd" clipRule="evenodd" d="M398.017 230.791L397.302 229.138C397.135 228.751 396.754 228.501 396.333 228.501H389.589C389.222 228.501 388.915 228.783 388.887 229.149L388.756 230.791H398.017ZM386.215 230.791L386.475 227.776C386.538 227.047 387.147 226.488 387.878 226.488H397.289C398.128 226.488 398.887 226.985 399.224 227.752L400.558 230.791H405.962C406.945 230.791 407.797 231.468 408.02 232.424L421.227 289.102H415.264L414.569 287.382C412.919 283.296 408.955 280.621 404.549 280.621H399.295C395.491 280.621 392.354 283.602 392.16 287.402L392.073 289.102H386.11L379.321 232.367C379.221 231.529 379.876 230.791 380.72 230.791H386.215Z" fill="#D0B204"/>
<path fill-rule="evenodd" clipRule="evenodd" d="M399.044 230.791L398.33 229.138C398.162 228.751 397.782 228.501 397.36 228.501H390.615C390.248 228.501 389.943 228.783 389.914 229.149L389.783 230.791H399.044ZM387.242 230.791L387.502 227.776C387.565 227.047 388.175 226.488 388.906 226.488H398.317C399.155 226.488 399.914 226.985 400.251 227.752L401.585 230.791H406.99C407.972 230.791 408.825 231.468 409.048 232.424L422.254 289.102H416.29L415.596 287.382C413.947 283.296 409.982 280.621 405.576 280.621H400.323C396.518 280.621 393.381 283.602 393.187 287.402L393.1 289.102H387.137L380.349 232.367C380.249 231.529 380.903 230.791 381.748 230.791H387.242Z" fill="#FFD35E"/>
<defs>
<filter id="filter0_f_4888_49166" x="168" y="0.5" width="283" height="278" filterUnits="userSpaceOnUse" color-interpolation-filters="sRGB">
<feFlood flood-opacity="0" result="BackgroundImageFix"/>
<feBlend mode="normal" in="SourceGraphic" in2="BackgroundImageFix" result="shape"/>
<feGaussianBlur stdDeviation="1" result="effect1_foregroundBlur_4888_49166"/>
</filter>
<filter id="filter1_f_4888_49166" x="368" y="199.5" width="62" height="63" filterUnits="userSpaceOnUse" color-interpolation-filters="sRGB">
<feFlood flood-opacity="0" result="BackgroundImageFix"/>
<feBlend mode="normal" in="SourceGraphic" in2="BackgroundImageFix" result="shape"/>
<feGaussianBlur stdDeviation="1" result="effect1_foregroundBlur_4888_49166"/>
</filter>
<filter id="filter2_f_4888_49166" x="345.456" y="268.188" width="26.6" height="18.6" filterUnits="userSpaceOnUse" color-interpolation-filters="sRGB">
<feFlood flood-opacity="0" result="BackgroundImageFix"/>
<feBlend mode="normal" in="SourceGraphic" in2="BackgroundImageFix" result="shape"/>
<feGaussianBlur stdDeviation="3.65" result="effect1_foregroundBlur_4888_49166"/>
</filter>
</defs>
</svg>
