<svg width="460" height="301" viewBox="0 0 460 301" fill="none" xmlns="http://www.w3.org/2000/svg">
<g filter="url(#filter0_f_4864_49668)">
<path d="M409 73.5C409 87.3255 398.013 98.5 384.5 98.5C370.987 98.5 360 87.3255 360 73.5C360 59.6745 370.987 48.5 384.5 48.5C398.013 48.5 409 59.6745 409 73.5Z" stroke="#FFEEC2" stroke-width="2"/>
</g>
<g filter="url(#filter1_f_4864_49668)">
<circle cx="122" cy="132.5" r="45" stroke="#EAF3FE" stroke-width="2"/>
</g>
<path d="M412.114 40.5H370.176V260.335H412.114V40.5Z" fill="#DBDBDB"/>
<path d="M384.841 47.6445H376.688V56.036H384.841V47.6445Z" fill="#EBEBEB"/>
<path d="M395.269 47.6445H387.115V56.036H395.269V47.6445Z" fill="#EBEBEB"/>
<path d="M384.841 61.8945H376.688V70.286H384.841V61.8945Z" fill="#EBEBEB"/>
<path d="M395.269 61.8945H387.115V70.286H395.269V61.8945Z" fill="#EBEBEB"/>
<path d="M384.841 76.1484H376.688V84.5399H384.841V76.1484Z" fill="#EBEBEB"/>
<path d="M395.269 76.1484H387.115V84.5399H395.269V76.1484Z" fill="#EBEBEB"/>
<path d="M384.841 90.3984H376.688V98.7899H384.841V90.3984Z" fill="#EBEBEB"/>
<path d="M395.269 90.3984H387.115V98.7899H395.269V90.3984Z" fill="#EBEBEB"/>
<path d="M384.841 104.65H376.688V113.042H384.841V104.65Z" fill="#EBEBEB"/>
<path d="M395.269 104.65H387.115V113.042H395.269V104.65Z" fill="#EBEBEB"/>
<path d="M384.841 118.9H376.688V127.292H384.841V118.9Z" fill="#EBEBEB"/>
<path d="M395.269 118.9H387.115V127.292H395.269V118.9Z" fill="#EBEBEB"/>
<path d="M384.841 133.152H376.688V141.544H384.841V133.152Z" fill="#EBEBEB"/>
<path d="M395.269 133.152H387.115V141.544H395.269V133.152Z" fill="#EBEBEB"/>
<path d="M384.841 147.402H376.688V155.794H384.841V147.402Z" fill="#EBEBEB"/>
<path d="M395.269 147.402H387.115V155.794H395.269V147.402Z" fill="#EBEBEB"/>
<path d="M384.841 161.656H376.688V170.048H384.841V161.656Z" fill="#EBEBEB"/>
<path d="M395.269 161.656H387.115V170.048H395.269V161.656Z" fill="#EBEBEB"/>
<path d="M384.841 175.906H376.688V184.298H384.841V175.906Z" fill="#EBEBEB"/>
<path d="M395.269 175.906H387.115V184.298H395.269V175.906Z" fill="#EBEBEB"/>
<path d="M384.841 190.158H376.688V198.55H384.841V190.158Z" fill="#EBEBEB"/>
<path d="M395.269 190.158H387.115V198.55H395.269V190.158Z" fill="#EBEBEB"/>
<path d="M384.841 204.408H376.688V212.8H384.841V204.408Z" fill="#EBEBEB"/>
<path d="M395.269 204.408H387.115V212.8H395.269V204.408Z" fill="#EBEBEB"/>
<path d="M384.841 218.66H376.688V227.052H384.841V218.66Z" fill="#EBEBEB"/>
<path d="M395.269 218.66H387.115V227.052H395.269V218.66Z" fill="#EBEBEB"/>
<path d="M384.841 232.91H376.688V241.302H384.841V232.91Z" fill="#EBEBEB"/>
<path d="M397.454 241.303H405.607V232.911H397.454V241.303Z" fill="#EBEBEB"/>
<path d="M397.454 227.051H405.607V218.659H397.454V227.051Z" fill="#EBEBEB"/>
<path d="M397.454 212.801H405.607V204.409H397.454V212.801Z" fill="#EBEBEB"/>
<path d="M397.454 198.549H405.607V190.157H397.454V198.549Z" fill="#EBEBEB"/>
<path d="M397.454 184.297H405.607V175.905H397.454V184.297Z" fill="#EBEBEB"/>
<path d="M397.454 170.047H405.607V161.655H397.454V170.047Z" fill="#EBEBEB"/>
<path d="M397.454 155.795H405.607V147.403H397.454V155.795Z" fill="#EBEBEB"/>
<path d="M397.454 141.543H405.607V133.152H397.454V141.543Z" fill="#EBEBEB"/>
<path d="M397.454 127.293H405.607V118.902H397.454V127.293Z" fill="#EBEBEB"/>
<path d="M397.454 113.041H405.607V104.65H397.454V113.041Z" fill="#EBEBEB"/>
<path d="M397.454 98.7891H405.607V90.3976H397.454V98.7891Z" fill="#EBEBEB"/>
<path d="M397.454 84.5391H405.607V76.1476H397.454V84.5391Z" fill="#EBEBEB"/>
<path d="M397.454 70.2871H405.607V61.8957H397.454V70.2871Z" fill="#EBEBEB"/>
<path d="M397.454 56.0371H405.607V47.6457H397.454V56.0371Z" fill="#EBEBEB"/>
<path d="M395.269 232.91H387.115V241.302H395.269V232.91Z" fill="#EBEBEB"/>
<path d="M445.18 40.5H412.115V260.335H445.18V40.5Z" fill="#A6A6A6"/>
<path d="M435.042 241.303H441.775V232.911H435.042V241.303Z" fill="#C7C7C7"/>
<path d="M426.425 241.303H433.158V232.911H426.425V241.303Z" fill="#C7C7C7"/>
<path d="M435.042 227.051H441.775V218.659H435.042V227.051Z" fill="#C7C7C7"/>
<path d="M426.425 227.051H433.158V218.659H426.425V227.051Z" fill="#C7C7C7"/>
<path d="M435.042 212.801H441.775V204.409H435.042V212.801Z" fill="#C7C7C7"/>
<path d="M426.425 212.801H433.158V204.409H426.425V212.801Z" fill="#C7C7C7"/>
<path d="M435.042 198.549H441.775V190.157H435.042V198.549Z" fill="#C7C7C7"/>
<path d="M426.425 198.549H433.158V190.157H426.425V198.549Z" fill="#C7C7C7"/>
<path d="M435.042 184.297H441.775V175.905H435.042V184.297Z" fill="#C7C7C7"/>
<path d="M426.425 184.297H433.158V175.905H426.425V184.297Z" fill="#C7C7C7"/>
<path d="M435.042 170.047H441.775V161.655H435.042V170.047Z" fill="#C7C7C7"/>
<path d="M426.425 170.047H433.158V161.655H426.425V170.047Z" fill="#C7C7C7"/>
<path d="M435.042 155.795H441.775V147.403H435.042V155.795Z" fill="#C7C7C7"/>
<path d="M426.425 155.795H433.158V147.403H426.425V155.795Z" fill="#C7C7C7"/>
<path d="M435.042 141.543H441.775V133.152H435.042V141.543Z" fill="#C7C7C7"/>
<path d="M426.425 141.543H433.158V133.152H426.425V141.543Z" fill="#C7C7C7"/>
<path d="M435.042 127.293H441.775V118.902H435.042V127.293Z" fill="#C7C7C7"/>
<path d="M426.425 127.293H433.158V118.902H426.425V127.293Z" fill="#C7C7C7"/>
<path d="M435.042 113.041H441.775V104.65H435.042V113.041Z" fill="#C7C7C7"/>
<path d="M426.425 113.041H433.158V104.65H426.425V113.041Z" fill="#C7C7C7"/>
<path d="M435.042 98.7891H441.775V90.3976H435.042V98.7891Z" fill="#C7C7C7"/>
<path d="M426.425 98.7891H433.158V90.3976H426.425V98.7891Z" fill="#C7C7C7"/>
<path d="M435.042 84.5391H441.775V76.1476H435.042V84.5391Z" fill="#C7C7C7"/>
<path d="M426.425 84.5391H433.158V76.1476H426.425V84.5391Z" fill="#C7C7C7"/>
<path d="M435.042 70.2871H441.775V61.8957H435.042V70.2871Z" fill="#C7C7C7"/>
<path d="M426.425 70.2871H433.158V61.8957H426.425V70.2871Z" fill="#C7C7C7"/>
<path d="M435.042 56.0371H441.775V47.6457H435.042V56.0371Z" fill="#C7C7C7"/>
<path d="M424.627 47.6445H417.894V56.036H424.627V47.6445Z" fill="#C7C7C7"/>
<path d="M424.627 61.8945H417.894V70.286H424.627V61.8945Z" fill="#C7C7C7"/>
<path d="M424.627 76.1484H417.894V84.5399H424.627V76.1484Z" fill="#C7C7C7"/>
<path d="M424.627 90.3984H417.894V98.7899H424.627V90.3984Z" fill="#C7C7C7"/>
<path d="M424.627 104.65H417.894V113.042H424.627V104.65Z" fill="#C7C7C7"/>
<path d="M424.627 118.9H417.894V127.292H424.627V118.9Z" fill="#C7C7C7"/>
<path d="M424.627 133.152H417.894V141.544H424.627V133.152Z" fill="#C7C7C7"/>
<path d="M424.627 147.402H417.894V155.794H424.627V147.402Z" fill="#C7C7C7"/>
<path d="M424.627 161.656H417.894V170.048H424.627V161.656Z" fill="#C7C7C7"/>
<path d="M424.627 175.906H417.894V184.298H424.627V175.906Z" fill="#C7C7C7"/>
<path d="M424.627 190.158H417.894V198.55H424.627V190.158Z" fill="#C7C7C7"/>
<path d="M424.627 204.408H417.894V212.8H424.627V204.408Z" fill="#C7C7C7"/>
<path d="M424.627 218.66H417.894V227.052H424.627V218.66Z" fill="#C7C7C7"/>
<path d="M424.627 232.91H417.894V241.302H424.627V232.91Z" fill="#C7C7C7"/>
<path d="M426.425 56.0371H433.158V47.6457H426.425V56.0371Z" fill="#C7C7C7"/>
<path d="M319.488 102.984H278V260.34H319.488V102.984Z" fill="#EBEBEB"/>
<path d="M319.495 92.5449H283.905V102.98H319.495V92.5449Z" fill="#C7C7C7"/>
<path d="M314.94 108.428H282.55V226.062H314.94V108.428Z" fill="#DBDBDB"/>
<path d="M314.94 119.652H282.55V122.434H314.94V119.652Z" fill="white"/>
<path d="M314.94 131.168H282.55V133.95H314.94V131.168Z" fill="white"/>
<path d="M314.94 142.682H282.55V145.464H314.94V142.682Z" fill="white"/>
<path d="M314.94 154.195H282.55V156.977H314.94V154.195Z" fill="white"/>
<path d="M314.94 165.715H282.55V168.497H314.94V165.715Z" fill="white"/>
<path d="M314.94 177.23H282.55V180.013H314.94V177.23Z" fill="white"/>
<path d="M314.94 188.744H282.55V191.526H314.94V188.744Z" fill="white"/>
<path d="M314.94 200.258H282.55V203.04H314.94V200.258Z" fill="white"/>
<path d="M314.94 211.773H282.55V214.556H314.94V211.773Z" fill="white"/>
<path d="M314.94 223.287H282.55V226.069H314.94V223.287Z" fill="white"/>
<path d="M345.484 102.984H319.494V260.34H345.484V102.984Z" fill="#DBDBDB"/>
<path d="M341.584 92.5449H319.494V102.98H341.584V92.5449Z" fill="#A6A6A6"/>
<path d="M343.064 108.428H323.081V226.062H343.064V108.428Z" fill="#C7C7C7"/>
<path d="M343.064 119.652H323.081V122.434H343.064V119.652Z" fill="white"/>
<path d="M343.064 131.168H323.081V133.95H343.064V131.168Z" fill="white"/>
<path d="M343.064 142.682H323.081V145.464H343.064V142.682Z" fill="white"/>
<path d="M343.064 154.195H323.081V156.977H343.064V154.195Z" fill="white"/>
<path d="M343.064 165.715H323.081V168.497H343.064V165.715Z" fill="white"/>
<path d="M343.064 177.23H323.081V180.013H343.064V177.23Z" fill="white"/>
<path d="M343.064 188.744H323.081V191.526H343.064V188.744Z" fill="white"/>
<path d="M343.064 200.258H323.081V203.04H343.064V200.258Z" fill="white"/>
<path d="M343.064 211.773H323.081V214.556H343.064V211.773Z" fill="white"/>
<path d="M343.064 223.287H323.081V226.069H343.064V223.287Z" fill="white"/>
<path d="M367.196 105.633H345.035V131.809H367.196V105.633Z" fill="#DBDBDB"/>
<path d="M381.247 105.633H367.195V132.767H381.247V105.633Z" fill="#C7C7C7"/>
<path d="M382.181 117.193H368.238V132.768H382.181V117.193Z" fill="#DBDBDB"/>
<path d="M390.882 117.193H382.182V132.768H390.882V117.193Z" fill="#C7C7C7"/>
<path d="M372.368 130.113H336.534V260.341H372.368V130.113Z" fill="#EBEBEB"/>
<path d="M351.899 135.709H340.629V140.316H351.899V135.709Z" fill="white"/>
<path d="M366.316 135.709H355.046V140.316H366.316V135.709Z" fill="white"/>
<path d="M351.899 143.523H340.629V148.13H351.899V143.523Z" fill="white"/>
<path d="M366.316 143.523H355.046V148.13H366.316V143.523Z" fill="white"/>
<path d="M351.899 151.342H340.629V155.949H351.899V151.342Z" fill="white"/>
<path d="M366.316 151.342H355.046V155.949H366.316V151.342Z" fill="white"/>
<path d="M351.899 159.162H340.629V163.769H351.899V159.162Z" fill="white"/>
<path d="M366.316 159.162H355.046V163.769H366.316V159.162Z" fill="white"/>
<path d="M351.899 166.975H340.629V171.582H351.899V166.975Z" fill="white"/>
<path d="M366.316 166.975H355.046V171.582H366.316V166.975Z" fill="white"/>
<path d="M351.899 174.795H340.629V179.402H351.899V174.795Z" fill="white"/>
<path d="M366.316 174.795H355.046V179.402H366.316V174.795Z" fill="white"/>
<path d="M351.899 182.607H340.629V187.214H351.899V182.607Z" fill="white"/>
<path d="M366.316 182.607H355.046V187.214H366.316V182.607Z" fill="white"/>
<path d="M351.899 190.428H340.629V195.035H351.899V190.428Z" fill="white"/>
<path d="M366.316 190.428H355.046V195.035H366.316V190.428Z" fill="white"/>
<path d="M351.899 198.24H340.629V202.847H351.899V198.24Z" fill="white"/>
<path d="M366.316 198.24H355.046V202.847H366.316V198.24Z" fill="white"/>
<path d="M351.899 206.061H340.629V210.667H351.899V206.061Z" fill="white"/>
<path d="M366.316 206.061H355.046V210.667H366.316V206.061Z" fill="white"/>
<path d="M351.899 213.873H340.629V218.48H351.899V213.873Z" fill="white"/>
<path d="M366.316 213.873H355.046V218.48H366.316V213.873Z" fill="white"/>
<path d="M351.899 221.691H340.629V226.298H351.899V221.691Z" fill="white"/>
<path d="M366.316 221.691H355.046V226.298H366.316V221.691Z" fill="white"/>
<path d="M351.899 229.506H340.629V234.113H351.899V229.506Z" fill="white"/>
<path d="M366.316 229.506H355.046V234.113H366.316V229.506Z" fill="white"/>
<path d="M351.899 237.324H340.629V241.931H351.899V237.324Z" fill="white"/>
<path d="M366.316 237.324H355.046V241.931H366.316V237.324Z" fill="white"/>
<path d="M401.403 130.113H372.367V260.341H401.403V130.113Z" fill="#C7C7C7"/>
<path d="M389.236 241.932H398.488V237.325H389.236V241.932Z" fill="#EBEBEB"/>
<path d="M377.4 241.932H386.652V237.325H377.4V241.932Z" fill="#EBEBEB"/>
<path d="M389.236 234.113H398.488V229.506H389.236V234.113Z" fill="#EBEBEB"/>
<path d="M377.4 234.113H386.652V229.506H377.4V234.113Z" fill="#EBEBEB"/>
<path d="M389.236 226.293H398.488V221.686H389.236V226.293Z" fill="#EBEBEB"/>
<path d="M377.4 226.293H386.652V221.686H377.4V226.293Z" fill="#EBEBEB"/>
<path d="M389.236 218.48H398.488V213.874H389.236V218.48Z" fill="#EBEBEB"/>
<path d="M377.4 218.48H386.652V213.874H377.4V218.48Z" fill="#EBEBEB"/>
<path d="M389.236 210.66H398.488V206.053H389.236V210.66Z" fill="#EBEBEB"/>
<path d="M377.4 210.66H386.652V206.053H377.4V210.66Z" fill="#EBEBEB"/>
<path d="M389.236 202.848H398.488V198.241H389.236V202.848Z" fill="#EBEBEB"/>
<path d="M377.4 202.848H386.652V198.241H377.4V202.848Z" fill="#EBEBEB"/>
<path d="M389.236 195.027H398.488V190.42H389.236V195.027Z" fill="#EBEBEB"/>
<path d="M377.4 195.027H386.652V190.42H377.4V195.027Z" fill="#EBEBEB"/>
<path d="M389.236 187.215H398.488V182.608H389.236V187.215Z" fill="#EBEBEB"/>
<path d="M377.4 187.215H386.652V182.608H377.4V187.215Z" fill="#EBEBEB"/>
<path d="M389.236 179.395H398.488V174.788H389.236V179.395Z" fill="#EBEBEB"/>
<path d="M377.4 179.395H386.652V174.788H377.4V179.395Z" fill="#EBEBEB"/>
<path d="M389.236 171.582H398.488V166.975H389.236V171.582Z" fill="#EBEBEB"/>
<path d="M377.4 171.582H386.652V166.975H377.4V171.582Z" fill="#EBEBEB"/>
<path d="M389.236 163.762H398.488V159.155H389.236V163.762Z" fill="#EBEBEB"/>
<path d="M377.4 163.762H386.652V159.155H377.4V163.762Z" fill="#EBEBEB"/>
<path d="M389.236 155.949H398.488V151.342H389.236V155.949Z" fill="#EBEBEB"/>
<path d="M377.4 155.949H386.652V151.342H377.4V155.949Z" fill="#EBEBEB"/>
<path d="M389.236 148.129H398.488V143.522H389.236V148.129Z" fill="#EBEBEB"/>
<path d="M377.4 148.129H386.652V143.522H377.4V148.129Z" fill="#EBEBEB"/>
<path d="M389.236 140.311H398.488V135.704H389.236V140.311Z" fill="#EBEBEB"/>
<path d="M377.4 140.311H386.652V135.704H377.4V140.311Z" fill="#EBEBEB"/>
<path d="M60.6983 6.21484H10.2148V243.102H60.6983V6.21484Z" fill="#EBEBEB"/>
<path d="M60.6979 1.5H9V6.21616H60.6979V1.5Z" fill="#C7C7C7"/>
<path d="M19.8899 13.168H14.7754V243.103H19.8899V13.168Z" fill="white"/>
<path d="M28.9505 13.168H23.8359V243.103H28.9505V13.168Z" fill="white"/>
<path d="M38.01 13.168H32.8955V243.103H38.01V13.168Z" fill="white"/>
<path d="M47.0696 13.168H41.9551V243.103H47.0696V13.168Z" fill="white"/>
<path d="M56.136 13.168H51.0215V243.103H56.136V13.168Z" fill="white"/>
<path d="M19.8899 19.1309H14.7754V28.4411H19.8899V19.1309Z" fill="#EBEBEB"/>
<path d="M28.9505 19.1309H23.8359V28.4411H28.9505V19.1309Z" fill="#EBEBEB"/>
<path d="M38.01 19.1309H32.8955V28.4411H38.01V19.1309Z" fill="#EBEBEB"/>
<path d="M47.0696 19.1309H41.9551V28.4411H47.0696V19.1309Z" fill="#EBEBEB"/>
<path d="M56.136 19.1309H51.0215V28.4411H56.136V19.1309Z" fill="#EBEBEB"/>
<path d="M19.8899 34.2637H14.7754V43.5739H19.8899V34.2637Z" fill="#EBEBEB"/>
<path d="M28.9505 34.2637H23.8359V43.5739H28.9505V34.2637Z" fill="#EBEBEB"/>
<path d="M38.01 34.2637H32.8955V43.5739H38.01V34.2637Z" fill="#EBEBEB"/>
<path d="M47.0696 34.2637H41.9551V43.5739H47.0696V34.2637Z" fill="#EBEBEB"/>
<path d="M56.136 34.2637H51.0215V43.5739H56.136V34.2637Z" fill="#EBEBEB"/>
<path d="M19.8899 49.4004H14.7754V58.7106H19.8899V49.4004Z" fill="#EBEBEB"/>
<path d="M28.9505 49.4004H23.8359V58.7106H28.9505V49.4004Z" fill="#EBEBEB"/>
<path d="M38.01 49.4004H32.8955V58.7106H38.01V49.4004Z" fill="#EBEBEB"/>
<path d="M47.0696 49.4004H41.9551V58.7106H47.0696V49.4004Z" fill="#EBEBEB"/>
<path d="M56.136 49.4004H51.0215V58.7106H56.136V49.4004Z" fill="#EBEBEB"/>
<path d="M19.8899 64.5312H14.7754V73.8415H19.8899V64.5312Z" fill="#EBEBEB"/>
<path d="M28.9505 64.5312H23.8359V73.8415H28.9505V64.5312Z" fill="#EBEBEB"/>
<path d="M38.01 64.5312H32.8955V73.8415H38.01V64.5312Z" fill="#EBEBEB"/>
<path d="M47.0696 64.5312H41.9551V73.8415H47.0696V64.5312Z" fill="#EBEBEB"/>
<path d="M56.136 64.5312H51.0215V73.8415H56.136V64.5312Z" fill="#EBEBEB"/>
<path d="M19.8899 79.6699H14.7754V88.9802H19.8899V79.6699Z" fill="#EBEBEB"/>
<path d="M28.9505 79.6699H23.8359V88.9802H28.9505V79.6699Z" fill="#EBEBEB"/>
<path d="M38.01 79.6699H32.8955V88.9802H38.01V79.6699Z" fill="#EBEBEB"/>
<path d="M47.0696 79.6699H41.9551V88.9802H47.0696V79.6699Z" fill="#EBEBEB"/>
<path d="M56.136 79.6699H51.0215V88.9802H56.136V79.6699Z" fill="#EBEBEB"/>
<path d="M19.8899 94.8008H14.7754V104.111H19.8899V94.8008Z" fill="#EBEBEB"/>
<path d="M28.9505 94.8008H23.8359V104.111H28.9505V94.8008Z" fill="#EBEBEB"/>
<path d="M38.01 94.8008H32.8955V104.111H38.01V94.8008Z" fill="#EBEBEB"/>
<path d="M47.0696 94.8008H41.9551V104.111H47.0696V94.8008Z" fill="#EBEBEB"/>
<path d="M56.136 94.8008H51.0215V104.111H56.136V94.8008Z" fill="#EBEBEB"/>
<path d="M19.8899 109.934H14.7754V119.244H19.8899V109.934Z" fill="#EBEBEB"/>
<path d="M28.9505 109.934H23.8359V119.244H28.9505V109.934Z" fill="#EBEBEB"/>
<path d="M38.01 109.934H32.8955V119.244H38.01V109.934Z" fill="#EBEBEB"/>
<path d="M47.0696 109.934H41.9551V119.244H47.0696V109.934Z" fill="#EBEBEB"/>
<path d="M56.136 109.934H51.0215V119.244H56.136V109.934Z" fill="#EBEBEB"/>
<path d="M19.8899 125.07H14.7754V134.381H19.8899V125.07Z" fill="#EBEBEB"/>
<path d="M28.9505 125.07H23.8359V134.381H28.9505V125.07Z" fill="#EBEBEB"/>
<path d="M38.01 125.07H32.8955V134.381H38.01V125.07Z" fill="#EBEBEB"/>
<path d="M47.0696 125.07H41.9551V134.381H47.0696V125.07Z" fill="#EBEBEB"/>
<path d="M56.136 125.07H51.0215V134.381H56.136V125.07Z" fill="#EBEBEB"/>
<path d="M19.8899 140.203H14.7754V149.513H19.8899V140.203Z" fill="#EBEBEB"/>
<path d="M28.9505 140.203H23.8359V149.513H28.9505V140.203Z" fill="#EBEBEB"/>
<path d="M38.01 140.203H32.8955V149.513H38.01V140.203Z" fill="#EBEBEB"/>
<path d="M47.0696 140.203H41.9551V149.513H47.0696V140.203Z" fill="#EBEBEB"/>
<path d="M56.136 140.203H51.0215V149.513H56.136V140.203Z" fill="#EBEBEB"/>
<path d="M19.8899 155.334H14.7754V164.644H19.8899V155.334Z" fill="#EBEBEB"/>
<path d="M28.9505 155.334H23.8359V164.644H28.9505V155.334Z" fill="#EBEBEB"/>
<path d="M38.01 155.334H32.8955V164.644H38.01V155.334Z" fill="#EBEBEB"/>
<path d="M47.0696 155.334H41.9551V164.644H47.0696V155.334Z" fill="#EBEBEB"/>
<path d="M56.136 155.334H51.0215V164.644H56.136V155.334Z" fill="#EBEBEB"/>
<path d="M19.8899 170.473H14.7754V179.783H19.8899V170.473Z" fill="#EBEBEB"/>
<path d="M28.9505 170.473H23.8359V179.783H28.9505V170.473Z" fill="#EBEBEB"/>
<path d="M38.01 170.473H32.8955V179.783H38.01V170.473Z" fill="#EBEBEB"/>
<path d="M47.0696 170.473H41.9551V179.783H47.0696V170.473Z" fill="#EBEBEB"/>
<path d="M56.136 170.473H51.0215V179.783H56.136V170.473Z" fill="#EBEBEB"/>
<path d="M19.8899 185.604H14.7754V194.914H19.8899V185.604Z" fill="#EBEBEB"/>
<path d="M28.9505 185.604H23.8359V194.914H28.9505V185.604Z" fill="#EBEBEB"/>
<path d="M38.01 185.604H32.8955V194.914H38.01V185.604Z" fill="#EBEBEB"/>
<path d="M47.0696 185.604H41.9551V194.914H47.0696V185.604Z" fill="#EBEBEB"/>
<path d="M56.136 185.604H51.0215V194.914H56.136V185.604Z" fill="#EBEBEB"/>
<path d="M19.8899 200.734H14.7754V210.045H19.8899V200.734Z" fill="#EBEBEB"/>
<path d="M28.9505 200.734H23.8359V210.045H28.9505V200.734Z" fill="#EBEBEB"/>
<path d="M38.01 200.734H32.8955V210.045H38.01V200.734Z" fill="#EBEBEB"/>
<path d="M47.0696 200.734H41.9551V210.045H47.0696V200.734Z" fill="#EBEBEB"/>
<path d="M56.136 200.734H51.0215V210.045H56.136V200.734Z" fill="#EBEBEB"/>
<path d="M19.8899 215.873H14.7754V243.11H19.8899V215.873Z" fill="#EBEBEB"/>
<path d="M28.9505 215.873H23.8359V243.11H28.9505V215.873Z" fill="#EBEBEB"/>
<path d="M38.01 215.873H32.8955V243.11H38.01V215.873Z" fill="#EBEBEB"/>
<path d="M47.0696 215.873H41.9551V243.11H47.0696V215.873Z" fill="#EBEBEB"/>
<path d="M56.136 215.873H51.0215V243.11H56.136V215.873Z" fill="#EBEBEB"/>
<path d="M93.1084 6.21484H60.6992V243.102H93.1084V6.21484Z" fill="#DBDBDB"/>
<path d="M94.5155 1.5H60.6992V6.21616H94.5155V1.5Z" fill="#C7C7C7"/>
<path d="M70.3821 13.168H65.2676V243.103H70.3821V13.168Z" fill="#C7C7C7"/>
<path d="M79.4397 13.168H74.3252V243.103H79.4397V13.168Z" fill="#C7C7C7"/>
<path d="M88.4993 13.168H83.3848V243.103H88.4993V13.168Z" fill="#C7C7C7"/>
<path d="M70.3821 19.1309H65.2676V28.4411H70.3821V19.1309Z" fill="#DBDBDB"/>
<path d="M79.4397 19.1309H74.3252V28.4411H79.4397V19.1309Z" fill="#DBDBDB"/>
<path d="M88.4993 19.1309H83.3848V28.4411H88.4993V19.1309Z" fill="#DBDBDB"/>
<path d="M70.3821 34.2637H65.2676V43.5739H70.3821V34.2637Z" fill="#DBDBDB"/>
<path d="M79.4397 34.2637H74.3252V43.5739H79.4397V34.2637Z" fill="#DBDBDB"/>
<path d="M88.4993 34.2637H83.3848V43.5739H88.4993V34.2637Z" fill="#DBDBDB"/>
<path d="M70.3821 49.4004H65.2676V58.7106H70.3821V49.4004Z" fill="#DBDBDB"/>
<path d="M79.4397 49.4004H74.3252V58.7106H79.4397V49.4004Z" fill="#DBDBDB"/>
<path d="M88.4993 49.4004H83.3848V58.7106H88.4993V49.4004Z" fill="#DBDBDB"/>
<path d="M70.3821 64.5312H65.2676V73.8415H70.3821V64.5312Z" fill="#DBDBDB"/>
<path d="M79.4397 64.5312H74.3252V73.8415H79.4397V64.5312Z" fill="#DBDBDB"/>
<path d="M88.4993 64.5312H83.3848V73.8415H88.4993V64.5312Z" fill="#DBDBDB"/>
<path d="M70.3821 79.6699H65.2676V88.9802H70.3821V79.6699Z" fill="#DBDBDB"/>
<path d="M79.4397 79.6699H74.3252V88.9802H79.4397V79.6699Z" fill="#DBDBDB"/>
<path d="M88.4993 79.6699H83.3848V88.9802H88.4993V79.6699Z" fill="#DBDBDB"/>
<path d="M70.3821 94.8008H65.2676V104.111H70.3821V94.8008Z" fill="#DBDBDB"/>
<path d="M79.4397 94.8008H74.3252V104.111H79.4397V94.8008Z" fill="#DBDBDB"/>
<path d="M88.4993 94.8008H83.3848V104.111H88.4993V94.8008Z" fill="#DBDBDB"/>
<path d="M70.3821 109.934H65.2676V119.244H70.3821V109.934Z" fill="#DBDBDB"/>
<path d="M79.4397 109.934H74.3252V119.244H79.4397V109.934Z" fill="#DBDBDB"/>
<path d="M88.4993 109.934H83.3848V119.244H88.4993V109.934Z" fill="#DBDBDB"/>
<path d="M70.3821 125.07H65.2676V134.381H70.3821V125.07Z" fill="#DBDBDB"/>
<path d="M79.4397 125.07H74.3252V134.381H79.4397V125.07Z" fill="#DBDBDB"/>
<path d="M88.4993 125.07H83.3848V134.381H88.4993V125.07Z" fill="#DBDBDB"/>
<path d="M70.3821 140.203H65.2676V149.513H70.3821V140.203Z" fill="#DBDBDB"/>
<path d="M79.4397 140.203H74.3252V149.513H79.4397V140.203Z" fill="#DBDBDB"/>
<path d="M88.4993 140.203H83.3848V149.513H88.4993V140.203Z" fill="#DBDBDB"/>
<path d="M70.3821 155.334H65.2676V164.644H70.3821V155.334Z" fill="#DBDBDB"/>
<path d="M79.4397 155.334H74.3252V164.644H79.4397V155.334Z" fill="#DBDBDB"/>
<path d="M88.4993 155.334H83.3848V164.644H88.4993V155.334Z" fill="#DBDBDB"/>
<path d="M70.3821 170.473H65.2676V179.783H70.3821V170.473Z" fill="#DBDBDB"/>
<path d="M79.4397 170.473H74.3252V179.783H79.4397V170.473Z" fill="#DBDBDB"/>
<path d="M88.4993 170.473H83.3848V179.783H88.4993V170.473Z" fill="#DBDBDB"/>
<path d="M70.3821 185.604H65.2676V194.914H70.3821V185.604Z" fill="#DBDBDB"/>
<path d="M79.4397 185.604H74.3252V194.914H79.4397V185.604Z" fill="#DBDBDB"/>
<path d="M88.4993 185.604H83.3848V194.914H88.4993V185.604Z" fill="#DBDBDB"/>
<path d="M70.3821 200.734H65.2676V210.045H70.3821V200.734Z" fill="#DBDBDB"/>
<path d="M79.4397 200.734H74.3252V210.045H79.4397V200.734Z" fill="#DBDBDB"/>
<path d="M88.4993 200.734H83.3848V210.045H88.4993V200.734Z" fill="#DBDBDB"/>
<path d="M70.3821 215.873H65.2676V243.11H70.3821V215.873Z" fill="#DBDBDB"/>
<path d="M79.4397 215.873H74.3252V243.11H79.4397V215.873Z" fill="#DBDBDB"/>
<path d="M88.4993 215.873H83.3848V243.11H88.4993V215.873Z" fill="#DBDBDB"/>
<path d="M94.4629 118.916H53.2832V243.11H94.4629V118.916Z" fill="#C7C7C7"/>
<path d="M67.046 129.664H59.7598V137.272H67.046V129.664Z" fill="#DBDBDB"/>
<path d="M67.046 145.914H59.7598V153.522H67.046V145.914Z" fill="#DBDBDB"/>
<path d="M67.046 162.17H59.7598V169.777H67.046V162.17Z" fill="#DBDBDB"/>
<path d="M67.046 178.42H59.7598V186.027H67.046V178.42Z" fill="#DBDBDB"/>
<path d="M67.046 194.67H59.7598V202.277H67.046V194.67Z" fill="#DBDBDB"/>
<path d="M67.046 210.926H59.7598V218.533H67.046V210.926Z" fill="#DBDBDB"/>
<path d="M67.046 227.176H59.7598V234.783H67.046V227.176Z" fill="#DBDBDB"/>
<path d="M77.5324 129.664H70.2461V137.272H77.5324V129.664Z" fill="#DBDBDB"/>
<path d="M77.5324 145.914H70.2461V153.522H77.5324V145.914Z" fill="#DBDBDB"/>
<path d="M77.5324 162.17H70.2461V169.777H77.5324V162.17Z" fill="#DBDBDB"/>
<path d="M77.5324 178.42H70.2461V186.027H77.5324V178.42Z" fill="#DBDBDB"/>
<path d="M77.5324 194.67H70.2461V202.277H77.5324V194.67Z" fill="#DBDBDB"/>
<path d="M77.5324 210.926H70.2461V218.533H77.5324V210.926Z" fill="#DBDBDB"/>
<path d="M77.5324 227.176H70.2461V234.783H77.5324V227.176Z" fill="#DBDBDB"/>
<path d="M87.9855 129.664H80.6992V137.272H87.9855V129.664Z" fill="#DBDBDB"/>
<path d="M87.9855 145.914H80.6992V153.522H87.9855V145.914Z" fill="#DBDBDB"/>
<path d="M87.9855 162.17H80.6992V169.777H87.9855V162.17Z" fill="#DBDBDB"/>
<path d="M87.9855 178.42H80.6992V186.027H87.9855V178.42Z" fill="#DBDBDB"/>
<path d="M87.9855 194.67H80.6992V202.277H87.9855V194.67Z" fill="#DBDBDB"/>
<path d="M87.9855 210.926H80.6992V218.533H87.9855V210.926Z" fill="#DBDBDB"/>
<path d="M87.9855 227.176H80.6992V234.783H87.9855V227.176Z" fill="#DBDBDB"/>
<path d="M94.4685 105.975H67.0518V118.915H94.4685V105.975Z" fill="#DBDBDB"/>
<path d="M94.4624 97.9629H77.082V105.975H94.4624V97.9629Z" fill="#EBEBEB"/>
<path d="M128.722 118.916H94.4688V243.11H128.722V118.916Z" fill="#A6A6A6"/>
<path d="M118.186 233.576H125.222V225.969H118.186V233.576Z" fill="#C7C7C7"/>
<path d="M118.186 217.318H125.222V209.711H118.186V217.318Z" fill="#C7C7C7"/>
<path d="M118.186 201.062H125.222V193.455H118.186V201.062Z" fill="#C7C7C7"/>
<path d="M118.186 184.82H125.222V177.213H118.186V184.82Z" fill="#C7C7C7"/>
<path d="M118.186 168.562H125.222V160.955H118.186V168.562Z" fill="#C7C7C7"/>
<path d="M118.186 152.314H125.222V144.707H118.186V152.314Z" fill="#C7C7C7"/>
<path d="M118.186 136.059H125.222V128.451H118.186V136.059Z" fill="#C7C7C7"/>
<path d="M108.057 233.576H115.093V225.969H108.057V233.576Z" fill="#C7C7C7"/>
<path d="M108.057 217.318H115.093V209.711H108.057V217.318Z" fill="#C7C7C7"/>
<path d="M108.057 201.062H115.093V193.455H108.057V201.062Z" fill="#C7C7C7"/>
<path d="M108.057 184.82H115.093V177.213H108.057V184.82Z" fill="#C7C7C7"/>
<path d="M108.057 168.562H115.093V160.955H108.057V168.562Z" fill="#C7C7C7"/>
<path d="M108.057 152.314H115.093V144.707H108.057V152.314Z" fill="#C7C7C7"/>
<path d="M108.057 136.059H115.093V128.451H108.057V136.059Z" fill="#C7C7C7"/>
<path d="M97.9711 233.576H105.007V225.969H97.9711V233.576Z" fill="#C7C7C7"/>
<path d="M97.9711 217.318H105.007V209.711H97.9711V217.318Z" fill="#C7C7C7"/>
<path d="M97.9711 201.062H105.007V193.455H97.9711V201.062Z" fill="#C7C7C7"/>
<path d="M97.9711 184.82H105.007V177.213H97.9711V184.82Z" fill="#C7C7C7"/>
<path d="M97.9711 168.562H105.007V160.955H97.9711V168.562Z" fill="#C7C7C7"/>
<path d="M97.9711 152.314H105.007V144.707H97.9711V152.314Z" fill="#C7C7C7"/>
<path d="M97.9711 136.059H105.007V128.451H97.9711V136.059Z" fill="#C7C7C7"/>
<path d="M123.537 105.975H94.4688V118.915H123.537V105.975Z" fill="#C7C7C7"/>
<path d="M110.217 97.9629H94.4688V105.975H110.217V97.9629Z" fill="#DBDBDB"/>
<g opacity="0.5">
<path d="M216.181 222.626C220.914 225.985 247.693 206.194 252.718 202.384C257.742 198.574 254.172 184.636 248.173 181.982C242.175 179.328 237.092 176.318 235.885 168.894C234.678 161.47 236.663 157.58 242.211 155.733C247.759 153.887 258.745 150.644 256.28 138.894C253.815 127.144 241.011 129.827 234.06 127.551C227.109 125.275 219.387 121.865 219.925 113.911C220.464 105.956 227.924 107.083 239.732 106.705C251.54 106.327 260.09 86.4339 261.014 80.5299C261.937 74.6259 260.541 61.8653 254.004 61.3927C247.468 60.9201 243.018 70.1979 239.034 66.6933C235.049 63.1886 246.305 59.7786 246.145 55.4233C245.985 51.068 242.066 47.2071 237.521 50.4063C232.977 53.6055 224.732 57.321 221.031 51.257C217.33 45.193 221.125 39.0345 226.055 37.2386C230.985 35.4427 237.805 34.4902 239.034 28.6152C240.262 22.7403 231.835 15.353 235.34 8.98363C238.845 2.61427 244.152 5.66807 244.152 5.66807C244.152 5.66807 237.899 2.54156 234.017 6.51877C230.134 10.496 237.332 22.5149 232.875 25.9395C228.418 29.3641 212.887 28.4989 207.957 33.8067C203.028 39.1145 196.687 47.5415 200.948 54.5507C205.209 61.56 216.675 62.4179 221.22 62.4179C225.764 62.4179 229.843 60.3312 231.457 61.1891C233.071 62.0471 230.796 64.5992 226.811 66.2061C222.827 67.813 214.116 74.9313 220.267 80.7989C226.418 86.6666 236.183 79.2793 240.073 77.3888C243.963 75.4984 240.073 98.1329 229.647 99.8416C219.22 101.55 214.109 93.9666 207.572 95.2027C201.036 96.4388 192.303 107.323 197.233 120.215C202.163 133.106 226.804 136.938 228.985 140.61C231.166 144.282 230.439 148.193 227.058 150.062C223.677 151.931 206.154 153.698 201.61 167.222C197.066 180.746 196.513 208.673 216.181 222.626Z" fill="#DBDBDB"/>
<path d="M249.925 201.155C254.644 198.647 256.353 191.703 255.124 186.708C254.883 185.506 254.311 184.396 253.473 183.501C249.496 180.099 242.654 179.808 239.848 174.551C238.216 171.567 237.701 168.1 238.393 164.771C239.288 160.823 243.112 158.228 246.77 157.391C249.787 156.839 252.768 155.988 255.088 153.894C259.814 149.91 261.268 143.089 260.01 137.171C259.764 135.688 259.194 134.279 258.339 133.043C257.484 131.807 256.366 130.776 255.066 130.023C252.426 128.438 249.213 127.704 246.042 126.817C242.872 125.93 239.07 125.065 237.128 121.945C235.056 118.724 236.896 114.493 239.862 112.624C241.284 111.67 242.884 111.012 244.566 110.69C246.202 110.377 247.795 110.377 249.307 109.672C255.291 106.895 258.309 100.118 260.163 94.0977C258.461 100.307 255.677 107.185 249.576 110.276C248.122 111.046 246.319 111.148 244.741 111.49C243.193 111.843 241.732 112.503 240.444 113.431C236.081 116.579 236.576 122.098 241.825 123.843C246.501 125.632 251.459 125.792 256.069 128.286C257.649 129.149 259.023 130.345 260.097 131.789C261.171 133.234 261.92 134.893 262.293 136.655C264.918 146.907 259.712 158.249 248.74 160.365C243.832 161.325 240.684 164.517 242.145 169.679C242.394 170.693 242.773 171.671 243.272 172.588C244.13 173.998 245.454 174.769 247.111 175.576C251.045 177.285 256.302 178.375 258.534 182.738C259.963 185.772 260.572 189.128 260.299 192.471C260.026 195.813 258.881 199.026 256.978 201.788C255.805 203.435 254.299 204.817 252.557 205.845L249.925 201.17V201.155Z" fill="#DBDBDB"/>
<path d="M211.207 225.636C198.425 213.217 188.1 195.701 190.456 177.291C191.59 169.751 194.521 162.327 199.647 156.7C203.966 152.388 209.68 149.981 215.301 148.011C216.623 147.587 217.919 147.087 219.184 146.513C220.798 145.706 221.14 142.827 219.525 141.874C210.008 136.479 194.455 132.422 193.154 119.574C195.139 132.248 210.757 135.258 220.492 140.151C223.546 141.794 223.161 146.695 220.282 148.316C218.924 149.004 217.525 149.609 216.093 150.127C212.153 151.676 208.168 153.464 204.816 155.987C202.606 157.583 200.758 159.627 199.392 161.986C196.51 166.768 194.714 172.126 194.132 177.68C193.551 183.234 194.197 188.847 196.026 194.123C199.581 204.674 206.51 214.148 214.734 221.593L211.207 225.636Z" fill="#DBDBDB"/>
</g>
<path d="M233.463 182.244L254.346 197.935L228.236 193.354L227.676 214.004L220.092 195.099L206.743 213.429L212.254 193.645L187.278 197.957L209.637 186.083L194.651 182.971L210.909 180.368L194.186 160.911L216.871 171.621L220.056 144.719L226.003 170.203C226.003 170.203 244.748 154.825 244.181 155.254C243.614 155.683 231.297 174.995 231.297 174.995L251.655 169.142L233.463 182.244Z" fill="#FFC727"/>
<path opacity="0.4" d="M233.463 182.244L254.346 197.935L228.236 193.354L227.676 214.004L220.092 195.099L206.743 213.429L212.254 193.645L187.278 197.957L209.637 186.083L194.651 182.971L210.909 180.368L194.186 160.911L216.871 171.621L220.056 144.719L226.003 170.203C226.003 170.203 244.748 154.825 244.181 155.254C243.614 155.683 231.297 174.995 231.297 174.995L251.655 169.142L233.463 182.244Z" fill="white"/>
<path opacity="0.4" d="M229.959 182.207L244.595 193.208L226.323 190.009L225.931 204.5L220.616 191.216L211.251 204.071L215.119 190.22L197.756 194.444L213.279 184.919L202.773 182.738L214.166 180.913L202.438 167.273L218.369 174.74L220.601 155.879L224.767 173.744C224.767 173.744 237.906 162.961 237.492 163.266C237.077 163.572 228.461 177.081 228.461 177.081L242.712 172.98L229.959 182.207Z" fill="white"/>
<path d="M229.592 299.164C355.287 299.164 457.183 292.058 457.183 283.293C457.183 274.528 355.287 267.422 229.592 267.422C103.896 267.422 2 274.528 2 283.293C2 292.058 103.896 299.164 229.592 299.164Z" fill="#F0F0F0"/>
<path d="M21.3204 222.35H10.6825C5.33502 222.35 1 226.685 1 232.032V275.238C1 280.585 5.33502 284.92 10.6825 284.92H21.3204C26.6679 284.92 31.003 280.585 31.003 275.238V232.032C31.003 226.685 26.6679 222.35 21.3204 222.35Z" fill="#263238"/>
<path d="M181.519 283.387L192.099 284.493C197.418 285.049 202.18 281.188 202.737 275.87L207.23 232.899C207.786 227.58 203.926 222.818 198.607 222.262L188.027 221.155C182.709 220.599 177.946 224.46 177.39 229.778L172.896 272.749C172.34 278.068 176.201 282.83 181.519 283.387Z" fill="#263238"/>
<path d="M29.0481 176.562C29.0481 176.562 24.9513 174.66 24.3661 173.653C23.7808 172.646 21.2332 168.429 20.2865 168.231C16.7405 167.491 6.97193 167.474 3.62392 169.092C1.7993 169.952 3.40876 177.191 4.98378 178.929C6.55881 180.668 18.307 181.468 20.2263 181.167C21.5661 180.816 22.7559 180.04 23.6173 178.955L28.2477 180.444L29.0481 176.562Z" fill="#455A64"/>
<path d="M30.4089 171.363C30.4089 171.363 27.2244 171.699 26.4326 172.327C25.6408 172.956 22.9899 178.188 23.1104 180.03C23.2309 181.872 25.0641 183.843 25.0641 183.843L30.4089 171.363Z" fill="#455A64"/>
<path opacity="0.1" d="M30.4089 171.363C30.4089 171.363 27.2244 171.699 26.4326 172.327C25.6408 172.956 22.9899 178.188 23.1104 180.03C23.2309 181.872 25.0641 183.843 25.0641 183.843L30.4089 171.363Z" fill="black"/>
<path d="M189.435 183.335C189.435 183.335 193.953 183.335 194.908 182.706C195.864 182.078 199.978 179.307 200.933 179.539C204.453 180.4 213.301 184.531 215.625 187.432C216.899 189.024 212.371 194.851 210.203 195.746C208.034 196.641 197.06 192.363 195.468 191.27C194.404 190.383 193.655 189.175 193.333 187.827L188.514 187.191L189.435 183.335Z" fill="#455A64"/>
<path d="M185.433 179.953C185.433 179.953 188.557 180.676 189.263 181.399C189.968 182.122 191.931 187.63 191.629 189.446C191.328 191.262 189.228 192.992 189.228 192.992L185.433 179.953Z" fill="#455A64"/>
<path opacity="0.1" d="M185.433 179.953C185.433 179.953 188.557 180.676 189.263 181.399C189.968 182.122 191.931 187.63 191.629 189.446C191.328 191.262 189.228 192.992 189.228 192.992L185.433 179.953Z" fill="black"/>
<path d="M13.9353 200.619C13.9353 200.619 6.8434 203.89 5.08764 207.1C3.33187 210.31 3.6245 244.16 3.52983 246.751C3.43515 249.342 7.83318 266.435 8.69385 268.268C9.55452 270.101 22.7142 272.64 22.7142 272.64L13.9353 200.619Z" fill="#455A64"/>
<path opacity="0.1" d="M13.9353 200.619C13.9353 200.619 6.8434 203.89 5.08764 207.1C3.33187 210.31 3.6245 244.16 3.52983 246.751C3.43515 249.342 7.83318 266.435 8.69385 268.268C9.55452 270.101 22.7142 272.64 22.7142 272.64L13.9353 200.619Z" fill="black"/>
<path d="M198.024 207.848C198.024 207.848 202.285 212.271 202.982 214.053C203.154 214.475 203.395 217.711 203.541 218.529C203.541 218.529 205.168 222.832 205.262 224.347C205.314 225.56 201.966 247.748 202.13 250.055C202.293 252.361 203.498 253.704 203.455 254.685C203.122 255.677 202.731 256.648 202.285 257.594C202.285 257.818 202.775 259.823 202.586 260.46C200.864 266.373 198.696 274.42 197.955 275.66C196.931 277.381 183.634 278.922 183.634 278.922L198.024 207.848Z" fill="#455A64"/>
<g opacity="0.1">
<path d="M198.024 207.848C198.024 207.848 202.285 212.271 202.982 214.053C203.154 214.475 203.395 217.711 203.541 218.529C203.541 218.529 205.168 222.832 205.262 224.347C205.314 225.56 201.966 247.748 202.13 250.055C202.293 252.361 203.498 253.704 203.455 254.685C203.122 255.677 202.731 256.648 202.285 257.594C202.285 257.818 202.775 259.823 202.586 260.46C200.864 266.373 198.696 274.42 197.955 275.66C196.931 277.381 183.634 278.922 183.634 278.922L198.024 207.848Z" fill="black"/>
</g>
<path d="M198.514 264.161C198.42 265.022 194.917 277.597 193.643 278.845C192.369 280.092 167.823 280.144 166.291 280.092C164.759 280.041 160.206 277.192 159.328 276.951C158.45 276.71 109.228 274.92 103.212 274.679C97.1962 274.438 47.9917 272.372 47.0966 272.544C46.2015 272.717 41.3989 275.187 39.8928 275.126C38.3866 275.066 13.9091 273.087 12.7386 271.735C11.5681 270.384 9.06356 257.595 9.02913 256.734C8.9947 255.873 10.0705 252.749 10.0964 252.06C10.1222 251.372 11.2583 203.863 11.4993 203.002C11.7402 202.142 13.9263 195.73 14.8559 194.396C15.7854 193.062 23.9273 183.491 24.1253 182.888C29.4614 168.739 43.6453 148.298 45.7625 146.534C47.7298 144.913 50.1181 143.886 52.6479 143.573C54.6963 143.401 82.384 143.47 108.247 144.485C134.11 145.501 161.721 147.61 163.752 147.928C166.259 148.438 168.572 149.646 170.422 151.414C172.384 153.342 184.924 174.841 189.142 189.361C189.322 189.98 196.707 200.093 197.524 201.513C198.342 202.933 200.02 209.44 200.193 210.361C200.27 210.8 199.203 221.137 198.618 232.394C198.549 233.788 198.902 235.493 198.936 236.895C198.936 237.532 195.166 243.721 195.201 244.082C195.356 245.623 197.783 259.127 197.74 259.419C197.791 260.108 198.618 263.275 198.514 264.161Z" fill="#455A64"/>
<path opacity="0.1" d="M192.903 255.478C192.903 256.296 191.509 262.613 190.786 262.76C170.861 266.899 123.292 269.163 103.471 268.061C83.6239 267.605 36.3903 261.624 16.8445 255.935C16.1302 255.728 15.2781 249.325 15.3125 248.507C15.347 247.689 16.5175 238.661 17.5331 238.429C18.5486 238.196 39.2822 242.732 56.7452 245.787C72.4339 248.402 88.2739 250.009 104.168 250.598C120.057 251.26 135.972 250.897 151.815 249.514C169.45 247.879 190.476 244.944 191.483 245.262C192.49 245.581 192.929 254.661 192.903 255.478Z" fill="black"/>
<path opacity="0.5" d="M173.882 247.121L166.412 265.978C144.422 267.966 117.225 268.827 103.437 268.061C89.6659 267.742 62.5978 264.756 40.8228 261.046L34.8584 241.664C41.5974 242.998 49.4381 244.53 56.7108 245.787C72.4109 248.403 88.2625 250.01 104.168 250.598C120.057 251.259 135.972 250.897 151.815 249.513C159.148 248.833 167.092 247.93 173.882 247.121Z" fill="white"/>
<path d="M151.808 249.512C151.885 249.977 147.823 257.327 144.793 261.673C143.932 262.973 139.698 265.873 138.768 266.045C137.839 266.218 125.919 268.937 103.481 268.059C81.0433 267.181 69.4328 263.524 68.4861 263.283C67.5394 263.042 63.5889 259.84 62.7885 258.454C60.1204 253.884 56.6433 246.233 56.7638 245.785C56.8843 245.338 70.8013 249.28 104.178 250.596C137.555 251.913 151.739 249.056 151.808 249.512Z" fill="#263238"/>
<path d="M29.902 248.988C29.8691 249.806 29.5944 250.596 29.1128 251.257C28.6312 251.919 27.9642 252.423 27.1961 252.706C26.428 252.989 25.5933 253.038 24.7975 252.847C24.0017 252.655 23.2805 252.232 22.725 251.631C22.1695 251.03 21.8047 250.277 21.6767 249.469C21.5487 248.661 21.6632 247.832 22.0057 247.089C22.3482 246.346 22.9035 245.72 23.6012 245.293C24.2989 244.865 25.1078 244.653 25.9257 244.685C26.4695 244.706 27.0038 244.834 27.4981 245.062C27.9923 245.289 28.4368 245.612 28.8061 246.012C29.1754 246.412 29.4623 246.88 29.6504 247.391C29.8384 247.902 29.9239 248.444 29.902 248.988Z" fill="white"/>
<path d="M22.9554 245.768C23.5913 245.192 24.3794 244.811 25.2258 244.67C26.0723 244.529 26.9413 244.635 27.7295 244.974C28.5176 245.313 29.1917 245.872 29.6713 246.583C30.1509 247.295 30.4159 248.129 30.4346 248.987C30.4316 249.607 30.3011 250.219 30.0513 250.787C29.8014 251.354 29.4375 251.864 28.9822 252.284C28.5269 252.705 27.99 253.027 27.4048 253.231C26.8195 253.435 26.1986 253.517 25.5805 253.471C24.7221 253.385 23.907 253.052 23.2334 252.513C22.5597 251.974 22.0562 251.252 21.7834 250.433C21.5106 249.615 21.4801 248.735 21.6957 247.9C21.9113 247.064 22.3637 246.309 22.9984 245.725L22.9554 245.768ZM22.9554 245.768C22.4059 246.276 22.0164 246.933 21.8346 247.659C21.6528 248.385 21.6867 249.148 21.9321 249.855C22.1775 250.562 22.6237 251.182 23.2161 251.639C23.8086 252.096 24.5214 252.371 25.2675 252.429C26.0135 252.487 26.7604 252.326 27.4165 251.967C28.0726 251.607 28.6095 251.064 28.9616 250.403C29.3136 249.743 29.4653 248.994 29.3983 248.249C29.3313 247.504 29.0484 246.794 28.5842 246.207C28.2538 245.793 27.842 245.452 27.3743 245.204C26.9065 244.956 26.3928 244.807 25.8651 244.766C25.3373 244.725 24.8067 244.792 24.3062 244.965C23.8057 245.137 23.3459 245.411 22.9554 245.768Z" fill="#DBDBDB"/>
<path d="M177.859 254.788C177.827 255.606 178.038 256.415 178.466 257.113C178.894 257.811 179.519 258.366 180.263 258.708C181.006 259.051 181.834 259.165 182.643 259.037C183.451 258.909 184.204 258.544 184.805 257.989C185.406 257.434 185.829 256.712 186.02 255.916C186.212 255.121 186.163 254.286 185.88 253.518C185.597 252.75 185.093 252.083 184.431 251.601C183.769 251.12 182.98 250.845 182.162 250.812C181.618 250.79 181.075 250.876 180.565 251.064C180.054 251.252 179.586 251.539 179.186 251.908C178.786 252.277 178.463 252.722 178.235 253.216C178.008 253.71 177.88 254.244 177.859 254.788Z" fill="white"/>
<path d="M185.072 252.138C184.564 251.588 183.907 251.199 183.181 251.017C182.455 250.835 181.692 250.869 180.985 251.115C180.278 251.36 179.658 251.806 179.201 252.399C178.744 252.991 178.469 253.704 178.411 254.45C178.353 255.196 178.514 255.943 178.873 256.599C179.233 257.255 179.777 257.792 180.437 258.144C181.097 258.496 181.846 258.648 182.591 258.581C183.337 258.514 184.046 258.231 184.633 257.767C185.046 257.436 185.386 257.024 185.633 256.556C185.88 256.088 186.029 255.575 186.07 255.047C186.111 254.52 186.044 253.99 185.872 253.489C185.701 252.989 185.428 252.529 185.072 252.138ZM185.072 252.138C185.652 252.773 186.037 253.562 186.179 254.411C186.322 255.259 186.216 256.131 185.876 256.921C185.535 257.711 184.973 258.385 184.258 258.864C183.543 259.342 182.705 259.604 181.845 259.617C181.225 259.613 180.613 259.482 180.047 259.231C179.48 258.981 178.971 258.617 178.55 258.162C178.13 257.707 177.808 257.171 177.603 256.586C177.398 256.001 177.316 255.381 177.36 254.763C177.447 253.905 177.78 253.09 178.319 252.416C178.858 251.742 179.58 251.239 180.398 250.966C181.217 250.693 182.096 250.663 182.932 250.878C183.767 251.094 184.522 251.546 185.107 252.181L185.072 252.138Z" fill="#DBDBDB"/>
<path d="M185.519 188.525C185.519 188.525 148.51 188.689 106.656 187.045C64.8014 185.401 27.9131 182.337 27.9131 182.337C36.2186 163.695 46.6757 149.434 47.7946 148.659C49.7535 147.663 51.8215 146.898 53.957 146.378C58.6476 145.397 91.8264 146.499 108.222 147.144C124.618 147.79 157.78 149.287 162.376 150.63C164.463 151.32 166.464 152.247 168.34 153.393C169.399 154.254 178.702 169.289 185.519 188.525Z" fill="#37474F"/>
<path d="M185.519 188.526C185.519 188.526 148.51 188.69 106.656 187.046C64.8014 185.402 27.9131 182.338 27.9131 182.338C28.6934 180.582 29.491 178.861 30.3057 177.174C38.792 177.845 70.9896 180.298 106.862 181.71C142.735 183.121 175.027 183.199 183.539 183.19C184.211 184.934 184.871 186.713 185.519 188.526Z" fill="#263238"/>
<g opacity="0.3">
<path d="M185.519 188.526C181.999 185.944 177.472 182.992 174.21 180.375L174.262 175.013L174.374 175.194L166.361 171.338H166.309V171.295L160.336 162.318C156.377 160.898 151.359 158.876 147.064 157.154C151.583 158.798 156.17 160.365 160.629 162.103L166.653 171.046L166.576 170.968L174.563 174.858L174.675 174.91V175.03L174.58 180.384C177.756 182.475 182.033 185.952 185.545 188.534L185.519 188.526Z" fill="white"/>
<path d="M178.72 183.577C175.028 183.818 171.335 184.093 167.643 184.283L159.363 181.787C155.706 181.511 151.566 181.184 147.753 180.857C143.94 180.53 139.947 180.203 136.039 179.842C133.845 177.019 131.676 174.161 129.507 171.312C131.598 173.972 134.387 177.165 136.125 179.566C140.016 179.842 143.903 180.129 147.787 180.427C151.672 180.725 155.568 181.047 159.475 181.391L167.729 183.973C171.172 183.792 175.122 183.68 178.72 183.543V183.577Z" fill="white"/>
<path d="M156.902 181.374C154.269 179.868 151.592 178.147 149.079 176.442C147.616 176.21 145.335 175.642 143.622 175.203C145.507 175.453 147.392 175.745 149.259 176.064C151.841 177.708 154.475 179.506 156.902 181.34V181.374Z" fill="white"/>
<path d="M173.435 174.522C172.574 173.137 171.851 171.725 171.111 170.296C171.421 168.721 171.92 166.484 172.299 164.9V165.029C171.653 163.85 171.008 162.68 170.406 161.475C171.189 162.593 171.912 163.747 172.643 164.917C172.325 166.527 171.851 168.756 171.473 170.331C172.193 171.699 172.842 173.104 173.418 174.54L173.435 174.522Z" fill="white"/>
<path d="M173.306 183.826C171.765 182.793 169.975 181.519 168.607 180.529L165.164 179.066L161.721 177.551H161.635C161.394 176.484 161.188 175.4 160.964 174.324C160.74 173.248 160.559 172.224 160.37 171.174C160.663 172.198 160.947 173.231 161.231 174.264C161.515 175.296 161.773 176.338 162.005 177.379L161.902 177.242L165.345 178.713L168.787 180.219C170.325 181.407 171.843 182.621 173.34 183.86L173.306 183.826Z" fill="white"/>
<path d="M162.118 182.406C160.594 183.267 159.054 184.128 157.487 184.988C155.009 184.988 152.524 184.934 150.034 184.825C149.216 184.825 148.39 184.73 147.573 184.67C148.39 184.627 149.216 184.592 150.043 184.575C152.358 184.575 155.379 184.498 157.358 184.627C158.925 183.864 160.511 183.135 162.118 182.441V182.406Z" fill="white"/>
</g>
<path d="M40.8838 179.721L53.8627 180.228C53.5982 179.115 53.2383 178.027 52.7869 176.975C52.434 176.553 49.1118 175.839 47.5368 175.779C45.9617 175.719 42.5965 176.175 42.2178 176.562C41.6831 177.575 41.2368 178.631 40.8838 179.721Z" fill="#263238"/>
<path d="M47.1396 176.098C47.1396 176.098 54.8082 173.593 55.5312 173.516C56.2541 173.438 86.8682 172.285 86.8682 172.285L86.9198 172.956C86.9198 172.956 57.3386 175.108 56.8566 175.16C56.3746 175.211 47.2946 178.413 47.2946 178.413L47.1396 176.098Z" fill="#263238"/>
<path d="M126.701 183.087L139.689 183.604C139.425 182.489 139.062 181.4 138.604 180.35C138.26 179.929 134.929 179.214 133.363 179.146C131.796 179.077 128.414 179.541 128.035 179.937C127.499 180.946 127.053 182 126.701 183.087Z" fill="#263238"/>
<path d="M132.958 179.463C132.958 179.463 140.627 176.967 141.35 176.881C142.073 176.795 172.695 175.65 172.695 175.65L172.738 176.322L142.684 178.516C142.202 178.559 133.113 181.735 133.113 181.735L132.958 179.463Z" fill="#263238"/>
<g opacity="0.1">
<path d="M95.1057 146.663L54.439 184.257C50.9964 184.041 47.8721 183.826 44.9717 183.628L85.2769 146.361L95.1057 146.663Z" fill="white"/>
<path d="M169.579 155.027L133.982 187.879L124.145 187.612L163.675 151.068C165.309 151.659 166.873 152.426 168.34 153.358C168.803 153.875 169.218 154.434 169.579 155.027Z" fill="white"/>
<path d="M182.972 181.787L175.699 188.518C172.859 188.518 169.485 188.518 165.655 188.44L180.123 175.074C181.078 177.209 182.034 179.455 182.972 181.787Z" fill="white"/>
<path d="M82.212 146.277L42.0446 183.415L40.5986 183.311L80.6973 146.242L82.212 146.277Z" fill="white"/>
<path d="M128.999 148.057L87.7296 186.202L86.2578 186.125L127.518 147.988L128.999 148.057Z" fill="white"/>
<path d="M178.409 171.364L159.999 188.379H158.467L177.935 170.383C178.09 170.667 178.254 171.02 178.409 171.364Z" fill="white"/>
<path d="M61.0658 146L32.9219 172.018C34.1354 169.703 35.349 167.517 36.5195 165.468L57.5026 146.077C58.5526 146.043 59.7231 146.009 61.0658 146Z" fill="white"/>
<path d="M142.037 148.754L100.88 186.813L97.5576 186.666L138.766 148.564L142.037 148.754Z" fill="white"/>
</g>
<path opacity="0.1" d="M27.9124 182.338C25.95 186.262 23.646 190.006 21.027 193.527C20.9582 193.621 20.8205 193.811 20.7602 193.905C20.6139 194.318 21.0615 195.214 21.3025 195.67C21.6381 196.332 22.0426 196.978 22.4385 197.641C21.4402 196.78 19.1164 194.671 20.0115 193.234C22.2502 189.336 24.9082 185.693 27.9382 182.372L27.9124 182.338Z" fill="black"/>
<path opacity="0.1" d="M185.519 188.525C188.288 192.072 190.654 195.914 192.577 199.981C193.351 201.487 190.855 203.424 189.805 204.181C190.253 203.553 190.709 202.942 191.096 202.305C191.372 201.866 191.888 201.014 191.776 200.583C191.725 200.489 191.604 200.291 191.535 200.187C189.194 196.482 187.178 192.58 185.511 188.525H185.519Z" fill="black"/>
<path d="M124.667 241.923L84.376 240.34L83.9529 251.107L124.244 252.69L124.667 241.923Z" fill="white"/>
<path opacity="0.1" d="M128.095 214.027L123.878 207.09L99.4346 216.833L124.532 215.74L128.095 214.027Z" fill="black"/>
<path opacity="0.1" d="M170.285 207.469L145.007 188.182L142.012 199.68L170.285 207.469Z" fill="black"/>
<path d="M191.776 200.583C191.475 204.207 183.454 209.543 183.454 209.543C183.454 209.543 175.708 212.073 165.776 214.707C163.555 215.12 161.205 215.507 158.744 215.852C145.335 217.728 107.37 217.169 96.0957 217.048C100.563 216.833 126.434 214.612 128.13 214.018C129.825 213.425 140.317 200.644 142.038 199.68C142.856 199.215 167.858 206.393 170.311 207.469C170.552 207.572 182.223 198.862 182.516 198.268C182.808 197.674 185.545 188.525 185.545 188.525C185.545 188.525 191.957 198.75 191.776 200.583Z" fill="#263238"/>
<path opacity="0.1" d="M182.489 198.268L171.645 188.543L185.519 188.525L182.489 198.268Z" fill="black"/>
<path opacity="0.1" d="M198.661 219.983C198.661 220.844 198.395 225.819 197.698 226.197C195.77 227.256 187.369 229.562 182.111 230.32C157.616 233.849 122.165 234.993 104.814 234.021C87.4284 233.625 52.184 229.717 28.0422 224.269C22.8782 223.107 14.6588 220.147 12.8169 218.942C12.1628 218.503 12.3178 213.537 12.3522 212.676C12.3866 211.815 18.6265 200.48 19.7109 200.231C20.7954 199.981 32.5349 207.28 52.5111 211.695C72.9864 216.213 105.459 217.591 105.459 217.591C105.459 217.591 137.933 218.77 158.701 215.869C178.961 213.038 191.208 207.263 192.267 207.633C193.325 208.003 198.696 219.123 198.661 219.983Z" fill="black"/>
<path opacity="0.5" d="M197.697 226.197C190.614 229.64 182.825 231.258 175.062 232.282C167.299 233.306 159.518 234.261 151.712 234.958C136.091 236.293 120.401 237.256 104.711 236.611C79.2521 235.397 53.9828 231.223 29.1955 225.422C23.4737 224.02 17.9714 221.84 12.8428 218.941C18.1104 221.493 23.6803 223.367 29.4193 224.519C54.3271 229.123 79.5103 233.031 104.831 234.158C120.401 234.855 136.03 233.977 151.591 233.056C159.38 232.523 167.17 231.903 174.941 231.094C178.827 230.797 182.692 230.274 186.517 229.528C190.331 228.721 194.072 227.607 197.706 226.197H197.697Z" fill="white"/>
<path d="M24.2208 198.105C28.395 198.656 47.8203 211.799 48.6208 212.849C49.4212 213.899 51.0306 224.201 49.7396 225.156C48.4486 226.111 33.3869 225.001 28.92 224.098C24.4531 223.194 15.1493 220.285 13.1009 218.581C11.0525 216.877 13.1009 205.516 15.287 203.304C18.1014 200.464 21.5441 197.752 24.2208 198.105Z" fill="white"/>
<path d="M24.2213 198.104C25.2913 198.362 26.326 198.75 27.3025 199.258C30.2718 200.695 33.112 202.399 35.9092 204.095C40.1351 206.677 44.3696 209.259 48.3803 212.211C48.8773 212.592 49.2147 213.144 49.327 213.76C49.6318 214.833 49.8789 215.922 50.0672 217.022C50.5064 219.22 50.7141 221.459 50.6869 223.701C50.6008 224.974 50.3512 225.818 48.9656 225.938C45.3551 226.177 41.7313 226.122 38.1297 225.775C34.8075 225.573 31.5015 225.159 28.232 224.535C23.3605 223.422 18.6269 221.774 14.117 219.621C13.5813 219.363 13.0925 219.017 12.6711 218.597C11.5264 216.583 12.0686 214.078 12.2924 211.909C12.8432 208.966 13.3682 205.79 15.167 203.303C17.5769 201.031 20.6495 197.889 24.2041 198.078L24.2213 198.104ZM24.2213 198.104C20.8389 197.967 18.145 200.686 15.8384 202.812C15.0399 203.566 14.4473 204.511 14.117 205.558C13.3967 207.636 12.9173 209.79 12.6883 211.978C12.4732 213.592 12.4732 215.227 12.6883 216.841C12.7016 217.212 12.8079 217.573 12.9974 217.892C13.1869 218.211 13.4535 218.477 13.7728 218.666C17.3876 220.576 21.4069 221.592 25.3316 222.685C29.5612 223.742 33.8862 224.374 38.2416 224.57C40.4277 224.742 42.6224 224.871 44.7999 224.931C46.3401 225.043 47.8881 224.977 49.4131 224.733C49.4131 224.794 49.525 224.587 49.5594 224.363C49.8021 221.967 49.7094 219.548 49.284 217.177C49.1207 215.842 48.8325 214.525 48.4233 213.243C48.3717 213.046 48.1651 212.925 47.993 212.753C44.1114 209.706 39.9888 206.952 35.8489 204.258C33.0894 202.449 30.2335 200.791 27.2939 199.292C26.321 198.779 25.2892 198.385 24.2213 198.122V198.104Z" fill="#DBDBDB"/>
<path d="M33.9553 213.76C33.9168 214.719 33.6401 215.654 33.1503 216.479C32.6604 217.305 31.9727 217.996 31.1492 218.489C30.3257 218.983 29.3924 219.263 28.4333 219.306C27.4743 219.349 26.5197 219.152 25.6557 218.734C24.7916 218.315 24.0453 217.688 23.4841 216.909C22.9228 216.131 22.5642 215.224 22.4407 214.272C22.3171 213.32 22.4325 212.353 22.7764 211.456C23.1203 210.56 23.6819 209.763 24.4105 209.138C25.2676 208.413 26.3167 207.952 27.4306 207.811C28.5445 207.671 29.6753 207.856 30.6858 208.346C31.6963 208.835 32.5431 209.607 33.1234 210.568C33.7038 211.529 33.9928 212.638 33.9553 213.76ZM33.9553 213.76C33.9879 212.921 33.8152 212.086 33.4524 211.329C33.0895 210.571 32.5474 209.914 31.873 209.413C31.1986 208.913 30.4123 208.584 29.5823 208.456C28.7522 208.328 27.9035 208.405 27.1096 208.679C26.3158 208.953 25.6007 209.417 25.0266 210.029C24.4524 210.642 24.0363 211.386 23.8145 212.196C23.5927 213.006 23.5718 213.858 23.7537 214.678C23.9355 215.498 24.3146 216.261 24.858 216.902C25.5312 217.695 26.4281 218.266 27.4314 218.541C28.4346 218.815 29.4975 218.781 30.4808 218.441C31.464 218.102 32.3218 217.473 32.9418 216.638C33.5617 215.803 33.915 214.8 33.9553 213.76Z" fill="#DBDBDB"/>
<path d="M44.9454 217.824C44.8996 218.78 44.5788 219.703 44.0215 220.482C43.4642 221.26 42.6941 221.861 41.8036 222.213C40.9131 222.565 39.9401 222.652 39.0013 222.464C38.0624 222.276 37.1977 221.822 36.5108 221.155C36.0311 220.665 35.6564 220.083 35.4097 219.443C35.163 218.804 35.0495 218.121 35.0761 217.436C35.1026 216.751 35.2688 216.079 35.5644 215.46C35.8599 214.842 36.2786 214.29 36.7949 213.839C37.532 213.227 38.4303 212.841 39.3818 212.727C40.3333 212.613 41.2974 212.776 42.1583 213.197C43.0191 213.618 43.7401 214.278 44.2346 215.099C44.729 215.92 44.9758 216.866 44.9454 217.824ZM44.9454 217.824C44.9698 216.989 44.7508 216.166 44.3151 215.453C43.8793 214.741 43.2457 214.17 42.4915 213.812C41.7373 213.453 40.8951 213.322 40.0675 213.434C39.24 213.546 38.4628 213.896 37.8308 214.442C37.1989 214.988 36.7394 215.706 36.5084 216.508C36.2774 217.311 36.285 218.163 36.5301 218.961C36.7752 219.76 37.2472 220.469 37.8887 221.004C38.5302 221.539 39.3135 221.875 40.1429 221.972C40.7356 222.042 41.3364 221.987 41.9069 221.812C42.4774 221.637 43.0053 221.345 43.457 220.955C43.9086 220.565 44.2742 220.085 44.5304 219.546C44.7867 219.007 44.928 218.421 44.9454 217.824Z" fill="#DBDBDB"/>
<path d="M21.9916 208.158C21.2773 209.999 20.2703 219.028 20.5371 220.207C20.7964 220.899 21.1719 221.543 21.6474 222.109C17.9293 220.939 14.2886 219.527 13.1009 218.546C11.0525 216.825 13.1009 205.481 15.287 203.269C18.0584 200.429 21.5441 197.709 24.2208 198.105C25.9039 198.552 27.515 199.236 29.0061 200.136C29.0061 200.136 22.706 206.324 21.9916 208.158Z" fill="#FFC727"/>
<path d="M187.973 204.534C183.764 204.758 163.366 216.334 162.488 217.324C161.61 218.314 159.192 228.452 160.405 229.502C161.619 230.552 176.689 230.63 181.251 230.079C185.812 229.528 195.28 227.359 197.449 225.819C199.617 224.278 198.455 212.788 196.476 210.421C193.928 207.375 190.675 204.388 187.973 204.534Z" fill="white"/>
<path d="M187.972 204.535C186.885 204.714 185.824 205.027 184.813 205.465C181.763 206.731 178.786 208.168 175.897 209.768C171.593 212.135 167.23 214.545 163.124 217.282C162.935 217.445 162.729 217.548 162.651 217.738C162.147 218.984 161.761 220.275 161.498 221.594C160.886 223.924 160.596 226.328 160.637 228.737C160.637 228.961 160.766 229.185 160.758 229.116C160.939 229.197 161.13 229.254 161.326 229.288C164.835 229.714 168.369 229.895 171.903 229.83C176.27 229.979 180.641 229.691 184.951 228.97C188.936 228.186 193.033 227.481 196.785 225.863C197.117 225.701 197.402 225.459 197.616 225.158C197.829 224.857 197.964 224.508 198.007 224.141C198.344 222.55 198.463 220.919 198.36 219.296C198.297 217.104 197.985 214.927 197.431 212.806C197.187 211.735 196.672 210.745 195.933 209.932C193.816 207.599 191.329 204.707 187.955 204.578L187.972 204.535ZM187.972 204.535C191.527 204.63 194.341 207.978 196.579 210.448C198.18 213.03 198.455 216.257 198.773 219.227C198.825 221.43 199.161 223.935 197.861 225.871C197.409 226.254 196.897 226.559 196.346 226.775C191.684 228.567 186.838 229.838 181.896 230.562C176.381 231.111 170.831 231.2 165.302 230.829C163.895 230.768 162.494 230.604 161.11 230.338C160.766 230.278 160.435 230.153 160.138 229.968C159.981 229.832 159.853 229.666 159.761 229.48C159.669 229.294 159.616 229.091 159.604 228.884C159.406 226.302 160.112 223.831 160.697 221.361C160.971 220.28 161.301 219.214 161.687 218.168C161.848 217.564 162.229 217.043 162.754 216.705C166.98 214.123 171.404 211.834 175.819 209.587C178.78 208.116 181.741 206.644 184.813 205.439C185.83 205.025 186.894 204.736 187.981 204.578L187.972 204.535Z" fill="#DBDBDB"/>
<path d="M177.041 219.373C177.001 220.214 177.166 221.052 177.523 221.814C177.881 222.576 178.419 223.24 179.091 223.746C179.763 224.253 180.549 224.588 181.38 224.721C182.212 224.855 183.063 224.783 183.86 224.512C184.657 224.241 185.376 223.78 185.954 223.168C186.532 222.556 186.951 221.812 187.176 221.001C187.401 220.189 187.423 219.335 187.243 218.513C187.062 217.691 186.683 216.926 186.138 216.283C185.466 215.491 184.57 214.92 183.567 214.645C182.565 214.37 181.502 214.403 180.52 214.742C179.537 215.08 178.679 215.708 178.058 216.542C177.438 217.376 177.083 218.378 177.041 219.416V219.373ZM177.041 219.373C177.084 218.415 177.365 217.482 177.858 216.66C178.351 215.837 179.041 215.15 179.866 214.66C180.691 214.17 181.625 213.894 182.583 213.854C183.542 213.815 184.495 214.015 185.357 214.436C186.219 214.857 186.962 215.486 187.521 216.265C188.08 217.045 188.435 217.952 188.556 218.903C188.678 219.855 188.56 220.822 188.215 221.716C187.869 222.611 187.306 223.406 186.577 224.029C185.72 224.752 184.672 225.211 183.559 225.35C182.447 225.489 181.318 225.303 180.309 224.814C179.3 224.325 178.455 223.554 177.875 222.595C177.295 221.635 177.005 220.528 177.041 219.408V219.373Z" fill="#DBDBDB"/>
<path d="M165.758 222.565C165.725 223.412 165.939 224.249 166.375 224.976C166.811 225.702 167.45 226.285 168.213 226.653C168.976 227.021 169.829 227.158 170.669 227.047C171.509 226.936 172.298 226.583 172.94 226.03C173.581 225.477 174.047 224.748 174.28 223.934C174.513 223.119 174.503 222.255 174.251 221.446C173.999 220.637 173.517 219.92 172.863 219.382C172.209 218.843 171.412 218.508 170.569 218.417C169.978 218.357 169.38 218.418 168.813 218.596C168.246 218.775 167.721 219.067 167.271 219.455C166.82 219.844 166.454 220.32 166.194 220.854C165.934 221.389 165.786 221.971 165.758 222.565ZM165.758 222.565C165.789 221.741 166.026 220.937 166.446 220.227C166.866 219.517 167.457 218.923 168.165 218.499C168.873 218.075 169.676 217.835 170.5 217.799C171.324 217.764 172.144 217.935 172.886 218.297C173.627 218.659 174.267 219.2 174.746 219.871C175.226 220.543 175.53 221.323 175.632 222.142C175.734 222.961 175.629 223.792 175.328 224.56C175.027 225.329 174.54 226.01 173.909 226.542C173.171 227.149 172.274 227.532 171.325 227.645C170.376 227.757 169.414 227.594 168.555 227.174C167.696 226.755 166.975 226.098 166.48 225.281C165.984 224.463 165.733 223.521 165.758 222.565Z" fill="#DBDBDB"/>
<path d="M189.375 214.733C189.943 216.618 190.236 225.706 189.883 226.894C189.566 227.562 189.142 228.172 188.626 228.702C192.422 227.841 196.157 226.722 197.422 225.818C199.6 224.278 198.429 212.788 196.441 210.421C193.902 207.366 190.64 204.396 187.946 204.534C186.233 204.845 184.572 205.399 183.015 206.178C183.015 206.178 188.841 212.839 189.375 214.733Z" fill="#FFC727"/>
<path d="M198.618 220.421L195.743 222.702L194.022 226.033L191.904 223.941L190.106 224.647L187.584 225.645L185.088 224.983L183.367 225.508L181.731 221.772H178.883L178.547 219.535L180.07 216.712L184.279 213.674L182.644 212.933L183.074 210.136L185.234 208.742L187.627 207.193L190.476 205.549L193.299 208.57L195.743 209.542C196.018 209.844 196.277 210.145 196.535 210.455C197.309 211.376 197.964 213.699 198.342 216.273L197.68 218.295L198.661 219.5C198.6 219.784 198.618 220.103 198.618 220.421Z" fill="#263238"/>
<path d="M183.005 210.102C182.084 210.153 181.155 210.188 180.234 210.205C179.27 210.902 177.531 211.866 176.3 212.641C173.934 213.579 171.567 214.5 169.14 215.283C171.377 214.207 173.899 213.157 176.085 212.271C177.454 211.488 178.814 210.678 180.199 209.93C181.137 209.973 182.076 210.033 183.005 210.102Z" fill="#DBDBDB"/>
<path d="M178.813 221.74C177.454 221.598 176.103 221.38 174.768 221.086C173.094 221.282 171.41 221.38 169.725 221.378C171.388 221.046 173.069 220.807 174.76 220.664C176.119 220.965 177.479 221.301 178.813 221.74Z" fill="#DBDBDB"/>
<path d="M158.701 215.861C158.787 216.326 153.305 227.007 152.332 228.298C151.359 229.589 146.875 231.74 145.842 231.878C144.81 232.016 128.956 234.615 104.823 233.668C80.6898 232.722 65.0858 228.917 64.0702 228.668C63.0546 228.418 58.7513 225.957 57.8906 224.597C57.0299 223.237 52.3823 212.143 52.5114 211.687C52.6405 211.231 67.6334 214.777 76.7651 215.491C81.2578 215.852 95.3298 217.212 105.46 217.582C115.59 217.953 129.714 217.755 134.223 217.755C143.381 217.763 158.623 215.422 158.701 215.861Z" fill="#263238"/>
<path d="M62.4092 213.372C64.4576 213.751 66.6523 214.147 68.8298 214.491L53.2431 213.88C53.114 213.562 53.0107 213.261 52.916 213.02L62.4092 213.372ZM148.7 216.763C146.634 216.979 144.397 217.194 142.219 217.366L157.797 217.986C157.952 217.676 158.081 217.392 158.202 217.125L148.7 216.763ZM114.858 217.796C111.614 217.796 108.369 217.702 105.46 217.59C102.551 217.478 99.3061 217.28 96.0614 217.056L53.8455 215.421L54.1984 216.281L156.67 220.292L157.092 219.432L114.858 217.796ZM54.8267 217.796C54.9472 218.089 55.0677 218.382 55.1968 218.657L155.482 222.599C155.628 222.323 155.775 222.039 155.912 221.738L54.8267 217.796ZM55.8423 220.198L56.2296 221.058L154.26 224.888L154.716 224.028L55.8423 220.198ZM56.9009 222.599C57.0472 222.917 57.1936 223.21 57.3054 223.459L152.995 227.212L153.468 226.351L56.9009 222.599ZM58.2177 225.009C58.5369 225.321 58.8793 225.609 59.2419 225.869L150.877 229.467C151.262 229.222 151.627 228.948 151.971 228.649L58.2177 225.009ZM61.6604 227.505C62.2171 227.842 62.7918 228.15 63.3818 228.426L146.436 231.687C147.061 231.46 147.673 231.199 148.27 230.904L61.6604 227.505ZM71.9282 230.267C73.9766 230.629 76.3951 231.016 79.1492 231.403L130.557 233.426C133.346 233.254 135.781 233.056 137.856 232.849L71.9282 230.267Z" fill="#455A64"/>
<path d="M195.279 244.092L192.327 239.513L183.927 239.272L177.033 238.42L164.751 242.138L159.562 242.086L164.751 242.801L177.033 240.133L184.022 241.57H189.608L195.873 247.75L195.279 244.092Z" fill="#37474F"/>
<path d="M209.067 267.19L267.655 269.106H397.253L453.168 266.265V254.05L446 243.695L426.505 236.807L401.766 243.695L391.953 252.956L280.982 254.05L259.244 238.209L242.253 232.078L217.347 238.517L211.272 249.657L207.684 260.872L209.067 267.19Z" fill="#263238"/>
<path opacity="0.6" d="M209.067 267.19L267.655 269.106H397.253L453.168 266.265V254.05L446 243.695L426.505 236.807L401.766 243.695L391.953 252.956L280.982 254.05L259.244 238.209L242.253 232.078L217.347 238.517L211.272 249.657L207.684 260.872L209.067 267.19Z" fill="black"/>
<path d="M212.478 257.928C214.59 252.815 222.87 244.311 227.964 242.18C232.917 240.105 244.674 239.713 249.459 242.18C254.506 244.788 260.889 255.264 262.618 260.694C263.253 262.694 263.066 267.498 262.861 270.666L401.178 272.124C400.888 268.283 400.692 262.984 401.598 260.769C403.692 255.666 411.991 247.161 417.084 245.03C422.038 242.946 433.794 242.563 438.579 245.03C443.626 247.629 450.019 258.115 451.748 263.544C452.164 265.613 452.303 267.729 452.159 269.834C453.22 269.054 454.164 268.125 454.963 267.077L456.262 265.32C457.998 262.983 458.935 260.148 458.934 257.236V252.722C458.934 250.234 458.252 247.794 456.963 245.666L453.635 240.199V203.04C453.637 201.212 453.268 199.404 452.551 197.722L439.262 166.48C438.25 164.1 436.579 162.059 434.447 160.597C432.314 159.135 429.809 158.313 427.224 158.227C412.953 157.741 384.954 156.9 373.58 157.293C357.038 157.853 312.683 162.377 299.459 163.751C297.017 164.006 294.723 165.041 292.917 166.704L253.665 202.778L214.59 219.778C212.959 220.496 211.519 221.584 210.383 222.957C209.247 224.329 208.448 225.948 208.048 227.685L204.366 243.573L203.142 245.171C201.33 247.545 200.515 250.532 200.871 253.498L201.628 259.685C201.987 262.617 203.467 265.297 205.758 267.161L206.244 267.554C207.926 268.927 209.966 269.79 212.123 270.04C211.786 266.189 211.506 260.283 212.478 257.928Z" fill="#4E94EA"/>
<path d="M236.906 288.453C248.649 288.453 258.168 278.934 258.168 267.191C258.168 255.449 248.649 245.93 236.906 245.93C225.164 245.93 215.645 255.449 215.645 267.191C215.645 278.934 225.164 288.453 236.906 288.453Z" fill="#263238"/>
<path opacity="0.5" d="M236.907 282.003C245.088 282.003 251.72 275.371 251.72 267.19C251.72 259.009 245.088 252.377 236.907 252.377C228.726 252.377 222.094 259.009 222.094 267.19C222.094 275.371 228.726 282.003 236.907 282.003Z" fill="white"/>
<g opacity="0.5">
<path d="M231.412 262.31L230.384 259.226C230.276 258.896 230.083 258.6 229.825 258.368C229.568 258.136 229.254 257.975 228.915 257.901C228.576 257.827 228.223 257.843 227.892 257.948C227.562 258.053 227.264 258.242 227.029 258.497C225.873 259.805 224.99 261.33 224.43 262.983C224.326 263.315 224.31 263.669 224.384 264.009C224.458 264.349 224.619 264.665 224.852 264.923C225.086 265.182 225.382 265.375 225.713 265.484C226.044 265.593 226.398 265.613 226.739 265.544L229.916 264.899C230.194 264.843 230.456 264.729 230.686 264.564C230.916 264.399 231.108 264.187 231.249 263.942C231.391 263.697 231.479 263.425 231.507 263.144C231.535 262.862 231.502 262.578 231.412 262.31Z" fill="black"/>
<path d="M238.403 260.021L240.553 257.581C240.785 257.325 240.946 257.011 241.019 256.673C241.092 256.334 241.076 255.983 240.971 255.653C240.866 255.323 240.676 255.026 240.421 254.792C240.166 254.558 239.853 254.395 239.516 254.32C237.796 253.959 236.02 253.959 234.301 254.32C233.964 254.398 233.654 254.563 233.401 254.798C233.148 255.032 232.961 255.329 232.858 255.659C232.755 255.989 232.74 256.339 232.814 256.677C232.889 257.014 233.05 257.326 233.282 257.581L235.441 260.021C235.627 260.23 235.855 260.397 236.11 260.512C236.365 260.627 236.642 260.686 236.922 260.686C237.202 260.686 237.479 260.627 237.734 260.512C237.989 260.397 238.217 260.23 238.403 260.021Z" fill="black"/>
<path d="M243.851 264.871L247.038 265.516C247.379 265.587 247.733 265.567 248.064 265.458C248.394 265.35 248.691 265.156 248.924 264.897C249.157 264.638 249.317 264.322 249.39 263.981C249.462 263.641 249.444 263.287 249.337 262.955C248.782 261.303 247.901 259.777 246.748 258.469C246.513 258.214 246.215 258.025 245.884 257.921C245.553 257.816 245.201 257.8 244.862 257.874C244.523 257.947 244.209 258.108 243.951 258.341C243.694 258.573 243.501 258.869 243.393 259.198L242.356 262.283C242.267 262.551 242.236 262.834 242.264 263.115C242.293 263.396 242.381 263.668 242.522 263.913C242.663 264.157 242.855 264.369 243.084 264.534C243.313 264.7 243.574 264.814 243.851 264.871Z" fill="black"/>
<path d="M242.356 272.058L243.393 275.142C243.501 275.472 243.694 275.768 243.951 276C244.209 276.233 244.523 276.394 244.862 276.467C245.201 276.541 245.553 276.525 245.884 276.42C246.215 276.316 246.513 276.127 246.748 275.871C247.901 274.564 248.782 273.038 249.337 271.385C249.444 271.054 249.462 270.7 249.39 270.36C249.317 270.019 249.157 269.703 248.924 269.444C248.691 269.185 248.394 268.991 248.064 268.883C247.733 268.774 247.379 268.754 247.038 268.825L243.851 269.47C243.574 269.527 243.313 269.641 243.084 269.807C242.855 269.972 242.663 270.184 242.522 270.428C242.381 270.673 242.293 270.945 242.264 271.225C242.236 271.506 242.267 271.79 242.356 272.058Z" fill="black"/>
<path d="M235.412 274.346L233.281 276.785C233.049 277.043 232.888 277.357 232.816 277.696C232.743 278.035 232.76 278.387 232.866 278.717C232.972 279.048 233.163 279.344 233.419 279.577C233.676 279.811 233.989 279.973 234.328 280.047C236.047 280.408 237.823 280.408 239.543 280.047C239.881 279.971 240.193 279.809 240.448 279.575C240.703 279.341 240.893 279.044 240.998 278.714C241.103 278.384 241.12 278.032 241.046 277.694C240.973 277.356 240.812 277.042 240.58 276.785L238.431 274.346C238.245 274.128 238.013 273.952 237.753 273.831C237.492 273.711 237.208 273.648 236.921 273.648C236.634 273.648 236.35 273.711 236.09 273.831C235.829 273.952 235.598 274.128 235.412 274.346Z" fill="black"/>
<path d="M229.953 269.469L226.776 268.824C226.432 268.752 226.074 268.771 225.74 268.881C225.406 268.991 225.107 269.188 224.872 269.45C224.638 269.713 224.478 270.032 224.407 270.377C224.335 270.722 224.356 271.079 224.468 271.413C225.027 273.066 225.91 274.591 227.066 275.899C227.301 276.154 227.599 276.343 227.929 276.447C228.26 276.552 228.613 276.568 228.952 276.495C229.291 276.421 229.605 276.26 229.863 276.027C230.12 275.795 230.313 275.499 230.421 275.17L231.449 272.086C231.544 271.816 231.58 271.529 231.554 271.244C231.529 270.959 231.442 270.683 231.3 270.435C231.158 270.186 230.965 269.972 230.732 269.805C230.5 269.638 230.234 269.524 229.953 269.469Z" fill="black"/>
</g>
<g opacity="0.5">
<path d="M234.984 266.264C235.537 266.264 235.984 265.816 235.984 265.264C235.984 264.711 235.537 264.264 234.984 264.264C234.432 264.264 233.984 264.711 233.984 265.264C233.984 265.816 234.432 266.264 234.984 266.264Z" fill="white"/>
<path d="M239.824 265.264C239.824 265.461 239.766 265.655 239.656 265.819C239.546 265.984 239.39 266.112 239.207 266.188C239.024 266.263 238.823 266.283 238.629 266.244C238.435 266.206 238.257 266.111 238.117 265.971C237.977 265.831 237.882 265.653 237.843 265.459C237.805 265.265 237.825 265.064 237.9 264.881C237.976 264.698 238.104 264.542 238.269 264.432C238.433 264.322 238.626 264.264 238.824 264.264C239.089 264.264 239.344 264.369 239.531 264.557C239.719 264.744 239.824 264.998 239.824 265.264Z" fill="white"/>
<path d="M235.984 269.104C235.984 269.301 235.926 269.495 235.816 269.659C235.706 269.824 235.55 269.952 235.367 270.027C235.184 270.103 234.983 270.123 234.789 270.084C234.595 270.046 234.417 269.95 234.277 269.811C234.137 269.671 234.042 269.493 234.004 269.299C233.965 269.105 233.985 268.904 234.06 268.721C234.136 268.538 234.264 268.382 234.429 268.272C234.593 268.162 234.787 268.104 234.984 268.104C235.25 268.104 235.504 268.209 235.691 268.396C235.879 268.584 235.984 268.838 235.984 269.104Z" fill="white"/>
<path d="M239.824 269.104C239.824 269.301 239.766 269.495 239.656 269.659C239.546 269.824 239.39 269.952 239.207 270.027C239.024 270.103 238.823 270.123 238.629 270.084C238.435 270.046 238.257 269.95 238.117 269.811C237.977 269.671 237.882 269.493 237.843 269.299C237.805 269.105 237.825 268.904 237.9 268.721C237.976 268.538 238.104 268.382 238.269 268.272C238.433 268.162 238.626 268.104 238.824 268.104C239.089 268.104 239.344 268.209 239.531 268.396C239.719 268.584 239.824 268.838 239.824 269.104Z" fill="white"/>
</g>
<path d="M427.431 288.453C439.174 288.453 448.693 278.934 448.693 267.191C448.693 255.449 439.174 245.93 427.431 245.93C415.689 245.93 406.17 255.449 406.17 267.191C406.17 278.934 415.689 288.453 427.431 288.453Z" fill="#263238"/>
<path opacity="0.5" d="M427.43 282.003C435.611 282.003 442.243 275.371 442.243 267.19C442.243 259.009 435.611 252.377 427.43 252.377C419.249 252.377 412.617 259.009 412.617 267.19C412.617 275.371 419.249 282.003 427.43 282.003Z" fill="white"/>
<g opacity="0.5">
<path d="M421.97 262.31L420.942 259.226C420.834 258.896 420.642 258.6 420.384 258.368C420.126 258.136 419.812 257.975 419.473 257.901C419.134 257.827 418.782 257.843 418.451 257.948C418.12 258.053 417.822 258.242 417.587 258.497C416.432 259.805 415.548 261.33 414.989 262.983C414.884 263.315 414.868 263.669 414.942 264.009C415.016 264.349 415.178 264.665 415.411 264.923C415.644 265.182 415.941 265.375 416.272 265.484C416.603 265.593 416.956 265.613 417.297 265.544L420.475 264.899C420.752 264.843 421.015 264.729 421.245 264.564C421.474 264.399 421.667 264.187 421.808 263.942C421.949 263.697 422.037 263.425 422.065 263.144C422.093 262.862 422.061 262.578 421.97 262.31Z" fill="black"/>
<path d="M428.923 260.021L431.072 257.581C431.304 257.325 431.465 257.011 431.538 256.673C431.612 256.334 431.595 255.983 431.49 255.653C431.385 255.323 431.196 255.026 430.94 254.792C430.685 254.558 430.373 254.395 430.035 254.32C428.315 253.959 426.54 253.959 424.82 254.32C424.481 254.394 424.168 254.556 423.912 254.789C423.655 255.023 423.464 255.319 423.358 255.65C423.252 255.98 423.235 256.332 423.308 256.671C423.381 257.01 423.541 257.324 423.773 257.581L425.932 260.021C426.118 260.235 426.348 260.406 426.606 260.524C426.864 260.641 427.144 260.702 427.427 260.702C427.711 260.702 427.991 260.641 428.249 260.524C428.507 260.406 428.737 260.235 428.923 260.021Z" fill="black"/>
<path d="M434.372 264.871L437.559 265.516C437.892 265.576 438.235 265.549 438.555 265.439C438.876 265.329 439.162 265.14 439.389 264.888C439.615 264.636 439.774 264.331 439.849 264.001C439.925 263.671 439.915 263.327 439.821 263.002C439.265 261.349 438.385 259.824 437.232 258.516C436.997 258.261 436.699 258.072 436.368 257.967C436.037 257.863 435.685 257.847 435.346 257.92C435.007 257.994 434.693 258.155 434.435 258.387C434.177 258.62 433.985 258.916 433.877 259.245L432.839 262.329C432.759 262.597 432.735 262.879 432.769 263.157C432.804 263.434 432.897 263.701 433.041 263.941C433.186 264.18 433.379 264.387 433.608 264.547C433.837 264.708 434.098 264.818 434.372 264.871Z" fill="black"/>
<path d="M432.877 272.058L433.914 275.142C434.022 275.471 434.215 275.767 434.473 276C434.73 276.232 435.044 276.393 435.383 276.467C435.722 276.54 436.075 276.524 436.406 276.42C436.736 276.315 437.034 276.126 437.269 275.871C438.406 274.568 439.273 273.053 439.821 271.413C439.928 271.081 439.946 270.728 439.874 270.387C439.801 270.046 439.64 269.731 439.408 269.471C439.175 269.212 438.878 269.019 438.547 268.91C438.216 268.801 437.863 268.781 437.522 268.852L434.335 269.497C434.065 269.559 433.811 269.676 433.588 269.841C433.366 270.007 433.18 270.216 433.043 270.457C432.906 270.698 432.821 270.964 432.792 271.24C432.763 271.515 432.792 271.794 432.877 272.058Z" fill="black"/>
<path d="M425.932 274.347L423.773 276.787C423.541 277.044 423.381 277.358 423.308 277.697C423.235 278.036 423.252 278.388 423.358 278.719C423.464 279.049 423.655 279.345 423.912 279.579C424.168 279.812 424.481 279.974 424.82 280.048C426.54 280.41 428.315 280.41 430.035 280.048C430.373 279.973 430.685 279.81 430.94 279.576C431.196 279.342 431.385 279.045 431.49 278.715C431.595 278.385 431.612 278.034 431.538 277.695C431.465 277.357 431.304 277.044 431.072 276.787L428.923 274.347C428.737 274.134 428.507 273.962 428.249 273.844C427.991 273.727 427.711 273.666 427.427 273.666C427.144 273.666 426.864 273.727 426.606 273.844C426.348 273.962 426.118 274.134 425.932 274.347Z" fill="black"/>
<path d="M420.475 269.469L417.297 268.824C416.956 268.754 416.603 268.774 416.272 268.883C415.941 268.992 415.644 269.185 415.411 269.444C415.178 269.703 415.016 270.018 414.942 270.358C414.868 270.699 414.884 271.052 414.989 271.385C415.548 273.038 416.432 274.563 417.587 275.87C417.822 276.126 418.12 276.315 418.451 276.419C418.782 276.524 419.134 276.54 419.473 276.466C419.812 276.393 420.126 276.232 420.384 275.999C420.642 275.767 420.834 275.471 420.942 275.142L421.97 272.057C422.061 271.789 422.093 271.505 422.065 271.224C422.037 270.942 421.949 270.67 421.808 270.425C421.667 270.18 421.474 269.968 421.245 269.803C421.015 269.638 420.752 269.524 420.475 269.469Z" fill="black"/>
</g>
<g opacity="0.5">
<path d="M426.504 265.264C426.504 265.461 426.445 265.655 426.335 265.819C426.225 265.984 426.069 266.112 425.887 266.188C425.704 266.263 425.503 266.283 425.309 266.244C425.115 266.206 424.937 266.111 424.797 265.971C424.657 265.831 424.562 265.653 424.523 265.459C424.485 265.265 424.504 265.064 424.58 264.881C424.656 264.698 424.784 264.542 424.948 264.432C425.113 264.322 425.306 264.264 425.504 264.264C425.769 264.264 426.023 264.369 426.211 264.557C426.399 264.744 426.504 264.998 426.504 265.264Z" fill="white"/>
<path d="M429.344 266.264C429.896 266.264 430.344 265.816 430.344 265.264C430.344 264.711 429.896 264.264 429.344 264.264C428.791 264.264 428.344 264.711 428.344 265.264C428.344 265.816 428.791 266.264 429.344 266.264Z" fill="white"/>
<path d="M426.504 269.104C426.504 269.301 426.445 269.495 426.335 269.659C426.225 269.824 426.069 269.952 425.887 270.027C425.704 270.103 425.503 270.123 425.309 270.084C425.115 270.046 424.937 269.95 424.797 269.811C424.657 269.671 424.562 269.493 424.523 269.299C424.485 269.105 424.504 268.904 424.58 268.721C424.656 268.538 424.784 268.382 424.948 268.272C425.113 268.162 425.306 268.104 425.504 268.104C425.769 268.104 426.023 268.209 426.211 268.396C426.399 268.584 426.504 268.838 426.504 269.104Z" fill="white"/>
<path d="M430.344 269.104C430.344 269.301 430.285 269.495 430.175 269.659C430.065 269.824 429.909 269.952 429.726 270.027C429.544 270.103 429.343 270.123 429.149 270.084C428.955 270.046 428.776 269.95 428.637 269.811C428.497 269.671 428.402 269.493 428.363 269.299C428.324 269.105 428.344 268.904 428.42 268.721C428.496 268.538 428.624 268.382 428.788 268.272C428.953 268.162 429.146 268.104 429.344 268.104C429.609 268.104 429.863 268.209 430.051 268.396C430.238 268.584 430.344 268.838 430.344 269.104Z" fill="white"/>
</g>
<path d="M291.701 172.751C292.425 172.087 292.858 171.164 292.907 170.183C292.956 169.202 292.617 168.241 291.963 167.508L253.571 202.769L252.449 203.255C252.524 203.349 252.58 203.442 252.664 203.536C253.335 204.265 254.268 204.699 255.258 204.741C256.248 204.783 257.214 204.43 257.945 203.76L291.701 172.751Z" fill="#B1C7E1"/>
<path opacity="0.5" d="M209.496 245.919C209.436 245.92 209.377 245.907 209.322 245.884C209.268 245.86 209.218 245.825 209.178 245.781C209.138 245.737 209.107 245.685 209.087 245.628C209.068 245.572 209.061 245.512 209.066 245.452L210.851 227.284C210.858 227.22 210.879 227.159 210.912 227.104C210.945 227.049 210.991 227.003 211.044 226.968C211.098 226.933 211.159 226.91 211.223 226.902C211.286 226.894 211.351 226.9 211.412 226.92L213.038 227.462C214.02 227.771 214.852 228.436 215.37 229.326C215.889 230.216 216.057 231.267 215.842 232.275L213.599 242.648C213.4 243.585 212.882 244.422 212.133 245.019C211.385 245.616 210.453 245.934 209.496 245.919Z" fill="white"/>
<g opacity="0.2">
<path d="M219.617 233.918C219.614 233.734 219.646 233.551 219.713 233.379C219.78 233.208 219.881 233.051 220.008 232.918C220.136 232.786 220.288 232.679 220.457 232.605C220.626 232.532 220.807 232.492 220.991 232.488L443.111 228.18C443.482 228.177 443.839 228.319 444.106 228.576C444.373 228.833 444.529 229.183 444.541 229.554C444.546 229.926 444.404 230.286 444.145 230.554C443.885 230.822 443.531 230.976 443.158 230.983L221.047 235.292C220.863 235.297 220.679 235.265 220.507 235.198C220.335 235.132 220.178 235.032 220.045 234.904C219.912 234.776 219.806 234.623 219.732 234.454C219.659 234.285 219.62 234.102 219.617 233.918Z" fill="white"/>
</g>
<path d="M359.832 207.666L401.168 206.947C402.224 206.929 403.263 206.686 404.217 206.234C405.171 205.783 406.018 205.133 406.701 204.328C407.384 203.523 407.887 202.581 408.177 201.566C408.467 200.551 408.537 199.486 408.383 198.442L404.308 170.629C404.19 169.841 403.796 169.12 403.198 168.593C402.599 168.067 401.834 167.768 401.037 167.751C393.869 167.582 386.682 167.461 380.972 167.461C378.168 167.461 375.804 167.461 373.907 167.554C370.168 167.685 364.271 168.106 357.365 168.685C356.561 168.751 355.807 169.103 355.241 169.678C354.675 170.252 354.334 171.011 354.281 171.816L352.346 199.732C352.275 200.754 352.416 201.78 352.762 202.745C353.107 203.71 353.648 204.593 354.351 205.339C355.054 206.084 355.905 206.676 356.848 207.076C357.791 207.477 358.807 207.678 359.832 207.666Z" fill="#B1C7E1"/>
<path d="M442.777 201.163L429.693 170.509C429.449 169.929 429.043 169.432 428.525 169.076C428.006 168.72 427.396 168.52 426.768 168.499C424.478 168.425 421.562 168.322 418.273 168.228C417.778 168.212 417.287 168.305 416.832 168.499C416.377 168.694 415.971 168.986 415.642 169.356C415.313 169.725 415.069 170.162 414.928 170.635C414.787 171.109 414.751 171.608 414.824 172.098L418.983 200.135C419.259 201.912 420.167 203.531 421.541 204.693C422.914 205.855 424.66 206.483 426.459 206.462L439.207 206.247C440.051 206.252 440.873 205.981 441.549 205.475C442.224 204.969 442.714 204.255 442.945 203.443C443.129 202.684 443.07 201.887 442.777 201.163Z" fill="#B1C7E1"/>
<path d="M340.103 170.229C324.963 171.65 309.598 173.238 303.056 173.967C300.939 174.187 298.949 175.085 297.383 176.528L274.458 197.584C273.478 198.497 272.796 199.685 272.505 200.992C272.213 202.3 272.324 203.665 272.824 204.908C273.324 206.151 274.189 207.213 275.305 207.954C276.421 208.696 277.736 209.081 279.075 209.061L334.636 208.126C336.492 208.095 338.27 207.368 339.617 206.089C340.963 204.81 341.78 203.072 341.907 201.219L343.776 173.846C343.813 173.356 343.743 172.865 343.571 172.405C343.399 171.946 343.129 171.529 342.779 171.185C342.429 170.84 342.009 170.576 341.546 170.411C341.084 170.246 340.592 170.184 340.103 170.229Z" fill="#B1C7E1"/>
<path d="M403.542 214.901L393.887 215.088C393.521 215.095 393.171 215.246 392.914 215.508C392.657 215.77 392.514 216.122 392.514 216.489C392.514 216.676 392.551 216.861 392.623 217.032C392.695 217.204 392.801 217.36 392.934 217.491C393.067 217.621 393.225 217.724 393.398 217.793C393.572 217.862 393.757 217.895 393.944 217.891L403.598 217.704C403.965 217.697 404.314 217.546 404.571 217.284C404.828 217.022 404.972 216.67 404.972 216.303C404.972 216.116 404.934 215.931 404.862 215.76C404.79 215.588 404.684 215.432 404.551 215.301C404.418 215.171 404.26 215.068 404.087 214.999C403.913 214.93 403.728 214.897 403.542 214.901Z" fill="#263238"/>
<path d="M335.811 217.638C335.811 217.452 335.774 217.267 335.702 217.095C335.63 216.924 335.524 216.768 335.391 216.637C335.258 216.507 335.1 216.404 334.927 216.335C334.753 216.266 334.568 216.233 334.381 216.237L324.727 216.424C324.36 216.431 324.011 216.582 323.754 216.844C323.497 217.106 323.353 217.458 323.354 217.825C323.353 218.012 323.391 218.196 323.463 218.368C323.535 218.54 323.641 218.696 323.774 218.827C323.907 218.957 324.065 219.06 324.238 219.129C324.412 219.197 324.597 219.231 324.783 219.227L334.438 219.04C334.805 219.035 335.156 218.885 335.413 218.623C335.671 218.36 335.814 218.006 335.811 217.638Z" fill="#263238"/>
<g opacity="0.2">
<path d="M212.478 257.927C213.507 255.734 214.848 253.7 216.459 251.89L204.767 252.114C203.978 252.126 203.204 251.897 202.548 251.458C201.892 251.019 201.385 250.39 201.094 249.656C200.806 250.915 200.737 252.215 200.889 253.497L201.646 259.684C202.005 262.617 203.485 265.296 205.777 267.161L206.263 267.553C207.944 268.927 209.984 269.789 212.141 270.039C211.786 266.189 211.506 260.282 212.478 257.927Z" fill="black"/>
<path d="M401.169 272.121C400.879 268.28 400.683 262.981 401.589 260.766C403.094 257.084 407.842 251.635 412.272 248.084L257.73 251.084C259.738 254.078 261.376 257.304 262.609 260.691C263.244 262.691 263.058 267.495 262.852 270.663L401.169 272.121Z" fill="black"/>
<path d="M451.72 263.544C452.137 265.613 452.275 267.728 452.131 269.833C453.193 269.053 454.137 268.124 454.935 267.076L456.234 265.319C457.97 262.982 458.908 260.147 458.907 257.235V252.721C458.906 250.233 458.224 247.793 456.935 245.665L455.711 243.693C455.649 244.654 455.232 245.557 454.541 246.227C453.85 246.897 452.934 247.287 451.972 247.32L441.795 247.516C446.131 252.149 449.504 257.597 451.72 263.544Z" fill="black"/>
</g>
<g opacity="0.2">
<path d="M271.328 259.041C271.328 258.545 271.525 258.07 271.876 257.719C272.226 257.369 272.702 257.172 273.197 257.172L392.159 254.826C392.655 254.826 393.13 255.023 393.481 255.374C393.831 255.724 394.028 256.2 394.028 256.695C394.028 257.191 393.831 257.666 393.481 258.017C393.13 258.368 392.655 258.564 392.159 258.564L273.141 260.873C272.662 260.859 272.206 260.66 271.868 260.319C271.531 259.978 271.338 259.521 271.328 259.041Z" fill="white"/>
</g>
<path opacity="0.6" d="M280.991 191.543L274.449 197.543C273.454 198.453 272.76 199.646 272.46 200.961C272.161 202.276 272.27 203.651 272.773 204.903C273.276 206.154 274.148 207.223 275.275 207.965C276.401 208.707 277.727 209.088 279.075 209.057H281.01L280.991 191.543Z" fill="black"/>
<path d="M289.928 193.106H286.629C285.835 193.106 285.075 193.421 284.514 193.982C283.953 194.542 283.638 195.303 283.638 196.096V200.694L278.143 201.76C277.81 201.823 277.511 202.001 277.295 202.262C277.08 202.523 276.964 202.851 276.965 203.19V204.489C276.964 204.726 277.021 204.959 277.131 205.169C277.241 205.379 277.4 205.559 277.596 205.693C277.791 205.826 278.017 205.91 278.252 205.936C278.488 205.963 278.726 205.931 278.946 205.844L284.189 203.816C284.522 204.314 284.997 204.7 285.552 204.925C286.106 205.15 286.716 205.203 287.301 205.078L290.414 204.386C290.884 204.278 291.305 204.015 291.607 203.638C291.909 203.262 292.075 202.794 292.077 202.311V195.227C292.077 194.946 292.021 194.668 291.913 194.409C291.805 194.15 291.646 193.914 291.446 193.717C291.246 193.52 291.009 193.364 290.748 193.259C290.487 193.154 290.209 193.102 289.928 193.106Z" fill="#4E94EA"/>
<defs>
<filter id="filter0_f_4864_49668" x="357" y="45.5" width="55" height="56" filterUnits="userSpaceOnUse" color-interpolation-filters="sRGB">
<feFlood flood-opacity="0" result="BackgroundImageFix"/>
<feBlend mode="normal" in="SourceGraphic" in2="BackgroundImageFix" result="shape"/>
<feGaussianBlur stdDeviation="1" result="effect1_foregroundBlur_4864_49668"/>
</filter>
<filter id="filter1_f_4864_49668" x="74" y="84.5" width="96" height="96" filterUnits="userSpaceOnUse" color-interpolation-filters="sRGB">
<feFlood flood-opacity="0" result="BackgroundImageFix"/>
<feBlend mode="normal" in="SourceGraphic" in2="BackgroundImageFix" result="shape"/>
<feGaussianBlur stdDeviation="1" result="effect1_foregroundBlur_4864_49668"/>
</filter>
</defs>
</svg>
