<svg width="28" height="28" viewBox="0 0 28 28" fill="none" xmlns="http://www.w3.org/2000/svg">
<rect width="28" height="28" rx="6" fill="#E6F0FC"/>
<path d="M6.07015 17.8643C6.05233 16.6561 6.11571 15.4492 6.18107 14.2436C6.19163 14.0483 6.13485 14.0041 5.94339 14.0092C5.43239 14.022 4.92072 14.015 4.40905 14.0131C4.09941 14.0131 3.98783 13.9042 4.00104 13.6078C4.02877 13.0085 4.05914 12.4092 4.09809 11.8112C4.13176 11.299 4.41037 11.0256 4.93656 10.9788C5.10034 10.9617 5.26501 10.9538 5.42974 10.9551C5.72024 10.9609 5.83379 11.0762 5.82125 11.3592C5.80012 11.8547 5.76844 12.3497 5.74203 12.8446C5.73741 12.9425 5.69581 13.0828 5.87803 13.0411C6.01007 13.0104 6.24775 13.1846 6.26558 12.8747C6.34744 11.5013 6.45308 10.1305 6.61813 8.76414C6.70132 8.07393 6.7845 7.38308 6.96474 6.70824C7.05485 6.36641 7.21174 6.04451 7.42689 5.76C7.79727 5.27083 8.29111 5.00256 8.92096 5.00192C12.3101 4.99936 15.6992 4.99936 19.0883 5.00192C19.7914 5.00192 20.3083 5.33166 20.682 5.8983C21.0161 6.40219 21.1283 6.97331 21.2221 7.55083C21.5073 9.30645 21.6255 11.0774 21.7456 12.8484C21.7674 13.1724 21.9846 13.0219 22.1272 13.0443C22.3418 13.0783 22.2593 12.9105 22.2593 12.8209C22.2434 12.3413 22.2164 11.8605 22.1932 11.3828C22.1787 11.0685 22.2824 10.9635 22.6085 10.9558C23.6068 10.9315 23.8973 11.1952 23.9362 12.1557C23.9554 12.6192 23.9785 13.0828 23.9976 13.5457C24.0148 13.9529 23.9474 14.0176 23.5183 14.0182C23.0152 14.0182 22.5121 14.0233 22.0091 14.0144C21.8585 14.0144 21.811 14.0457 21.8215 14.2C21.9846 16.4845 21.9642 18.7728 21.9582 21.0605C21.9582 21.2436 21.943 21.4274 21.9311 21.6105C21.9028 22.0446 21.6756 22.366 21.3 22.5824C21.2301 22.6141 21.1728 22.6671 21.137 22.7334C21.1012 22.7997 21.0889 22.8756 21.1019 22.9493C21.1131 23.109 21.1131 23.2692 21.1019 23.4289C21.0828 23.7849 20.8682 23.9885 20.5018 23.9917C20.0152 23.9968 19.5286 23.9962 19.042 23.9917C18.6578 23.9878 18.4479 23.7817 18.4399 23.4154C18.4399 23.2394 18.428 23.0626 18.4399 22.8879C18.4531 22.7316 18.3891 22.7047 18.2419 22.7054C15.4126 22.7092 12.5836 22.7092 9.75481 22.7054C9.59702 22.7054 9.55675 22.7521 9.56599 22.8975C9.57721 23.0722 9.57391 23.249 9.56599 23.425C9.55146 23.7842 9.34086 23.991 8.9718 23.9955C8.47707 24.0015 7.98235 24.0015 7.48763 23.9955C7.12121 23.9917 6.90862 23.7797 6.89938 23.4263C6.89674 23.3864 6.89674 23.3465 6.89938 23.3066C6.9456 22.941 6.89014 22.6484 6.50325 22.4345C6.18041 22.2553 6.05893 21.905 6.05695 21.5439C6.07015 20.314 6.07015 19.0879 6.07015 17.8643ZM13.9927 13.4759C16.1054 13.4759 18.2168 13.4759 20.3268 13.4759C20.4589 13.4759 20.5744 13.5009 20.5704 13.2921C20.5336 11.4691 20.3967 9.6492 20.1605 7.84023C20.1373 7.66416 20.0759 7.62639 19.9016 7.62703C15.976 7.63215 12.0504 7.63215 8.12474 7.62703C7.94054 7.62703 7.88838 7.68401 7.86791 7.84728C7.6347 9.64041 7.49895 11.4442 7.46122 13.2512C7.45726 13.4522 7.52725 13.4804 7.7088 13.4797C9.80235 13.4733 11.8972 13.4759 13.9927 13.4759ZM14.0191 18.3189C13.1034 18.3189 12.1884 18.3189 11.2726 18.3189C10.8158 18.3189 10.6303 18.4694 10.5279 18.8951C10.4692 19.1359 10.4078 19.376 10.351 19.6174C10.2533 20.0348 10.4031 20.3537 10.7946 20.5586C11.0047 20.6712 11.2406 20.7307 11.4806 20.7314C13.1637 20.7314 14.8462 20.7314 16.528 20.7314C16.7932 20.7316 17.0533 20.6597 17.2786 20.524C17.6087 20.3268 17.7408 20.0393 17.6648 19.6673C17.6153 19.4246 17.5572 19.1839 17.4998 18.9425C17.3849 18.4585 17.208 18.3214 16.6917 18.3202C15.7995 18.3185 14.9082 18.318 14.0178 18.3189H14.0191ZM21.1679 18.2798C21.1615 18.0502 21.1269 17.8222 21.0649 17.6005C20.9653 17.2528 20.6583 17.08 20.3235 17.1939C19.9888 17.3079 19.6752 17.4315 19.3939 17.6312C18.7641 18.0794 18.5258 18.7197 18.5093 19.4445C18.502 19.7787 18.6849 19.8927 19.0282 19.8216C19.4639 19.7386 19.8944 19.6318 20.3176 19.5015C20.991 19.2787 21.1679 19.0392 21.1666 18.2798H21.1679ZM9.50327 19.294C9.496 19.2377 9.48412 19.1269 9.46497 19.0168C9.3019 18.0826 8.69847 17.5365 7.80916 17.2311C7.35229 17.0742 7.0202 17.2311 6.92183 17.6901C6.86059 17.98 6.8384 18.2764 6.85581 18.5718C6.87958 18.9982 7.07632 19.2876 7.5048 19.4355C7.97233 19.5876 8.44846 19.7135 8.93086 19.8126C9.34812 19.9074 9.50855 19.7717 9.50327 19.294Z" fill="#4E94EA"/>
</svg>
