<svg width="56" height="56" viewBox="0 0 56 56" fill="none" xmlns="http://www.w3.org/2000/svg">
    <g clip-path="url(#clip0_16_796)">
        <path
            d="M35.9849 3.182C35.9849 5.72677 35.9735 8.22623 35.9925 10.7257C36 11.7149 39.3106 14.9091 40.2122 14.7543C40.5379 14.6976 40.8068 14.3239 41.0985 14.0935C41.2462 13.9765 41.375 13.8292 41.5303 13.7273C44.8144 11.6016 46.4508 8.72838 45.7462 4.72623C45.4773 3.19333 46.1137 3.10649 47.3864 3.72191C58.7425 9.20411 58.1364 21.7543 49.8674 28.1691C46.3409 28.9204 46.8523 31.5784 46.9584 34.127C47.1667 39.209 47.2197 44.2985 47.4659 49.3805C47.5531 51.189 46.7652 51.8913 45.125 52.0347C42.3523 52.2839 39.5947 52.2311 36.8447 51.7214C35.769 51.5213 35.4622 51.0418 35.4584 49.9657C35.4432 43.5585 35.3485 37.155 35.2841 30.7478C35.2765 30.072 35.4281 29.4452 34.5531 29.0374C26.3902 25.2241 25.3447 13.614 30.9091 6.74241C32.7425 4.47704 33.8031 3.69926 35.9887 3.17822L35.9849 3.182ZM41.197 49.9053C41.5758 49.9053 41.9546 49.9204 42.3296 49.9053C45.9318 49.758 45.3144 50.0072 45.322 46.7866C45.3334 41.0099 45.2462 35.2295 45.2197 29.4528C45.2197 28.6712 44.9887 27.716 46.0341 27.3648C49.9243 26.0547 52.019 23.3212 53.1137 19.4134C54.4735 14.5466 53.0872 10.7823 49.3334 7.65988C48.9091 7.30498 48.5379 6.70465 47.9015 7.03313C47.375 7.30498 47.5303 7.9355 47.5758 8.39991C47.7197 9.85352 47.3106 10.9333 46.269 12.0887C45.2046 13.2667 43.8599 14.0369 42.7765 15.1507C40.8978 17.0801 40.7387 16.8611 38.4394 15.3131C35.9773 13.6556 33.9849 11.9867 34.5985 8.63399C34.697 8.09786 34.394 7.25589 33.7349 7.11997C33.1894 7.0067 32.8978 7.75805 32.4659 8.0903C31.8864 8.53583 31.697 9.21544 31.3334 9.78933C27.8106 15.3848 29.0606 23.4344 34.8485 26.1566C37.0531 27.1949 37.4356 28.7505 37.4356 30.7667C37.4281 35.9166 37.4584 41.0666 37.4167 46.2165C37.3864 49.9733 37.3485 49.9733 41.1932 49.9053H41.197Z"
            fill="#303030" />
        <path
            d="M3.48106 22.917C3.8447 23.6532 5.13637 23.4078 4.79546 24.3857C4.50758 25.2125 3.60985 25.0162 2.96591 24.9822C1.96212 24.9294 0.473488 25.6732 0.0681853 24.5178C-0.337118 23.3587 1.09849 22.6564 1.95455 21.973C3.38637 20.8253 5.05682 20.3231 6.90152 20.5421C9.0644 20.7988 9.41667 21.4067 8.60228 23.3662C8.46212 23.7061 8.3144 24.0459 8.18561 24.3555C11.3068 24.3555 14.3599 24.3592 17.4129 24.3555C20.0606 24.3479 22.7159 24.4083 25.3599 24.2837C26.8939 24.212 27.7235 24.6839 27.8068 26.4472C21.8712 26.4472 15.9621 26.4472 10.053 26.4472C9.23485 26.4472 8.40152 26.4018 7.59849 26.534C5.98864 26.7983 4.92425 27.7686 4.87122 29.4261C4.76515 32.7562 4.79925 36.0901 4.76894 39.4202C4.75379 40.8851 5.82955 40.7379 6.75758 40.7417C14.0758 40.7794 21.3902 40.8058 28.7083 40.8323C29.8447 40.836 30.9811 40.8058 32.1136 40.8323C32.6099 40.8436 33.2803 40.5604 33.3106 41.5383C33.3371 42.4822 32.8106 42.4973 32.1212 42.5011C25.8788 42.554 19.6326 42.6748 13.3902 42.6408C12.0114 42.6332 11.5076 43.0599 11.3409 44.3323C11.1439 45.8425 10.6023 47.2659 9.63637 48.4666C8.70834 49.6106 7.50379 50.2524 5.98106 49.9353C4.55303 49.6408 3.91288 48.5534 3.63258 47.2697C2.31819 41.2174 2.08712 35.1084 2.82197 28.9655C3.01515 27.3609 3.94697 26.2017 5.35985 25.4277C5.4697 25.3673 5.60228 25.3447 5.70834 25.2805C6.76894 24.6122 7.375 23.4078 7.01516 22.4412C6.68182 21.5502 5.45455 22.3015 4.63637 22.4223C4.24243 22.4828 3.87879 22.7395 3.48485 22.917H3.48106ZM7.21591 42.6446C4.14394 42.5124 4.0644 42.6068 4.90531 45.616C5.21591 46.7336 5.64394 47.8474 7.02273 47.9229C8.30682 47.9946 8.8447 46.9865 9.29546 45.9973C10.697 42.9089 10.6212 42.7956 7.2197 42.6483L7.21591 42.6446Z"
            fill="#303030" />
        <path
            d="M25.6591 15.7396C25.7841 16.7628 25.3371 17.1366 24.2576 17.0951C22.25 17.0234 20.2349 17.1404 18.2235 17.0724C16.8977 17.0271 15.9621 17.5331 15.1515 18.5336C14.0493 19.8966 12.875 21.2067 11.7008 22.5131C11.3864 22.8642 11 23.4193 10.4546 23.0908C9.87123 22.7396 10.2273 22.1809 10.4849 21.7769C11.6174 19.9759 12.7273 18.156 13.9583 16.423C14.7273 15.3432 15.9697 14.9015 17.2576 14.8524C19.769 14.758 22.2841 14.792 24.7993 14.7278C25.553 14.7089 25.8561 14.9619 25.6629 15.7396H25.6591Z"
            fill="#303030" />
        <path
            d="M19.106 34.191C17.2348 33.4887 16.7273 30.9326 14.3826 31.1139C12.5151 31.2574 10.625 31.1441 8.74619 31.1441C9.77271 34.561 10.5682 35.1915 14.0038 35.5729C15.6932 35.7579 17.4242 35.7994 19.0189 36.6603C16.3523 36.6603 13.6818 36.6754 11.0151 36.6489C10.4129 36.6452 9.95074 36.2978 9.65149 35.7654C8.82574 34.2854 7.96589 32.828 7.19695 31.3215C6.72725 30.4003 6.90149 29.732 8.14771 29.7509C10.606 29.7849 13.0682 29.7395 15.5265 29.8377C17.2386 29.9057 18.4507 31.4273 19.106 34.1948V34.191Z"
            fill="#303030" />
        <path
            d="M41.197 49.9052C37.3485 49.9732 37.3902 49.9732 37.4205 46.2164C37.4622 41.0665 37.4357 35.9165 37.4394 30.7666C37.4394 28.7466 37.0607 27.1948 34.8523 26.1565C29.0644 23.4343 27.8144 15.3847 31.3372 9.78923C31.697 9.21534 31.8902 8.53195 32.4697 8.0902C32.9016 7.75795 33.1932 7.01038 33.7387 7.11987C34.3978 7.25579 34.7008 8.09398 34.6023 8.63389C33.9887 11.9904 35.9811 13.6555 38.4432 15.313C40.7425 16.861 40.9016 17.0837 42.7804 15.1506C43.8637 14.0368 45.2084 13.2666 46.2728 12.0886C47.3144 10.9332 47.7273 9.85342 47.5796 8.3998C47.5341 7.9354 47.3788 7.30487 47.9054 7.03303C48.5417 6.70455 48.9129 7.30487 49.3372 7.65978C53.091 10.7822 54.4773 14.5465 53.1175 19.4133C52.0266 23.3211 49.9281 26.0546 46.0379 27.3647C44.9925 27.7159 45.2197 28.6711 45.2235 29.4527C45.25 35.2294 45.341 41.0098 45.3258 46.7865C45.3182 50.0071 45.9357 49.7579 42.3334 49.9052C41.9546 49.9203 41.5758 49.9052 41.2008 49.9052H41.197Z"
            fill="#fdb713" />
        <path
            d="M7.21588 42.6446C10.6174 42.7919 10.6932 42.9014 9.29164 45.9936C8.84088 46.9828 8.30301 47.9909 7.01891 47.9192C5.64391 47.8436 5.21588 46.7298 4.90149 45.6122C4.06437 42.6069 4.14391 42.5125 7.2121 42.6408L7.21588 42.6446Z"
            fill="#FDFDFD" />
    </g>
    <defs>
        <clipPath id="clip0_16_796">
            <rect width="56" height="49" fill="white" transform="translate(0 3.18188)" />
        </clipPath>
    </defs>
</svg>