<svg width="28" height="28" viewBox="0 0 28 28" fill="none" xmlns="http://www.w3.org/2000/svg">
<rect width="28" height="28" rx="6" fill="#E6F0FC"/>
<g clipPath="url(#clip0_4144_71719)">
<path d="M9.3125 12.2031V18.1406C9.3125 19.3395 10.0367 20.3719 11.0703 20.825V15.7969C11.0703 14.1814 12.3846 12.8672 14 12.8672C15.6154 12.8672 16.9297 14.1814 16.9297 15.7969V20.825C17.9633 20.3719 18.6875 19.3395 18.6875 18.1406V12.2031C18.6875 10.9107 17.6362 9.85938 16.3438 9.85938H11.6562C10.3638 9.85938 9.3125 10.9107 9.3125 12.2031Z" fill="#4E94EA"/>
<path d="M15.7578 16.3828V15.7969C15.7578 14.8261 14.9708 14.0391 14 14.0391C13.0292 14.0391 12.2422 14.8261 12.2422 15.7969V16.3828H15.7578Z" fill="#4E94EA"/>
<path d="M15.7578 17.5547H12.2422V22.2422C12.2422 23.213 13.0292 24 14 24C14.9708 24 15.7578 23.213 15.7578 22.2422V17.5547Z" fill="#4E94EA"/>
<path d="M21.6164 5.75781H17.4657C17.4979 5.94839 17.5149 6.14417 17.5149 6.34375C17.5149 7.24341 17.175 8.06509 16.6172 8.6875H18.1008C18.7481 8.6875 19.2727 8.16275 19.2727 7.51563V6.92969H21.6164V5.75781Z" fill="#4E94EA"/>
<path d="M10.4844 6.34375C10.4844 6.14417 10.5013 5.94839 10.5335 5.75781H6.38281V6.92969H8.72656V7.51563C8.72656 8.16275 9.25116 8.6875 9.89844 8.6875H11.382C10.8242 8.06509 10.4844 7.24341 10.4844 6.34375Z" fill="#4E94EA"/>
<path d="M16.3438 6.34375C16.3438 7.63815 15.2944 8.6875 14 8.6875C12.7056 8.6875 11.6562 7.63815 11.6562 6.34375C11.6562 5.04935 12.7056 4 14 4C15.2944 4 16.3438 5.04935 16.3438 6.34375Z" fill="#4E94EA"/>
</g>
<defs>
<clipPath id="clip0_4144_71719">
<rect width="20" height="20" fill="white" transform="translate(4 4)"/>
</clipPath>
</defs>
</svg>
