<svg width="20" height="20" viewBox="0 0 20 20" fill="none" xmlns="http://www.w3.org/2000/svg">
<path d="M14.168 2.5H5.83464C3.33464 2.5 1.66797 3.75 1.66797 6.66667V13.3C1.66797 15.2083 3.20964 16.75 5.11797 16.75H10.3346C10.818 16.75 11.2346 16.3417 11.1846 15.8583C11.068 14.5833 11.4846 13.2083 12.618 12.1C13.0846 11.6417 13.6596 11.2917 14.2846 11.0917C15.3263 10.7583 16.3346 10.8 17.2263 11.1083C17.768 11.2917 18.3346 10.9 18.3346 10.325V6.66667C18.3346 3.75 16.668 2.5 14.168 2.5ZM14.5596 7.15833L11.9513 9.24167C11.4013 9.68333 10.7013 9.9 10.0013 9.9C9.3013 9.9 8.59297 9.68333 8.0513 9.24167L5.44297 7.15833C5.1763 6.94167 5.13464 6.55 5.34297 6.275C5.55964 6.00833 5.9513 5.95833 6.21797 6.175L8.8263 8.25833C9.45964 8.76667 10.5346 8.76667 11.168 8.25833L13.7763 6.175C14.043 5.95833 14.443 6 14.6513 6.275C14.868 6.55 14.8263 6.94167 14.5596 7.15833Z" fill="#0165E1"/>
<path d="M18.875 17.8754L18.25 17.2504C18.575 16.7587 18.7667 16.1671 18.7667 15.5337C18.7667 13.8004 17.3667 12.4004 15.6333 12.4004C13.9 12.4004 12.5 13.8004 12.5 15.5254C12.5 17.2504 13.9 18.6587 15.6333 18.6587C16.2667 18.6587 16.8583 18.4671 17.35 18.1421L17.975 18.7671C18.1 18.8921 18.2583 18.9504 18.425 18.9504C18.5917 18.9504 18.75 18.8921 18.875 18.7671C19.125 18.5254 19.125 18.1254 18.875 17.8754Z" fill="#0165E1"/>
</svg>
