<svg width="28" height="28" viewBox="0 0 28 28" fill="none" xmlns="http://www.w3.org/2000/svg">
<rect width="28" height="28" rx="6" fill="#FFEDBE"/>
<path d="M13.7432 8.04574C15.3671 8.04574 16.9909 8.04102 18.6141 8.04574C19.9113 8.05113 20.9209 8.86339 21.189 10.102C21.2373 10.3415 21.2545 10.5862 21.2402 10.8301C21.2335 10.9769 21.2853 11.053 21.4153 11.121C22.0026 11.4282 22.5792 11.7548 23.1665 12.0586C23.4136 12.1866 23.5133 12.3576 23.5106 12.6385C23.499 13.8158 23.499 14.9936 23.5106 16.1718C23.5106 16.4547 23.4096 16.6231 23.1644 16.7503C22.5758 17.0548 21.9979 17.3801 21.4133 17.6879C21.3564 17.7116 21.3088 17.7531 21.2776 17.8062C21.2464 17.8592 21.2333 17.921 21.2402 17.9822C21.2463 19.0167 21.2442 20.052 21.2402 21.0865C21.2412 21.2632 21.2331 21.4399 21.2159 21.6159C21.1486 22.2766 20.731 22.6935 20.0669 22.7319C19.8649 22.7447 19.784 22.7993 19.8076 23.0094C19.8201 23.169 19.8201 23.3293 19.8076 23.4889C19.7928 23.7819 19.6055 23.9847 19.3153 23.9907C18.811 24.0015 18.3063 24.0015 17.8012 23.9907C17.523 23.9847 17.3371 23.7887 17.3176 23.5085C17.3035 23.3492 17.3035 23.1889 17.3176 23.0296C17.3412 22.8127 17.2758 22.744 17.0482 22.7467C15.8877 22.7595 14.7265 22.7528 13.5654 22.7528C12.5221 22.7528 11.4775 22.7582 10.4355 22.7474C10.2422 22.7474 10.187 22.7986 10.2052 22.9845C10.219 23.1523 10.219 23.3211 10.2052 23.4889C10.185 23.79 9.98428 23.988 9.68254 23.9934C9.20299 24.0015 8.72344 24.0008 8.24389 23.9934C7.91521 23.9894 7.71383 23.7914 7.69767 23.4593C7.68958 23.2828 7.69026 23.1057 7.69767 22.9292C7.70238 22.81 7.68218 22.7447 7.53872 22.7413C6.69008 22.7225 6.27856 22.1628 6.27586 21.3269C6.27182 20.225 6.2698 19.1225 6.27923 18.0206C6.27923 17.834 6.21996 17.7418 6.05629 17.6569C5.47437 17.3579 4.90524 17.0346 4.32534 16.7315C4.09836 16.6129 3.99801 16.454 4.00003 16.1927C4.00946 14.9978 4.00946 13.803 4.00003 12.6082C4.00003 12.3435 4.1051 12.1872 4.32938 12.0694C4.89379 11.7737 5.4481 11.4585 6.01656 11.1695C6.21457 11.0692 6.28597 10.954 6.28125 10.7277C6.26643 9.60494 6.76282 8.77988 7.7758 8.27945C8.1523 8.09356 8.5591 8.04035 8.97601 8.04102L13.7432 8.04574ZM13.752 14.686C15.5188 14.686 17.2855 14.686 19.0519 14.686C19.6843 14.686 20.0157 14.3492 20.0171 13.7202C20.0171 12.7103 20.0171 11.7 20.0171 10.6893C20.0171 10.0677 19.6884 9.73628 19.0741 9.73628C15.5328 9.73628 11.9912 9.73628 8.44932 9.73628C7.82362 9.73628 7.49157 10.073 7.49089 10.7082C7.49089 11.6839 7.49089 12.6598 7.49089 13.636C7.49089 14.3641 7.80812 14.684 8.53149 14.684L13.752 14.686ZM13.7728 18.354C12.8824 18.354 11.992 18.354 11.1017 18.3506C10.9508 18.3506 10.8821 18.3789 10.9131 18.5446C10.9445 18.6926 10.9609 18.8433 10.9622 18.9945C10.9622 19.1898 11.0296 19.2451 11.2316 19.2444C12.7767 19.235 14.3224 19.2397 15.8682 19.239C16.0776 19.239 16.3396 19.3064 16.4817 19.2053C16.6239 19.1043 16.5626 18.8181 16.5915 18.614C16.5921 18.6056 16.5934 18.5972 16.5956 18.5891C16.6629 18.3991 16.5956 18.3466 16.3969 18.3493C15.5179 18.3594 14.6444 18.354 13.7708 18.354H13.7728ZM13.7432 19.9597C12.9451 19.9597 12.1463 19.9657 11.3482 19.9556C11.1407 19.9556 11.0255 19.9718 11.103 20.225C11.139 20.355 11.1541 20.4898 11.1475 20.6244C11.1421 20.8184 11.2296 20.8514 11.4054 20.8501C12.8346 20.8427 14.2638 20.846 15.6924 20.846C16.3659 20.846 16.3592 20.846 16.4225 20.1819C16.4393 20.0035 16.3949 19.9563 16.2144 19.9583C15.3893 19.9651 14.5649 19.9597 13.7432 19.9597ZM13.76 17.6273C14.6754 17.6273 15.5914 17.6273 16.5067 17.6273C16.5808 17.6273 16.6724 17.6697 16.7161 17.5491C16.8852 17.0777 16.7054 16.813 16.2117 16.813H11.295C10.8127 16.813 10.7184 16.9308 10.7763 17.405C10.7979 17.5781 10.8437 17.638 11.0356 17.6354C11.9429 17.6205 12.8508 17.6273 13.758 17.6273H13.76ZM8.65811 20.9949V21.0043C8.86017 20.9942 9.06222 20.9996 9.26024 20.9706C9.75999 20.8972 9.95801 20.4675 9.6556 20.0681C9.46616 19.8044 9.21447 19.5917 8.92293 19.4488C8.63139 19.3059 8.30905 19.2373 7.98459 19.2491C7.64176 19.2538 7.40468 19.4707 7.3279 19.8021C7.2947 19.941 7.29263 20.0855 7.32184 20.2254C7.35106 20.3652 7.41085 20.4968 7.49691 20.6108C7.58297 20.7248 7.69318 20.8184 7.81964 20.8848C7.94611 20.9512 8.0857 20.9888 8.2284 20.9949C8.37052 21.0003 8.5133 21.0003 8.65609 21.0003L8.65811 20.9949ZM18.8195 20.9949C18.9846 20.9949 19.1193 20.9949 19.2533 20.9949C19.3898 20.993 19.5244 20.9625 19.6484 20.9052C19.7723 20.8479 19.8828 20.7652 19.9727 20.6624C20.0626 20.5596 20.1298 20.4391 20.1701 20.3086C20.2103 20.1782 20.2227 20.0407 20.2063 19.9051C20.1666 19.532 19.9026 19.2558 19.5328 19.2491C18.831 19.235 18.2605 19.5266 17.849 20.0843C17.5681 20.4628 17.7628 20.8811 18.2262 20.97C18.4296 21.0124 18.639 20.9908 18.8175 21.0003L18.8195 20.9949ZM21.2584 11.7845V17.0265C21.4294 16.9349 21.5736 16.8487 21.7251 16.778C21.8342 16.7268 21.8598 16.6527 21.8598 16.5389C21.8571 15.1173 21.8571 13.695 21.8598 12.2721C21.8598 12.1872 21.8652 12.1064 21.7682 12.0586C21.6012 11.9751 21.4422 11.8868 21.2564 11.7872L21.2584 11.7845ZM6.26306 11.7845C6.08121 11.8808 5.93641 11.9629 5.78688 12.035C5.74478 12.0516 5.70948 12.0819 5.68664 12.121C5.66381 12.1601 5.65475 12.2057 5.66093 12.2505C5.66408 13.6874 5.66408 15.1242 5.66093 16.5611C5.66093 16.6365 5.65353 16.7072 5.74176 16.7503C5.91216 16.8345 6.07852 16.9282 6.26104 17.0272L6.26306 11.7845Z" fill="#F5B000"/>
<path d="M21.2294 8.70725C20.7014 8.03373 20.0845 7.6249 19.318 7.46191C19.0795 7.41146 18.8364 7.3864 18.5926 7.38715H8.9262C7.84048 7.38715 6.96557 7.82292 6.26107 8.72611V8.4567C6.26107 7.4976 6.26107 6.53783 6.26107 5.57874C6.25084 5.31763 6.30086 5.05768 6.40723 4.819C6.65845 4.29433 7.06122 4.00067 7.65594 4H19.7194C20.6179 4 21.2011 4.5341 21.2254 5.43258C21.2483 6.50079 21.2294 7.56765 21.2294 8.70725Z" fill="#F5B000"/>
</svg>
