<svg width="22" height="17" viewBox="0 0 22 17" fill="none" xmlns="http://www.w3.org/2000/svg">
<path d="M1.00021 7.99996H18.5862L13.2932 2.70696C13.1977 2.61471 13.1215 2.50437 13.0691 2.38236C13.0167 2.26036 12.9891 2.12914 12.988 1.99636C12.9868 1.86358 13.0121 1.7319 13.0624 1.60901C13.1127 1.48611 13.1869 1.37446 13.2808 1.28056C13.3747 1.18667 13.4864 1.11242 13.6093 1.06214C13.7322 1.01186 13.8638 0.986555 13.9966 0.987709C14.1294 0.988862 14.2606 1.01645 14.3826 1.06886C14.5046 1.12127 14.615 1.19745 14.7072 1.29296L21.7072 8.29296C21.8947 8.48049 22 8.73479 22 8.99996C22 9.26512 21.8947 9.51943 21.7072 9.70696L14.7072 16.707C14.5186 16.8891 14.266 16.9899 14.0038 16.9876C13.7416 16.9854 13.4908 16.8802 13.3054 16.6948C13.12 16.5094 13.0148 16.2586 13.0125 15.9964C13.0103 15.7342 13.1111 15.4816 13.2932 15.293L18.5862 9.99996H1.00021C0.734995 9.99996 0.48064 9.8946 0.293104 9.70707C0.105568 9.51953 0.000211716 9.26518 0.000211716 8.99996C0.000211716 8.73474 0.105568 8.48039 0.293104 8.29285C0.48064 8.10532 0.734995 7.99996 1.00021 7.99996Z" fill="#0165E1"/>
</svg>
