<svg width="25" height="24" viewBox="0 0 25 24" fill="none" xmlns="http://www.w3.org/2000/svg">
<path d="M23.6691 12.9478C23.5004 11.0536 23.2224 10.6847 23.1174 10.5459C22.876 10.2253 22.4898 10.0158 22.081 9.79594C22.0579 9.78371 22.0379 9.76629 22.0227 9.74503C22.0075 9.72378 21.9974 9.69927 21.9933 9.67345C21.9891 9.64763 21.9911 9.62121 21.9989 9.59626C22.0067 9.57131 22.0202 9.54852 22.0384 9.52969C22.1141 9.45292 22.1722 9.36067 22.2089 9.25928C22.2455 9.15789 22.2598 9.04977 22.2507 8.94234C22.2331 8.75185 22.1445 8.57494 22.0025 8.44669C21.8606 8.31845 21.6756 8.24825 21.4843 8.25H20.753C20.7217 8.25019 20.6904 8.25222 20.6593 8.25609C20.6379 8.24683 20.6158 8.23946 20.5932 8.23406C20.1601 7.31859 19.5671 6.06516 18.338 5.45344C16.5151 4.54687 13.1569 4.5 12.5007 4.5C11.8444 4.5 8.48632 4.54687 6.6657 5.45203C5.43664 6.06375 4.84367 7.31719 4.41054 8.23266L4.40679 8.24016C4.38519 8.24319 4.36398 8.24854 4.34351 8.25609C4.31241 8.25222 4.2811 8.25019 4.24976 8.25H3.5171C3.3258 8.24825 3.14083 8.31845 2.99887 8.44669C2.85691 8.57494 2.76833 8.75185 2.7507 8.94234C2.74237 9.04952 2.75728 9.15723 2.79442 9.25811C2.83155 9.359 2.89003 9.45067 2.96585 9.52688C2.98399 9.54571 2.99751 9.5685 3.00533 9.59345C3.01316 9.6184 3.01508 9.64482 3.01094 9.67064C3.00681 9.69646 2.99673 9.72096 2.9815 9.74222C2.96627 9.76348 2.94631 9.7809 2.9232 9.79313C2.51445 10.0144 2.12632 10.2239 1.88679 10.5431C1.78179 10.6838 1.50429 11.0508 1.33507 12.945C1.24132 14.0109 1.22726 15.1144 1.30085 15.825C1.45507 17.3016 1.74429 18.1941 1.75648 18.2311C1.80086 18.3659 1.88255 18.4853 1.99208 18.5755C2.1016 18.6656 2.23446 18.7229 2.37523 18.7406V18.75C2.37523 18.9489 2.45425 19.1397 2.5949 19.2803C2.73555 19.421 2.92632 19.5 3.12523 19.5H5.75023C5.94914 19.5 6.13991 19.421 6.28056 19.2803C6.42121 19.1397 6.50023 18.9489 6.50023 18.75C6.90382 18.75 7.1846 18.6778 7.48226 18.6009C7.912 18.4851 8.35126 18.4081 8.79476 18.3708C10.2249 18.2344 11.6471 18.1875 12.5007 18.1875C13.3369 18.1875 14.8219 18.2344 16.2544 18.3708C16.6997 18.4082 17.1407 18.4855 17.5721 18.6019C17.8571 18.675 18.1276 18.7425 18.5021 18.7495C18.5021 18.9484 18.5811 19.1392 18.7218 19.2799C18.8624 19.4205 19.0532 19.4995 19.2521 19.4995H21.8771C22.076 19.4995 22.2668 19.4205 22.4074 19.2799C22.5481 19.1392 22.6271 18.9484 22.6271 18.7495V18.7439C22.7682 18.7265 22.9015 18.6694 23.0114 18.5792C23.1212 18.489 23.2032 18.3694 23.2477 18.2344C23.2599 18.1973 23.5491 17.3048 23.7034 15.8283C23.7769 15.1172 23.7638 14.0156 23.6691 12.9478ZM5.76617 8.87391C6.14117 8.07703 6.57007 7.17516 7.33367 6.795C8.4371 6.24563 10.7241 5.99812 12.5007 5.99812C14.2773 5.99812 16.5643 6.24375 17.6677 6.795C18.4313 7.17516 18.8584 8.0775 19.2352 8.87391L19.2821 8.97563C19.3095 9.03353 19.3216 9.0975 19.3173 9.16142C19.313 9.22534 19.2923 9.28708 19.2574 9.34076C19.2224 9.39445 19.1742 9.43827 19.1175 9.46806C19.0608 9.49785 18.9974 9.51261 18.9334 9.51094C17.3757 9.46875 14.0944 9.33375 12.5007 9.33375C10.9069 9.33375 7.6257 9.47203 6.0657 9.51422C6.00165 9.51589 5.93825 9.50113 5.88153 9.47134C5.82481 9.44155 5.77666 9.39773 5.74169 9.34405C5.70672 9.29037 5.68608 9.22862 5.68175 9.1647C5.67742 9.10078 5.68954 9.03681 5.71695 8.97891C5.73335 8.94422 5.7507 8.90906 5.76617 8.87391ZM6.32539 12.6066C5.51904 12.7036 4.70754 12.7515 3.89539 12.75C3.39851 12.75 2.88617 12.6094 2.79101 12.1669C2.72585 11.8692 2.73289 11.7019 2.76804 11.5336C2.79757 11.3906 2.84445 11.2866 3.07882 11.25C3.6882 11.1562 4.02898 11.2739 5.02648 11.5678C5.68789 11.7623 6.16507 12.0216 6.43695 12.2269C6.57335 12.3281 6.5007 12.5925 6.32539 12.6066ZM16.7026 16.4503C16.0857 16.5206 14.8519 16.4948 12.5148 16.4948C10.1776 16.4948 8.94429 16.5206 8.32742 16.4503C7.69085 16.3795 6.87945 15.7777 7.43351 15.2414C7.80242 14.888 8.66304 14.6236 9.80914 14.475C10.9552 14.3264 11.4404 14.25 12.5101 14.25C13.5798 14.25 14.0157 14.2969 15.211 14.4755C16.4063 14.6541 17.3096 14.9217 17.5866 15.2419C18.0919 15.8156 17.3387 16.3758 16.7026 16.4531V16.4503ZM22.2104 12.1664C22.1166 12.6108 21.601 12.7495 21.106 12.7495C20.2783 12.7497 19.4513 12.7018 18.6291 12.6061C18.4857 12.5925 18.4191 12.3408 18.5644 12.2264C18.8321 12.0159 19.3144 11.7619 19.9749 11.5673C20.9724 11.2734 21.5476 11.1558 22.0416 11.2537C22.1621 11.2777 22.2259 11.407 22.2334 11.4881C22.2664 11.7139 22.2586 11.9438 22.2104 12.1669V12.1664Z" fill="#0165E1"/>
</svg>
