<svg width="24" height="24" viewBox="0 0 24 24" fill="none" xmlns="http://www.w3.org/2000/svg">
<path d="M17.51 2.03343C16.5966 2.04036 15.6952 2.24031 14.8667 2.6198C14.0383 2.9993 13.3019 3.54951 12.7073 4.23337C12.1126 3.54942 11.3761 2.99915 10.5475 2.61965C9.71884 2.24015 8.81735 2.04026 7.90377 2.03343C7.13075 2.02592 6.36398 2.17053 5.64833 2.4588C4.93267 2.74707 4.28251 3.1732 3.73588 3.71227C3.18925 4.25134 2.75713 4.89251 2.46482 5.59827C2.17251 6.30403 2.02587 7.06019 2.03349 7.82251C2.03349 11.8013 5.66233 15.0435 11.1595 19.9694L12.7073 21.3481L14.255 19.9589C19.7515 15.0435 23.3811 11.8013 23.3811 7.82026C23.3884 7.05807 23.2415 6.30208 22.949 5.59654C22.6565 4.89099 22.2243 4.25006 21.6776 3.71122C21.1309 3.17238 20.4808 2.74646 19.7652 2.45837C19.0496 2.17029 18.2829 2.02582 17.51 2.03343ZM12.8136 18.4011L12.7073 18.506L12.6009 18.4011C7.52006 13.8649 4.16703 10.8647 4.16703 7.82251C4.15483 7.33534 4.24315 6.8508 4.42663 6.39831C4.61011 5.94582 4.88492 5.53482 5.23438 5.19027C5.58384 4.84571 6.00066 4.57478 6.45953 4.39393C6.91841 4.21308 7.40976 4.12608 7.90377 4.13821C8.71499 4.14216 9.50746 4.37922 10.1842 4.82037C10.861 5.26153 11.3926 5.88765 11.7142 6.62213H13.7102C14.0282 5.88739 14.5574 5.26059 15.2326 4.81916C15.9077 4.37773 16.6992 4.141 17.5093 4.13821C18.0032 4.12618 18.4945 4.21326 18.9533 4.39416C19.412 4.57506 19.8288 4.846 20.1782 5.19054C20.5275 5.53509 20.8023 5.94605 20.9857 6.39849C21.1691 6.85092 21.2574 7.3354 21.2452 7.82251C21.2452 10.8647 17.8945 13.8641 12.8136 18.4011Z" fill="#191919"/>
</svg>
