<svg width="128" height="65" viewBox="0 0 128 65" fill="none" xmlns="http://www.w3.org/2000/svg">
<path d="M13.1032 49.8945H21.5378C24.406 54.8965 30.7865 56.626 35.7885 53.757C37.3963 52.8354 38.7293 51.5016 39.6517 49.8945H88.0044C90.8712 54.8958 97.2503 56.626 102.252 53.7592C103.876 52.8282 105.219 51.4774 106.143 49.849C106.341 49.8141 106.533 49.7451 106.708 49.644L115.453 44.3965C115.979 44.0805 116.302 43.5118 116.302 42.8976V27.1559C116.297 26.9495 116.255 26.7459 116.179 26.5537C116.16 26.5018 116.139 26.4527 116.114 26.4021C116.09 26.3516 116.08 26.3025 116.051 26.2548L111.299 18.3334L112.62 15.6943C113.051 14.8296 112.7 13.7791 111.836 13.3478C111.68 13.2702 111.515 13.2161 111.343 13.1877L102.347 11.6867L98.0773 10.9764C77.135 7.54375 55.644 11.0646 36.8916 21.0009L31.7352 23.7524L23.8644 25.5011C18.5137 26.6797 13.9836 30.2162 11.5431 35.1214C11.4207 35.3634 11.3559 35.6303 11.3545 35.9014V48.1451C11.3545 49.1109 12.1374 49.8945 13.1032 49.8945ZM36.9998 47.4455C35.4469 50.9742 31.3274 52.5763 27.7987 51.0233C24.27 49.4704 22.668 45.3509 24.2209 41.8222C25.7739 38.2935 29.8933 36.6915 33.422 38.2444C35.96 39.3611 37.5962 41.8742 37.5913 44.647C37.5884 45.6107 37.3863 46.5637 36.9984 47.4455H36.9998ZM103.466 47.4455C101.913 50.9742 97.7941 52.5763 94.2654 51.0233C90.7367 49.4704 89.1346 45.3509 90.6876 41.8222C92.2405 38.2935 96.36 36.6915 99.8886 38.2444C102.427 39.3611 104.063 41.8742 104.058 44.647C104.055 45.6107 103.853 46.5637 103.465 47.4455H103.466ZM112.803 32.4034H108.431L105.807 28.9045H112.803V32.4034ZM77.5656 13.3378C84.2323 12.9806 90.9182 13.3478 97.5051 14.4346L98.4239 14.5883L89.3403 23.6578H76.0888L77.5656 13.3378ZM90.0648 27.1559C90.5288 27.1559 90.9737 26.9715 91.3011 26.6434L102.658 15.2844L108.431 16.2481L107.73 17.6281C107.463 18.1633 107.488 18.7982 107.797 19.3106L111.463 25.4065H102.308C101.342 25.4065 100.559 26.1901 100.559 27.1559C100.559 27.5345 100.682 27.9024 100.909 28.2049L106.157 35.2018C106.487 35.6424 107.005 35.9014 107.556 35.9014H112.803V41.9076L107.556 45.0613C107.556 44.9232 107.565 44.7851 107.565 44.647C107.565 38.8508 102.866 34.152 97.0703 34.152C91.274 34.152 86.5753 38.8508 86.5753 44.647C86.5788 45.1709 86.6236 45.694 86.7083 46.2107C86.7169 46.2719 86.7083 46.3352 86.7226 46.3964H72.8412L75.5892 27.1559H90.0648ZM73.9956 13.5827L72.5558 23.6578H39.3492C50.1332 18.0786 61.9014 14.6567 73.9956 13.5827ZM14.8526 39.3995H18.3507V35.9014H15.1095C17.1557 32.3386 20.6068 29.8027 24.6181 28.9152L32.5359 27.1559H72.0484L69.3076 46.3957H40.942C40.942 46.3345 40.942 46.2719 40.9563 46.2107C41.0402 45.6933 41.0844 45.1709 41.0894 44.6463C41.0894 38.8508 36.3906 34.152 30.5944 34.152C24.7988 34.152 20.1001 38.8508 20.1001 44.6463C20.1036 45.1709 20.1485 45.6933 20.2332 46.2107C20.2417 46.2719 20.2332 46.3345 20.2467 46.3957H14.8526V39.3995Z" fill="#A6A9BD"/>
<path d="M56.832 30.6543H63.8289V34.1524H56.832V30.6543Z" fill="#A6A9BD"/>
</svg>
