<svg width="18" height="18" viewBox="0 0 18 18" fill="none" xmlns="http://www.w3.org/2000/svg">
<path d="M16.01 0.0334275C15.0966 0.0403625 14.1952 0.240313 13.3667 0.619805C12.5383 0.999296 11.8019 1.54951 11.2073 2.23337C10.6126 1.54942 9.87607 0.999145 9.04746 0.61965C8.21884 0.240155 7.31735 0.0402556 6.40377 0.0334275C5.63075 0.0259174 4.86398 0.170528 4.14833 0.458797C3.43267 0.747067 2.78251 1.1732 2.23588 1.71227C1.68925 2.25134 1.25713 2.89251 0.964821 3.59827C0.672509 4.30403 0.52587 5.06019 0.533485 5.82251C0.533485 9.80129 4.16233 13.0435 9.65954 17.9694L11.2073 19.3481L12.755 17.9589C18.2515 13.0435 21.8811 9.80129 21.8811 5.82026C21.8884 5.05807 21.7415 4.30208 21.449 3.59654C21.1565 2.89099 20.7243 2.25006 20.1776 1.71122C19.6309 1.17238 18.9808 0.746457 18.2652 0.458372C17.5496 0.170287 16.7829 0.0258219 16.01 0.0334275ZM11.3136 16.4011L11.2073 16.506L11.1009 16.4011C6.02006 11.8649 2.66703 8.86467 2.66703 5.82251C2.65483 5.33534 2.74315 4.8508 2.92663 4.39831C3.11011 3.94582 3.38492 3.53482 3.73438 3.19027C4.08384 2.84571 4.50066 2.57478 4.95953 2.39393C5.41841 2.21308 5.90976 2.12608 6.40377 2.13821C7.21499 2.14216 8.00746 2.37922 8.68421 2.82037C9.36096 3.26153 9.89264 3.88765 10.2142 4.62213H12.2102C12.5282 3.88739 13.0574 3.26059 13.7326 2.81916C14.4077 2.37773 15.1992 2.141 16.0093 2.13821C16.5032 2.12618 16.9945 2.21326 17.4533 2.39416C17.912 2.57506 18.3288 2.846 18.6782 3.19054C19.0275 3.53509 19.3023 3.94605 19.4857 4.39849C19.6691 4.85092 19.7574 5.3354 19.7452 5.82251C19.7452 8.86467 16.3945 11.8641 11.3136 16.4011Z" fill=""/>
</svg>
