<svg width="41" height="40" viewBox="0 0 41 40" fill="none" xmlns="http://www.w3.org/2000/svg">
<rect x="1" y="0.5" width="39" height="39" rx="19.5" stroke="#A6A9BD"/>
<g clipPath="url(#clip0_1113_1965)">
<path d="M21.405 16.8465L21.405 16.8465C21.4194 16.0603 21.7418 15.3113 22.3028 14.7605C22.8639 14.2097 23.6188 13.9012 24.405 13.9013L21.405 16.8465ZM21.405 16.8465L21.377 18.4213M21.405 16.8465L21.377 18.4213M13.2581 15.8086L13.39 15.9185C15.2668 17.4821 17.2178 18.4182 19.2495 18.6952C19.2495 18.6952 19.2495 18.6952 19.2495 18.6952L20.8104 18.9072L13.2581 15.8086ZM13.2581 15.8086L13.2276 15.9775M13.2581 15.8086L13.2276 15.9775M13.2276 15.9775C12.9258 17.6482 13.0683 19.0709 13.6479 20.3018C14.2272 21.532 15.2383 22.5605 16.6558 23.4519L16.6558 23.452M13.2276 15.9775L16.6558 23.452M16.6558 23.452L18.4028 24.55L18.454 24.4685M16.6558 23.452L18.454 24.4685M18.454 24.4685L18.4028 24.55C18.472 24.5934 18.5294 24.6532 18.5702 24.724C18.6109 24.7948 18.6337 24.8745 18.6365 24.9562C18.6392 25.0378 18.622 25.1189 18.5862 25.1924C18.5504 25.2658 18.4972 25.3294 18.4311 25.3775L18.431 25.3775M18.454 24.4685L18.431 25.3775M18.431 25.3775L16.839 26.5405L16.6154 26.7039M18.431 25.3775L16.6154 26.7039M16.6154 26.7039L16.8918 26.7211M16.6154 26.7039L16.8918 26.7211M16.8918 26.7211C17.8449 26.7805 18.7529 26.7385 19.5095 26.5884L19.5096 26.5884M16.8918 26.7211L19.5096 26.5884M19.5096 26.5884C21.8886 26.1134 23.8745 24.9794 25.2652 23.2211M19.5096 26.5884L25.2652 23.2211M21.377 18.4213C21.3757 18.4918 21.3594 18.5612 21.3293 18.625C21.2993 18.6887 21.2561 18.7454 21.2026 18.7912C21.149 18.8371 21.0864 18.8712 21.0188 18.8911C20.9513 18.9111 20.8803 18.9166 20.8105 18.9072L21.377 18.4213ZM25.2652 23.2211C26.6557 21.463 27.445 19.0883 27.445 16.1423M25.2652 23.2211L27.445 16.1423M27.445 16.1423C27.445 15.9967 27.3714 15.7847 27.244 15.5572M27.445 16.1423L27.244 15.5572M27.244 15.5572C27.1142 15.3256 26.9215 15.0651 26.6673 14.8205M27.244 15.5572L26.6673 14.8205M26.6673 14.8205C26.1587 14.3309 25.3999 13.9013 24.405 13.9013L26.6673 14.8205ZM28.9978 13.5384C29.3818 13.4839 29.8285 13.3435 30.416 13.0111C30.1101 14.4953 29.9321 15.1676 29.2642 16.0834L29.245 16.1097V16.1423C29.245 19.9415 28.078 22.7567 26.3258 24.7397C24.5726 26.7238 22.2277 27.8813 19.8624 28.3532C18.2453 28.6759 16.2544 28.5728 14.4964 28.2106C13.6181 28.0296 12.8008 27.7846 12.1198 27.4974C11.5373 27.2517 11.0601 26.9775 10.7296 26.6904C11.1606 26.6482 11.9114 26.5535 12.7437 26.3598C13.7435 26.1272 14.8717 25.7494 15.7031 25.141L15.8192 25.056L15.699 24.9768C15.6572 24.9492 15.6118 24.9196 15.563 24.8879C14.8048 24.3938 13.2465 23.3786 12.2316 21.5166C11.1671 19.5637 10.6926 16.663 12.4136 12.4259C14.0789 14.3435 15.7726 15.66 17.495 16.3668L17.495 16.3668C18.0766 16.6054 18.4426 16.7237 18.7318 16.7914C18.9509 16.8426 19.1261 16.8646 19.3117 16.8879C19.3703 16.8953 19.43 16.9028 19.4924 16.9114L19.7872 16.9519L19.6059 16.7708C19.631 15.8414 19.9254 14.939 20.4539 14.1733C20.9904 13.3961 21.7442 12.7943 22.6211 12.4435C23.4979 12.0927 24.4588 12.0083 25.3833 12.2009C26.3079 12.3936 27.1551 12.8547 27.8189 13.5266L27.8485 13.5566L27.8907 13.5563C27.9934 13.5556 28.0972 13.5591 28.2036 13.5627C28.4483 13.571 28.7068 13.5797 28.9978 13.5384Z" fill="#A6A9BD" stroke="#A6A9BD" stroke-width="0.2"/>
</g>
<defs>
<clipPath id="clip0_1113_1965">
<rect width="24" height="24" fill="white" transform="translate(8.5 8)"/>
</clipPath>
</defs>
</svg>
