<svg width="41" height="40" viewBox="0 0 41 40" fill="none" xmlns="http://www.w3.org/2000/svg">
<rect x="1" y="0.5" width="39" height="39" rx="19.5" stroke="#A6A9BD"/>
<path d="M25.5 11H15.5C14.4391 11 13.4217 11.4214 12.6716 12.1716C11.9214 12.9217 11.5 13.9391 11.5 15V25C11.5 26.0609 11.9214 27.0783 12.6716 27.8284C13.4217 28.5786 14.4391 29 15.5 29H25.5C26.5609 29 27.5783 28.5786 28.3284 27.8284C29.0786 27.0783 29.5 26.0609 29.5 25V15C29.5 13.9391 29.0786 12.9217 28.3284 12.1716C27.5783 11.4214 26.5609 11 25.5 11Z" stroke="#A6A9BD" stroke-width="1.5" stroke-linejoin="round"/>
<path d="M20.5 24C21.5609 24 22.5783 23.5786 23.3284 22.8284C24.0786 22.0783 24.5 21.0609 24.5 20C24.5 18.9391 24.0786 17.9217 23.3284 17.1716C22.5783 16.4214 21.5609 16 20.5 16C19.4391 16 18.4217 16.4214 17.6716 17.1716C16.9214 17.9217 16.5 18.9391 16.5 20C16.5 21.0609 16.9214 22.0783 17.6716 22.8284C18.4217 23.5786 19.4391 24 20.5 24V24Z" stroke="#A6A9BD" stroke-width="1.5" stroke-linejoin="round"/>
<path d="M26 15.5C26.2652 15.5 26.5196 15.3946 26.7071 15.2071C26.8946 15.0196 27 14.7652 27 14.5C27 14.2348 26.8946 13.9804 26.7071 13.7929C26.5196 13.6054 26.2652 13.5 26 13.5C25.7348 13.5 25.4804 13.6054 25.2929 13.7929C25.1054 13.9804 25 14.2348 25 14.5C25 14.7652 25.1054 15.0196 25.2929 15.2071C25.4804 15.3946 25.7348 15.5 26 15.5Z" fill="#A6A9BD"/>
</svg>
