<svg width="30" height="31" viewBox="0 0 30 31" fill="none" xmlns="http://www.w3.org/2000/svg">
<path d="M18.7553 30.6316H10.7651C3.53394 30.6316 0.444397 27.5775 0.444397 20.4295V16.4803C0.444397 15.9406 0.897175 15.493 1.44317 15.493C1.98917 15.493 2.44195 15.9406 2.44195 16.4803V20.4295C2.44195 26.4981 4.62594 28.657 10.7651 28.657H18.7553C24.8944 28.657 27.0784 26.4981 27.0784 20.4295V12.5311C27.0784 8.71358 26.1728 6.50203 24.1353 5.35676C23.9223 5.23829 23.2165 4.92238 21.1923 4.60645C20.6463 4.52746 20.2735 4.01405 20.3667 3.47433C20.4599 2.93461 20.9792 2.56602 21.5119 2.65817C23.2564 2.93461 24.4417 3.25053 25.1209 3.63229C27.8109 5.14614 29.076 7.9764 29.076 12.5311V20.4295C29.076 27.5775 25.9864 30.6316 18.7553 30.6316Z" fill="#96A0BF"/>
<path d="M22.7506 18.7839H16.0921C15.5461 18.7839 15.0933 18.3363 15.0933 17.7966C15.0933 17.2569 15.5461 16.8093 16.0921 16.8093H22.7506C23.2966 16.8093 23.7494 17.2569 23.7494 17.7966C23.7494 18.3363 23.2966 18.7839 22.7506 18.7839Z" fill="#96A0BF"/>
<path d="M22.7504 24.0495H13.4285C12.8825 24.0495 12.4297 23.602 12.4297 23.0622C12.4297 22.5225 12.8825 22.075 13.4285 22.075H22.7504C23.2964 22.075 23.7492 22.5225 23.7492 23.0622C23.7492 23.602 23.2964 24.0495 22.7504 24.0495Z" fill="#96A0BF"/>
<path d="M9.34533 8.43992V8.23833C9.34533 7.58544 9.7533 7.23977 10.1612 6.96133C10.5595 6.6925 10.9577 6.34686 10.9577 5.71318C10.9577 4.82985 10.2389 4.11932 9.34533 4.11932C8.45173 4.11932 7.733 4.82985 7.733 5.71318" stroke="#96A0BF" stroke-width="1.5" stroke-linecap="round" stroke-linejoin="round"/>
<path d="M9.34123 10.7346H9.34997" stroke="#96A0BF" stroke-width="1.5" stroke-linecap="round" stroke-linejoin="round"/>
<rect x="1.77512" y="1" width="15.317" height="12.5312" rx="4" stroke="#96A0BF" stroke-width="2"/>
</svg>
