<svg width="25" height="24" viewBox="0 0 25 24" fill="none" xmlns="http://www.w3.org/2000/svg">
<path d="M17.5 2H9.5C6 2 4.5 4 4.5 7V11.47C4.5 11.82 4.84 12.06 5.16 11.94C6.26 11.51 7.51 11.37 8.8 11.63C11.4 12.15 13.47 14.29 13.9 16.9C14.16 18.49 13.84 20 13.11 21.25C12.91 21.58 13.15 22 13.54 22H17.5C21 22 22.5 20 22.5 17V7C22.5 4 21 2 17.5 2ZM20 9.25H18C16.48 9.25 15.25 8.02 15.25 6.5V4.5C15.25 4.09 15.59 3.75 16 3.75C16.41 3.75 16.75 4.09 16.75 4.5V6.5C16.75 7.19 17.31 7.75 18 7.75H20C20.41 7.75 20.75 8.09 20.75 8.5C20.75 8.91 20.41 9.25 20 9.25Z" fill="#3E4151"/>
<path d="M7.84284 21.3143C5.82306 21.3143 4.18572 19.6769 4.18572 17.6572C4.18572 15.6374 5.82306 14 7.84284 14C9.86263 14 11.5 15.6374 11.5 17.6572C11.5 19.6769 9.86263 21.3143 7.84284 21.3143Z" stroke="#3E4151" stroke-width="1.5" stroke-linecap="round" stroke-linejoin="round"/>
<path d="M3.49972 22.0003L4.64258 20.8574" stroke="#3E4151" stroke-width="1.5" stroke-linecap="round" stroke-linejoin="round"/>
</svg>
