<svg width="37" height="29" viewBox="0 0 37 29" fill="none" xmlns="http://www.w3.org/2000/svg">
<path d="M35.6024 4.68781C35.6024 2.05838 34.8445 1 32.9498 1H12.9919C11.0971 1 10.3392 2.05838 10.3392 4.68781V11.3689C10.3392 13.9983 11.0971 15.0567 12.9919 15.0567H32.9498C34.8445 15.0567 35.6024 13.9983 35.6024 11.3689" fill="white"/>
<path d="M35.6024 4.68781C35.6024 2.05838 34.8445 1 32.9498 1H12.9919C11.0971 1 10.3392 2.05838 10.3392 4.68781V11.3689C10.3392 13.9983 11.0971 15.0567 12.9919 15.0567H32.9498C34.8445 15.0567 35.6024 13.9983 35.6024 11.3689" stroke="#00124B" stroke-width="2" stroke-linecap="round" stroke-linejoin="round"/>
<path d="M6.1284 10.2814C6.1284 7.24319 6.89294 6.02026 8.80429 6.02026H28.9373C30.8486 6.02026 31.6132 7.24319 31.6132 10.2814V18.0011C31.6132 21.0393 30.8486 22.2622 28.9373 22.2622H8.80429C6.89294 22.2622 6.1284 21.0393 6.1284 18.0011" fill="white"/>
<path d="M6.12839 10.2814C6.12839 7.24319 6.89294 6.02026 8.8043 6.02026H28.9373C30.8486 6.02026 31.6132 7.24319 31.6132 10.2814V18.0011C31.6132 21.0393 30.8486 22.2622 28.9373 22.2622H8.8043C6.89294 22.2622 6.12839 21.0393 6.12839 18.0011" stroke="#3EC6C6" stroke-width="2" stroke-linecap="round" stroke-linejoin="round"/>
<path d="M1.07602 22.8442C1.07602 25.8824 1.84056 27.1054 3.75192 27.1054H23.8849C25.7962 27.1054 26.5608 25.8824 26.5608 22.8442V15.1245C26.5608 12.0863 25.7962 10.8634 23.8849 10.8634H3.75192C1.84056 10.8634 1.07602 12.0863 1.07602 15.1245" fill="white"/>
<path d="M1.07602 22.8442C1.07602 25.8824 1.84056 27.1054 3.75192 27.1054H23.8849C25.7962 27.1054 26.5608 25.8824 26.5608 22.8442V15.1245C26.5608 12.0863 25.7962 10.8634 23.8849 10.8634H3.75192C1.84056 10.8634 1.07602 12.0863 1.07602 15.1245" stroke="#00124B" stroke-width="2" stroke-linecap="round" stroke-linejoin="round"/>
<path d="M15.7948 18.6789C15.8355 19.0484 15.8558 19.4121 15.8558 19.7702V20.3V20.3976H15.7582H15.3212H15.2235V20.3V19.7629C15.2235 18.7017 15.0721 17.8651 14.7694 17.2531L14.7206 17.153L14.8256 17.1164L15.226 16.9748L15.3187 16.9431L15.3505 17.0358L15.619 17.8024C15.6744 17.9603 15.7948 18.0392 15.9803 18.0392C16.0845 18.0409 16.1602 18.0018 16.2074 17.9221C16.2546 17.8439 16.2758 17.7072 16.2709 17.5119L16.266 17.2263L16.2635 17.131L16.3588 17.1262L16.7469 17.114L16.8446 17.1115L16.847 17.2092L16.8568 17.5632C16.8617 17.7438 16.8877 17.8708 16.9349 17.944C16.9838 18.0189 17.0529 18.0563 17.1425 18.0563C17.2206 18.0563 17.2767 18.0075 17.3109 17.9099C17.3321 17.8496 17.3483 17.673 17.3597 17.3801V17.0554V16.9577H17.4574H17.8895H17.9872V17.0554L17.9847 17.3727C17.9847 17.4802 17.979 17.603 17.9677 17.7414C17.9416 18.049 17.8602 18.2858 17.7235 18.4518C17.5884 18.6179 17.3988 18.7001 17.1547 18.6984C16.9187 18.6968 16.7168 18.6179 16.5492 18.4616C16.3946 18.6211 16.2196 18.7009 16.0243 18.7009C15.9348 18.7009 15.8583 18.6935 15.7948 18.6789ZM20.8851 17.1774L20.7802 17.5998L20.7533 17.7072L20.6483 17.6657C20.593 17.6429 20.5352 17.6258 20.475 17.6144C20.4164 17.603 20.3562 17.5974 20.2943 17.5974C20.2439 17.5974 20.1967 17.6014 20.1527 17.6096C20.1088 17.6177 20.0689 17.6299 20.0331 17.6462C19.9956 17.6608 19.9615 17.6795 19.9305 17.7023C19.7906 17.8065 19.697 17.9636 19.6498 18.1735C19.6498 18.18 19.6522 18.1857 19.6571 18.1906C19.7841 18.3094 19.9826 18.3705 20.2528 18.3737C20.3358 18.3753 20.4318 18.3656 20.5409 18.3444C20.6418 18.3265 20.7386 18.298 20.8314 18.259L20.9486 18.2126L20.9657 18.3371L21.0219 18.7643L21.0316 18.8376L20.9657 18.8669C20.7492 18.9613 20.5197 19.0085 20.2772 19.0085C19.9305 19.0069 19.6522 18.9377 19.4423 18.801C19.4553 18.91 19.4659 19.0191 19.474 19.1281C19.4821 19.2355 19.4886 19.343 19.4935 19.4504C19.4968 19.5676 19.4984 19.6742 19.4984 19.7702V20.3V20.3976H19.4008H18.9637H18.8661V20.3V19.7629C18.8661 18.7017 18.7147 17.8651 18.412 17.2531L18.3632 17.153L18.4681 17.1164L18.8685 16.9748L18.9613 16.9431L18.993 17.0358C19.0386 17.1677 19.072 17.2637 19.0931 17.3239C19.1273 17.4248 19.1631 17.5298 19.2006 17.6389C19.2787 17.4533 19.391 17.2995 19.5375 17.1774C19.7328 17.0163 19.9647 16.9365 20.2333 16.9382C20.3391 16.9382 20.4416 16.9488 20.5409 16.9699C20.6402 16.9911 20.737 17.0228 20.8314 17.0651L20.9047 17.0993L20.8851 17.1774ZM22.7601 17.6169C22.682 17.6169 22.6088 17.621 22.5404 17.6291C22.2116 17.6665 22.0456 17.8146 22.0424 18.0734C22.0424 18.202 22.0961 18.3005 22.2035 18.3688C22.3386 18.4518 22.5249 18.495 22.7626 18.4982C23.1483 18.2964 23.4454 18.1695 23.6537 18.1174L23.6586 18.2468L23.6781 18.7009L23.6805 18.7668C22.9725 19.1151 22.4175 19.6994 22.0155 20.5197L21.9301 20.4904L21.515 20.3537L21.4198 20.3195C21.5809 19.9029 21.8617 19.478 22.2621 19.0451C21.9773 18.9898 21.7608 18.8758 21.6127 18.7033C21.4694 18.5373 21.3978 18.3176 21.3978 18.0441C21.3978 17.9627 21.4068 17.8846 21.4247 17.8098C21.4426 17.7349 21.4678 17.6633 21.5004 17.5949C21.6289 17.3345 21.8283 17.1563 22.0985 17.0602C22.2645 17 22.455 16.9699 22.6698 16.9699C22.8033 16.9699 22.9782 16.9862 23.1947 17.0187L23.1801 17.1164L23.1166 17.5485L23.1044 17.6413C22.9514 17.625 22.8366 17.6169 22.7601 17.6169Z" fill="#3EC6C6"/>
<path d="M6.34265 17.2535L6.6991 16.8971L6.73572 16.8605L6.77234 16.8971L7.12878 17.256L7.16541 17.2926L7.12878 17.3292L6.77478 17.6832L6.73816 17.7198L6.70154 17.6832L6.34265 17.3268L6.30603 17.2902L6.34265 17.2535ZM6.54529 18.8502C6.50297 18.8909 6.47286 18.93 6.45496 18.9674C6.43705 19.0032 6.4281 19.0366 6.4281 19.0675C6.4281 19.1424 6.47205 19.2311 6.55994 19.3336C6.5811 19.358 6.60144 19.38 6.62097 19.3995C6.64213 19.4191 6.66003 19.4353 6.67468 19.4484C6.68933 19.4614 6.70235 19.4728 6.71375 19.4825C6.72677 19.4907 6.73653 19.4964 6.74304 19.4996C6.75118 19.5029 6.75688 19.5053 6.76013 19.507C6.76501 19.5053 6.77559 19.4996 6.79187 19.4899C6.80815 19.4801 6.83175 19.4614 6.86267 19.4337C6.8936 19.4044 6.92615 19.3711 6.96033 19.3336C7.04822 19.2311 7.09135 19.1432 7.08972 19.0699C7.09135 19.0537 7.08972 19.0374 7.08484 19.0211C7.08158 19.0048 7.07507 18.9878 7.06531 18.9698C7.05717 18.9519 7.04578 18.9332 7.03113 18.9137C7.01811 18.8942 7.00102 18.8738 6.97986 18.8527C6.9587 18.8315 6.93429 18.8103 6.90662 18.7892C6.84151 18.7355 6.7878 18.7086 6.74548 18.7086C6.73897 18.7086 6.72758 18.7127 6.7113 18.7208C6.69666 18.7273 6.67387 18.7428 6.64294 18.7672C6.61202 18.79 6.57947 18.8177 6.54529 18.8502ZM6.74792 20.149C6.58028 20.25 6.36707 20.3248 6.10828 20.3737C5.84949 20.4209 5.54106 20.4445 5.18298 20.4445H5.09998C4.46521 20.4445 3.98018 20.3378 3.6449 20.1246C3.31124 19.9114 3.14441 19.59 3.14441 19.1603C3.14441 18.9259 3.19161 18.7037 3.28601 18.4938L3.32507 18.4059L3.41541 18.4449L3.79871 18.611L3.8866 18.65L3.85242 18.7379C3.82638 18.7998 3.80684 18.8608 3.79382 18.921C3.78243 18.9796 3.77673 19.0374 3.77673 19.0944C3.77673 19.2474 3.82149 19.3751 3.91101 19.4777C4.00216 19.5802 4.14864 19.66 4.35046 19.7169C4.55229 19.7723 4.81108 19.7999 5.12683 19.7999C5.55815 19.7999 5.87878 19.7861 6.08875 19.7584C5.99434 19.6543 5.92354 19.5428 5.87634 19.424C5.82914 19.3035 5.80554 19.1757 5.80554 19.0406C5.80554 18.7216 5.98051 18.4409 6.33044 18.1984C6.46065 18.1072 6.60388 18.0616 6.76013 18.0616C6.80896 18.0616 6.85616 18.0657 6.90173 18.0739C6.94731 18.0804 6.99125 18.0918 7.03357 18.108C7.07589 18.1227 7.11658 18.1414 7.15564 18.1642C7.52999 18.3904 7.71716 18.6923 7.71716 19.0699C7.71716 19.3287 7.61951 19.5607 7.42419 19.7657C7.54952 19.7885 7.70333 19.7999 7.88562 19.7999H7.96375C7.98165 19.7999 7.99792 19.8024 8.01257 19.8073C8.02722 19.8105 8.03943 19.817 8.04919 19.8268C8.05896 19.8365 8.06791 19.8463 8.07605 19.8561C8.08419 19.8642 8.08988 19.8764 8.09314 19.8927C8.09802 19.9073 8.10128 19.9204 8.10291 19.9318C8.10616 19.9432 8.1086 19.9578 8.11023 19.9757C8.11186 19.9936 8.11267 20.0074 8.11267 20.0172C8.11267 20.0253 8.11186 20.0384 8.11023 20.0563C8.11023 20.0726 8.11023 20.0823 8.11023 20.0856V20.132C8.11023 20.2329 8.10779 20.2947 8.10291 20.3175C8.08337 20.4005 8.03699 20.4428 7.96375 20.4445H7.8905C7.42013 20.4445 7.03927 20.346 6.74792 20.149ZM7.92957 20.4445C7.84981 20.4445 7.79041 20.4143 7.75134 20.3541C7.71065 20.2939 7.69031 20.2198 7.69031 20.132V20.0856C7.69031 20.0042 7.71065 19.9366 7.75134 19.8829C7.79366 19.8276 7.85307 19.7999 7.92957 19.7999H8.04675C8.10372 19.7999 8.1558 19.7967 8.203 19.7902C8.24858 19.7837 8.29089 19.7739 8.32996 19.7609C8.36739 19.7478 8.40076 19.7308 8.43005 19.7096C8.45935 19.6884 8.48539 19.6648 8.50818 19.6388C8.52934 19.6111 8.54643 19.5794 8.55945 19.5436C8.5741 19.5078 8.58468 19.4687 8.59119 19.4264C8.5977 19.3808 8.60095 19.3336 8.60095 19.2848V17.0314V16.9337H8.69861H9.12341H9.22107V17.0314V19.2994C9.22107 19.6722 9.11934 19.9562 8.91589 20.1515C8.71407 20.3468 8.42029 20.4445 8.03455 20.4445H7.92957ZM9.89246 16.9337H10.3148H10.4125V17.0314V20.3444V20.442H10.3148H9.89246H9.7948V20.3444V17.0314V16.9337H9.89246Z" fill="#3EC6C6"/>
<circle cx="12.8185" cy="19.4796" r="0.842105" fill="#00124B"/>
</svg>
