<svg width="18" height="19" viewBox="0 0 18 19" fill="none" xmlns="http://www.w3.org/2000/svg">
<path d="M6.71659 0.947601H1.90755C1.52042 0.94814 1.14931 1.10216 0.875568 1.3759C0.601828 1.64964 0.447804 2.02076 0.447266 2.40789L0.447266 7.21692C0.447804 7.60405 0.601828 7.97517 0.875568 8.24891C1.14931 8.52265 1.52042 8.67667 1.90755 8.67721H6.71659C7.10371 8.67667 7.47483 8.52265 7.74857 8.24891C8.02231 7.97517 8.17633 7.60405 8.17687 7.21692V2.40789C8.17633 2.02076 8.02231 1.64964 7.74857 1.3759C7.47483 1.10216 7.10371 0.94814 6.71659 0.947601Z" fill="#3E4151"/>
<path d="M16.0926 0.947601H11.2835C10.8964 0.94814 10.5253 1.10216 10.2515 1.3759C9.97779 1.64964 9.82378 2.02076 9.82324 2.40789V7.21692C9.82378 7.60405 9.97779 7.97517 10.2515 8.24891C10.5253 8.52265 10.8964 8.67667 11.2835 8.67721H16.0926C16.4797 8.67667 16.8508 8.52265 17.1245 8.24891C17.3983 7.97517 17.5523 7.60405 17.5528 7.21692V2.40789C17.5523 2.02076 17.3983 1.64964 17.1245 1.3759C16.8508 1.10216 16.4797 0.94814 16.0926 0.947601Z" fill="#3E4151"/>
<path d="M6.71659 10.3255H1.90755C1.52042 10.326 1.14931 10.4801 0.875568 10.7538C0.601828 11.0275 0.447804 11.3986 0.447266 11.7858L0.447266 16.5921C0.447804 16.9792 0.601828 17.3503 0.875568 17.6241C1.14931 17.8978 1.52042 18.0518 1.90755 18.0524H6.71659C7.10371 18.0518 7.47483 17.8978 7.74857 17.6241C8.02231 17.3503 8.17633 16.9792 8.17687 16.5921V11.7831C8.17562 11.3964 8.02128 11.026 7.74761 10.7528C7.47395 10.4797 7.10324 10.326 6.71659 10.3255Z" fill="#3E4151"/>
<path d="M16.0926 10.3255H11.2835C10.8964 10.326 10.5253 10.4801 10.2515 10.7538C9.97779 11.0275 9.82378 11.3986 9.82324 11.7858V16.5921C9.82378 16.9792 9.97779 17.3503 10.2515 17.6241C10.5253 17.8978 10.8964 18.0518 11.2835 18.0524H16.0926C16.4797 18.0518 16.8508 17.8978 17.1245 17.6241C17.3983 17.3503 17.5523 16.9792 17.5528 16.5921V11.7831C17.5516 11.3964 17.3972 11.026 17.1236 10.7528C16.8499 10.4797 16.4792 10.326 16.0926 10.3255Z" fill="#3E4151"/>
</svg>
