<svg width="24" height="24" viewBox="0 0 24 24" fill="none" xmlns="http://www.w3.org/2000/svg">
<g clipPath="url(#clip0_266_3182)">
<path d="M3.94799 10.8157C1.76755 10.8157 0 12.5832 0 14.7641C0 16.9443 1.76755 18.712 3.94799 18.712C5.54 18.712 6.9089 17.7674 7.53329 16.4095L8.47126 17.1327C8.47126 17.1327 15.3639 17.1819 15.7425 16.968C15.7425 16.968 14.8872 14.6321 15.9729 13.6448C16.0872 13.5408 16.2309 13.4222 16.3888 13.2966C16.2068 13.7502 16.1045 14.2444 16.1045 14.7637C16.1045 16.9443 17.8719 18.7116 20.0524 18.7116C22.2328 18.7116 24.0001 16.9435 24.0001 14.7637C24.0001 12.5829 22.2324 10.8157 20.0524 10.8157C20.0166 10.8157 19.9824 10.8202 19.9467 10.821C20.2319 10.6359 20.4139 10.5197 20.4139 10.5197L20.1178 10.2563C20.1178 10.2563 20.9732 10.0592 20.7762 9.63121C20.5785 9.20327 18.506 6.63717 18.506 6.63717C18.506 6.63717 18.8731 5.84741 18.1138 5.28806L17.7492 6.07772C17.7492 6.07772 16.8197 5.43611 16.4497 5.55967C16.0796 5.68286 15.5247 5.74477 15.3514 6.01607L15.1789 6.17656C15.1789 6.17656 15.1301 6.46055 15.4132 6.88001C15.4132 6.88001 18.2635 7.75593 18.399 8.39743C18.399 8.39743 18.5967 8.80497 17.7451 8.90315L17.5728 9.12549L17.1158 9.1501L16.2896 7.26223C16.2896 7.26223 15.4994 7.47194 15.0926 7.79256L15.1543 8.11313C15.1543 8.11313 11.8357 5.85563 8.71406 9.19901C8.71406 9.19901 6.40693 9.86512 4.79067 7.81722C4.79067 7.81722 4.76606 7.15101 0.86744 7.27446L1.139 7.55824C1.139 7.55824 0.86744 7.58285 0.756576 7.75557C0.645712 7.92808 0.818224 8.11318 1.70668 8.11318C1.70668 8.11318 3.7181 10.4079 5.26017 10.2725L7.45602 11.3337L8.43083 12.9992C8.43083 12.9992 8.43258 13.1423 8.44265 13.3611C8.2164 13.4093 7.96277 13.4628 7.69368 13.5199C7.17198 11.9495 5.69381 10.8157 3.94799 10.8157ZM20.0523 12.0255C21.5624 12.0255 22.7905 13.254 22.7905 14.7637C22.7905 16.2735 21.562 17.5016 20.0523 17.5016C18.5422 17.5016 17.3144 16.2731 17.3144 14.7637C17.3144 13.254 18.5423 12.0255 20.0523 12.0255ZM3.94799 17.502C2.43828 17.502 1.20984 16.2735 1.20984 14.7641C1.20984 13.254 2.43828 12.0259 3.94799 12.0259C5.10862 12.0259 6.10033 12.7531 6.49796 13.7746C5.04615 14.0834 3.60513 14.3906 3.60513 14.3906L3.79105 15.4146L6.634 15.2891C6.38905 16.5482 5.27836 17.502 3.94799 17.502ZM8.68991 15.198C8.77062 15.4721 8.87583 15.6899 9.01418 15.7834L7.74546 15.833C7.79982 15.6387 7.84086 15.4392 7.86557 15.2339L8.68991 15.198Z" fill="black"/>
</g>
<defs>
<clipPath id="clip0_266_3182">
<rect width="24" height="24" fill="white"/>
</clipPath>
</defs>
</svg>
