<svg width="128" height="65" viewBox="0 0 128 65" fill="none" xmlns="http://www.w3.org/2000/svg">
<path fill-rule="evenodd" clipRule="evenodd" d="M82.5333 9.68395L66.6932 10.2935C61.1756 10.506 55.8504 12.3723 51.4054 15.6485L41.0844 23.2503C40.8346 23.4336 40.5399 23.5559 40.2304 23.5962L19.1005 26.3245C14.5335 26.9134 11.0906 30.8344 11.0906 35.44V37.7415C9.99663 38.3831 9.25154 39.5735 9.25154 40.9159V42.7537C9.25154 45.7765 11.7412 48.2668 14.7637 48.2668H21.1946V46.5858H38.6511V48.267H88.2606V46.5858H104.796V48.2668H111.227C114.25 48.2668 116.739 45.7765 116.739 42.7537V40.9159C116.739 39.9984 116.391 39.152 115.822 38.5032V24.5719C115.822 23.483 115.498 22.4193 114.896 21.5138L109.204 12.9786C108.224 11.5087 106.598 10.5917 104.833 10.5236L82.964 9.68311L82.5333 9.68395ZM112.145 24.4862L44.0467 25.6404L53.5875 18.6061C57.4401 15.7667 62.0546 14.1532 66.8365 13.9691L82.677 13.3592C82.7248 13.3573 82.7726 13.3573 82.8204 13.3592L104.69 14.1997C105.28 14.2414 105.819 14.5275 106.147 15.0178L111.838 23.5525C112.024 23.8301 112.129 24.1536 112.145 24.4862Z" fill="white"/>
<path d="M53.7889 16.787C56.6519 14.5284 60.186 13.2886 63.8325 13.2635L105.049 12.9802C105.987 12.9738 106.846 13.5007 107.266 14.339L111.91 23.6177L43.0381 25.2682L53.7889 16.787Z" fill="#191919"/>
<path fill-rule="evenodd" clipRule="evenodd" d="M113.942 22.5396L34.9341 24.3774L35.0187 28.0522L114.026 26.2152L113.942 22.5396Z" fill="white"/>
<path fill-rule="evenodd" clipRule="evenodd" d="M72.6856 12.0444L69.9295 24.9152L73.5183 25.6833L76.2744 12.8197L72.6856 12.0444Z" fill="white"/>
<path fill-rule="evenodd" clipRule="evenodd" d="M90.9085 11.8149L87.449 13.0496L92.0425 25.9137L95.502 24.6785L90.9085 11.8149Z" fill="white"/>
<path fill-rule="evenodd" clipRule="evenodd" d="M64.3965 29.8906V33.5663H68.0713V29.8906H64.3965Z" fill="#191919"/>
<path fill-rule="evenodd" clipRule="evenodd" d="M87.3418 28.9722V32.647H91.0166V28.9722H87.3418Z" fill="#191919"/>
<circle cx="30.3535" cy="45.3901" r="7.79487" fill="#191919"/>
<path d="M30.3836 35.4053C24.8241 35.4053 20.278 39.9518 20.278 45.5121C20.278 51.0724 24.8241 55.6194 30.3836 55.6194C35.9432 55.6194 40.4893 51.0724 40.4893 45.5121C40.4893 39.9518 35.9432 35.4053 30.3836 35.4053ZM30.3836 39.0801C33.957 39.0801 36.8145 41.9377 36.8145 45.5121C36.8145 49.0866 33.957 51.9441 30.3836 51.9441C26.8103 51.9441 23.9528 49.0866 23.9528 45.5121C23.9528 41.9377 26.8103 39.0801 30.3836 39.0801Z" fill="white"/>
<path d="M32.2197 45.5152C32.2197 45.7565 32.1722 45.9954 32.0799 46.2183C31.9876 46.4413 31.8522 46.644 31.6816 46.8147C31.511 46.9853 31.3084 47.1208 31.0855 47.2131C30.8626 47.3055 30.6236 47.353 30.3823 47.353C30.141 47.353 29.9021 47.3055 29.6792 47.2131C29.4562 47.1208 29.2537 46.9853 29.0831 46.8147C28.9125 46.644 28.7771 46.4413 28.6848 46.2183C28.5925 45.9954 28.5449 45.7565 28.5449 45.5152C28.545 45.0278 28.7385 44.5602 29.0831 44.2156C29.4277 43.871 29.895 43.6777 30.3823 43.6777C30.8696 43.6777 31.337 43.871 31.6816 44.2156C32.0261 44.5602 32.2197 45.0278 32.2197 45.5152Z" fill="white"/>
<ellipse cx="96.8134" cy="45.3901" rx="7.79487" ry="7.79487" fill="#191919"/>
<path d="M96.5282 35.4053C90.9686 35.4053 86.4225 39.9518 86.4225 45.5121C86.4225 51.0724 90.9686 55.6194 96.5282 55.6194C102.088 55.6194 106.634 51.0724 106.634 45.5121C106.634 39.9518 102.088 35.4053 96.5282 35.4053ZM96.5282 39.0801C100.102 39.0801 102.959 41.9377 102.959 45.5121C102.959 49.0866 100.102 51.9441 96.5282 51.9441C92.9548 51.9441 90.0973 49.0866 90.0973 45.5121C90.0973 41.9377 92.9548 39.0801 96.5282 39.0801Z" fill="white"/>
<path d="M98.3662 45.5152C98.3662 45.7565 98.3187 45.9954 98.2264 46.2183C98.134 46.4413 97.9987 46.644 97.8281 46.8147C97.6575 46.9853 97.4549 47.1208 97.232 47.2131C97.0091 47.3055 96.7701 47.353 96.5288 47.353C96.2875 47.353 96.0486 47.3055 95.8257 47.2131C95.6027 47.1208 95.4002 46.9853 95.2296 46.8147C95.0589 46.644 94.9236 46.4413 94.8313 46.2183C94.7389 45.9954 94.6914 45.7565 94.6914 45.5152C94.6914 45.0278 94.885 44.5602 95.2296 44.2156C95.5742 43.871 96.0415 43.6777 96.5288 43.6777C97.0161 43.6777 97.4835 43.871 97.828 44.2156C98.1726 44.5602 98.3662 45.0278 98.3662 45.5152Z" fill="white"/>
<path d="M101.121 30.8135C101.121 31.3008 100.927 31.7685 100.583 32.113C100.238 32.4576 99.771 32.6509 99.2837 32.6509C98.7965 32.6509 98.3292 32.4576 97.9846 32.113C97.64 31.7685 97.4464 31.3008 97.4463 30.8135C97.4463 30.5722 97.4938 30.3333 97.5861 30.1103C97.6785 29.8873 97.8138 29.685 97.9844 29.5144C98.1551 29.3437 98.3576 29.2083 98.5805 29.1159C98.8035 29.0236 99.0424 28.9761 99.2837 28.9761C99.525 28.9761 99.7639 29.0236 99.9869 29.1159C100.21 29.2083 100.412 29.3437 100.583 29.5144C100.754 29.685 100.889 29.8873 100.981 30.1103C101.074 30.3333 101.121 30.5722 101.121 30.8135Z" fill="#191919"/>
</svg>
