<svg width="33" height="32" viewBox="0 0 33 32" fill="none" xmlns="http://www.w3.org/2000/svg">
<path d="M23.5694 12.8267H16.5694C16.0227 12.8267 15.5694 12.3733 15.5694 11.8267C15.5694 11.28 16.0227 10.8267 16.5694 10.8267H23.5694C24.1161 10.8267 24.5694 11.28 24.5694 11.8267C24.5694 12.3733 24.1294 12.8267 23.5694 12.8267Z" fill="#96A0BF"/>
<path d="M9.56939 13.84C9.31606 13.84 9.06272 13.7467 8.86272 13.5467L7.86272 12.5467C7.47606 12.16 7.47606 11.52 7.86272 11.1333C8.24939 10.7467 8.88939 10.7467 9.27606 11.1333L9.56939 11.4267L11.8627 9.13332C12.2494 8.74666 12.8894 8.74666 13.2761 9.13332C13.6627 9.51999 13.6627 10.16 13.2761 10.5467L10.2761 13.5467C10.0894 13.7333 9.83606 13.84 9.56939 13.84Z" fill="#96A0BF"/>
<path d="M23.5694 22.16H16.5694C16.0227 22.16 15.5694 21.7066 15.5694 21.16C15.5694 20.6133 16.0227 20.16 16.5694 20.16H23.5694C24.1161 20.16 24.5694 20.6133 24.5694 21.16C24.5694 21.7066 24.1294 22.16 23.5694 22.16Z" fill="#96A0BF"/>
<path d="M9.56939 23.1734C9.31606 23.1734 9.06272 23.08 8.86272 22.88L7.86272 21.88C7.47606 21.4934 7.47606 20.8534 7.86272 20.4667C8.24939 20.08 8.88939 20.08 9.27606 20.4667L9.56939 20.76L11.8627 18.4667C12.2494 18.08 12.8894 18.08 13.2761 18.4667C13.6627 18.8534 13.6627 19.4934 13.2761 19.88L10.2761 22.88C10.0894 23.0667 9.83606 23.1734 9.56939 23.1734Z" fill="#96A0BF"/>
<path d="M20.076 30.3334H12.076C4.83604 30.3334 1.74271 27.24 1.74271 20V12C1.74271 4.76002 4.83604 1.66669 12.076 1.66669H20.076C27.316 1.66669 30.4094 4.76002 30.4094 12V20C30.4094 27.24 27.316 30.3334 20.076 30.3334ZM12.076 3.66669C5.92937 3.66669 3.74271 5.85335 3.74271 12V20C3.74271 26.1467 5.92937 28.3334 12.076 28.3334H20.076C26.2227 28.3334 28.4094 26.1467 28.4094 20V12C28.4094 5.85335 26.2227 3.66669 20.076 3.66669H12.076Z" fill="#96A0BF"/>
</svg>
