<svg width="18" height="18" viewBox="0 0 18 18" fill="none" xmlns="http://www.w3.org/2000/svg">
<g clipPath="url(#clip0_282_6181)">
<mask id="path-1-inside-1_282_6181" fill="white">
<path d="M17.8466 17.1064L13.7568 13.0165C15.012 11.5851 15.7046 9.77389 15.7046 7.85231C15.7046 5.75479 14.8877 3.78302 13.4047 2.29997C11.9216 0.816927 9.94984 0 7.85231 0C5.75479 0 3.78302 0.816927 2.29997 2.29997C0.816927 3.78302 0 5.75479 0 7.85231C0 9.94984 0.816927 11.9216 2.29997 13.4047C3.78302 14.8877 5.75479 15.7046 7.85231 15.7046C9.77389 15.7046 11.5851 15.012 13.0165 13.7568L17.1064 17.8466C17.2086 17.9489 17.3426 18 17.4765 18C17.6105 18 17.7444 17.9489 17.8466 17.8466C18.0511 17.6421 18.0511 17.3109 17.8466 17.1064ZM3.04022 12.6644C1.75501 11.379 1.04698 9.66995 1.04698 7.85231C1.04698 6.03468 1.75501 4.32567 3.04022 3.04022C4.32567 1.75501 6.03468 1.04698 7.85231 1.04698C9.66995 1.04698 11.379 1.75501 12.6644 3.04022C13.9496 4.32567 14.6577 6.03468 14.6577 7.85231C14.6577 9.66995 13.9496 11.379 12.6644 12.6644C11.379 13.9496 9.66995 14.6577 7.85231 14.6577C6.03468 14.6577 4.32567 13.9496 3.04022 12.6644Z"/>
</mask>
<path d="M17.8466 17.1064L13.7568 13.0165C15.012 11.5851 15.7046 9.77389 15.7046 7.85231C15.7046 5.75479 14.8877 3.78302 13.4047 2.29997C11.9216 0.816927 9.94984 0 7.85231 0C5.75479 0 3.78302 0.816927 2.29997 2.29997C0.816927 3.78302 0 5.75479 0 7.85231C0 9.94984 0.816927 11.9216 2.29997 13.4047C3.78302 14.8877 5.75479 15.7046 7.85231 15.7046C9.77389 15.7046 11.5851 15.012 13.0165 13.7568L17.1064 17.8466C17.2086 17.9489 17.3426 18 17.4765 18C17.6105 18 17.7444 17.9489 17.8466 17.8466C18.0511 17.6421 18.0511 17.3109 17.8466 17.1064ZM3.04022 12.6644C1.75501 11.379 1.04698 9.66995 1.04698 7.85231C1.04698 6.03468 1.75501 4.32567 3.04022 3.04022C4.32567 1.75501 6.03468 1.04698 7.85231 1.04698C9.66995 1.04698 11.379 1.75501 12.6644 3.04022C13.9496 4.32567 14.6577 6.03468 14.6577 7.85231C14.6577 9.66995 13.9496 11.379 12.6644 12.6644C11.379 13.9496 9.66995 14.6577 7.85231 14.6577C6.03468 14.6577 4.32567 13.9496 3.04022 12.6644Z" fill="white"/>
<path d="M13.7568 13.0165L7.74194 7.74187L2.80179 13.3753L8.09991 18.6734L13.7568 13.0165ZM13.0165 13.7568L18.6734 8.09991L13.3753 2.80179L7.74187 7.74194L13.0165 13.7568ZM17.8466 17.8466L23.5035 23.5035V23.5035L17.8466 17.8466ZM3.04022 3.04022L-2.61608 -2.6172L-2.6172 -2.61608L3.04022 3.04022ZM12.6644 3.04022L18.3218 -2.61608L18.3207 -2.6172L12.6644 3.04022ZM12.6644 12.6644L18.3207 18.3218L18.3218 18.3207L12.6644 12.6644ZM23.5035 11.4495L19.4136 7.35966L8.09991 18.6734L12.1898 22.7632L23.5035 11.4495ZM19.7716 18.2912C22.2921 15.4169 23.7046 11.7364 23.7046 7.85231H7.70463C7.70463 7.85139 7.70478 7.84327 7.70726 7.82969C7.70973 7.81621 7.71379 7.80119 7.71953 7.78603C7.73205 7.75295 7.74517 7.73818 7.74194 7.74187L19.7716 18.2912ZM23.7046 7.85231C23.7046 3.63265 22.0446 -0.373834 19.0615 -3.35688L7.7478 7.95683C7.75094 7.95997 7.74737 7.9569 7.74064 7.94683C7.73395 7.93683 7.72647 7.92341 7.71986 7.90744C7.71324 7.89146 7.70902 7.87665 7.70666 7.86476C7.70429 7.8528 7.70463 7.848 7.70463 7.85231H23.7046ZM19.0615 -3.35688C16.0785 -6.33993 12.072 -8 7.85231 -8V8C7.85663 8 7.85183 8.00034 7.83986 7.99797C7.82798 7.99561 7.81317 7.99139 7.79719 7.98477C7.78122 7.97816 7.7678 7.97068 7.7578 7.96399C7.74773 7.95726 7.74466 7.95369 7.7478 7.95683L19.0615 -3.35688ZM7.85231 -8C3.63265 -8 -0.373834 -6.33993 -3.35688 -3.35688L7.95683 7.95683C7.95997 7.95369 7.9569 7.95726 7.94683 7.96399C7.93683 7.97068 7.92341 7.97816 7.90744 7.98477C7.89146 7.99139 7.87665 7.99561 7.86476 7.99797C7.8528 8.00034 7.848 8 7.85231 8V-8ZM-3.35688 -3.35688C-6.33993 -0.373834 -8 3.63265 -8 7.85231H8C8 7.848 8.00034 7.8528 7.99797 7.86476C7.99561 7.87665 7.99139 7.89146 7.98477 7.90744C7.97816 7.92341 7.97068 7.93683 7.96399 7.94683C7.95726 7.9569 7.95369 7.95997 7.95683 7.95683L-3.35688 -3.35688ZM-8 7.85231C-8 12.072 -6.33993 16.0785 -3.35688 19.0615L7.95683 7.7478C7.95369 7.74466 7.95726 7.74773 7.96399 7.7578C7.97068 7.7678 7.97816 7.78122 7.98477 7.79719C7.99139 7.81317 7.99561 7.82798 7.99797 7.83986C8.00034 7.85183 8 7.85663 8 7.85231H-8ZM-3.35688 19.0615C-0.373834 22.0446 3.63265 23.7046 7.85231 23.7046V7.70463C7.848 7.70463 7.8528 7.70429 7.86476 7.70666C7.87665 7.70902 7.89146 7.71324 7.90744 7.71986C7.92341 7.72647 7.93683 7.73395 7.94683 7.74064C7.9569 7.74737 7.95997 7.75094 7.95683 7.7478L-3.35688 19.0615ZM7.85231 23.7046C11.7364 23.7046 15.4169 22.2921 18.2912 19.7716L7.74187 7.74194C7.73818 7.74517 7.75295 7.73205 7.78603 7.71953C7.80119 7.71379 7.81621 7.70973 7.82969 7.70726C7.84327 7.70478 7.85139 7.70463 7.85231 7.70463V23.7046ZM7.35966 19.4136L11.4495 23.5035L22.7632 12.1898L18.6734 8.09991L7.35966 19.4136ZM11.4495 23.5035C13.1112 25.1651 15.3059 26 17.4765 26V10C19.3792 10 21.3061 10.7326 22.7632 12.1898L11.4495 23.5035ZM17.4765 26C19.6471 26 21.8418 25.1651 23.5035 23.5035L12.1898 12.1898C13.6469 10.7326 15.5738 10 17.4765 10V26ZM23.5035 23.5035C26.8322 20.1748 26.8322 14.7782 23.5035 11.4495L12.1898 22.7632C9.27007 19.8435 9.27007 15.1095 12.1898 12.1898L23.5035 23.5035ZM8.69763 7.00812C8.79306 7.10357 8.8859 7.23525 8.95262 7.39632C9.01935 7.55742 9.04698 7.71657 9.04698 7.85231H-6.95302C-6.95302 11.7922 -5.40179 15.5356 -2.6172 18.3207L8.69763 7.00812ZM9.04698 7.85231C9.04698 7.98806 9.01935 8.14721 8.95262 8.30831C8.8859 8.46938 8.79306 8.60106 8.69763 8.69651L-2.6172 -2.61608C-5.40179 0.169063 -6.95302 3.91242 -6.95302 7.85231H9.04698ZM8.69651 8.69763C8.60106 8.79306 8.46938 8.8859 8.30831 8.95262C8.14721 9.01935 7.98806 9.04698 7.85231 9.04698V-6.95302C3.91242 -6.95302 0.169063 -5.40179 -2.61608 -2.6172L8.69651 8.69763ZM7.85231 9.04698C7.71657 9.04698 7.55742 9.01935 7.39632 8.95262C7.23525 8.8859 7.10357 8.79306 7.00812 8.69763L18.3207 -2.6172C15.5356 -5.40179 11.7922 -6.95302 7.85231 -6.95302V9.04698ZM7.007 8.69651C6.91157 8.60106 6.81873 8.46938 6.75201 8.30831C6.68528 8.14721 6.65765 7.98806 6.65765 7.85231H22.6577C22.6577 3.91242 21.1064 0.169063 18.3218 -2.61608L7.007 8.69651ZM6.65765 7.85231C6.65765 7.71657 6.68528 7.55742 6.75201 7.39632C6.81873 7.23525 6.91157 7.10357 7.007 7.00812L18.3218 18.3207C21.1064 15.5356 22.6577 11.7922 22.6577 7.85231H6.65765ZM7.00812 7.007C7.10357 6.91157 7.23525 6.81873 7.39632 6.75201C7.55742 6.68528 7.71657 6.65765 7.85231 6.65765V22.6577C11.7922 22.6577 15.5356 21.1064 18.3207 18.3218L7.00812 7.007ZM7.85231 6.65765C7.98806 6.65765 8.14721 6.68528 8.30831 6.75201C8.46938 6.81873 8.60106 6.91157 8.69651 7.007L-2.61608 18.3218C0.169063 21.1064 3.91242 22.6577 7.85231 22.6577V6.65765Z" fill="white" mask="url(#path-1-inside-1_282_6181)"/>
</g>
<defs>
<clipPath id="clip0_282_6181">
<rect width="18" height="18" fill="white"/>
</clipPath>
</defs>
</svg>
