<svg width="128" height="65" viewBox="0 0 128 65" fill="none" xmlns="http://www.w3.org/2000/svg">
<path d="M90.5964 44.3078C90.5964 49.6633 94.9377 54.0049 100.293 54.0049C105.649 54.0049 109.99 49.6633 109.99 44.3078C109.99 38.9524 105.649 34.6108 100.293 34.6108C94.9377 34.6108 90.5964 38.9524 90.5964 44.3078Z" stroke="#A6A9BD" stroke-width="3.62633" stroke-miterlimit="10" stroke-linecap="round" stroke-linejoin="round"/>
<path d="M90.5977 48.186H34.3553" stroke="#A6A9BD" stroke-width="3.62633" stroke-miterlimit="10" stroke-linecap="round" stroke-linejoin="round"/>
<path d="M98.9244 42.9366L101.667 45.6792" stroke="#A6A9BD" stroke-width="3.62633" stroke-miterlimit="10" stroke-linecap="round" stroke-linejoin="round"/>
<path d="M14.9626 44.3078C14.9626 49.6633 19.3039 54.0049 24.6597 54.0049C30.0149 54.0049 34.3564 49.6633 34.3564 44.3078C34.3564 38.9524 30.0149 34.6108 24.6597 34.6108C19.3039 34.6108 14.9626 38.9524 14.9626 44.3078Z" stroke="#A6A9BD" stroke-width="3.62633" stroke-miterlimit="10" stroke-linecap="round" stroke-linejoin="round"/>
<path d="M26.0293 42.9371L23.2867 45.6797" stroke="#A6A9BD" stroke-width="3.62633" stroke-miterlimit="10" stroke-linecap="round" stroke-linejoin="round"/>
<path d="M109.993 46.247L119.349 43.5739C121.846 42.8602 123.568 40.5773 123.568 37.9796V26.3984C123.568 24.4423 122.112 22.7923 120.171 22.5496L112.998 21.653C109.725 21.2439 106.546 20.2815 103.596 18.8064L94.3923 14.2045C90.6222 12.3194 86.4648 11.3381 82.2498 11.3381H64.971C60.1758 11.3381 55.4806 12.7055 51.4352 15.2797L36.2958 24.9138C36.2958 24.9138 18.7155 24.9138 7.7478 30.0071C5.03183 31.2685 3.32619 34.0244 3.32619 37.0193V43.4577C3.32619 48.2612 11.9839 48.2612 14.126 48.2612" stroke="#A6A9BD" stroke-width="3.62633" stroke-miterlimit="10" stroke-linecap="round" stroke-linejoin="round"/>
<path d="M77.3061 24.9141H90.46C93.0318 24.9141 95.4983 23.8924 97.3169 22.0737L100.295 19.096" stroke="#A6A9BD" stroke-width="3.62633" stroke-miterlimit="10" stroke-linecap="round" stroke-linejoin="round"/>
<path d="M36.2936 24.9141H78.96" stroke="#A6A9BD" stroke-width="3.62633" stroke-miterlimit="10" stroke-linecap="round" stroke-linejoin="round"/>
<path d="M82.8408 40.4282H42.1138" stroke="#A6A9BD" stroke-width="3.62633" stroke-miterlimit="10" stroke-linecap="round" stroke-linejoin="round"/>
<path d="M123.568 30.7329H119.69" stroke="#A6A9BD" stroke-width="3.62633" stroke-miterlimit="10" stroke-linecap="round" stroke-linejoin="round"/>
<path d="M9.14258 34.6104H4.45579" stroke="#A6A9BD" stroke-width="3.62633" stroke-miterlimit="10" stroke-linecap="round" stroke-linejoin="round"/>
<path d="M71.2041 24.9146V11.3388" stroke="#A6A9BD" stroke-width="3.62633" stroke-miterlimit="10" stroke-linecap="round" stroke-linejoin="round"/>
<path d="M93.5068 24.1255L90.982 12.9727" stroke="#A6A9BD" stroke-width="3.62633" stroke-miterlimit="10" stroke-linecap="round" stroke-linejoin="round"/>
</svg>
