<svg width="24" height="24" viewBox="0 0 24 24" fill="none" xmlns="http://www.w3.org/2000/svg">
<path d="M15.5 20C14.6667 20 13.9583 19.7083 13.375 19.125C12.7917 18.5417 12.5 17.8333 12.5 17C12.5 16.8833 12.5083 16.7623 12.525 16.637C12.5417 16.5117 12.5667 16.3993 12.6 16.3L5.55 12.2C5.26667 12.45 4.95 12.646 4.6 12.788C4.25 12.93 3.88333 13.0007 3.5 13C2.66667 13 1.95833 12.7083 1.375 12.125C0.791667 11.5417 0.5 10.8333 0.5 10C0.5 9.16668 0.791667 8.45835 1.375 7.87502C1.95833 7.29168 2.66667 7.00002 3.5 7.00002C3.88333 7.00002 4.25 7.07102 4.6 7.21302C4.95 7.35502 5.26667 7.55068 5.55 7.80002L12.6 3.70002C12.5667 3.60002 12.5417 3.48768 12.525 3.36302C12.5083 3.23835 12.5 3.11735 12.5 3.00002C12.5 2.16668 12.7917 1.45835 13.375 0.875015C13.9583 0.291682 14.6667 1.52588e-05 15.5 1.52588e-05C16.3333 1.52588e-05 17.0417 0.291682 17.625 0.875015C18.2083 1.45835 18.5 2.16668 18.5 3.00002C18.5 3.83335 18.2083 4.54168 17.625 5.12502C17.0417 5.70835 16.3333 6.00002 15.5 6.00002C15.1167 6.00002 14.75 5.92935 14.4 5.78802C14.05 5.64668 13.7333 5.45068 13.45 5.20002L6.4 9.30002C6.43333 9.40002 6.45833 9.51268 6.475 9.63801C6.49167 9.76335 6.5 9.88402 6.5 10C6.5 10.1167 6.49167 10.2377 6.475 10.363C6.45833 10.4883 6.43333 10.6007 6.4 10.7L13.45 14.8C13.7333 14.55 14.05 14.3543 14.4 14.213C14.75 14.0717 15.1167 14.0007 15.5 14C16.3333 14 17.0417 14.2917 17.625 14.875C18.2083 15.4583 18.5 16.1667 18.5 17C18.5 17.8333 18.2083 18.5417 17.625 19.125C17.0417 19.7083 16.3333 20 15.5 20ZM15.5 4.00002C15.7833 4.00002 16.021 3.90402 16.213 3.71202C16.405 3.52002 16.5007 3.28268 16.5 3.00002C16.5 2.71668 16.404 2.47902 16.212 2.28702C16.02 2.09502 15.7827 1.99935 15.5 2.00002C15.2167 2.00002 14.979 2.09602 14.787 2.28802C14.595 2.48002 14.4993 2.71735 14.5 3.00002C14.5 3.28335 14.596 3.52102 14.788 3.71302C14.98 3.90501 15.2173 4.00068 15.5 4.00002ZM3.5 11C3.78333 11 4.021 10.904 4.213 10.712C4.405 10.52 4.50067 10.2827 4.5 10C4.5 9.71668 4.404 9.47902 4.212 9.28701C4.02 9.09501 3.78267 8.99935 3.5 9.00002C3.21667 9.00002 2.979 9.09601 2.787 9.28802C2.595 9.48002 2.49933 9.71735 2.5 10C2.5 10.2833 2.596 10.521 2.788 10.713C2.98 10.905 3.21733 11.0007 3.5 11ZM15.5 18C15.7833 18 16.021 17.904 16.213 17.712C16.405 17.52 16.5007 17.2827 16.5 17C16.5 16.7167 16.404 16.479 16.212 16.287C16.02 16.095 15.7827 15.9993 15.5 16C15.2167 16 14.979 16.096 14.787 16.288C14.595 16.48 14.4993 16.7173 14.5 17C14.5 17.2833 14.596 17.521 14.788 17.713C14.98 17.905 15.2173 18.0007 15.5 18Z" fill="#191919"/>
</svg>
