<svg width="32" height="32" viewBox="0 0 32 32" fill="none" xmlns="http://www.w3.org/2000/svg">
<path fill-rule="evenodd" clipRule="evenodd" d="M29.3337 16.0003C29.3337 23.3641 23.3641 29.3337 16.0003 29.3337C8.63653 29.3337 2.66699 23.3641 2.66699 16.0003C2.66699 8.63653 8.63653 2.66699 16.0003 2.66699C23.3641 2.66699 29.3337 8.63653 29.3337 16.0003ZM16.4781 12.5103C15.1812 13.0497 12.5893 14.1661 8.7024 15.8596C8.07123 16.1106 7.74059 16.3561 7.71049 16.5962C7.65962 17.002 8.16776 17.1618 8.85972 17.3794C8.95384 17.409 9.05136 17.4396 9.15134 17.4721C9.83212 17.6934 10.7479 17.9523 11.224 17.9626C11.6558 17.9719 12.1378 17.7939 12.6699 17.4285C16.3016 14.977 18.1763 13.7379 18.294 13.7112C18.377 13.6924 18.4921 13.6687 18.57 13.7379C18.648 13.8072 18.6403 13.9385 18.6321 13.9737C18.5817 14.1883 16.5871 16.0427 15.5549 17.0023C15.2331 17.3015 15.0048 17.5137 14.9582 17.5622C14.8536 17.6707 14.7471 17.7734 14.6447 17.8721C14.0123 18.4818 13.538 18.939 14.671 19.6857C15.2154 20.0445 15.6511 20.3412 16.0858 20.6372C16.5605 20.9604 17.0339 21.2829 17.6465 21.6844C17.8026 21.7867 17.9517 21.893 18.0968 21.9965C18.6493 22.3903 19.1456 22.7441 19.7587 22.6877C20.115 22.6549 20.483 22.3199 20.6699 21.3207C21.1116 18.9594 21.9799 13.8431 22.1805 11.7348C22.1981 11.55 22.176 11.3136 22.1582 11.2099C22.1405 11.1061 22.1034 10.9582 21.9685 10.8488C21.8087 10.7192 21.5621 10.6918 21.4518 10.6938C20.9503 10.7026 20.1809 10.9701 16.4781 12.5103Z" fill="#666666"/>
</svg>
