<svg width="24" height="25" viewBox="0 0 24 25" fill="none" xmlns="http://www.w3.org/2000/svg">
<path d="M4.76085 3.94703C4.8315 3.87638 4.86682 3.84106 4.89794 3.81247C5.6631 3.10939 6.83921 3.10939 7.60436 3.81247C7.63548 3.84106 7.67081 3.87638 7.74145 3.94703L9.19965 5.40522C10.0017 6.20728 10.2311 7.41851 9.77785 8.4583C9.32461 9.49808 9.554 10.7093 10.356 11.5114L12.7529 13.9082C13.5549 14.7102 14.7661 14.9396 15.8059 14.4864C16.8457 14.0331 18.057 14.2625 18.859 15.0646L20.3172 16.5228C20.3878 16.5934 20.4232 16.6287 20.4518 16.6599C21.1548 17.425 21.1548 18.6011 20.4518 19.3663C20.4232 19.3974 20.3878 19.4327 20.3172 19.5034L19.4309 20.3897C18.7091 21.1115 17.6685 21.4145 16.6721 21.1931C9.88248 19.6843 4.57995 14.3818 3.07115 7.59216C2.84971 6.59569 3.15272 5.55516 3.87451 4.83337L4.76085 3.94703Z" stroke="#666666" stroke-width="1.5"/>
</svg>
