<svg width="33" height="32" viewBox="0 0 33 32" fill="none" xmlns="http://www.w3.org/2000/svg">
<path d="M16.6595 2.6665C9.31284 2.6665 3.32617 8.65317 3.32617 15.9998C3.32617 23.3465 9.31284 29.3332 16.6595 29.3332C24.0062 29.3332 29.9928 23.3465 29.9928 15.9998C29.9928 8.65317 24.0062 2.6665 16.6595 2.6665ZM21.1395 19.0665C21.5262 19.4532 21.5262 20.0932 21.1395 20.4798C20.9395 20.6798 20.6862 20.7732 20.4328 20.7732C20.1795 20.7732 19.9262 20.6798 19.7262 20.4798L16.6595 17.4132L13.5928 20.4798C13.3928 20.6798 13.1395 20.7732 12.8862 20.7732C12.6328 20.7732 12.3795 20.6798 12.1795 20.4798C11.7928 20.0932 11.7928 19.4532 12.1795 19.0665L15.2462 15.9998L12.1795 12.9332C11.7928 12.5465 11.7928 11.9065 12.1795 11.5198C12.5662 11.1332 13.2062 11.1332 13.5928 11.5198L16.6595 14.5865L19.7262 11.5198C20.1128 11.1332 20.7528 11.1332 21.1395 11.5198C21.5262 11.9065 21.5262 12.5465 21.1395 12.9332L18.0728 15.9998L21.1395 19.0665Z" fill="#A6A9BD"/>
</svg>
