<svg width="16" height="16" viewBox="0 0 16 16" fill="none" xmlns="http://www.w3.org/2000/svg">
    <path
        d="M14.6187 1.39226C12.7843 -0.442184 11.0081 -0.485862 9.12996 1.39226L7.97977 2.54243C7.87786 2.64434 7.84878 2.78993 7.87789 2.92097C8.58047 5.38714 10.5256 7.35908 12.9764 8.09977C13.0517 8.12254 13.1278 8.14768 13.2065 8.14768C13.3084 8.14768 13.4103 8.104 13.4831 8.03121L14.6187 6.8956C15.5505 5.96382 16.0019 5.07571 16.0019 4.17305C16.0019 3.22671 15.5505 2.32404 14.6187 1.39226Z"
        fill="#F3C401" />
    <path
        d="M11.3979 8.97707C11.1213 8.84604 10.8592 8.71501 10.6117 8.55486C10.4079 8.43839 10.2041 8.30735 10.0148 8.16176C9.88244 8.07753 9.73017 7.96347 9.57445 7.83601C9.50866 7.78215 9.45991 7.7529 9.39745 7.69523C9.35364 7.65478 9.29311 7.58919 9.24836 7.54979C9.00638 7.33677 8.74127 7.07431 8.48711 6.79647C8.38923 6.68948 8.28988 6.579 8.20945 6.45835C8.10753 6.34188 7.96196 6.15261 7.81637 5.94878C7.69989 5.80319 7.56886 5.59936 7.45239 5.39554C7.3068 5.14803 7.16121 4.88597 7.04474 4.6239C6.8743 4.24516 6.38022 4.13824 6.08654 4.43192L1.2211 9.29737C0.857121 9.66135 0.522263 10.3311 0.449468 10.8261L0.0272416 13.8544C-0.074672 14.495 0.114577 15.0919 0.507672 15.4995C0.842531 15.8344 1.30846 16.0091 1.81803 16.0091C1.9345 16.0091 2.03638 15.9946 2.15286 15.98L5.18117 15.5578C5.67618 15.485 6.34588 15.1501 6.70986 14.7861L11.5888 9.90724C11.8761 9.6199 11.7724 9.13477 11.3979 8.97707Z"
        fill="#F3C401" />
</svg>