<svg width="24" height="24" viewBox="0 0 24 24" fill="none" xmlns="http://www.w3.org/2000/svg">
<path d="M17 2H9C5.5 2 4 4 4 7V11.47C4 11.82 4.34 12.06 4.66 11.94C5.76 11.51 7.01 11.37 8.3 11.63C10.9 12.15 12.97 14.29 13.4 16.9C13.66 18.49 13.34 20 12.61 21.25C12.41 21.58 12.65 22 13.04 22H17C20.5 22 22 20 22 17V7C22 4 20.5 2 17 2ZM19.5 9.25H17.5C15.98 9.25 14.75 8.02 14.75 6.5V4.5C14.75 4.09 15.09 3.75 15.5 3.75C15.91 3.75 16.25 4.09 16.25 4.5V6.5C16.25 7.19 16.81 7.75 17.5 7.75H19.5C19.91 7.75 20.25 8.09 20.25 8.5C20.25 8.91 19.91 9.25 19.5 9.25Z" fill="#0165E1"/>
<path d="M7.34284 21.3143C5.32306 21.3143 3.68572 19.6769 3.68572 17.6572C3.68572 15.6374 5.32306 14 7.34284 14C9.36263 14 11 15.6374 11 17.6572C11 19.6769 9.36263 21.3143 7.34284 21.3143Z" stroke="#0165E1" stroke-width="1.5" stroke-linecap="round" stroke-linejoin="round"/>
<path d="M2.99972 22.0003L4.14258 20.8574" stroke="#0165E1" stroke-width="1.5" stroke-linecap="round" stroke-linejoin="round"/>
</svg>
