<svg width="460" height="303" viewBox="0 0 460 303" fill="none" xmlns="http://www.w3.org/2000/svg">
<path d="M229.592 302.574C355.287 302.574 457.183 295.468 457.183 286.703C457.183 277.938 355.287 270.832 229.592 270.832C103.896 270.832 2 277.938 2 286.703C2 295.468 103.896 302.574 229.592 302.574Z" fill="#F0F0F0"/>
<g filter="url(#filter0_f_5003_48823)">
<path d="M327 145.332C327 223.487 264.089 286.832 186.5 286.832C108.911 286.832 46 223.487 46 145.332C46 67.1771 108.911 3.83203 186.5 3.83203C264.089 3.83203 327 67.1771 327 145.332Z" stroke="#EAF3FE" stroke-width="2"/>
</g>
<g filter="url(#filter1_f_5003_48823)">
<path d="M91 168.332C91 192.919 71.2901 212.832 47 212.832C22.7099 212.832 3 192.919 3 168.332C3 143.745 22.7099 123.832 47 123.832C71.2901 123.832 91 143.745 91 168.332Z" stroke="#FFEEC2" stroke-width="2"/>
</g>
<path opacity="0.3" d="M209.639 104.437C209.795 104.004 209.863 103.545 209.84 103.089C209.818 102.632 209.704 102.189 209.507 101.787C209.309 101.384 209.032 101.032 208.694 100.753C208.356 100.473 207.963 100.273 207.541 100.164L138.815 79.123C137.853 78.7244 136.792 78.6325 135.762 78.8584C126.226 82.122 119.927 90.0905 116.638 99.172C114.134 106.573 112.609 114.269 112.107 122.043C111.762 126.207 111.914 130.384 112.559 134.477C113.188 138.84 115.554 143.311 114.184 147.782C113.682 149.425 112.602 150.822 111.167 151.686C110.722 151.944 110.246 152.136 109.754 152.256C96.7251 148.201 84.8198 144.448 81.6159 143.3C79.6909 142.589 77.633 142.311 75.5737 142.483C73.5144 142.655 71.4989 143.274 69.656 144.3C64.083 147.705 59.8854 153.154 57.908 159.551C51.978 176.705 53.1366 200.889 55.6868 217.221C57.9523 231.791 61.0391 246.277 54.4948 253.588C53.5487 254.714 52.3267 255.547 50.9689 255.993L39.0316 252.482C39.0316 252.482 39.1467 258.732 44.1329 260.197L45.3359 260.52C46.4843 261.047 47.6995 261.41 48.9494 261.598L49.2344 261.675L117.439 281.697L119.802 282.439L120.483 282.622L120.388 282.597C126.065 283.584 131.156 273.499 132.017 269.59C134.627 257.888 131.053 245.314 129.505 233.661C128.051 224.078 127.397 214.356 127.551 204.603C127.918 194.898 130.869 178.951 138.725 170.504L172.581 180.548C172.969 180.679 173.366 180.786 173.768 180.867L174.132 180.965C175.233 181.184 176.364 181.234 177.489 181.114C180.196 180.749 182.742 179.477 184.745 177.489C187.436 174.842 186.398 171.731 185.491 168.513C183.473 161.017 184.956 152.454 187.071 145.064C189.498 136.593 193.915 129.356 198.856 122.134C202.696 116.516 207.037 110.746 209.639 104.437Z" fill="#1D69C7"/>
<path d="M144.798 164.175C149.321 165.282 153.939 166.415 157.67 169.12C162.52 172.645 165.734 178.742 173.029 177.905C175.774 177.567 178.362 176.289 180.389 174.272C183.096 171.63 182.042 168.515 181.131 165.313C179.088 157.846 180.589 149.216 182.681 141.91C185.112 133.423 189.525 126.202 194.45 118.976C198.295 113.341 202.647 107.592 205.233 101.279C205.394 100.847 205.467 100.386 205.447 99.9279C205.426 99.4697 205.313 99.0242 205.115 98.6206C204.917 98.2169 204.638 97.8644 204.297 97.5861C203.956 97.3077 203.56 97.11 203.136 97.0057L134.448 76.0112C133.484 75.6052 132.419 75.5059 131.383 75.7257C121.843 79.0059 115.549 86.9578 112.259 96.0393C109.748 103.438 108.223 111.136 107.728 118.91C107.391 123.074 107.543 127.25 108.18 131.345C108.861 135.704 111.264 140.166 109.855 144.591C109.359 146.237 108.277 147.637 106.838 148.495C106.083 148.935 105.246 149.191 104.393 149.241C103.539 149.292 102.692 149.136 101.917 148.786C115.532 154.432 129.158 160.225 143.48 163.839L144.798 164.175Z" fill="#E7F1FE"/>
<path d="M133.82 167.174L169.751 177.829C169.751 177.829 148.158 150.02 133.82 167.174Z" fill="#CCE0F9"/>
<path d="M146.017 161.706C129.199 162.332 123.677 187.966 123.175 201.47C123.016 211.225 123.675 220.95 125.145 230.533C126.678 242.182 130.251 254.756 127.637 266.474C126.735 270.533 121.319 281.248 115.422 279.323C115.422 279.323 53.4058 259.906 44.6438 258.52C42.6086 258.292 40.6821 257.509 39.0557 256.248C37.4293 254.988 36.1595 253.293 35.3724 251.334C35.0884 250.63 35.494 250.202 36.2492 250.422L44.7563 252.869C46.8141 253.421 48.7934 252.017 50.2028 250.46C56.7471 243.149 53.6603 228.663 51.379 214.088C48.8287 197.757 47.6474 173.656 53.5956 156.435C55.5099 150.026 59.6571 144.542 65.199 141.091C67.0413 140.062 69.0571 139.44 71.1173 139.265C73.1775 139.09 75.2367 139.366 77.1634 140.075C85.2648 142.95 146.017 161.706 146.017 161.706Z" fill="#CFE5FF"/>
<g opacity="0.5">
<path d="M186.703 105.193L130.915 88.4159C130.595 88.3298 130.323 88.114 130.16 87.8151C129.996 87.5163 129.954 87.1585 130.042 86.8192C130.169 86.4953 130.406 86.2293 130.706 86.0742C131.006 85.9191 131.348 85.8862 131.663 85.9821L187.451 102.759C187.62 102.783 187.782 102.844 187.926 102.939C188.069 103.034 188.191 103.16 188.282 103.309C188.374 103.458 188.434 103.627 188.459 103.804C188.483 103.981 188.471 104.163 188.424 104.338C188.376 104.512 188.294 104.675 188.183 104.816C188.072 104.957 187.935 105.073 187.779 105.155C187.624 105.238 187.455 105.286 187.283 105.296C187.111 105.306 186.941 105.278 186.782 105.214L186.703 105.193Z" fill="white"/>
</g>
<g opacity="0.8">
<path d="M118.376 171.111L62.6045 154.338C62.4447 154.3 62.2949 154.229 62.1638 154.128C62.0326 154.027 61.9229 153.9 61.8411 153.752C61.7593 153.605 61.707 153.441 61.6874 153.271C61.6678 153.1 61.6812 152.926 61.7268 152.758C61.8471 152.428 62.0832 152.155 62.386 151.996C62.6887 151.837 63.0348 151.804 63.3524 151.904L119.124 168.677C119.276 168.718 119.418 168.79 119.541 168.889C119.665 168.988 119.768 169.112 119.844 169.254C119.92 169.396 119.969 169.553 119.987 169.716C120.005 169.88 119.991 170.046 119.948 170.207C119.904 170.367 119.831 170.517 119.733 170.649C119.634 170.782 119.512 170.893 119.374 170.978C119.236 171.062 119.084 171.118 118.927 171.141C118.771 171.165 118.612 171.156 118.46 171.115L118.376 171.111Z" fill="#99C1F3"/>
</g>
<g opacity="0.8">
<path d="M114.767 180.196L82.4372 170.724C82.2786 170.684 82.1301 170.611 82.0001 170.51C81.8702 170.409 81.7613 170.281 81.6798 170.134C81.5983 169.988 81.5458 169.825 81.5251 169.655C81.5045 169.485 81.5161 169.311 81.5595 169.144C81.6828 168.818 81.9194 168.549 82.2208 168.393C82.5222 168.238 82.8655 168.207 83.1805 168.307L115.515 177.763C115.835 177.849 116.107 178.064 116.27 178.363C116.433 178.662 116.476 179.02 116.388 179.359C116.268 179.688 116.032 179.96 115.729 180.116C115.427 180.272 115.082 180.301 114.767 180.196Z" fill="#99C1F3"/>
</g>
<g opacity="0.5">
<path d="M180.626 113.465L147.032 103.331C146.874 103.291 146.725 103.218 146.595 103.117C146.465 103.016 146.357 102.888 146.275 102.742C146.194 102.595 146.141 102.432 146.12 102.262C146.1 102.092 146.111 101.918 146.155 101.751C146.271 101.419 146.507 101.145 146.811 100.988C147.114 100.832 147.461 100.805 147.776 100.914L181.374 111.032C181.543 111.056 181.705 111.117 181.848 111.212C181.992 111.307 182.113 111.433 182.205 111.582C182.297 111.731 182.357 111.9 182.382 112.077C182.406 112.254 182.394 112.436 182.346 112.61C182.299 112.785 182.217 112.948 182.106 113.089C181.995 113.23 181.857 113.345 181.702 113.428C181.547 113.511 181.378 113.559 181.206 113.569C181.034 113.579 180.863 113.551 180.705 113.487L180.626 113.465Z" fill="white"/>
</g>
<g opacity="0.5">
<path d="M178.707 120.515L125.354 104.965C125.194 104.927 125.043 104.855 124.911 104.755C124.779 104.654 124.668 104.526 124.585 104.379C124.502 104.232 124.448 104.067 124.427 103.896C124.405 103.725 124.417 103.55 124.461 103.381C124.517 103.215 124.603 103.061 124.716 102.928C124.828 102.795 124.963 102.685 125.114 102.606C125.265 102.527 125.429 102.479 125.596 102.465C125.763 102.452 125.929 102.473 126.086 102.527L179.423 118.072C179.593 118.096 179.755 118.158 179.898 118.252C180.042 118.347 180.163 118.473 180.255 118.622C180.347 118.771 180.407 118.94 180.432 119.118C180.456 119.295 180.444 119.477 180.396 119.651C180.349 119.825 180.267 119.988 180.156 120.129C180.045 120.27 179.907 120.386 179.752 120.469C179.597 120.552 179.428 120.6 179.256 120.61C179.084 120.62 178.913 120.592 178.755 120.527L178.707 120.515Z" fill="white"/>
</g>
<g opacity="0.5">
<path d="M176.418 128.901L123.065 113.352C122.905 113.314 122.754 113.242 122.622 113.141C122.49 113.041 122.379 112.913 122.296 112.766C122.213 112.618 122.159 112.454 122.138 112.283C122.116 112.112 122.128 111.936 122.172 111.768C122.228 111.602 122.314 111.447 122.427 111.314C122.539 111.181 122.674 111.072 122.825 110.993C122.976 110.914 123.14 110.866 123.307 110.852C123.473 110.839 123.64 110.86 123.797 110.914L177.134 126.459C177.304 126.483 177.466 126.544 177.609 126.639C177.753 126.734 177.874 126.86 177.966 127.009C178.058 127.158 178.118 127.327 178.142 127.504C178.167 127.682 178.155 127.863 178.107 128.038C178.06 128.212 177.978 128.375 177.867 128.516C177.756 128.657 177.618 128.773 177.463 128.855C177.308 128.938 177.139 128.986 176.967 128.996C176.795 129.006 176.624 128.978 176.466 128.914L176.418 128.901Z" fill="white"/>
</g>
<g opacity="0.5">
<path d="M171.042 143.993L117.689 128.443C117.528 128.405 117.378 128.333 117.246 128.233C117.114 128.132 117.003 128.004 116.92 127.857C116.837 127.71 116.783 127.546 116.761 127.374C116.74 127.203 116.752 127.028 116.795 126.859C116.911 126.532 117.14 126.26 117.437 126.099C117.734 125.939 118.075 125.902 118.389 125.997L171.742 141.546C171.912 141.57 172.074 141.631 172.217 141.726C172.36 141.821 172.482 141.947 172.574 142.096C172.666 142.245 172.726 142.414 172.75 142.591C172.775 142.769 172.763 142.95 172.715 143.125C172.668 143.299 172.586 143.462 172.475 143.603C172.364 143.744 172.226 143.86 172.071 143.943C171.916 144.025 171.747 144.073 171.575 144.084C171.403 144.094 171.232 144.066 171.073 144.001L171.042 143.993Z" fill="white"/>
</g>
<g opacity="0.5">
<path d="M168.751 152.379L115.398 136.83C115.237 136.791 115.087 136.72 114.955 136.619C114.823 136.519 114.712 136.391 114.629 136.243C114.546 136.096 114.492 135.932 114.47 135.761C114.449 135.589 114.461 135.414 114.504 135.246C114.627 134.921 114.861 134.652 115.159 134.493C115.457 134.334 115.798 134.296 116.114 134.388L169.467 149.937C169.637 149.961 169.799 150.022 169.942 150.117C170.085 150.212 170.207 150.338 170.299 150.487C170.391 150.636 170.451 150.805 170.475 150.982C170.5 151.159 170.488 151.341 170.44 151.516C170.393 151.69 170.311 151.853 170.2 151.994C170.089 152.135 169.951 152.25 169.796 152.333C169.641 152.416 169.472 152.464 169.3 152.474C169.128 152.484 168.957 152.456 168.798 152.392L168.751 152.379Z" fill="white"/>
</g>
<g opacity="0.5">
<path d="M174.624 135.502L159.408 131.056C159.247 131.018 159.097 130.946 158.964 130.846C158.832 130.745 158.722 130.617 158.638 130.47C158.555 130.323 158.502 130.159 158.48 129.987C158.459 129.816 158.47 129.641 158.514 129.472C158.637 129.147 158.87 128.878 159.169 128.719C159.467 128.561 159.808 128.523 160.124 128.614L175.34 133.06C175.51 133.084 175.672 133.145 175.815 133.24C175.958 133.334 176.08 133.461 176.172 133.61C176.264 133.759 176.324 133.928 176.348 134.105C176.373 134.282 176.361 134.464 176.313 134.638C176.266 134.813 176.184 134.976 176.073 135.117C175.962 135.258 175.824 135.373 175.669 135.456C175.514 135.539 175.345 135.587 175.173 135.597C175.001 135.607 174.83 135.579 174.671 135.515L174.624 135.502Z" fill="white"/>
</g>
<g clipPath="url(#clip0_5003_48823)">
<path d="M261.83 46.7591L154.835 69.2852C152.96 69.68 151.762 71.5095 152.159 73.3716L166.025 138.31C166.422 140.173 168.265 141.362 170.14 140.967L277.135 118.441C279.01 118.046 280.208 116.217 279.81 114.355L265.945 49.4159C265.547 47.5538 263.705 46.3643 261.83 46.7591Z" fill="#CCE0F9"/>
<path d="M258.198 47.6307L151.278 70.1411C149.404 70.5356 148.191 72.292 148.57 74.0641L161.765 135.863C162.143 137.635 163.969 138.752 165.843 138.357L272.764 115.847C274.638 115.453 275.85 113.696 275.472 111.924L262.276 50.125C261.898 48.3529 260.072 47.2362 258.198 47.6307Z" fill="#CCE0F9"/>
<path d="M296.556 41.6491L141.599 58.1897C140.141 58.3454 138.774 58.9264 137.8 59.8052C136.825 60.6841 136.321 61.7891 136.4 62.8777L137.948 83.6285C148.117 87.681 161.637 87.1649 173.428 84.0088C187.326 80.3158 199.663 73.5837 212.429 67.7848C225.195 61.9858 239.34 56.9236 253.629 57.2265C267.128 57.5185 278.981 62.5004 291.416 65.8085C295.496 66.9148 299.738 67.721 304.087 68.2164L302.367 45.1618C302.283 44.0739 301.623 43.093 300.534 42.4345C299.445 41.776 298.014 41.4935 296.556 41.6491Z" fill="#F6D57E" fill-opacity="0.8"/>
<path d="M170.88 94.518L170.71 94.7592C170.698 94.7803 170.67 94.8325 170.626 94.9159C170.582 94.9992 170.529 95.1068 170.465 95.2388C170.403 95.3686 170.335 95.521 170.26 95.6962C170.185 95.8695 170.11 96.0587 170.034 96.2638C169.96 96.4667 169.888 96.683 169.819 96.9126C169.75 97.1405 169.691 97.3736 169.643 97.612L169.141 97.5042C169.214 97.1473 169.306 96.8072 169.414 96.484C169.522 96.1589 169.632 95.8643 169.741 95.6002C169.69 95.6184 169.636 95.6332 169.581 95.6446C169.552 95.6505 169.509 95.6576 169.451 95.6658C169.394 95.674 169.321 95.6751 169.235 95.6689C169.148 95.6609 169.061 95.6435 168.976 95.6166C168.892 95.5876 168.812 95.5465 168.738 95.4931C168.613 95.4038 168.519 95.2981 168.454 95.1759C168.403 95.0843 168.368 94.9905 168.348 94.8944C168.341 94.8641 168.333 94.8091 168.324 94.7294C168.317 94.6492 168.329 94.5463 168.362 94.4207C168.396 94.295 168.447 94.1813 168.517 94.0796C168.572 94.0051 168.632 93.9416 168.697 93.8892C168.764 93.8363 168.834 93.7902 168.907 93.7509C168.982 93.7094 169.058 93.6724 169.135 93.6398C169.213 93.605 169.292 93.5701 169.372 93.535L169.585 94.0035C169.525 94.027 169.462 94.0529 169.398 94.0812C169.332 94.1076 169.271 94.1362 169.212 94.1669C169.153 94.1976 169.1 94.2309 169.052 94.2669C169.003 94.301 168.966 94.3376 168.938 94.3767C168.902 94.4268 168.875 94.4835 168.857 94.5467C168.841 94.6095 168.835 94.6728 168.841 94.7366C168.843 94.7547 168.846 94.7727 168.85 94.7905C168.859 94.835 168.876 94.8824 168.902 94.9329C168.929 94.9829 168.973 95.0295 169.034 95.0726C169.054 95.0853 169.078 95.0997 169.108 95.1159C169.139 95.1317 169.174 95.1449 169.213 95.1553C169.254 95.1654 169.3 95.1707 169.35 95.1715C169.382 95.1723 169.416 95.1691 169.452 95.1617C169.469 95.158 169.488 95.1533 169.507 95.1474C169.636 95.1134 169.764 95.0386 169.892 94.923C170.021 94.8052 170.152 94.6538 170.284 94.4686L170.463 94.2199L170.88 94.518ZM173.018 96.3316C172.879 96.3603 172.742 96.3607 172.608 96.3327C172.474 96.3048 172.351 96.2541 172.239 96.1807C172.129 96.107 172.034 96.0143 171.955 95.9025C171.875 95.789 171.821 95.662 171.791 95.5214C171.762 95.3826 171.761 95.2463 171.789 95.1125C171.817 94.9787 171.866 94.857 171.938 94.7474C172.011 94.6357 172.104 94.5405 172.215 94.4617C172.327 94.3829 172.452 94.3291 172.591 94.3004C172.732 94.2713 172.869 94.2707 173.003 94.2987C173.139 94.3263 173.263 94.3768 173.375 94.4501C173.487 94.5217 173.582 94.6134 173.661 94.7251C173.74 94.8368 173.795 94.9621 173.824 95.1009C173.853 95.2415 173.854 95.3795 173.827 95.5152C173.799 95.649 173.749 95.7717 173.676 95.8834C173.603 95.9951 173.509 96.0905 173.396 96.1697C173.284 96.2485 173.158 96.3025 173.018 96.3316ZM172.697 94.8022C172.627 94.8166 172.564 94.8435 172.507 94.8831C172.451 94.9227 172.404 94.9704 172.367 95.0263C172.333 95.0817 172.308 95.1434 172.295 95.2112C172.281 95.2772 172.281 95.3458 172.296 95.417C172.311 95.4882 172.338 95.5521 172.378 95.6089C172.418 95.6656 172.465 95.7134 172.52 95.7522C172.576 95.7889 172.638 95.8142 172.706 95.828C172.774 95.8418 172.842 95.8415 172.912 95.8271C172.983 95.8124 173.047 95.7852 173.104 95.7456C173.16 95.706 173.207 95.6583 173.243 95.6025C173.281 95.5445 173.307 95.4816 173.321 95.4138C173.336 95.3456 173.337 95.2759 173.322 95.2048C173.307 95.1336 173.279 95.0707 173.237 95.0161C173.198 94.9593 173.149 94.9128 173.091 94.8765C173.035 94.8398 172.973 94.8146 172.905 94.8008C172.837 94.787 172.768 94.7874 172.697 94.8022ZM177.152 91.9502C177.156 91.9569 177.172 91.9889 177.2 92.0461C177.231 92.1011 177.265 92.1711 177.303 92.256C177.341 92.3391 177.379 92.4298 177.416 92.5279C177.453 92.626 177.481 92.7195 177.5 92.8085C177.527 92.9366 177.539 93.063 177.538 93.1878C177.538 93.3121 177.518 93.4267 177.479 93.5314C177.439 93.6361 177.377 93.7259 177.293 93.801C177.208 93.876 177.095 93.9283 176.952 93.9578C176.897 93.9692 176.837 93.976 176.773 93.9782C176.708 93.9787 176.64 93.9713 176.57 93.9561C176.502 93.9387 176.432 93.9105 176.36 93.8714C176.289 93.8324 176.219 93.7781 176.151 93.7087C176.124 93.7791 176.093 93.8413 176.056 93.8954C176.019 93.9495 175.979 93.9968 175.935 94.0373C175.892 94.0779 175.846 94.1133 175.799 94.1436C175.753 94.1735 175.707 94.1987 175.661 94.2193C175.612 94.2425 175.561 94.2596 175.508 94.2706C175.476 94.2773 175.429 94.2833 175.367 94.2887C175.306 94.292 175.233 94.281 175.148 94.256C175.203 94.4302 175.252 94.6002 175.294 94.766C175.338 94.9314 175.378 95.0903 175.414 95.2426C175.449 95.3931 175.481 95.536 175.509 95.6712C175.537 95.8047 175.563 95.9283 175.587 96.0422L175.643 96.3118L175.141 96.4157L175.085 96.1461C175.057 96.0127 175.024 95.8598 174.986 95.6876C174.949 95.5132 174.906 95.3291 174.856 95.1352C174.806 94.9395 174.749 94.7376 174.687 94.5296C174.627 94.3211 174.559 94.1142 174.484 93.9087C174.41 93.7032 174.328 93.5038 174.239 93.3106C174.15 93.1155 174.054 92.9348 173.952 92.7683L174.398 92.5146C174.428 92.5714 174.457 92.6248 174.484 92.6749C174.512 92.725 174.538 92.777 174.565 92.831C174.592 92.8828 174.619 92.9375 174.646 92.9951C174.675 93.0523 174.706 93.1164 174.74 93.1874C174.776 93.2635 174.818 93.3401 174.866 93.4175C174.916 93.4945 174.971 93.562 175.031 93.6201C175.092 93.6781 175.157 93.7203 175.228 93.7465C175.286 93.7696 175.348 93.7746 175.412 93.7613C175.426 93.7584 175.44 93.7545 175.454 93.7498C175.522 93.7283 175.577 93.6909 175.62 93.6375C175.664 93.5837 175.692 93.5048 175.701 93.4006C175.711 93.2965 175.702 93.1628 175.676 92.9994C175.671 92.9687 175.665 92.9365 175.658 92.9027C175.628 92.7586 175.582 92.588 175.52 92.391L176.007 92.2402C176.074 92.4528 176.138 92.6391 176.199 92.7991C176.262 92.9587 176.327 93.0901 176.393 93.1934C176.46 93.2966 176.529 93.3714 176.602 93.4175C176.676 93.4616 176.758 93.4744 176.847 93.456C176.904 93.4442 176.948 93.423 176.979 93.3925C177.009 93.362 177.029 93.3236 177.038 93.2772C177.049 93.2305 177.05 93.1763 177.043 93.1147C177.038 93.0841 177.033 93.0518 177.025 93.018C177.018 92.9842 177.01 92.9488 177 92.9118C176.982 92.8432 176.959 92.7728 176.931 92.7006C176.905 92.6281 176.876 92.5597 176.846 92.4954C176.817 92.4289 176.79 92.3696 176.764 92.3174C176.738 92.2634 176.717 92.2213 176.701 92.1911L177.152 91.9502ZM181.158 91.3999C181.09 91.5254 181.025 91.6659 180.965 91.8213C180.906 91.9746 180.852 92.14 180.802 92.3175C180.753 92.4946 180.71 92.6818 180.671 92.8791C180.633 93.0747 180.599 93.2775 180.571 93.4876C180.547 93.6652 180.528 93.8418 180.515 94.0172C180.503 94.1923 180.496 94.3589 180.494 94.5172C180.494 94.6751 180.499 94.8217 180.508 94.957C180.518 95.0924 180.533 95.2081 180.553 95.3042L180.051 95.4081C180.031 95.312 179.998 95.2 179.953 95.072C179.907 94.944 179.852 94.8079 179.786 94.6636C179.721 94.5194 179.647 94.3693 179.566 94.2134C179.485 94.0575 179.398 93.9029 179.305 93.7495C179.194 93.5682 179.081 93.3957 178.965 93.2322C178.85 93.0666 178.734 92.9123 178.617 92.7695C178.5 92.6267 178.383 92.4967 178.268 92.3795C178.151 92.2605 178.038 92.1569 177.926 92.0685L178.245 91.6628C178.368 91.7617 178.493 91.876 178.621 92.0056C178.748 92.1351 178.876 92.2768 179.003 92.4307C179.13 92.5845 179.256 92.7506 179.38 92.929C179.505 93.1056 179.626 93.2914 179.743 93.4862C179.791 93.5636 179.835 93.6406 179.878 93.7173C179.921 93.7937 179.965 93.8711 180.007 93.9495C180.014 93.8608 180.022 93.7729 180.03 93.6858C180.039 93.5985 180.05 93.5098 180.063 93.4199C180.092 93.1949 180.127 92.9769 180.168 92.766C180.211 92.5529 180.26 92.3507 180.314 92.1593C180.369 91.9679 180.428 91.7876 180.493 91.6182C180.558 91.4488 180.628 91.2942 180.702 91.1544L181.158 91.3999Z" fill="#848484"/>
<path d="M199.958 91.4265C199.907 91.3459 199.856 91.2378 199.803 91.102C199.75 90.9662 199.697 90.8147 199.644 90.6476C199.592 90.4801 199.541 90.3031 199.49 90.1167C199.44 89.9285 199.392 89.7425 199.348 89.5585L198.886 89.6541C198.854 89.6608 198.814 89.6671 198.767 89.6731C198.72 89.6773 198.668 89.6798 198.61 89.6806C198.552 89.6795 198.492 89.6735 198.428 89.6626C198.364 89.6516 198.3 89.6333 198.235 89.6077C198.181 89.5857 198.123 89.5558 198.063 89.518C198.005 89.4799 197.948 89.4304 197.893 89.3695C197.839 89.3082 197.789 89.2341 197.743 89.1471C197.699 89.0597 197.664 88.9555 197.638 88.8345C197.614 88.7206 197.602 88.6191 197.602 88.53C197.604 88.4406 197.612 88.36 197.627 88.2882C197.643 88.2161 197.664 88.1533 197.69 88.0996C197.718 88.0439 197.745 87.9936 197.773 87.9489C197.845 87.8336 197.937 87.7386 198.048 87.6637C198.158 87.5888 198.281 87.5374 198.416 87.5094C198.539 87.484 198.657 87.48 198.771 87.4974C198.885 87.5126 198.991 87.5493 199.086 87.6075C199.226 87.6882 199.34 87.7991 199.429 87.9404C199.52 88.0812 199.589 88.2655 199.637 88.4933C199.709 88.8332 199.78 89.1499 199.851 89.4434C199.921 89.7352 199.989 89.9968 200.054 90.2284C200.119 90.4582 200.18 90.6527 200.235 90.812C200.293 90.9691 200.343 91.0821 200.387 91.1509L199.958 91.4265ZM199.237 89.0552C199.215 88.9669 199.195 88.8848 199.177 88.8086C199.161 88.7321 199.146 88.6618 199.133 88.5977C199.107 88.4767 199.077 88.3781 199.043 88.3017C199.008 88.2235 198.971 88.1625 198.932 88.1185C198.894 88.0724 198.855 88.0406 198.814 88.0231C198.773 88.0056 198.734 87.9951 198.696 87.9918C198.66 87.9881 198.627 87.9894 198.597 87.9957C198.566 88.002 198.541 88.0071 198.522 88.0112C198.361 88.0443 198.248 88.1208 198.18 88.2407C198.112 88.3605 198.1 88.5236 198.143 88.7301C198.188 88.9436 198.282 89.0764 198.425 89.1286C198.461 89.1433 198.498 89.1534 198.534 89.1588C198.572 89.1639 198.607 89.166 198.639 89.1651C198.672 89.1638 198.7 89.1616 198.724 89.1586C198.749 89.1552 198.768 89.1522 198.78 89.1497L199.237 89.0552ZM202.58 90.8839C202.529 90.8033 202.478 90.6952 202.425 90.5594C202.373 90.4236 202.319 90.2722 202.266 90.105C202.214 89.9375 202.163 89.7606 202.113 89.5741C202.062 89.386 202.015 89.1999 201.97 89.0159L201.508 89.1115C201.476 89.1182 201.437 89.1245 201.39 89.1305C201.342 89.1348 201.29 89.1373 201.232 89.138C201.175 89.137 201.114 89.131 201.05 89.12C200.987 89.109 200.922 89.0907 200.858 89.0652C200.803 89.0431 200.745 89.0132 200.686 88.9754C200.627 88.9373 200.571 88.8878 200.515 88.8269C200.461 88.7656 200.411 88.6915 200.365 88.6045C200.321 88.5171 200.286 88.4129 200.261 88.2919C200.237 88.178 200.225 88.0766 200.225 87.9875C200.226 87.898 200.234 87.8174 200.249 87.7457C200.266 87.6736 200.287 87.6107 200.313 87.5571C200.34 87.5013 200.367 87.451 200.395 87.4063C200.468 87.291 200.559 87.196 200.67 87.1211C200.78 87.0462 200.903 86.9948 201.039 86.9668C201.161 86.9414 201.28 86.9374 201.393 86.9548C201.507 86.9701 201.613 87.0068 201.709 87.0649C201.848 87.1456 201.962 87.2565 202.051 87.3978C202.142 87.5386 202.212 87.723 202.26 87.9507C202.331 88.2906 202.402 88.6073 202.473 88.9008C202.543 89.1926 202.611 89.4542 202.677 89.6858C202.742 89.9156 202.802 90.1101 202.858 90.2694C202.915 90.4265 202.965 90.5395 203.01 90.6084L202.58 90.8839ZM201.859 88.5126C201.837 88.4244 201.817 88.3422 201.799 88.266C201.783 88.1895 201.768 88.1192 201.755 88.0552C201.729 87.9342 201.699 87.8355 201.665 87.7591C201.63 87.6809 201.593 87.6199 201.554 87.5759C201.516 87.5299 201.477 87.4981 201.436 87.4805C201.395 87.463 201.356 87.4525 201.318 87.4492C201.282 87.4456 201.249 87.4469 201.219 87.4531C201.188 87.4594 201.164 87.4645 201.144 87.4686C200.984 87.5017 200.87 87.5782 200.802 87.6981C200.734 87.8179 200.722 87.9811 200.765 88.1875C200.81 88.401 200.904 88.5338 201.047 88.586C201.083 88.6007 201.12 88.6108 201.156 88.6162C201.195 88.6213 201.229 88.6234 201.261 88.6225C201.294 88.6212 201.322 88.619 201.346 88.616C201.371 88.6126 201.39 88.6097 201.402 88.6071L201.859 88.5126ZM205.305 88.0168C205.414 88.2004 205.526 88.3749 205.641 88.5406C205.755 88.7045 205.87 88.858 205.985 89.0012C206.102 89.1423 206.219 89.2723 206.335 89.3912C206.452 89.508 206.566 89.6106 206.678 89.699L206.358 90.0994C206.11 89.9018 205.858 89.6476 205.601 89.3368C205.345 89.026 205.098 88.6742 204.862 88.2812C204.816 88.2035 204.77 88.1256 204.726 88.0475C204.682 87.9694 204.639 87.8929 204.597 87.8179C204.593 87.9024 204.585 87.9894 204.574 88.079C204.565 88.1681 204.554 88.2577 204.541 88.3476C204.486 88.8009 204.403 89.2209 204.293 89.6076C204.183 89.9943 204.054 90.3273 203.906 90.6067L203.446 90.3676C203.515 90.2421 203.578 90.1026 203.637 89.9494C203.697 89.7939 203.752 89.6286 203.801 89.4532C203.851 89.2758 203.895 89.0893 203.934 88.8937C203.972 88.6964 204.006 88.4918 204.034 88.2799C204.057 88.1005 204.075 87.9232 204.086 87.7482C204.098 87.5731 204.105 87.4064 204.107 87.2482C204.109 87.0899 204.105 86.944 204.096 86.8105C204.086 86.6751 204.071 86.5594 204.051 86.4633L204.553 86.3594C204.573 86.4555 204.606 86.5675 204.651 86.6955C204.698 86.8214 204.754 86.9564 204.82 87.1006C204.886 87.2449 204.959 87.395 205.04 87.5509C205.123 87.7064 205.211 87.8617 205.305 88.0168ZM209.175 86.5949L209.006 86.8361C208.994 86.8572 208.965 86.9094 208.922 86.9927C208.878 87.0761 208.824 87.1837 208.761 87.3156C208.699 87.4454 208.631 87.5979 208.556 87.773C208.481 87.9464 208.405 88.1356 208.33 88.3407C208.255 88.5436 208.183 88.7599 208.115 88.9895C208.045 89.2173 207.987 89.4504 207.938 89.6888L207.436 89.581C207.51 89.2242 207.601 88.8841 207.71 88.5608C207.818 88.2358 207.927 87.9412 208.037 87.6771C207.985 87.6953 207.932 87.7101 207.876 87.7215C207.848 87.7274 207.805 87.7344 207.747 87.7427C207.689 87.7509 207.617 87.7519 207.53 87.7457C207.443 87.7378 207.357 87.7204 207.271 87.6935C207.187 87.6645 207.108 87.6233 207.034 87.57C206.909 87.4807 206.814 87.375 206.75 87.2528C206.699 87.1612 206.663 87.0673 206.643 86.9713C206.637 86.941 206.629 86.886 206.62 86.8062C206.612 86.7261 206.625 86.6232 206.658 86.4975C206.691 86.3719 206.742 86.2582 206.812 86.1565C206.867 86.082 206.927 86.0185 206.992 85.966C207.059 85.9132 207.129 85.8671 207.203 85.8278C207.278 85.7863 207.354 85.7492 207.43 85.7166C207.509 85.6819 207.588 85.647 207.668 85.6119L207.88 86.0803C207.82 86.1039 207.758 86.1298 207.693 86.158C207.628 86.1845 207.566 86.2131 207.508 86.2437C207.449 86.2744 207.396 86.3078 207.347 86.3437C207.299 86.3779 207.261 86.4145 207.234 86.4535C207.198 86.5037 207.171 86.5603 207.153 86.6235C207.136 86.6864 207.131 86.7497 207.137 86.8134C207.139 86.8316 207.142 86.8496 207.145 86.8674C207.155 86.9118 207.172 86.9593 207.197 87.0097C207.225 87.0598 207.269 87.1064 207.33 87.1494C207.349 87.1621 207.374 87.1766 207.403 87.1928C207.434 87.2086 207.47 87.2217 207.509 87.2322C207.55 87.2422 207.596 87.2476 207.646 87.2483C207.678 87.2492 207.711 87.2459 207.747 87.2386C207.765 87.2349 207.783 87.2301 207.803 87.2243C207.931 87.1903 208.059 87.1155 208.187 86.9998C208.317 86.8821 208.448 86.7306 208.58 86.5455L208.759 86.2968L209.175 86.5949Z" fill="#848484"/>
<path opacity="0.8" d="M228.459 83.227C228.568 83.4105 228.68 83.5851 228.795 83.7508C228.909 83.9146 229.024 84.0682 229.139 84.2114C229.256 84.3524 229.373 84.4824 229.489 84.6014C229.606 84.7182 229.72 84.8208 229.832 84.9091L229.512 85.3095C229.264 85.112 229.012 84.8578 228.755 84.547C228.499 84.2362 228.252 83.8843 228.016 83.4914C227.97 83.4137 227.924 83.3357 227.88 83.2576C227.836 83.1795 227.793 83.103 227.751 83.0281C227.747 83.1126 227.739 83.1996 227.728 83.2891C227.719 83.3783 227.708 83.4678 227.695 83.5577C227.64 84.011 227.557 84.4311 227.447 84.8178C227.337 85.2045 227.208 85.5375 227.06 85.8168L226.6 85.5778C226.669 85.4522 226.732 85.3128 226.791 85.1595C226.851 85.0041 226.906 84.8387 226.955 84.6634C227.005 84.4859 227.049 84.2994 227.088 84.1039C227.126 83.9065 227.16 83.7019 227.188 83.49C227.211 83.3106 227.229 83.1334 227.24 82.9583C227.252 82.7833 227.259 82.6166 227.261 82.4584C227.263 82.3001 227.259 82.1542 227.25 82.0206C227.24 81.8853 227.225 81.7695 227.205 81.6734L227.707 81.5696C227.727 81.6656 227.76 81.7777 227.805 81.9057C227.852 82.0315 227.908 82.1666 227.974 82.3108C228.04 82.4551 228.113 82.6051 228.194 82.761C228.277 82.9166 228.365 83.0719 228.459 83.227ZM232.028 84.7916C231.978 84.7111 231.926 84.6029 231.874 84.4671C231.821 84.3313 231.768 84.1799 231.714 84.0127C231.662 83.8452 231.611 83.6683 231.561 83.4819C231.51 83.2937 231.463 83.1076 231.419 82.9237L230.957 83.0193C230.925 83.0259 230.885 83.0322 230.838 83.0383C230.791 83.0425 230.738 83.045 230.681 83.0457C230.623 83.0447 230.562 83.0387 230.499 83.0277C230.435 83.0167 230.371 82.9985 230.306 82.9729C230.251 82.9508 230.194 82.9209 230.134 82.8832C230.076 82.8451 230.019 82.7956 229.963 82.7346C229.91 82.6734 229.86 82.5992 229.814 82.5122C229.769 82.4248 229.734 82.3207 229.709 82.1997C229.685 82.0858 229.673 81.9843 229.673 81.8952C229.675 81.8057 229.683 81.7251 229.698 81.6534C229.714 81.5813 229.735 81.5184 229.761 81.4648C229.788 81.409 229.816 81.3588 229.844 81.314C229.916 81.1988 230.008 81.1037 230.118 81.0288C230.229 80.954 230.352 80.9025 230.487 80.8745C230.61 80.8491 230.728 80.8451 230.841 80.8625C230.956 80.8778 231.061 80.9145 231.157 80.9726C231.297 81.0533 231.411 81.1643 231.5 81.3055C231.591 81.4464 231.66 81.6307 231.708 81.8585C231.779 82.1983 231.85 82.515 231.921 82.8086C231.992 83.1003 232.06 83.362 232.125 83.5935C232.19 83.8233 232.25 84.0179 232.306 84.1771C232.363 84.3343 232.414 84.4473 232.458 84.5161L232.028 84.7916ZM231.308 82.4203C231.285 82.3321 231.265 82.2499 231.247 82.1738C231.231 82.0972 231.217 82.027 231.203 81.9629C231.178 81.8419 231.148 81.7432 231.113 81.6668C231.078 81.5887 231.041 81.5276 231.002 81.4837C230.965 81.4376 230.926 81.4058 230.885 81.3882C230.844 81.3707 230.805 81.3603 230.767 81.357C230.731 81.3533 230.697 81.3546 230.667 81.3608C230.637 81.3671 230.612 81.3723 230.592 81.3763C230.432 81.4095 230.318 81.486 230.25 81.6058C230.183 81.7257 230.171 81.8888 230.214 82.0952C230.259 82.3087 230.352 82.4416 230.495 82.4937C230.532 82.5084 230.568 82.5185 230.605 82.524C230.643 82.5291 230.678 82.5311 230.709 82.5302C230.742 82.5289 230.771 82.5268 230.794 82.5238C230.82 82.5204 230.838 82.5174 230.851 82.5148L231.308 82.4203ZM234.054 83.7041C233.915 83.7328 233.779 83.7332 233.645 83.7052C233.511 83.6773 233.387 83.6266 233.275 83.5532C233.165 83.4795 233.071 83.3868 232.991 83.275C232.912 83.1615 232.857 83.0345 232.828 82.8939C232.799 82.7551 232.798 82.6188 232.826 82.485C232.853 82.3512 232.903 82.2295 232.975 82.1199C233.048 82.0083 233.14 81.913 233.252 81.8342C233.364 81.7554 233.489 81.7016 233.628 81.6729C233.768 81.6438 233.906 81.6432 234.04 81.6712C234.176 81.6988 234.299 81.7493 234.411 81.8226C234.523 81.8942 234.619 81.9859 234.698 82.0976C234.777 82.2093 234.831 82.3346 234.86 82.4734C234.89 82.614 234.891 82.7521 234.864 82.8877C234.836 83.0215 234.785 83.1442 234.712 83.2559C234.639 83.3676 234.546 83.463 234.432 83.5422C234.321 83.621 234.195 83.675 234.054 83.7041ZM233.733 82.1747C233.664 82.1891 233.6 82.216 233.544 82.2556C233.487 82.2952 233.44 82.3429 233.404 82.3988C233.369 82.4542 233.345 82.5159 233.331 82.5837C233.317 82.6497 233.318 82.7183 233.333 82.7895C233.347 82.8607 233.375 82.9246 233.415 82.9814C233.454 83.0381 233.502 83.0859 233.556 83.1248C233.612 83.1614 233.674 83.1867 233.742 83.2005C233.81 83.2143 233.879 83.214 233.948 83.1996C234.019 83.1849 234.083 83.1577 234.14 83.1181C234.197 83.0786 234.243 83.0308 234.28 82.975C234.318 82.917 234.344 82.8541 234.357 82.7863C234.373 82.7181 234.373 82.6485 234.358 82.5773C234.343 82.5061 234.315 82.4432 234.274 82.3886C234.234 82.3319 234.185 82.2853 234.128 82.249C234.072 82.2123 234.01 82.1871 233.942 82.1733C233.874 82.1595 233.804 82.16 233.733 82.1747ZM236.946 83.1057C236.807 83.1344 236.671 83.1348 236.536 83.1069C236.402 83.0789 236.279 83.0282 236.167 82.9549C236.057 82.8811 235.962 82.7884 235.883 82.6767C235.804 82.5632 235.749 82.4361 235.72 82.2955C235.691 82.1568 235.69 82.0204 235.717 81.8866C235.745 81.7528 235.795 81.6311 235.867 81.5216C235.94 81.4099 236.032 81.3146 236.144 81.2358C236.255 81.157 236.381 81.1033 236.52 81.0745C236.66 81.0454 236.798 81.0448 236.932 81.0728C237.067 81.1004 237.191 81.1509 237.303 81.2243C237.415 81.2958 237.51 81.3875 237.59 81.4992C237.669 81.611 237.723 81.7362 237.752 81.875C237.782 82.0156 237.783 82.1537 237.755 82.2893C237.728 82.4231 237.677 82.5459 237.604 82.6576C237.531 82.7692 237.438 82.8647 237.324 82.9438C237.213 83.0226 237.087 83.0766 236.946 83.1057ZM236.625 81.5763C236.555 81.5907 236.492 81.6177 236.436 81.6572C236.379 81.6968 236.332 81.7445 236.296 81.8004C236.261 81.8559 236.237 81.9175 236.223 81.9853C236.209 82.0513 236.209 82.1199 236.224 82.1911C236.239 82.2623 236.267 82.3262 236.307 82.383C236.346 82.4397 236.393 82.4875 236.448 82.5264C236.504 82.5631 236.566 82.5883 236.634 82.6021C236.702 82.6159 236.771 82.6156 236.84 82.6012C236.911 82.5865 236.975 82.5593 237.032 82.5198C237.089 82.4802 237.135 82.4325 237.172 82.3766C237.21 82.3186 237.236 82.2557 237.249 82.1879C237.265 82.1197 237.265 82.0501 237.25 81.9789C237.235 81.9077 237.207 81.8448 237.166 81.7902C237.126 81.7335 237.077 81.6869 237.019 81.6506C236.963 81.6139 236.901 81.5887 236.834 81.5749C236.766 81.5611 236.696 81.5616 236.625 81.5763Z" fill="#848484"/>
<path opacity="0.8" d="M257.401 75.3446C257.404 75.3513 257.42 75.3833 257.449 75.4405C257.479 75.4955 257.513 75.5655 257.552 75.6504C257.589 75.7335 257.627 75.8242 257.664 75.9223C257.702 76.0204 257.73 76.1139 257.748 76.2029C257.775 76.331 257.788 76.4574 257.786 76.5822C257.786 76.7066 257.767 76.8211 257.727 76.9258C257.688 77.0305 257.626 77.1203 257.541 77.1954C257.457 77.2704 257.343 77.3227 257.201 77.3522C257.146 77.3636 257.086 77.3704 257.021 77.3726C256.956 77.3731 256.889 77.3657 256.819 77.3505C256.75 77.3331 256.68 77.3049 256.609 77.2658C256.537 77.2268 256.467 77.1725 256.399 77.1031C256.373 77.1735 256.341 77.2358 256.304 77.2898C256.268 77.3439 256.227 77.3912 256.184 77.4318C256.14 77.4723 256.095 77.5077 256.047 77.538C256.001 77.5679 255.956 77.5931 255.91 77.6138C255.861 77.6369 255.81 77.654 255.756 77.665C255.724 77.6717 255.677 77.6777 255.615 77.6831C255.554 77.6864 255.482 77.6755 255.396 77.6504C255.452 77.8246 255.5 77.9946 255.543 78.1604C255.587 78.3259 255.626 78.4847 255.662 78.637C255.697 78.7875 255.729 78.9304 255.758 79.0656C255.786 79.1991 255.812 79.3227 255.835 79.4366L255.892 79.7062L255.39 79.8101L255.333 79.5405C255.305 79.4071 255.272 79.2542 255.234 79.082C255.198 78.9076 255.154 78.7235 255.104 78.5296C255.054 78.3339 254.998 78.132 254.936 77.924C254.875 77.7155 254.807 77.5086 254.733 77.3031C254.658 77.0976 254.576 76.8982 254.487 76.705C254.398 76.5099 254.303 76.3292 254.201 76.1627L254.646 75.909C254.677 75.9658 254.706 76.0192 254.733 76.0693C254.76 76.1194 254.787 76.1714 254.813 76.2254C254.841 76.2772 254.868 76.3319 254.895 76.3895C254.924 76.4467 254.955 76.5108 254.988 76.5818C255.025 76.6579 255.067 76.7346 255.115 76.8119C255.164 76.8889 255.219 76.9564 255.28 77.0145C255.34 77.0725 255.406 77.1147 255.476 77.1409C255.535 77.164 255.596 77.169 255.66 77.1557C255.675 77.1528 255.689 77.1489 255.703 77.1442C255.771 77.1227 255.826 77.0853 255.869 77.0319C255.913 76.9781 255.94 76.8992 255.95 76.7951C255.96 76.6909 255.951 76.5572 255.924 76.3938C255.92 76.3631 255.914 76.3309 255.907 76.2971C255.876 76.153 255.83 75.9824 255.769 75.7854L256.255 75.6346C256.322 75.8472 256.386 76.0335 256.448 76.1935C256.511 76.3531 256.576 76.4845 256.642 76.5878C256.708 76.691 256.778 76.7658 256.851 76.812C256.925 76.856 257.007 76.8688 257.096 76.8504C257.153 76.8386 257.196 76.8175 257.227 76.787C257.258 76.7565 257.278 76.718 257.287 76.6716C257.297 76.6249 257.299 76.5707 257.292 76.5091C257.287 76.4785 257.281 76.4463 257.274 76.4124C257.267 76.3786 257.259 76.3432 257.249 76.3062C257.231 76.2376 257.208 76.1672 257.18 76.095C257.153 76.0225 257.125 75.9541 257.095 75.8898C257.066 75.8233 257.039 75.764 257.013 75.7118C256.987 75.6578 256.966 75.6157 256.95 75.5855L257.401 75.3446ZM261.47 76.5301C261.368 76.5736 261.238 76.6228 261.08 76.6777C260.922 76.7308 260.747 76.7772 260.555 76.817C260.453 76.838 260.349 76.8558 260.243 76.8704C260.136 76.8832 260.029 76.8906 259.921 76.8924C259.815 76.892 259.709 76.8861 259.603 76.8747C259.498 76.863 259.396 76.8423 259.297 76.8126C259.353 76.9905 259.404 77.1637 259.451 77.3323C259.497 77.5009 259.539 77.6631 259.575 77.819C259.611 77.973 259.644 78.1195 259.673 78.2583C259.702 78.3971 259.728 78.5245 259.75 78.6405L259.805 78.8994L259.303 79.0033L259.248 78.7444C259.215 78.575 259.176 78.3908 259.132 78.1919C259.09 77.9926 259.04 77.783 258.981 77.5632C258.923 77.3412 258.855 77.112 258.778 76.8755C258.7 76.639 258.61 76.3996 258.507 76.1573C258.452 76.0183 258.392 75.884 258.328 75.7543C258.263 75.6229 258.192 75.4901 258.113 75.3559L258.567 75.1005C258.634 75.2241 258.698 75.352 258.759 75.4841C258.82 75.6163 258.891 75.7641 258.972 75.9275C259.014 76.0134 259.058 76.0831 259.105 76.1366C259.151 76.1884 259.201 76.2301 259.254 76.2618C259.308 76.2914 259.366 76.3138 259.427 76.3291C259.489 76.3422 259.555 76.3526 259.626 76.3603C259.578 76.2997 259.535 76.2287 259.497 76.1474C259.459 76.0642 259.429 75.9693 259.407 75.8625C259.375 75.7113 259.376 75.5699 259.41 75.4386C259.443 75.3054 259.498 75.1873 259.575 75.0841C259.652 74.9792 259.745 74.8921 259.855 74.8229C259.964 74.752 260.08 74.704 260.201 74.6789C260.291 74.6602 260.378 74.6542 260.462 74.6611C260.546 74.6659 260.629 74.6785 260.709 74.699C260.789 74.7177 260.87 74.742 260.95 74.7717C261.031 74.8015 261.112 74.8301 261.194 74.8577L261.034 75.3447C260.972 75.3223 260.908 75.2994 260.842 75.276C260.777 75.2522 260.713 75.232 260.65 75.2153C260.588 75.1986 260.527 75.1871 260.468 75.1807C260.408 75.1726 260.355 75.1734 260.307 75.1834C260.248 75.1956 260.19 75.2188 260.132 75.253C260.074 75.2873 260.023 75.3302 259.98 75.3818C259.939 75.433 259.909 75.4913 259.889 75.5567C259.869 75.6203 259.867 75.6894 259.882 75.7641C259.904 75.8656 259.941 75.9498 259.994 76.0168C260.047 76.082 260.109 76.1313 260.181 76.1647C260.257 76.2008 260.344 76.2218 260.442 76.2276C260.54 76.2315 260.639 76.2259 260.74 76.2106C260.777 76.2046 260.814 76.198 260.85 76.1906C260.912 76.1777 260.982 76.1596 261.058 76.1363C261.137 76.1126 261.213 76.0857 261.287 76.0556C261.349 76.0317 261.403 76.0074 261.45 75.9829L261.675 76.4432C261.672 76.4475 261.653 76.458 261.617 76.4746C261.581 76.4895 261.532 76.508 261.47 76.5301ZM262.99 74.0376C263.003 74.0425 263.043 74.0638 263.113 74.1015C263.183 74.137 263.273 74.1872 263.381 74.252C263.491 74.3165 263.615 74.3939 263.753 74.4842C263.891 74.5745 264.033 74.6769 264.18 74.7914C264.326 74.9041 264.471 75.0282 264.615 75.1637C264.76 75.2989 264.894 75.4437 265.018 75.5983C265.141 75.751 265.247 75.9128 265.337 76.0836C265.429 76.2541 265.494 76.4318 265.533 76.6169C265.557 76.7325 265.568 76.838 265.566 76.9331C265.563 77.0265 265.552 77.1114 265.533 77.1878C265.513 77.2624 265.487 77.3291 265.455 77.3877C265.424 77.4442 265.392 77.4926 265.36 77.5327C265.313 77.5925 265.263 77.6428 265.21 77.6834C265.159 77.7219 265.108 77.7538 265.058 77.779C265.009 77.804 264.964 77.8226 264.922 77.835C264.882 77.8471 264.85 77.8555 264.827 77.8603C264.565 77.9144 264.338 77.8798 264.144 77.7563C264.122 77.7925 264.095 77.8289 264.061 77.8654C264.03 77.9016 263.991 77.9366 263.944 77.9705C263.899 78.0021 263.846 78.0315 263.787 78.0587C263.728 78.0858 263.661 78.1071 263.586 78.1226C263.41 78.159 263.244 78.1534 263.089 78.1056C262.934 78.056 262.797 77.9682 262.68 77.8422C262.627 77.7844 262.582 77.7259 262.546 77.6667C262.509 77.6056 262.478 77.5488 262.454 77.4962C262.431 77.4415 262.414 77.3931 262.401 77.3512C262.391 77.3088 262.383 77.2779 262.379 77.2583C262.344 77.091 262.33 76.9222 262.337 76.7518C262.343 76.5796 262.364 76.4111 262.398 76.2462C262.432 76.0796 262.476 75.9182 262.53 75.7621C262.587 75.6056 262.646 75.4587 262.708 75.3214C262.77 75.1842 262.832 75.059 262.894 74.946C262.958 74.8326 263.015 74.7363 263.065 74.6572C262.976 74.6069 262.905 74.5678 262.851 74.54C262.798 74.5118 262.77 74.4981 262.767 74.4989L262.99 74.0376ZM264.958 77.212C265.049 77.0966 265.072 76.9331 265.028 76.7213C265.002 76.5985 264.96 76.4791 264.903 76.3629C264.844 76.245 264.775 76.1313 264.694 76.0217C264.616 75.9117 264.528 75.8065 264.43 75.7059C264.333 75.6036 264.231 75.5066 264.127 75.415C264.022 75.3234 263.916 75.2377 263.808 75.1579C263.702 75.076 263.599 75.0007 263.499 74.9323C263.456 75.0024 263.407 75.0869 263.351 75.1856C263.296 75.2843 263.241 75.3932 263.186 75.5123C263.131 75.6313 263.079 75.7591 263.029 75.8955C262.981 76.0299 262.942 76.1681 262.91 76.3101C262.878 76.4504 262.859 76.5927 262.852 76.7371C262.845 76.8797 262.855 77.0186 262.884 77.1538C262.888 77.1716 262.894 77.1944 262.904 77.2221C262.913 77.2481 262.925 77.2772 262.939 77.3096C262.953 77.3401 262.969 77.3719 262.989 77.4049C263.009 77.4361 263.031 77.4659 263.056 77.4943C263.114 77.5527 263.177 77.5927 263.242 77.6144C263.31 77.6356 263.389 77.6369 263.48 77.6181C263.557 77.6023 263.611 77.5798 263.644 77.5507C263.679 77.5213 263.704 77.4938 263.719 77.4684C263.747 77.4162 263.762 77.3555 263.764 77.2864C263.766 77.2154 263.762 77.1458 263.751 77.0774C263.747 77.0504 263.743 77.0235 263.737 76.9968C263.729 76.9577 263.717 76.9155 263.702 76.8703C263.688 76.823 263.676 76.7848 263.664 76.7557L264.141 76.5595C264.146 76.5715 264.154 76.5957 264.168 76.632C264.181 76.6682 264.195 76.7136 264.21 76.768C264.225 76.8207 264.238 76.881 264.251 76.949C264.265 77.0148 264.273 77.0855 264.276 77.161C264.284 77.1741 264.294 77.1915 264.306 77.2132C264.32 77.2345 264.337 77.2561 264.356 77.2781C264.446 77.3616 264.568 77.3875 264.721 77.3558C264.756 77.3484 264.796 77.3337 264.84 77.3117C264.885 77.2875 264.924 77.2543 264.958 77.212ZM268.728 73.2793C268.66 73.4049 268.595 73.5454 268.535 73.7008C268.476 73.8541 268.422 74.0195 268.372 74.1969C268.323 74.374 268.28 74.5612 268.241 74.7586C268.203 74.9541 268.169 75.157 268.141 75.3671C268.117 75.5447 268.098 75.7212 268.085 75.8967C268.073 76.0717 268.066 76.2384 268.064 76.3966C268.064 76.5545 268.069 76.7011 268.078 76.8365C268.088 76.9719 268.103 77.0876 268.123 77.1837L267.621 77.2876C267.601 77.1915 267.568 77.0794 267.523 76.9514C267.478 76.8235 267.422 76.6873 267.356 76.5431C267.291 76.3988 267.218 76.2488 267.137 76.0929C267.056 75.9369 266.968 75.7823 266.875 75.629C266.764 75.4476 266.651 75.2752 266.535 75.1117C266.42 74.946 266.304 74.7918 266.187 74.649C266.07 74.5061 265.953 74.3761 265.838 74.259C265.722 74.14 265.608 74.0363 265.496 73.948L265.815 73.5422C265.938 73.6412 266.064 73.7555 266.191 73.885C266.319 74.0146 266.446 74.1563 266.573 74.3101C266.7 74.4639 266.826 74.63 266.951 74.8085C267.075 74.9851 267.196 75.1708 267.313 75.3657C267.361 75.4431 267.406 75.5201 267.448 75.5968C267.492 75.6731 267.535 75.7505 267.577 75.829C267.585 75.7402 267.592 75.6523 267.6 75.5653C267.609 75.4779 267.621 75.3893 267.633 75.2994C267.662 75.0743 267.697 74.8563 267.738 74.6454C267.781 74.4324 267.83 74.2302 267.884 74.0388C267.939 73.8474 267.998 73.667 268.063 73.4977C268.128 73.3283 268.198 73.1737 268.272 73.0338L268.728 73.2793Z" fill="#848484"/>
<rect width="28.0329" height="3" rx="1.5" transform="matrix(0.97695 -0.213367 0.216163 0.976379 166.932 114.875)" fill="white"/>
<rect width="17.4472" height="3" rx="1.5" transform="matrix(0.97695 -0.213367 0.216163 0.976379 196.939 107.672)" fill="white"/>
<rect width="60.492" height="3" rx="1.5" transform="matrix(0.97695 -0.213367 0.216163 0.976379 168.229 120.734)" fill="white"/>
<rect width="8" height="7" rx="1" transform="matrix(0.972393 -0.233009 0.235816 0.971879 157.166 74.9297)" fill="white"/>
</g>
<path d="M263.05 8.06396H275.64L295.595 231.17H283.006C280.144 231.117 277.401 230.027 275.292 228.104C273.184 226.182 271.856 223.56 271.559 220.733L253.464 18.5121C253.315 17.1828 253.454 15.8374 253.87 14.5654C254.286 13.2934 254.971 12.1241 255.878 11.1354C256.785 10.1468 257.894 9.36146 259.131 8.83183C260.367 8.3022 261.704 8.04043 263.05 8.06396Z" fill="#407BFF"/>
<path d="M424.185 231.171H286.737C283.529 231.125 280.45 229.908 278.087 227.752C275.725 225.595 274.245 222.651 273.93 219.48L256.336 19.7658C256.17 18.276 256.326 16.7683 256.793 15.3431C257.261 13.9179 258.028 12.608 259.046 11.5007C260.063 10.3934 261.306 9.51418 262.693 8.92162C264.079 8.32906 265.577 8.03678 267.086 8.06427H404.523C407.73 8.124 410.805 9.34706 413.166 11.5027C415.527 13.6583 417.012 16.5975 417.341 19.7658L434.936 219.48C435.1 220.969 434.943 222.476 434.475 223.899C434.006 225.323 433.238 226.632 432.221 227.738C431.204 228.844 429.961 229.722 428.576 230.314C427.19 230.906 425.693 231.198 424.185 231.171Z" fill="#407BFF"/>
<path opacity="0.5" d="M424.185 231.171H286.737C283.529 231.125 280.45 229.908 278.088 227.752C275.725 225.595 274.245 222.651 273.93 219.48L256.336 19.7658C256.17 18.276 256.326 16.7683 256.793 15.3431C257.261 13.9179 258.028 12.608 259.046 11.5007C260.063 10.3934 261.306 9.51418 262.693 8.92162C264.079 8.32906 265.577 8.03678 267.086 8.06427H404.523C407.73 8.124 410.805 9.34706 413.166 11.5027C415.527 13.6583 417.012 16.5975 417.341 19.7658L434.936 219.48C435.1 220.969 434.943 222.476 434.475 223.899C434.006 225.323 433.238 226.632 432.221 227.738C431.204 228.844 429.961 229.722 428.576 230.314C427.19 230.906 425.693 231.198 424.185 231.171Z" fill="white"/>
<path opacity="0.2" d="M288.109 205.682H422.739L405.71 15.4219H271.08L288.109 205.682Z" fill="black"/>
<path d="M293.995 203.078H428.625L405.71 15.4219H271.08L293.995 203.078Z" fill="#407BFF"/>
<path opacity="0.8" d="M293.995 203.074H428.625L405.71 15.418H271.08L293.995 203.074Z" fill="white"/>
<g opacity="0.7">
<path d="M400.717 86.8044H316.499C316.025 86.7939 315.572 86.6126 315.224 86.2945C314.875 85.9763 314.655 85.543 314.605 85.0756C314.581 84.8549 314.603 84.6315 314.672 84.4203C314.741 84.209 314.854 84.0147 315.005 83.8502C315.155 83.6857 315.339 83.5548 315.544 83.4662C315.749 83.3775 315.97 83.3332 316.194 83.3361H400.413C400.889 83.3443 401.347 83.5259 401.698 83.8465C402.049 84.1671 402.269 84.6045 402.317 85.0756C402.34 85.2964 402.316 85.5195 402.245 85.7303C402.175 85.941 402.061 86.1345 401.909 86.2979C401.758 86.4614 401.574 86.5911 401.368 86.6784C401.163 86.7657 400.941 86.8086 400.717 86.8044Z" fill="white"/>
<path d="M398.095 96.6486H302.506C302.03 96.6402 301.574 96.4582 301.225 96.1373C300.876 95.8165 300.658 95.3793 300.613 94.9091C300.586 94.6885 300.608 94.4649 300.676 94.2533C300.744 94.0418 300.857 93.8474 301.008 93.6833C301.159 93.5192 301.344 93.3894 301.549 93.3026C301.755 93.2158 301.978 93.1741 302.201 93.1803H397.791C398.265 93.1861 398.721 93.3658 399.07 93.6848C399.42 94.0039 399.638 94.4399 399.684 94.9091C399.71 95.1301 399.689 95.3542 399.621 95.5663C399.552 95.7783 399.439 95.9733 399.289 96.1382C399.138 96.3031 398.954 96.434 398.748 96.5221C398.542 96.6101 398.319 96.6533 398.095 96.6486Z" fill="white"/>
<path d="M402.459 106.48H303.377C302.901 106.475 302.444 106.295 302.093 105.977C301.741 105.658 301.521 105.222 301.473 104.752C301.448 104.53 301.471 104.306 301.54 104.094C301.61 103.882 301.724 103.687 301.875 103.522C302.027 103.357 302.212 103.227 302.418 103.139C302.625 103.051 302.848 103.008 303.072 103.012H402.154C402.63 103.02 403.086 103.202 403.435 103.523C403.784 103.844 404.002 104.281 404.047 104.752C404.074 104.972 404.052 105.196 403.984 105.407C403.916 105.619 403.803 105.813 403.652 105.977C403.501 106.141 403.316 106.271 403.111 106.358C402.905 106.445 402.682 106.487 402.459 106.48Z" fill="white"/>
<path d="M391.088 116.324H304.247C303.77 116.316 303.313 116.134 302.962 115.813C302.611 115.493 302.39 115.055 302.342 114.584C302.319 114.364 302.343 114.142 302.413 113.932C302.483 113.722 302.596 113.529 302.746 113.366C302.896 113.203 303.079 113.073 303.284 112.985C303.488 112.897 303.708 112.853 303.931 112.856H390.794C391.268 112.864 391.722 113.044 392.071 113.363C392.42 113.681 392.639 114.116 392.687 114.584C392.712 114.806 392.689 115.03 392.619 115.242C392.55 115.454 392.436 115.649 392.284 115.814C392.133 115.979 391.948 116.109 391.741 116.197C391.535 116.285 391.312 116.328 391.088 116.324Z" fill="white"/>
<path d="M404.19 126.167H319.971C319.494 126.159 319.037 125.977 318.686 125.656C318.335 125.336 318.115 124.898 318.067 124.427C318.044 124.206 318.068 123.982 318.138 123.771C318.209 123.56 318.323 123.366 318.474 123.201C318.625 123.037 318.809 122.906 319.015 122.818C319.22 122.729 319.443 122.685 319.667 122.688H403.852C404.329 122.696 404.787 122.877 405.137 123.198C405.488 123.519 405.709 123.956 405.757 124.427C405.781 124.646 405.759 124.868 405.691 125.077C405.624 125.287 405.512 125.48 405.365 125.645C405.217 125.809 405.036 125.94 404.833 126.03C404.631 126.12 404.412 126.167 404.19 126.167Z" fill="white"/>
<path d="M400.686 136H306.021C305.546 135.992 305.09 135.812 304.74 135.493C304.389 135.175 304.167 134.74 304.117 134.271C304.092 134.05 304.115 133.825 304.185 133.613C304.254 133.401 304.369 133.206 304.52 133.042C304.671 132.877 304.856 132.746 305.063 132.658C305.269 132.57 305.492 132.527 305.717 132.532H400.381C400.858 132.54 401.315 132.721 401.666 133.042C402.017 133.363 402.237 133.8 402.285 134.271C402.308 134.492 402.284 134.715 402.214 134.926C402.143 135.136 402.029 135.33 401.878 135.493C401.726 135.657 401.542 135.787 401.336 135.874C401.131 135.961 400.909 136.004 400.686 136Z" fill="white"/>
<path d="M405.919 145.843H306.902C306.425 145.834 305.968 145.653 305.617 145.332C305.266 145.011 305.046 144.574 304.998 144.103C304.973 143.882 304.996 143.659 305.065 143.448C305.134 143.236 305.247 143.042 305.397 142.878C305.548 142.713 305.731 142.582 305.936 142.493C306.141 142.405 306.363 142.361 306.587 142.363H405.669C406.145 142.372 406.603 142.553 406.954 142.874C407.305 143.194 407.525 143.632 407.573 144.103C407.598 144.329 407.574 144.558 407.501 144.774C407.429 144.99 407.31 145.188 407.152 145.354C406.995 145.519 406.803 145.649 406.59 145.733C406.377 145.818 406.148 145.855 405.919 145.843Z" fill="white"/>
<path d="M399.793 155.676H307.707C307.232 155.67 306.777 155.49 306.427 155.171C306.078 154.852 305.859 154.416 305.814 153.947C305.787 153.726 305.809 153.502 305.877 153.29C305.945 153.078 306.058 152.883 306.209 152.718C306.36 152.553 306.544 152.422 306.75 152.334C306.956 152.246 307.178 152.203 307.402 152.207H399.499C399.976 152.216 400.433 152.397 400.784 152.718C401.135 153.038 401.355 153.476 401.403 153.947C401.428 154.169 401.405 154.394 401.335 154.606C401.264 154.818 401.149 155.013 400.996 155.177C400.843 155.341 400.657 155.471 400.449 155.557C400.241 155.643 400.017 155.683 399.793 155.676Z" fill="white"/>
</g>
<path d="M312.321 2.83291H322.864L324.572 21.9356H314.029C312.275 21.905 310.594 21.2371 309.302 20.0584C308.011 18.8797 307.2 17.2719 307.021 15.5392L306.456 9.2293C306.364 8.41576 306.449 7.59222 306.703 6.8136C306.957 6.03497 307.376 5.31915 307.931 4.71386C308.486 4.10857 309.165 3.62773 309.922 3.30339C310.678 2.97904 311.496 2.81865 312.321 2.83291Z" fill="#263238"/>
<path d="M359.239 21.9354H316.64C314.676 21.9005 312.793 21.1523 311.348 19.8323C309.902 18.5123 308.994 16.712 308.795 14.7719L308.37 9.99618C308.273 9.08487 308.372 8.16349 308.66 7.29282C308.948 6.42215 309.418 5.62198 310.04 4.94506C310.662 4.26815 311.422 3.72988 312.268 3.36576C313.115 3.00164 314.03 2.81994 314.953 2.83266H357.563C359.527 2.86751 361.409 3.61571 362.855 4.93574C364.3 6.25576 365.209 8.05609 365.408 9.99618L365.832 14.7719C365.93 15.6841 365.831 16.6064 365.542 17.4778C365.254 18.3493 364.782 19.15 364.159 19.8271C363.536 20.5042 362.775 21.0422 361.927 21.4057C361.078 21.7691 360.162 21.9496 359.239 21.9354Z" fill="#263238"/>
<path opacity="0.5" d="M359.239 21.9354H316.64C314.676 21.9005 312.793 21.1523 311.348 19.8323C309.902 18.5123 308.994 16.712 308.795 14.7719L308.37 9.99618C308.273 9.08487 308.372 8.16349 308.66 7.29282C308.948 6.42215 309.418 5.62198 310.04 4.94506C310.662 4.26815 311.422 3.72988 312.268 3.36576C313.115 3.00164 314.03 2.81994 314.953 2.83266H357.563C359.527 2.86751 361.409 3.61571 362.855 4.93574C364.3 6.25576 365.209 8.05609 365.408 9.99618L365.832 14.7719C365.93 15.6841 365.831 16.6064 365.542 17.4778C365.254 18.3493 364.782 19.15 364.159 19.8271C363.536 20.5042 362.775 21.0422 361.927 21.4057C361.078 21.7691 360.162 21.9496 359.239 21.9354Z" fill="white"/>
<path d="M358.912 14.4037C358.94 14.6427 358.916 14.8848 358.842 15.1139C358.768 15.3429 358.645 15.5536 358.482 15.7317C358.32 15.9098 358.12 16.0512 357.898 16.1464C357.675 16.2416 357.435 16.2885 357.193 16.2838C356.676 16.2759 356.18 16.0802 355.799 15.7337C355.418 15.3873 355.179 14.914 355.125 14.4037C355.099 14.1642 355.124 13.9219 355.2 13.6928C355.275 13.4638 355.399 13.2533 355.562 13.0755C355.726 12.8976 355.926 12.7564 356.149 12.6613C356.372 12.5661 356.613 12.5192 356.855 12.5237C357.371 12.5319 357.865 12.7279 358.244 13.0746C358.624 13.4213 358.861 13.8944 358.912 14.4037Z" fill="#263238"/>
<path d="M319.424 14.4037C319.452 14.6427 319.428 14.8848 319.354 15.1139C319.28 15.3429 319.157 15.5536 318.994 15.7317C318.831 15.9098 318.632 16.0512 318.41 16.1464C318.187 16.2416 317.947 16.2885 317.704 16.2838C317.188 16.2759 316.692 16.0802 316.311 15.7337C315.93 15.3873 315.69 14.914 315.637 14.4037C315.611 14.1642 315.636 13.9219 315.711 13.6928C315.787 13.4638 315.91 13.2533 316.074 13.0755C316.238 12.8976 316.438 12.7564 316.661 12.6613C316.884 12.5661 317.124 12.5192 317.367 12.5237C317.882 12.5319 318.377 12.7279 318.756 13.0746C319.135 13.4213 319.373 13.8944 319.424 14.4037Z" fill="#263238"/>
<ellipse cx="339.111" cy="49.8333" rx="22.306" ry="22.1497" fill="#D8AB35"/>
<ellipse cx="340.744" cy="49.293" rx="21.7619" ry="21.6094" fill="#F6D57E"/>
<path d="M347.052 38.159L336.21 59.4041C336.141 59.5192 335.934 59.5589 335.629 59.5159C335.324 59.4729 334.941 59.3501 334.553 59.1704C334.369 59.0858 334.189 58.9882 334.025 58.8839C333.862 58.7796 333.717 58.671 333.602 58.5655C333.487 58.4599 333.404 58.3597 333.357 58.2715C333.311 58.1833 333.304 58.1091 333.335 58.0539L344.177 36.8088C344.245 36.6918 344.452 36.6512 344.76 36.6946C345.067 36.738 345.453 36.8624 345.844 37.0442C346.028 37.1292 346.207 37.2271 346.37 37.3316C346.534 37.436 346.677 37.5445 346.791 37.6499C346.906 37.7553 346.988 37.8552 347.033 37.943C347.078 38.0307 347.084 38.1044 347.052 38.159Z" fill="white"/>
<path d="M333.127 45.9703C334.875 45.9703 336.304 44.5617 336.304 42.8094C336.304 41.057 334.875 39.6484 333.127 39.6484C331.38 39.6484 329.951 41.057 329.951 42.8094C329.951 44.5617 331.38 45.9703 333.127 45.9703Z" fill="#F6D57E" stroke="white" stroke-width="2"/>
<path d="M347.27 58.9352C349.017 58.9352 350.446 57.5266 350.446 55.7742C350.446 54.0219 349.017 52.6133 347.27 52.6133C345.522 52.6133 344.094 54.0219 344.094 55.7742C344.094 57.5266 345.522 58.9352 347.27 58.9352Z" fill="#F6D57E" stroke="white" stroke-width="2"/>
<path d="M157.417 233.07H139.329C134.575 233.07 130.725 246.626 130.725 263.376C130.725 280.125 134.575 293.681 139.329 293.681H157.417C162.171 293.681 166.021 280.125 166.021 263.376C166.021 246.626 162.171 233.07 157.417 233.07Z" fill="#263238"/>
<path opacity="0.2" d="M158.764 235.215C154.796 235.215 151.58 247.815 151.58 263.352C151.58 278.89 154.796 291.49 158.764 291.49C162.731 291.49 165.948 278.89 165.948 263.352C165.948 247.815 162.731 235.215 158.764 235.215Z" fill="white"/>
<path opacity="0.6" d="M159.391 248.141C157.243 248.141 155.506 254.948 155.506 263.352C155.506 271.756 157.243 278.504 159.391 278.504C161.539 278.504 163.277 271.697 163.277 263.352C163.277 255.006 161.539 248.141 159.391 248.141Z" fill="white"/>
<path opacity="0.6" d="M158.765 250.242C156.922 250.242 155.42 256.07 155.42 263.355C155.42 270.64 156.922 276.468 158.765 276.468C160.608 276.468 162.122 270.64 162.122 263.355C162.122 256.07 160.62 250.242 158.765 250.242Z" fill="white"/>
<path d="M157.184 256.844C156.257 256.844 155.506 259.781 155.506 263.406C155.506 267.031 156.257 269.968 157.184 269.968C158.112 269.968 158.863 267.031 158.863 263.406C158.863 259.781 158.112 256.844 157.184 256.844Z" fill="#263238"/>
<path opacity="0.2" d="M158.003 260.078C157.546 260.078 157.17 261.547 157.17 263.353C157.17 265.16 157.546 266.629 158.003 266.629C158.461 266.629 158.837 265.16 158.837 263.353C158.837 261.547 158.52 260.078 158.003 260.078Z" fill="white"/>
<path d="M210.767 233.07H192.667C187.913 233.07 184.062 246.626 184.062 263.376C184.062 280.125 187.913 293.681 192.667 293.681H210.767C215.521 293.681 219.371 280.125 219.371 263.376C219.371 246.626 215.521 233.07 210.767 233.07Z" fill="#263238"/>
<path opacity="0.2" d="M212.117 235.215C208.15 235.215 204.922 247.815 204.922 263.352C204.922 278.89 208.15 291.49 212.117 291.49C216.085 291.49 219.301 278.89 219.301 263.352C219.301 247.815 216.038 235.215 212.117 235.215Z" fill="white"/>
<path opacity="0.6" d="M212.741 248.141C210.593 248.141 208.855 254.948 208.855 263.352C208.855 271.756 210.593 278.504 212.741 278.504C214.889 278.504 216.626 271.697 216.626 263.352C216.626 255.006 214.865 248.141 212.741 248.141Z" fill="white"/>
<path opacity="0.6" d="M212.119 250.242C210.264 250.242 208.762 256.07 208.762 263.355C208.762 270.64 210.264 276.468 212.119 276.468C213.973 276.468 215.464 270.64 215.464 263.355C215.464 256.07 213.962 250.242 212.119 250.242Z" fill="white"/>
<path d="M210.534 256.844C209.607 256.844 208.855 259.781 208.855 263.406C208.855 267.031 209.607 269.968 210.534 269.968C211.461 269.968 212.201 267.031 212.201 263.406C212.201 259.781 211.45 256.844 210.534 256.844Z" fill="#263238"/>
<path opacity="0.2" d="M211.345 260.078C210.876 260.078 210.5 261.547 210.5 263.353C210.5 265.16 210.876 266.629 211.345 266.629C211.815 266.629 212.179 265.16 212.179 263.353C212.179 261.547 211.815 260.078 211.345 260.078Z" fill="white"/>
<path d="M360.664 272.572L356.72 280.056H157.171L148.367 269.029L288.932 204.852C288.932 204.852 362.342 211.612 362.342 213.011C362.342 214.409 360.664 272.572 360.664 272.572Z" fill="#263238"/>
<path d="M294.765 233.07H276.665C271.969 233.07 268.061 246.626 268.061 263.376C268.061 280.125 271.922 293.681 276.665 293.681H294.765C299.519 293.681 303.369 280.125 303.369 263.376C303.369 246.626 299.519 233.07 294.765 233.07Z" fill="#263238"/>
<path opacity="0.2" d="M296.117 235.215C292.15 235.215 288.934 247.815 288.934 263.352C288.934 278.89 292.15 291.49 296.117 291.49C300.085 291.49 303.301 278.89 303.301 263.352C303.301 247.815 300.085 235.215 296.117 235.215Z" fill="white"/>
<path opacity="0.6" d="M296.739 248.141C294.591 248.141 292.854 254.948 292.854 263.352C292.854 271.756 294.591 278.504 296.739 278.504C298.887 278.504 300.624 271.697 300.624 263.352C300.624 255.006 298.887 248.141 296.739 248.141Z" fill="white"/>
<path opacity="0.6" d="M296.117 250.242C294.262 250.242 292.76 256.07 292.76 263.355C292.76 270.64 294.262 276.468 296.117 276.468C297.972 276.468 299.462 270.64 299.462 263.355C299.462 256.07 297.972 250.242 296.117 250.242Z" fill="white"/>
<path d="M294.532 256.844C293.605 256.844 292.854 259.781 292.854 263.406C292.854 267.031 293.605 269.968 294.532 269.968C295.459 269.968 296.199 267.031 296.199 263.406C296.199 259.781 295.459 256.844 294.532 256.844Z" fill="#263238"/>
<path opacity="0.2" d="M295.355 260.078C294.885 260.078 294.51 261.547 294.51 263.353C294.51 265.16 294.885 266.629 295.355 266.629C295.824 266.629 296.188 265.16 296.188 263.353C296.188 261.547 295.86 260.078 295.355 260.078Z" fill="white"/>
<path d="M348.116 233.07H330.016C325.262 233.07 321.412 246.626 321.412 263.376C321.412 280.125 325.262 293.681 330.016 293.681H348.116C352.812 293.681 356.721 280.125 356.721 263.376C356.721 246.626 352.859 233.07 348.116 233.07Z" fill="#263238"/>
<path opacity="0.2" d="M349.455 235.215C345.488 235.215 342.271 247.815 342.271 263.352C342.271 278.89 345.488 291.49 349.455 291.49C353.423 291.49 356.651 278.89 356.651 263.352C356.651 247.815 353.434 235.215 349.455 235.215Z" fill="white"/>
<path opacity="0.6" d="M350.075 248.141C347.938 248.141 346.201 254.948 346.201 263.352C346.201 271.756 347.938 278.504 350.075 278.504C352.211 278.504 353.96 271.697 353.96 263.352C353.96 255.006 352.199 248.141 350.075 248.141Z" fill="white"/>
<path opacity="0.6" d="M349.455 250.242C347.612 250.242 346.109 256.07 346.109 263.355C346.109 270.64 347.612 276.468 349.455 276.468C351.298 276.468 352.812 270.64 352.812 263.355C352.812 256.07 351.309 250.242 349.455 250.242Z" fill="white"/>
<path d="M347.868 256.844C346.941 256.844 346.201 259.781 346.201 263.406C346.201 267.031 346.941 269.968 347.868 269.968C348.795 269.968 349.547 267.031 349.547 263.406C349.547 259.781 348.795 256.844 347.868 256.844Z" fill="#263238"/>
<path opacity="0.2" d="M348.679 260.078C348.221 260.078 347.846 261.547 347.846 263.353C347.846 265.16 348.221 266.629 348.679 266.629C349.137 266.629 349.524 265.16 349.524 263.353C349.524 261.547 349.16 260.078 348.679 260.078Z" fill="white"/>
<path d="M220.641 248.152H151.914V276.465H220.641V248.152Z" fill="#263238"/>
<path d="M220.641 273.855H151.914V277.62H220.641V273.855Z" fill="#4E94EA"/>
<path opacity="0.2" d="M220.641 273.855H151.914V277.62H220.641V273.855Z" fill="black"/>
<path opacity="0.2" d="M220.641 269.918H151.914V271.655H220.641V269.918Z" fill="black"/>
<path opacity="0.2" d="M220.641 265.238H151.914V266.975H220.641V265.238Z" fill="black"/>
<path opacity="0.2" d="M220.641 260.566H151.914V262.303H220.641V260.566Z" fill="black"/>
<path opacity="0.2" d="M220.641 255.891H151.914V257.627H220.641V255.891Z" fill="black"/>
<path opacity="0.2" d="M220.641 251.219H151.914V252.955H220.641V251.219Z" fill="black"/>
<path opacity="0.2" d="M220.641 246.547H151.914V248.284H220.641V246.547Z" fill="black"/>
<path d="M113 243.852C113 246.685 113.364 251.184 113.81 255.671C114.139 258.947 114.502 262.199 114.808 264.798C114.96 266.092 119.28 272.223 122.027 276.023C122.714 276.975 123.619 277.751 124.668 278.286C125.718 278.821 126.88 279.1 128.06 279.1H149.905C150.871 279.1 151.8 278.729 152.496 278.064C153.192 277.399 153.601 276.492 153.638 275.533L154.166 262.024C154.214 260.901 154.696 259.84 155.511 259.061C156.326 258.282 157.413 257.844 158.544 257.839H198.008C198.905 257.832 199.792 258.024 200.604 258.401C201.417 258.778 202.134 259.331 202.703 260.019L216.226 276.466C216.905 277.296 217.762 277.965 218.735 278.425C219.707 278.885 220.771 279.123 221.848 279.123H280.187C280.84 279.123 281.488 278.995 282.091 278.747C282.695 278.499 283.244 278.135 283.706 277.676C284.168 277.217 284.535 276.672 284.785 276.072C285.035 275.473 285.164 274.83 285.164 274.181V264.518C286.279 249.424 290.376 233.047 296.339 233.047C303.194 233.047 304.555 261.966 304.555 278.307H334.077C335.358 278.308 336.589 277.815 337.51 276.932C338.432 276.049 338.973 274.846 339.019 273.575C339.805 250.146 345.733 230.308 351.097 233.63C357.588 237.663 356.79 267.712 357.588 275.906C357.622 276.236 357.743 276.551 357.938 276.82C358.133 277.089 358.396 277.302 358.701 277.438C359.006 277.574 359.341 277.628 359.673 277.594C360.005 277.56 360.323 277.441 360.593 277.246C361.506 276.579 362.361 275.838 363.152 275.032C364.913 273.179 368.305 250.718 370.195 242.885C370.806 240.402 371.275 238.572 371.498 237.989C371.956 236.754 366.803 185.071 352.811 176.679C352.811 176.679 344.277 142.69 331.342 132.119C331.201 131.99 331.048 131.874 330.896 131.757C330.343 131.331 329.763 130.941 329.159 130.592C328.371 130.106 327.527 129.715 326.647 129.426C296.127 119.938 209.887 120.369 190.155 132.806C189.732 133.078 189.341 133.346 188.981 133.61C186.939 135.172 184.932 136.862 182.983 138.634C170.294 150.209 159.765 165.443 154.401 173.94L154.307 174.08C152.429 177.04 151.196 179.15 150.785 179.908L150.633 180.164V180.246C117.249 208.523 118.223 217.65 115.136 238.864C113.809 240.194 113.044 241.979 113 243.852Z" fill="#4E94EA"/>
<path opacity="0.2" d="M224.816 279.103H280.127C280.78 279.103 281.427 278.975 282.031 278.727C282.635 278.479 283.184 278.115 283.646 277.656C284.108 277.197 284.475 276.652 284.725 276.052C284.975 275.453 285.104 274.81 285.104 274.161V264.498C286.219 249.404 290.315 233.027 296.278 233.027C303.134 233.027 304.495 261.946 304.495 278.287H334.017C335.297 278.288 336.528 277.795 337.45 276.912C338.372 276.03 338.913 274.826 338.958 273.555C339.745 250.127 345.673 230.288 351.037 233.61C357.528 237.643 356.73 267.692 357.528 275.886C357.562 276.216 357.682 276.531 357.878 276.8C358.073 277.069 358.336 277.282 358.641 277.418C358.946 277.554 359.281 277.608 359.613 277.574C359.945 277.541 360.263 277.421 360.533 277.227C361.446 276.559 362.301 275.818 363.092 275.012C364.853 273.159 368.245 250.698 370.135 242.865C370.745 240.382 371.215 238.552 371.438 237.969C371.896 236.734 366.743 185.052 352.751 176.659C352.751 176.659 344.217 142.671 331.282 132.099C320.506 131.294 295.633 129.966 284.493 133.765L282.944 187.068C282.944 187.068 269.116 206.533 265.56 215.508C262.003 224.483 262.989 235.463 262.989 235.463L268.083 239.403C268.083 239.403 267.919 259.976 265.607 266.981C263.294 273.986 224.816 279.103 224.816 279.103Z" fill="black"/>
<path opacity="0.2" d="M275.9 190.675C275.9 190.675 272.179 201.969 245.252 215.805C218.324 229.641 188.298 237.625 157.157 229.641C132.87 223.416 135.664 196.678 135.664 196.678C135.664 196.678 136.157 193.029 150.536 180.359C150.536 180.359 243.268 190.185 278.4 185.371L275.9 190.675Z" fill="white"/>
<path opacity="0.2" d="M190.143 132.853C195.19 134.694 205.332 135.184 225.533 135.184C250.841 135.184 283.813 131.186 296.115 130.032C304.179 129.274 319.533 130.032 329.146 130.591C328.358 130.106 327.515 129.714 326.634 129.426C296.162 119.984 209.874 120.474 190.143 132.853Z" fill="white"/>
<path opacity="0.2" d="M265.584 239.359C265.584 239.359 150.902 246.889 119.256 239.359C119.256 239.359 146.993 254.302 265.584 239.359Z" fill="white"/>
<path opacity="0.2" d="M318.089 132.57C318.089 132.57 326.881 148.714 330.156 178.681C330.156 178.681 333.865 183.961 334.57 187.19C335.274 190.419 338.338 228.638 334.863 239.712L333.49 252.009L313.758 254.34L331.365 250.272C331.365 250.272 333.713 239.07 333.901 237.742C336.682 222.298 332.727 189.102 332.727 189.102L328.29 179.87C328.29 179.87 326.881 159.682 318.089 132.57Z" fill="black"/>
<path d="M322.279 135.836C328.536 149.205 332.233 169.568 333.466 177.249C340.696 175.419 351.625 176.702 351.625 176.702C347.915 158.122 335.532 137.654 335.532 137.654C331.154 136.789 326.729 136.182 322.279 135.836Z" fill="#B1C7E1"/>
<path d="M284.541 184.175L325.859 180.084C323.874 165.036 320.874 150.137 316.88 135.488C307.607 135.01 298.603 135.22 292.687 135.488C290.794 135.573 289.004 136.369 287.679 137.715C286.354 139.061 285.593 140.857 285.551 142.738L284.541 184.175Z" fill="#B1C7E1"/>
<path d="M150.549 180.326C150.549 180.326 159.575 191.9 191.151 191.9C222.727 191.9 278.413 185.338 278.413 185.338L282.944 135.742C282.944 135.742 217.339 139.705 182.958 138.679C170.269 150.254 159.74 165.488 154.375 173.985L154.282 174.125L150.76 179.953L150.608 180.21L150.549 180.326Z" fill="#B1C7E1"/>
<path opacity="0.2" d="M296.115 217.221C296.115 217.221 296.115 194.166 294.507 190.016C293.594 187.618 292.182 185.438 290.363 183.617H285.668C285.668 183.617 291.924 187.394 292.711 191.928C293.497 196.462 296.115 217.221 296.115 217.221Z" fill="black"/>
<path opacity="0.2" d="M307.945 225.949C307.945 225.949 304.975 218.571 292.756 219.503C280.536 220.436 273.822 237.477 273.822 237.477C273.822 237.477 277.919 242.477 279.586 239.4C281.253 236.323 291.934 216.496 307.945 225.949Z" fill="white"/>
<path opacity="0.2" d="M340.92 234.249C340.92 234.249 345.381 224.295 351.626 224.551C357.87 224.808 360.664 232.652 360.664 232.652C360.664 232.652 359.96 225.262 355.546 222.267C351.133 219.271 347.529 219.225 343.162 222.5C339.066 225.565 337.129 235.217 337.129 235.217C337.782 235.478 338.503 235.526 339.185 235.352C339.867 235.178 340.475 234.791 340.92 234.249Z" fill="white"/>
<path opacity="0.2" d="M330.167 194.523C330.167 194.523 323.512 195.747 323.195 197.589C322.878 199.431 330.942 198.673 330.942 198.673C331.006 197.249 330.741 195.83 330.167 194.523Z" fill="black"/>
<path opacity="0.2" d="M270.116 138.727C270.116 138.727 216.614 166.083 196.846 188.847C196.846 188.847 216.391 166.398 231.251 157.493C231.251 157.493 203.396 168.251 183.265 188.847C183.265 188.847 160.892 186.283 152.746 180.338C152.746 180.338 167.301 153.296 183.265 141.198C183.265 141.186 224.76 142.037 270.116 138.727Z" fill="white"/>
<path d="M245.043 257.304L224.43 261.29C223.82 261.409 223.247 261.668 222.756 262.047C222.264 262.426 221.87 262.913 221.603 263.471C221.335 264.028 221.204 264.64 221.218 265.257C221.232 265.875 221.391 266.48 221.684 267.025L224.536 272.317C224.928 273.041 225.538 273.626 226.281 273.989C227.024 274.353 227.862 274.477 228.68 274.345L250.137 270.848C250.785 270.744 251.397 270.481 251.918 270.084C252.439 269.686 252.852 269.167 253.121 268.572C253.389 267.977 253.505 267.325 253.458 266.675C253.41 266.024 253.201 265.396 252.849 264.845L249.151 259.017C248.718 258.356 248.094 257.839 247.362 257.534C246.63 257.228 245.822 257.148 245.043 257.304Z" fill="#263238"/>
<path d="M146.395 263.386L147.334 266.789C147.511 267.434 147.52 268.112 147.361 268.761C147.201 269.41 146.877 270.008 146.421 270.499C145.964 270.99 145.389 271.357 144.75 271.566C144.111 271.776 143.429 271.821 142.768 271.696L125.161 268.398C124.298 268.238 123.512 267.798 122.93 267.145C122.347 266.493 122.001 265.666 121.945 264.796L121.733 261.8C121.689 261.198 121.784 260.593 122.012 260.033C122.24 259.473 122.594 258.973 123.048 258.571C123.502 258.169 124.043 257.875 124.629 257.714C125.215 257.552 125.831 257.527 126.429 257.639L143.332 260.542C144.06 260.681 144.734 261.023 145.276 261.526C145.818 262.029 146.206 262.673 146.395 263.386Z" fill="#263238"/>
<path d="M121.544 216.499C121.326 216.855 121.199 217.26 121.174 217.676C121.15 218.093 121.228 218.509 121.403 218.888C123.129 222.735 129.209 234.193 141.617 238.354C142.925 238.807 144.267 239.158 145.631 239.403C160.891 242.212 200.401 242.025 219.359 239.403C222.072 239.086 224.751 238.528 227.364 237.736C234.019 235.405 251.369 225.369 258.4 221.231C258.781 221.006 259.111 220.704 259.367 220.345C259.624 219.986 259.801 219.577 259.889 219.145C259.976 218.714 259.971 218.269 259.874 217.839C259.778 217.409 259.591 217.004 259.327 216.65L255.946 212.14C255.576 211.657 255.074 211.29 254.499 211.083C253.925 210.877 253.302 210.839 252.707 210.974L214.335 219.459L211.318 222.956C211.318 222.956 173.99 226.954 148.343 222.956V219.459L127.214 211.3C126.646 211.083 126.019 211.07 125.442 211.264C124.865 211.458 124.375 211.846 124.056 212.361L121.544 216.499Z" fill="#263238"/>
<path opacity="0.7" d="M211.34 222.956C211.34 222.956 216.411 234.822 219.357 239.379C222.07 239.063 224.75 238.505 227.362 237.713C234.018 235.381 251.367 225.346 258.398 221.208C258.78 220.983 259.109 220.681 259.366 220.322C259.622 219.963 259.8 219.554 259.887 219.122C259.975 218.69 259.97 218.245 259.873 217.815C259.776 217.386 259.59 216.981 259.326 216.627L255.945 212.14C255.575 211.657 255.072 211.29 254.498 211.083C253.923 210.877 253.301 210.839 252.705 210.974L214.333 219.46L211.34 222.956Z" fill="white"/>
<path opacity="0.7" d="M121.407 218.886C123.133 222.732 129.213 234.19 141.62 238.351L148.37 222.954V219.457L127.241 211.298C126.673 211.081 126.046 211.068 125.469 211.261C124.892 211.455 124.402 211.843 124.083 212.359L121.548 216.52C121.334 216.874 121.209 217.274 121.184 217.686C121.16 218.098 121.236 218.51 121.407 218.886Z" fill="white"/>
<path d="M218.256 227.715C218.256 229.006 218.642 230.269 219.365 231.342C220.087 232.416 221.115 233.253 222.316 233.746C223.518 234.24 224.841 234.369 226.116 234.116C227.391 233.863 228.563 233.24 229.481 232.326C230.4 231.412 231.025 230.248 231.278 228.981C231.53 227.714 231.398 226.401 230.899 225.209C230.4 224.016 229.555 222.998 228.473 222.282C227.39 221.566 226.118 221.185 224.818 221.188C223.955 221.188 223.101 221.356 222.304 221.685C221.507 222.013 220.783 222.494 220.174 223.1C219.564 223.706 219.081 224.426 218.752 225.218C218.423 226.01 218.254 226.858 218.256 227.715Z" fill="white"/>
<path d="M134.797 226.869C134.422 230.459 136.159 233.56 138.647 233.863C141.136 234.166 143.472 231.403 143.836 227.825C144.199 224.247 142.474 221.134 139.974 220.831C137.473 220.528 135.161 223.291 134.797 226.869Z" fill="white"/>
<path d="M134.984 222.075C135.308 218.892 133.773 216.131 131.554 215.908C129.335 215.685 127.273 218.085 126.949 221.268C126.624 224.451 128.16 227.212 130.379 227.435C132.597 227.658 134.659 225.258 134.984 222.075Z" fill="white"/>
<path d="M123.798 215.005C123.399 216.403 123.857 217.767 124.831 218.047C125.806 218.326 126.932 217.417 127.332 216.019C127.731 214.62 127.273 213.256 126.299 212.976C125.324 212.697 124.209 213.606 123.798 215.005Z" fill="white"/>
<path d="M233.483 223.187C233.476 224.376 233.824 225.54 234.485 226.532C235.145 227.524 236.088 228.299 237.193 228.758C238.297 229.218 239.514 229.341 240.69 229.112C241.865 228.884 242.945 228.314 243.794 227.474C244.642 226.635 245.221 225.565 245.455 224.398C245.69 223.232 245.571 222.023 245.113 220.924C244.654 219.826 243.878 218.887 242.881 218.227C241.885 217.567 240.714 217.216 239.516 217.219C237.921 217.222 236.391 217.851 235.261 218.969C234.131 220.087 233.492 221.603 233.483 223.187Z" fill="white"/>
<path d="M249.129 216.429C249.131 217.021 249.31 217.599 249.643 218.09C249.976 218.581 250.448 218.963 250.999 219.188C251.551 219.413 252.157 219.471 252.741 219.354C253.326 219.237 253.862 218.951 254.283 218.532C254.704 218.112 254.99 217.578 255.105 216.998C255.221 216.417 255.16 215.815 254.932 215.268C254.703 214.722 254.316 214.255 253.82 213.926C253.325 213.597 252.742 213.422 252.146 213.422C251.748 213.422 251.355 213.5 250.988 213.651C250.622 213.802 250.289 214.024 250.008 214.303C249.728 214.583 249.506 214.914 249.355 215.279C249.204 215.644 249.127 216.035 249.129 216.429Z" fill="white"/>
<path opacity="0.2" d="M210.531 227.744L190.565 229.178L185.341 232.488H166.02L163.273 229.178L148.366 227.324L146.793 229.912L160.961 232.488L164.212 238.351H187.818L193.757 232.837L212.198 230.868L210.531 227.744Z" fill="white"/>
<path opacity="0.2" d="M237.873 270.461C240.297 270.461 242.263 268.509 242.263 266.101C242.263 263.694 240.297 261.742 237.873 261.742C235.448 261.742 233.482 263.694 233.482 266.101C233.482 268.509 235.448 270.461 237.873 270.461Z" fill="white"/>
<path opacity="0.2" d="M130.197 264.68C130.193 265.543 130.447 266.389 130.927 267.109C131.407 267.829 132.091 268.392 132.894 268.725C133.696 269.058 134.58 269.147 135.434 268.981C136.287 268.814 137.072 268.4 137.687 267.79C138.303 267.18 138.723 266.402 138.893 265.555C139.063 264.708 138.976 263.83 138.642 263.032C138.309 262.234 137.744 261.553 137.02 261.074C136.296 260.596 135.445 260.341 134.576 260.344C133.417 260.344 132.305 260.8 131.484 261.613C130.663 262.426 130.2 263.529 130.197 264.68Z" fill="white"/>
<path d="M231.391 189.914L219.371 187.059H180.718L170.717 189.914C170.717 189.914 169.789 202.503 172.571 203.901C175.353 205.3 209.394 205.067 212.117 203.901C214.841 202.736 226.356 197.852 231.391 189.914Z" fill="#4E94EA"/>
<path opacity="0.2" d="M231.391 189.914L219.371 187.059H180.718L170.717 189.914C170.717 189.914 169.789 202.503 172.571 203.901C175.353 205.3 209.394 205.067 212.117 203.901C214.841 202.736 226.356 197.852 231.391 189.914Z" fill="white"/>
<ellipse cx="74.9572" cy="283.751" rx="42.4357" ry="2.16094" fill="#B88706"/>
<path d="M36.1433 206.133H116.488V190.045H36.1433V206.133Z" fill="#F6D57E"/>
<path d="M111.311 190.309C111.126 190.309 110.963 193.809 110.963 198.11C110.963 202.41 111.126 205.911 111.311 205.911C111.496 205.911 111.659 202.421 111.659 198.11C111.659 193.799 111.507 190.309 111.311 190.309Z" fill="#7E5C01"/>
<path d="M103.868 190.309C103.672 190.309 103.52 193.809 103.52 198.11C103.52 202.41 103.672 205.911 103.868 205.911C104.064 205.911 104.216 202.421 104.216 198.11C104.216 193.799 104.053 190.309 103.868 190.309Z" fill="#7E5C01"/>
<path d="M96.5044 190.309C96.3086 190.309 96.1562 193.809 96.1562 198.11C96.1562 202.41 96.3086 205.911 96.5044 205.911C96.7003 205.911 96.8526 202.421 96.8526 198.11C96.8526 193.799 96.7003 190.309 96.5044 190.309Z" fill="#7E5C01"/>
<path d="M89.1783 190.309C88.9824 190.309 88.8301 193.809 88.8301 198.11C88.8301 202.41 88.9824 205.911 89.1783 205.911C89.3741 205.911 89.5265 202.421 89.5265 198.11C89.5265 193.799 89.385 190.309 89.1783 190.309Z" fill="#7E5C01"/>
<path d="M81.8579 190.309C81.6621 190.309 81.5098 193.809 81.5098 198.11C81.5098 202.41 81.6621 205.911 81.8579 205.911C82.0538 205.911 82.2061 202.421 82.2061 198.11C82.2061 193.799 82.0538 190.309 81.8579 190.309Z" fill="#7E5C01"/>
<path d="M74.5337 190.309C74.3379 190.309 74.1855 193.809 74.1855 198.11C74.1855 202.41 74.3379 205.911 74.5337 205.911C74.7296 205.911 74.8819 202.421 74.8819 198.11C74.8819 193.799 74.7296 190.309 74.5337 190.309Z" fill="#7E5C01"/>
<path d="M67.2095 190.309C67.0137 190.309 66.8613 193.809 66.8613 198.11C66.8613 202.41 67.0137 205.911 67.2095 205.911C67.4054 205.911 67.5577 202.421 67.5577 198.11C67.5577 193.799 67.4054 190.309 67.2095 190.309Z" fill="#7E5C01"/>
<path d="M59.8853 190.309C59.6895 190.309 59.5371 193.809 59.5371 198.11C59.5371 202.41 59.6895 205.911 59.8853 205.911C60.0812 205.911 60.2335 202.421 60.2335 198.11C60.2335 193.799 60.0812 190.309 59.8853 190.309Z" fill="#7E5C01"/>
<path d="M52.565 190.309C52.3691 190.309 52.2168 193.809 52.2168 198.11C52.2168 202.41 52.3691 205.911 52.565 205.911C52.7609 205.911 52.9132 202.421 52.9132 198.11C52.9132 193.799 52.7609 190.309 52.565 190.309Z" fill="#7E5C01"/>
<path d="M45.2388 190.309C45.043 190.309 44.8906 193.809 44.8906 198.11C44.8906 202.41 45.043 205.911 45.2388 205.911C45.4347 205.911 45.587 202.421 45.587 198.11C45.587 193.799 45.4347 190.309 45.2388 190.309Z" fill="#7E5C01"/>
<path d="M37.9205 190.309C37.7246 190.309 37.5723 193.809 37.5723 198.11C37.5723 202.41 37.7246 205.911 37.9205 205.911C38.1163 205.911 38.2686 202.421 38.2686 198.11C38.2686 193.799 38.1054 190.309 37.9205 190.309Z" fill="#7E5C01"/>
<g opacity="0.3">
<path d="M115.186 190.062C89.3792 193.493 63.2269 193.493 37.4199 190.062H115.186Z" fill="#F6D57E"/>
</g>
<path d="M36.0684 190.096C36.0684 190.29 54.0219 190.441 76.1647 190.441C98.3074 190.441 116.272 190.29 116.272 190.096C116.272 189.901 98.3183 189.75 76.1647 189.75C54.0111 189.75 36.0684 189.901 36.0684 190.096Z" fill="#7E5C01"/>
<path d="M34.3386 221.965H114.684V205.877H34.3386V221.965Z" fill="#F6D57E"/>
<path d="M109.516 206.141C109.32 206.141 109.168 209.631 109.168 213.931C109.168 218.231 109.32 221.732 109.516 221.732C109.712 221.732 109.864 218.242 109.864 213.931C109.864 209.62 109.701 206.141 109.516 206.141Z" fill="#7E5C01"/>
<path d="M102.061 206.141C101.865 206.141 101.713 209.631 101.713 213.931C101.713 218.231 101.865 221.732 102.061 221.732C102.257 221.732 102.409 218.242 102.409 213.931C102.409 209.62 102.257 206.141 102.061 206.141Z" fill="#7E5C01"/>
<path d="M94.6939 206.141C94.5089 206.141 94.3457 209.631 94.3457 213.931C94.3457 218.231 94.5089 221.732 94.6939 221.732C94.8789 221.732 95.0421 218.242 95.0421 213.931C95.0421 209.62 94.8898 206.141 94.6939 206.141Z" fill="#7E5C01"/>
<path d="M87.3716 206.141C87.1758 206.141 87.0234 209.631 87.0234 213.931C87.0234 218.231 87.1758 221.732 87.3716 221.732C87.5675 221.732 87.7198 218.242 87.7198 213.931C87.7198 209.62 87.5675 206.141 87.3716 206.141Z" fill="#7E5C01"/>
<path d="M80.0494 206.141C79.8535 206.141 79.7012 209.631 79.7012 213.931C79.7012 218.231 79.8535 221.732 80.0494 221.732C80.2452 221.732 80.3975 218.242 80.3975 213.931C80.3975 209.62 80.2452 206.141 80.0494 206.141Z" fill="#7E5C01"/>
<path d="M72.7271 206.141C72.5312 206.141 72.3789 209.631 72.3789 213.931C72.3789 218.231 72.5312 221.732 72.7271 221.732C72.923 221.732 73.0753 218.242 73.0753 213.931C73.0753 209.62 72.923 206.141 72.7271 206.141Z" fill="#7E5C01"/>
<path d="M65.4459 206.141C65.25 206.141 65.0977 209.631 65.0977 213.931C65.0977 218.231 65.25 221.732 65.4459 221.732C65.6417 221.732 65.7941 218.242 65.7941 213.931C65.7941 209.62 65.5982 206.141 65.4459 206.141Z" fill="#7E5C01"/>
<path d="M58.0787 206.141C57.8828 206.141 57.7305 209.631 57.7305 213.931C57.7305 218.231 57.8828 221.732 58.0787 221.732C58.2745 221.732 58.4268 218.242 58.4268 213.931C58.4268 209.62 58.2745 206.141 58.0787 206.141Z" fill="#7E5C01"/>
<path d="M50.7584 206.141C50.5625 206.141 50.4102 209.631 50.4102 213.931C50.4102 218.231 50.5625 221.732 50.7584 221.732C50.9542 221.732 51.1066 218.242 51.1066 213.931C51.1066 209.62 50.9542 206.141 50.7584 206.141Z" fill="#7E5C01"/>
<path d="M43.4361 206.141C43.2402 206.141 43.0879 209.631 43.0879 213.931C43.0879 218.231 43.2402 221.732 43.4361 221.732C43.6319 221.732 43.7843 218.242 43.7843 213.931C43.7843 209.62 43.6863 206.141 43.4361 206.141Z" fill="#7E5C01"/>
<path d="M36.0689 206.141C35.873 206.141 35.7207 209.631 35.7207 213.931C35.7207 218.231 35.873 221.732 36.0689 221.732C36.2648 221.732 36.4171 218.242 36.4171 213.931C36.4171 209.62 36.3083 206.141 36.0689 206.141Z" fill="#7E5C01"/>
<g opacity="0.3">
<path d="M113.39 205.879C87.5798 209.309 61.4239 209.309 35.6133 205.879H113.39Z" fill="#F6D57E"/>
</g>
<path d="M34.3047 205.912C34.3047 206.107 52.2583 206.258 74.4119 206.258C96.5655 206.258 114.508 206.107 114.508 205.912C114.508 205.718 96.5655 205.566 74.4119 205.566C52.2583 205.566 34.3047 205.783 34.3047 205.912Z" fill="#7E5C01"/>
<path d="M41.9675 237.527H122.312V221.439H41.9675V237.527Z" fill="#F6D57E"/>
<path d="M117.141 221.699C116.945 221.699 116.793 225.2 116.793 229.5C116.793 233.8 116.945 237.301 117.141 237.301C117.337 237.301 117.489 233.811 117.489 229.5C117.489 225.189 117.326 221.699 117.141 221.699Z" fill="#7E5C01"/>
<path d="M109.688 221.699C109.492 221.699 109.34 225.2 109.34 229.5C109.34 233.8 109.492 237.301 109.688 237.301C109.884 237.301 110.036 233.811 110.036 229.5C110.036 225.189 109.884 221.699 109.688 221.699Z" fill="#7E5C01"/>
<path d="M102.321 221.699C102.136 221.699 101.973 225.2 101.973 229.5C101.973 233.8 102.136 237.301 102.321 237.301C102.506 237.301 102.669 233.811 102.669 229.5C102.669 225.189 102.517 221.699 102.321 221.699Z" fill="#7E5C01"/>
<path d="M95.0005 221.699C94.8156 221.699 94.6523 225.2 94.6523 229.5C94.6523 233.8 94.8156 237.301 95.0005 237.301C95.1855 237.301 95.3487 233.811 95.3487 229.5C95.3487 225.189 95.1964 221.699 95.0005 221.699Z" fill="#7E5C01"/>
<path d="M87.6744 221.699C87.4894 221.699 87.3262 225.2 87.3262 229.5C87.3262 233.8 87.4894 237.301 87.6744 237.301C87.8593 237.301 88.0226 233.811 88.0226 229.5C88.0226 225.189 87.8702 221.699 87.6744 221.699Z" fill="#7E5C01"/>
<path d="M80.356 221.699C80.171 221.699 80.0078 225.2 80.0078 229.5C80.0078 233.8 80.171 237.301 80.356 237.301C80.541 237.301 80.7042 233.811 80.7042 229.5C80.7042 225.189 80.5519 221.699 80.356 221.699Z" fill="#7E5C01"/>
<path d="M73.0611 221.699C72.8652 221.699 72.7129 225.2 72.7129 229.5C72.7129 233.8 72.8652 237.301 73.0611 237.301C73.2569 237.301 73.4093 233.811 73.4093 229.5C73.4093 225.189 73.2243 221.699 73.0611 221.699Z" fill="#7E5C01"/>
<path d="M65.7075 221.699C65.5117 221.699 65.3594 225.2 65.3594 229.5C65.3594 233.8 65.5117 237.301 65.7075 237.301C65.9034 237.301 66.0557 233.811 66.0557 229.5C66.0557 225.189 65.9034 221.699 65.7075 221.699Z" fill="#7E5C01"/>
<path d="M58.3853 221.699C58.1895 221.699 58.0371 225.2 58.0371 229.5C58.0371 233.8 58.1895 237.301 58.3853 237.301C58.5812 237.301 58.7335 233.811 58.7335 229.5C58.7335 225.189 58.5812 221.699 58.3853 221.699Z" fill="#7E5C01"/>
<path d="M51.065 221.699C50.8691 221.699 50.7168 225.2 50.7168 229.5C50.7168 233.8 50.8691 237.301 51.065 237.301C51.2609 237.301 51.4132 233.811 51.4132 229.5C51.4132 225.189 51.3044 221.699 51.065 221.699Z" fill="#7E5C01"/>
<path d="M43.7407 221.699C43.5449 221.699 43.3926 225.2 43.3926 229.5C43.3926 233.8 43.5449 237.301 43.7407 237.301C43.9366 237.301 44.0889 233.811 44.0889 229.5C44.0889 225.189 43.9366 221.699 43.7407 221.699Z" fill="#7E5C01"/>
<g opacity="0.3">
<path d="M121.013 221.449C95.2028 224.88 69.0469 224.88 43.2363 221.449H121.013Z" fill="#F6D57E"/>
</g>
<path d="M41.9336 221.486C41.9336 221.681 59.8872 221.832 82.0408 221.832C104.194 221.832 122.137 221.681 122.137 221.486C122.137 221.292 104.194 221.141 82.0408 221.141C59.8872 221.141 41.9336 221.303 41.9336 221.486Z" fill="#7E5C01"/>
<path d="M32.5534 252.879H112.898V237.407H32.5534V252.879Z" fill="#F6D57E"/>
<path d="M107.733 237.672C107.537 237.672 107.385 241.021 107.385 245.17C107.385 249.319 107.537 252.669 107.733 252.669C107.929 252.669 108.081 249.309 108.081 245.17C108.081 241.032 107.885 237.672 107.733 237.672Z" fill="#7E5C01"/>
<path d="M100.268 237.672C100.072 237.672 99.9199 241.021 99.9199 245.17C99.9199 249.319 100.072 252.669 100.268 252.669C100.464 252.669 100.616 249.309 100.616 245.17C100.616 241.032 100.475 237.672 100.268 237.672Z" fill="#7E5C01"/>
<path d="M92.9087 237.672C92.7237 237.672 92.5605 241.021 92.5605 245.17C92.5605 249.319 92.7237 252.669 92.9087 252.669C93.0937 252.669 93.2569 249.309 93.2569 245.17C93.2569 241.032 93.1046 237.672 92.9087 237.672Z" fill="#7E5C01"/>
<path d="M85.5865 237.672C85.4015 237.672 85.2383 241.021 85.2383 245.17C85.2383 249.319 85.4015 252.669 85.5865 252.669C85.7715 252.669 85.9346 249.309 85.9346 245.17C85.9346 241.032 85.7823 237.672 85.5865 237.672Z" fill="#7E5C01"/>
<path d="M78.2642 237.672C78.0792 237.672 77.916 241.021 77.916 245.17C77.916 249.319 78.0792 252.669 78.2642 252.669C78.4492 252.669 78.6124 249.309 78.6124 245.17C78.6124 241.032 78.5036 237.672 78.2642 237.672Z" fill="#7E5C01"/>
<path d="M70.9419 237.672C70.7461 237.672 70.5938 241.021 70.5938 245.17C70.5938 249.319 70.7461 252.669 70.9419 252.669C71.1378 252.669 71.2901 249.309 71.2901 245.17C71.2901 241.032 71.1378 237.672 70.9419 237.672Z" fill="#7E5C01"/>
<path d="M63.6197 237.672C63.4238 237.672 63.2715 241.021 63.2715 245.17C63.2715 249.319 63.4238 252.669 63.6197 252.669C63.8155 252.669 63.9679 249.309 63.9679 245.17C63.9679 241.032 63.8155 237.672 63.6197 237.672Z" fill="#7E5C01"/>
<path d="M56.2955 237.672C56.0996 237.672 55.9473 241.021 55.9473 245.17C55.9473 249.319 56.0996 252.669 56.2955 252.669C56.4913 252.669 56.6437 249.309 56.6437 245.17C56.6437 241.032 56.4913 237.672 56.2955 237.672Z" fill="#7E5C01"/>
<path d="M48.9771 237.672C48.7812 237.672 48.6289 241.021 48.6289 245.17C48.6289 249.319 48.7812 252.669 48.9771 252.669C49.1729 252.669 49.3253 249.309 49.3253 245.17C49.3253 241.032 49.1294 237.672 48.9771 237.672Z" fill="#7E5C01"/>
<path d="M41.6509 237.672C41.4551 237.672 41.3027 241.021 41.3027 245.17C41.3027 249.319 41.4551 252.669 41.6509 252.669C41.8468 252.669 41.9991 249.309 41.9991 245.17C41.9991 241.032 41.8468 237.672 41.6509 237.672Z" fill="#7E5C01"/>
<path d="M34.3287 237.672C34.1328 237.672 33.9805 241.021 33.9805 245.17C33.9805 249.319 34.1328 252.669 34.3287 252.669C34.5245 252.669 34.6769 249.309 34.6769 245.17C34.6769 241.032 34.5245 237.672 34.3287 237.672Z" fill="#7E5C01"/>
<g opacity="0.3">
<path d="M111.605 237.422C85.8677 241.809 59.5656 241.809 33.8281 237.422H111.605Z" fill="#F6D57E"/>
</g>
<path d="M32.5215 237.452C32.5215 237.647 50.4751 237.798 72.6287 237.798C94.7823 237.798 112.725 237.647 112.725 237.452C112.725 237.258 94.8259 237.117 72.6287 237.117C50.4316 237.117 32.5215 237.258 32.5215 237.452Z" fill="#7E5C01"/>
<path d="M37.7234 268.363H118.068V252.891H37.7234V268.363Z" fill="#F6D57E"/>
<path d="M112.887 253.145C112.702 253.145 112.539 256.505 112.539 260.654C112.539 264.803 112.702 268.152 112.887 268.152C113.072 268.152 113.246 264.792 113.246 260.654C113.246 256.516 113.083 253.145 112.887 253.145Z" fill="#7E5C01"/>
<path d="M105.446 253.145C105.25 253.145 105.098 256.505 105.098 260.654C105.098 264.803 105.25 268.152 105.446 268.152C105.642 268.152 105.794 264.792 105.794 260.654C105.794 256.516 105.631 253.145 105.446 253.145Z" fill="#7E5C01"/>
<path d="M98.0884 253.145C97.8926 253.145 97.7402 256.505 97.7402 260.654C97.7402 264.803 97.8926 268.152 98.0884 268.152C98.2843 268.152 98.4366 264.792 98.4366 260.654C98.4366 256.516 98.2734 253.145 98.0884 253.145Z" fill="#7E5C01"/>
<path d="M90.7564 253.145C90.5605 253.145 90.4082 256.505 90.4082 260.654C90.4082 264.803 90.5605 268.152 90.7564 268.152C90.9523 268.152 91.1046 264.792 91.1046 260.654C91.1046 256.516 90.9523 253.145 90.7564 253.145Z" fill="#7E5C01"/>
<path d="M83.4302 253.145C83.2344 253.145 83.082 256.505 83.082 260.654C83.082 264.803 83.2344 268.152 83.4302 268.152C83.6261 268.152 83.7784 264.792 83.7784 260.654C83.7784 256.516 83.6261 253.145 83.4302 253.145Z" fill="#7E5C01"/>
<path d="M76.1099 253.145C75.914 253.145 75.7617 256.505 75.7617 260.654C75.7617 264.803 75.914 268.152 76.1099 268.152C76.3057 268.152 76.4581 264.792 76.4581 260.654C76.4581 256.516 76.3275 253.145 76.1099 253.145Z" fill="#7E5C01"/>
<path d="M68.7896 253.145C68.5937 253.145 68.4414 256.505 68.4414 260.654C68.4414 264.803 68.5937 268.152 68.7896 268.152C68.9855 268.152 69.1378 264.792 69.1378 260.654C69.1378 256.516 68.9855 253.145 68.7896 253.145Z" fill="#7E5C01"/>
<path d="M61.4634 253.145C61.2676 253.145 61.1152 256.505 61.1152 260.654C61.1152 264.803 61.2676 268.152 61.4634 268.152C61.6593 268.152 61.8116 264.792 61.8116 260.654C61.8116 256.516 61.6593 253.145 61.4634 253.145Z" fill="#7E5C01"/>
<path d="M54.1431 253.145C53.9472 253.145 53.7949 256.505 53.7949 260.654C53.7949 264.803 53.9472 268.152 54.1431 268.152C54.3389 268.152 54.4913 264.792 54.4913 260.654C54.4913 256.516 54.3389 253.145 54.1431 253.145Z" fill="#7E5C01"/>
<path d="M46.8189 253.145C46.623 253.145 46.4707 256.505 46.4707 260.654C46.4707 264.803 46.623 268.152 46.8189 268.152C47.0148 268.152 47.1671 264.792 47.1671 260.654C47.1671 256.516 47.0148 253.145 46.8189 253.145Z" fill="#7E5C01"/>
<path d="M39.4966 253.145C39.3008 253.145 39.1484 256.505 39.1484 260.654C39.1484 264.803 39.3008 268.152 39.4966 268.152C39.6925 268.152 39.8448 264.792 39.8448 260.654C39.8448 256.516 39.6816 253.145 39.4966 253.145Z" fill="#7E5C01"/>
<g opacity="0.3">
<path d="M116.76 252.906C91.0794 257.871 64.6751 257.871 38.9941 252.906H116.76Z" fill="#F6D57E"/>
</g>
<path d="M37.6895 252.936C37.6895 253.13 55.643 253.281 77.7858 253.281C99.9285 253.281 117.893 253.13 117.893 252.936C117.893 252.741 99.9394 252.59 77.7858 252.59C55.6322 252.59 37.6895 252.741 37.6895 252.936Z" fill="#7E5C01"/>
<path d="M33.1335 283.633H113.479V268.16H33.1335V283.633Z" fill="#F6D57E"/>
<path d="M108.305 268.453C108.109 268.453 107.957 271.813 107.957 275.952C107.957 280.09 108.109 283.515 108.305 283.515C108.501 283.515 108.653 280.155 108.653 275.952C108.653 271.749 108.49 268.453 108.305 268.453Z" fill="#7E5C01"/>
<path d="M100.856 268.453C100.66 268.453 100.508 271.813 100.508 275.952C100.508 280.09 100.66 283.515 100.856 283.515C101.052 283.515 101.204 280.155 101.204 275.952C101.204 271.749 101.052 268.453 100.856 268.453Z" fill="#7E5C01"/>
<path d="M93.4888 268.453C93.3038 268.453 93.1406 271.813 93.1406 275.952C93.1406 280.09 93.3038 283.515 93.4888 283.515C93.6738 283.515 93.837 280.155 93.837 275.952C93.837 271.749 93.7391 268.453 93.4888 268.453Z" fill="#7E5C01"/>
<path d="M86.1216 268.453C85.9258 268.453 85.7734 271.813 85.7734 275.952C85.7734 280.09 85.9258 283.515 86.1216 283.515C86.3175 283.515 86.4698 280.155 86.4698 275.952C86.4698 271.749 86.361 268.453 86.1216 268.453Z" fill="#7E5C01"/>
<path d="M78.8404 268.453C78.6445 268.453 78.4922 271.813 78.4922 275.952C78.4922 280.09 78.6445 283.515 78.8404 283.515C79.0362 283.515 79.1886 280.155 79.1886 275.952C79.1886 271.749 79.0362 268.453 78.8404 268.453Z" fill="#7E5C01"/>
<path d="M71.5181 268.453C71.3222 268.453 71.1699 271.813 71.1699 275.952C71.1699 280.09 71.3222 283.515 71.5181 283.515C71.7139 283.515 71.8663 280.155 71.8663 275.952C71.8663 271.749 71.7139 268.453 71.5181 268.453Z" fill="#7E5C01"/>
<path d="M64.1939 268.453C63.998 268.453 63.8457 271.813 63.8457 275.952C63.8457 280.09 63.998 283.515 64.1939 283.515C64.3898 283.515 64.5421 280.155 64.5421 275.952C64.5421 271.749 64.3571 268.453 64.1939 268.453Z" fill="#7E5C01"/>
<path d="M56.8755 268.453C56.6797 268.453 56.5273 271.813 56.5273 275.952C56.5273 280.09 56.6797 283.515 56.8755 283.515C57.0714 283.515 57.2237 280.155 57.2237 275.952C57.2237 271.749 57.0714 268.453 56.8755 268.453Z" fill="#7E5C01"/>
<path d="M49.5513 268.453C49.3555 268.453 49.2031 271.813 49.2031 275.952C49.2031 280.09 49.3555 283.515 49.5513 283.515C49.7472 283.515 49.8995 280.155 49.8995 275.952C49.8995 271.749 49.7472 268.453 49.5513 268.453Z" fill="#7E5C01"/>
<path d="M42.2271 268.453C42.0312 268.453 41.8789 271.813 41.8789 275.952C41.8789 280.09 42.0312 283.515 42.2271 283.515C42.423 283.515 42.5753 280.155 42.5753 275.952C42.5753 271.749 42.423 268.453 42.2271 268.453Z" fill="#7E5C01"/>
<path d="M34.9029 268.453C34.707 268.453 34.5547 271.813 34.5547 275.952C34.5547 280.09 34.707 283.515 34.9029 283.515C35.0987 283.515 35.2511 280.155 35.2511 275.952C35.2511 271.749 35.0987 268.453 34.9029 268.453Z" fill="#7E5C01"/>
<g opacity="0.3">
<path d="M112.236 268.168C86.4986 272.555 60.1965 272.555 34.459 268.168H112.236Z" fill="#F6D57E"/>
</g>
<path d="M33.0996 268.205C33.0996 268.389 51.0532 268.551 73.2068 268.551C95.3605 268.551 113.303 268.389 113.303 268.205C113.303 268.021 95.3496 267.859 73.2068 267.859C51.0641 267.859 33.0996 268.011 33.0996 268.205Z" fill="#7E5C01"/>
<path d="M113.466 283.577C113.466 283.577 113.466 283.491 113.466 283.318C113.466 283.145 113.466 282.853 113.466 282.54C113.466 281.816 113.466 280.811 113.466 279.526C113.466 276.868 113.412 273.043 113.379 268.321V268.148H113.553H117.982L117.797 268.343C117.797 263.815 117.797 258.618 117.797 252.859L118.036 253.097H112.596V252.849C112.596 248.062 112.596 242.876 112.596 237.495V237.236H122.269L122.008 237.495C122.008 231.769 122.008 226.269 122.008 221.104L122.247 221.353H114.391V221.115C114.391 215.518 114.391 210.462 114.391 206.118V205.924H116.567L116.393 206.107C116.393 201.116 116.393 197.118 116.393 194.33C116.393 192.98 116.393 191.921 116.393 191.165C116.393 190.819 116.393 190.559 116.393 190.343C116.384 190.25 116.384 190.156 116.393 190.062C116.407 190.156 116.407 190.25 116.393 190.343C116.393 190.549 116.393 190.819 116.393 191.165C116.393 191.921 116.393 192.969 116.469 194.32C116.469 197.118 116.589 201.116 116.676 206.097V206.28H114.5L114.685 206.097C114.685 210.419 114.685 215.497 114.739 221.094L114.5 220.867H122.117H122.367V221.115C122.367 226.28 122.367 231.779 122.367 237.506V237.765H112.683L112.955 237.506C112.955 242.908 112.955 248.073 112.955 252.859L112.705 252.611H118.145V252.849C118.145 258.575 118.145 263.805 118.145 268.332V268.526H113.521L113.695 268.353C113.695 273.097 113.64 276.9 113.619 279.558C113.619 280.844 113.619 281.849 113.619 282.572C113.619 282.886 113.619 283.145 113.619 283.35C113.581 283.434 113.53 283.511 113.466 283.577Z" fill="#7E5C01"/>
<defs>
<filter id="filter0_f_5003_48823" x="43" y="0.832031" width="287" height="289" filterUnits="userSpaceOnUse" color-interpolation-filters="sRGB">
<feFlood flood-opacity="0" result="BackgroundImageFix"/>
<feBlend mode="normal" in="SourceGraphic" in2="BackgroundImageFix" result="shape"/>
<feGaussianBlur stdDeviation="1" result="effect1_foregroundBlur_5003_48823"/>
</filter>
<filter id="filter1_f_5003_48823" x="0" y="120.832" width="94" height="95" filterUnits="userSpaceOnUse" color-interpolation-filters="sRGB">
<feFlood flood-opacity="0" result="BackgroundImageFix"/>
<feBlend mode="normal" in="SourceGraphic" in2="BackgroundImageFix" result="shape"/>
<feGaussianBlur stdDeviation="1" result="effect1_foregroundBlur_5003_48823"/>
</filter>
<clipPath id="clip0_5003_48823">
<rect width="119.935" height="73.2978" rx="4" transform="matrix(0.978548 -0.206017 0.208809 0.977956 147.863 70.7539)" fill="white"/>
</clipPath>
</defs>
</svg>
