<svg width="512" height="512" viewBox="0 0 512 512" fill="none" xmlns="http://www.w3.org/2000/svg">
<mask id="mask0_18512_123757" style="mask-type:alpha" maskUnits="userSpaceOnUse" x="0" y="0" width="512" height="512">
<rect width="512" height="512" fill="#D9D9D9"/>
</mask>
<g mask="url(#mask0_18512_123757)">
<path d="M384.137 91.8965C385.71 91.6145 386.179 93.0006 386.886 93.9638C393.392 102.914 399.031 112.452 403.728 122.46C405.539 126.172 403.117 126.783 400.84 127.863C372.861 141.184 345.491 155.678 318.781 171.395C256.126 208.348 197.16 251.223 142.681 299.405C138.993 302.671 137.372 302.389 134.295 298.841C125.109 288.317 117.168 276.782 110.614 264.448C109.158 261.63 109.392 260.196 111.953 258.271C189.736 199.468 270.434 145.318 358.74 103.314C366.259 99.7429 373.894 96.407 381.482 92.9772C382.328 92.5777 383.197 92.2724 384.112 91.8965H384.137Z" fill="white"/>
<path d="M418.542 184.133C419.741 187.775 417.227 189.912 413.07 191.909C334.041 229.615 262.906 279.277 195.905 335.166C191.7 338.667 188.811 339.019 184.183 336.529C175.397 331.829 166.892 326.661 158.694 320.999C154.888 318.369 155.569 316.959 158.6 314.352C187.542 289.332 217.377 265.417 248.552 243.217C298.944 207.132 352.342 175.465 408.16 148.542C411.942 146.733 412.999 147.72 413.797 151.267C416.288 162.074 417.886 173.068 418.542 184.157V184.133Z" fill="white"/>
<path d="M416.054 215.031C403.273 312.525 301.786 372.688 216.016 347.506C240.917 319.761 374.823 230.984 416.054 215.031Z" fill="white"/>
<path d="M258.988 29C297.068 29.6108 333.786 43.8472 365.102 72.0851C368.579 75.2096 368.532 76.666 364.116 78.6395C290.889 111.2 223.184 153.251 157.829 199.273C140.092 211.771 122.707 224.833 105.206 237.636C99.5205 241.794 99.544 241.819 97.7116 235.311C76.8739 159.759 112.794 80.0726 183.2 45.6326C205.871 34.5912 229.786 29.094 258.988 29.0235V29Z" fill="white"/>
<path d="M427.463 177.033L474.024 174.66C463.782 182.154 454.598 188.85 444.683 196.085C444.895 188.356 441.3 191.387 438.316 192.867C381.513 220.752 328.514 254.77 277.675 292.31C254.77 309.225 232.264 326.657 211.779 346.506C207.927 350.101 204.591 354.19 201.819 358.676C197.12 366.616 199.587 371.526 208.608 372.537C209.665 372.655 210.84 372.42 211.873 374.016C204.309 378.198 196.345 381.558 188.099 384.071C180.582 386.68 172.759 388.324 164.818 388.935C161.694 389.145 158.311 389.029 156.643 385.905C154.998 382.85 157.301 380.36 159.016 378.105C169.235 364.713 182.226 354.167 195.335 343.876C259.445 294.002 326.893 248.591 397.252 208.019C410.408 200.361 423.752 193.078 437.424 186.336C438.833 185.631 441.136 185.255 441.09 183.517C441.019 181.52 438.575 181.356 437.001 180.698C434.23 179.594 431.41 178.56 427.417 177.009L427.463 177.033Z" fill="white"/>
<path d="M408.428 114.577C426.869 113.66 444.488 112.768 462.108 111.875C462.249 112.204 462.389 112.556 462.508 112.885L429.853 136.754C427.738 130.504 427.738 130.528 421.724 133.441C353.033 166.847 289.415 208.429 228.241 253.911C202.775 272.846 177.732 292.32 155.203 314.755C150.951 318.725 147.309 323.306 144.396 328.334C139.463 337.472 142.94 343.393 153.464 343.862C155.062 343.933 156.659 343.862 159.784 343.862C149.259 349.947 138.03 354.74 126.354 358.122C117.638 361.223 108.453 362.773 99.197 362.727C96.4718 362.609 93.4178 362.773 91.9143 360.049C90.2463 356.972 91.6559 354.058 93.5118 351.451C102.204 339.21 113.48 329.414 124.945 319.994C187.904 268.194 255.703 223.206 324.771 180.144C356.086 160.175 388.412 141.804 421.584 125.078C422.993 124.373 425.201 124.044 425.224 122.235C425.224 120.309 422.993 120.309 421.536 119.745C417.424 118.101 413.267 116.479 408.451 114.577H408.428Z" fill="white"/>
<path d="M403.12 41.9844H466.292C452.69 51.1699 440.026 59.7211 427.577 68.1314C426.166 67.779 426.285 66.9333 426.355 66.2754C426.895 61.6006 425.226 61.0837 421.162 62.8691C391.938 75.7196 363.348 89.7915 335.369 105.109C273.02 139.219 213.114 177.606 156.074 219.987C138.761 232.814 121.658 246.039 106.576 261.591C103.357 264.786 100.632 268.451 98.4946 272.469C94.3598 280.502 96.7795 285.648 105.378 287.973C108.643 288.703 112.003 289.078 115.339 289.055C109.395 292.789 102.981 295.703 96.2627 297.747C80.7108 303.219 64.9943 308.2 48.1973 307.731C46.0125 307.848 43.8512 307.496 41.8308 306.697C38.307 304.959 37.0854 302.563 38.7063 298.756C41.126 293.071 45.4486 288.936 49.7243 284.756C71.1258 263.941 95.2761 246.532 119.779 229.713C201.838 173.072 287.256 121.506 375.564 75.2496C389.378 68.0374 403.403 61.2482 417.686 55.0227C419.612 54.177 422.855 53.7775 422.878 51.7338C422.901 49.0791 419.447 49.032 417.428 48.0688C413.2 46.0955 408.853 44.4041 403.168 41.9844H403.12Z" fill="white"/>
<path d="M136.292 453.513C134.796 453.513 133.535 453.226 132.509 452.652C131.5 452.078 130.666 451.357 130.005 450.487C129.639 450.957 129.248 451.383 128.831 451.765C128.413 452.13 127.918 452.443 127.344 452.704C126.787 452.983 126.126 453.191 125.361 453.33C124.613 453.47 123.718 453.539 122.674 453.539C121.944 453.539 121.274 453.487 120.666 453.383C120.057 453.278 119.5 453.148 118.996 452.991C118.979 455.026 118.666 456.878 118.057 458.548C117.466 460.217 116.648 461.713 115.605 463.035C114.579 464.357 113.37 465.504 111.979 466.478C110.587 467.452 109.092 468.252 107.492 468.878C105.892 469.522 104.213 470 102.457 470.313C100.718 470.626 98.9873 470.783 97.2656 470.783C94.6047 470.783 92.1438 470.339 89.883 469.452C87.6221 468.583 85.6656 467.348 84.0134 465.748C82.3786 464.165 81.1004 462.252 80.1786 460.009C79.2569 457.783 78.796 455.322 78.796 452.626C78.8482 451.061 79.0569 449.461 79.4221 447.826C79.8047 446.191 80.283 444.591 80.8569 443.026C81.4482 441.461 82.1004 439.974 82.8134 438.565C83.5438 437.139 84.283 435.861 85.0308 434.73L90.7177 439.087C90.0917 440.113 89.4917 441.2 88.9177 442.348C88.3438 443.496 87.8395 444.661 87.4047 445.843C86.9873 447.009 86.6482 448.183 86.3873 449.365C86.1264 450.548 85.996 451.687 85.996 452.783C85.9438 454.104 86.196 455.348 86.7525 456.513C87.3264 457.696 88.1177 458.722 89.1264 459.591C90.1525 460.478 91.3525 461.174 92.7264 461.678C94.1004 462.2 95.5786 462.461 97.1612 462.461C98.3612 462.461 99.5525 462.374 100.735 462.2C101.935 462.043 103.074 461.774 104.153 461.391C105.248 461.026 106.266 460.548 107.205 459.957C108.144 459.383 108.953 458.678 109.631 457.843C110.326 457.009 110.866 456.035 111.248 454.922C111.648 453.826 111.848 452.574 111.848 451.165C111.848 450.122 111.692 449.035 111.379 447.904C111.066 446.757 110.648 445.591 110.126 444.409C109.622 443.209 109.039 441.991 108.379 440.757C107.735 439.522 107.066 438.287 106.37 437.052L113.596 433.191C114.222 434.687 114.874 436.157 115.553 437.6C116.231 439.043 116.935 440.339 117.666 441.487C118.396 442.617 119.153 443.53 119.935 444.226C120.718 444.904 121.526 445.226 122.361 445.191C123.057 445.174 123.605 444.983 124.005 444.617C124.422 444.252 124.744 443.774 124.97 443.183C125.196 442.591 125.344 441.913 125.413 441.148C125.483 440.383 125.518 439.583 125.518 438.748L125.361 434.235L132.77 433.217C132.77 433.704 132.787 434.348 132.822 435.148C132.874 435.93 132.953 436.774 133.057 437.678C133.179 438.583 133.335 439.496 133.526 440.417C133.735 441.339 133.996 442.174 134.309 442.922C134.622 443.652 134.996 444.252 135.431 444.722C135.866 445.191 136.379 445.426 136.97 445.426C137.544 445.426 138.048 445.165 138.483 444.643C138.935 444.104 139.309 443.417 139.605 442.583C139.918 441.748 140.144 440.826 140.283 439.817C140.439 438.791 140.518 437.791 140.518 436.817C140.518 436.435 140.509 436.165 140.492 436.009C140.492 435.835 140.492 435.687 140.492 435.565C140.492 435.426 140.483 435.27 140.466 435.096C140.466 434.904 140.466 434.6 140.466 434.183L147.535 433.165C147.605 434.122 147.666 434.904 147.718 435.513C147.77 436.122 147.822 436.678 147.874 437.183C147.926 437.67 147.987 438.174 148.057 438.696C148.144 439.2 148.257 439.835 148.396 440.6C148.553 441.4 148.787 442.096 149.1 442.687C149.413 443.278 149.787 443.774 150.222 444.174C150.657 444.557 151.135 444.843 151.657 445.035C152.179 445.226 152.718 445.322 153.274 445.322H154.057V453.565L153.535 453.591C151.587 453.591 149.874 453.278 148.396 452.652C146.918 452.043 145.657 451.061 144.613 449.704C143.674 450.904 142.5 451.835 141.092 452.496C139.683 453.174 138.083 453.513 136.292 453.513ZM128.622 423.122L123.718 428.026L118.657 422.991L123.666 417.957L128.622 422.913L133.526 418.009L138.587 423.043L133.579 428.078L128.622 423.122ZM133.292 415.504L128.648 420.148L123.979 415.478L128.622 410.835L133.292 415.504ZM153.521 445.322C154.826 445.322 155.921 444.974 156.808 444.278C157.713 443.565 158.478 442.635 159.104 441.487C159.748 440.339 160.287 439.035 160.721 437.574C161.174 436.096 161.6 434.591 162 433.061L168.939 434.313C168.8 434.922 168.626 435.635 168.417 436.452C168.226 437.252 168.043 438.087 167.869 438.957C167.713 439.826 167.582 440.678 167.478 441.513C167.374 442.33 167.348 443.052 167.4 443.678C167.469 444.304 167.635 444.8 167.895 445.165C168.156 445.513 168.556 445.643 169.095 445.557C169.791 445.504 170.417 445.261 170.974 444.826C171.548 444.391 172.061 443.835 172.513 443.157C172.965 442.478 173.365 441.713 173.713 440.861C174.061 440.009 174.356 439.13 174.6 438.226C174.861 437.322 175.069 436.426 175.226 435.539C175.4 434.652 175.539 433.843 175.643 433.113L182.269 434.235C182.252 434.757 182.191 435.4 182.087 436.165C181.982 436.93 181.887 437.739 181.8 438.591C181.713 439.426 181.669 440.27 181.669 441.122C181.669 441.957 181.765 442.713 181.956 443.391C182.148 444.052 182.461 444.591 182.895 445.009C183.348 445.426 183.974 445.635 184.774 445.635C185.261 445.635 185.756 445.557 186.261 445.4C186.765 445.226 187.217 444.991 187.617 444.696C188.017 444.383 188.339 444.017 188.582 443.6C188.843 443.183 188.974 442.713 188.974 442.191C188.974 441.287 188.826 440.296 188.53 439.217C188.235 438.122 187.869 437.043 187.435 435.983C187.017 434.904 186.582 433.887 186.13 432.93C185.678 431.974 185.295 431.165 184.982 430.504L191.452 426.878L192 428.078C192.261 428.635 192.556 429.313 192.887 430.113C193.217 430.913 193.556 431.817 193.904 432.826C194.269 433.817 194.6 434.852 194.895 435.93C195.191 437.009 195.435 438.113 195.626 439.243C195.817 440.374 195.913 441.47 195.913 442.53C195.913 444.27 195.669 445.835 195.182 447.226C194.713 448.617 193.991 449.8 193.017 450.774C192.061 451.748 190.852 452.504 189.391 453.043C187.948 453.583 186.252 453.861 184.304 453.878C183.365 453.878 182.513 453.783 181.748 453.591C180.982 453.417 180.287 453.174 179.661 452.861C179.052 452.548 178.513 452.174 178.043 451.739C177.574 451.304 177.156 450.835 176.791 450.33C176.374 450.87 175.921 451.357 175.435 451.791C174.965 452.209 174.417 452.565 173.791 452.861C173.182 453.174 172.495 453.417 171.73 453.591C170.965 453.765 170.095 453.861 169.121 453.878C168.269 453.896 167.495 453.817 166.8 453.643C166.121 453.487 165.495 453.252 164.921 452.939C164.348 452.626 163.826 452.252 163.356 451.817C162.904 451.365 162.478 450.87 162.078 450.33C161.713 450.783 161.295 451.209 160.826 451.609C160.356 451.991 159.8 452.33 159.156 452.626C158.513 452.922 157.765 453.148 156.913 453.304C156.061 453.478 155.069 453.565 153.939 453.565H153V445.322H153.521ZM177.469 420.696L172.565 425.6L167.504 420.565L172.513 415.53L177.469 420.487L182.374 415.583L187.435 420.617L182.426 425.652L177.469 420.696ZM182.139 413.078L177.495 417.722L172.826 413.052L177.469 408.409L182.139 413.078ZM197.494 463.922C199.946 463.435 202.181 462.817 204.198 462.07C206.216 461.339 207.981 460.513 209.494 459.591C211.025 458.687 212.285 457.722 213.277 456.696C214.285 455.67 214.998 454.626 215.416 453.565C214.668 453.565 213.877 453.548 213.042 453.513C212.207 453.496 211.52 453.47 210.981 453.435C209.259 453.296 207.694 452.965 206.285 452.443C204.877 451.939 203.659 451.243 202.633 450.357C201.625 449.452 200.842 448.357 200.285 447.07C199.729 445.783 199.451 444.304 199.451 442.635C199.451 441.574 199.564 440.487 199.79 439.374C200.016 438.261 200.338 437.174 200.755 436.113C201.19 435.052 201.72 434.052 202.346 433.113C202.99 432.174 203.711 431.348 204.511 430.635C205.311 429.922 206.19 429.365 207.146 428.965C208.12 428.548 209.164 428.339 210.277 428.339C211.598 428.339 212.816 428.583 213.929 429.07C215.042 429.539 216.059 430.183 216.981 431C217.92 431.817 218.746 432.783 219.459 433.896C220.19 434.991 220.816 436.174 221.338 437.443C221.877 438.696 222.311 440 222.642 441.357C222.99 442.696 223.233 444.017 223.372 445.322H224.494V453.565H222.825C222.146 456.122 221.059 458.435 219.564 460.504C218.085 462.591 216.311 464.409 214.242 465.957C212.172 467.504 209.868 468.783 207.329 469.791C204.807 470.8 202.172 471.513 199.425 471.93L197.494 463.922ZM210.277 436.609C209.911 436.539 209.494 436.67 209.025 437C208.555 437.313 208.12 437.748 207.72 438.304C207.32 438.843 206.981 439.443 206.703 440.104C206.425 440.765 206.294 441.4 206.311 442.009C206.329 442.6 206.52 443.087 206.885 443.47C207.251 443.852 207.72 444.174 208.294 444.435C208.868 444.678 209.511 444.861 210.225 444.983C210.955 445.104 211.677 445.191 212.39 445.243C213.103 445.296 213.772 445.322 214.398 445.322H216.016C215.755 444.243 215.442 443.209 215.077 442.217C214.729 441.226 214.32 440.339 213.851 439.557C213.381 438.774 212.851 438.122 212.259 437.6C211.668 437.078 211.007 436.748 210.277 436.609ZM223.429 445.322H229.69C230.438 445.322 231.264 445.287 232.169 445.217C233.073 445.13 233.916 444.965 234.699 444.722C235.499 444.478 236.16 444.122 236.682 443.652C237.221 443.165 237.49 442.53 237.49 441.748C237.49 441.33 237.36 440.713 237.099 439.896C236.856 439.061 236.525 438.139 236.108 437.13C235.708 436.104 235.247 435.035 234.725 433.922C234.221 432.809 233.716 431.748 233.212 430.739L240.673 427.035C241.16 428.13 241.638 429.296 242.108 430.53C242.595 431.765 243.029 433.017 243.412 434.287C243.795 435.557 244.099 436.826 244.325 438.096C244.569 439.348 244.69 440.548 244.69 441.696C244.69 443.852 244.29 445.687 243.49 447.2C242.708 448.696 241.638 449.922 240.282 450.878C238.925 451.817 237.334 452.496 235.508 452.913C233.682 453.348 231.725 453.565 229.638 453.565H223.429V445.322ZM233.942 462.148L238.847 457.243L243.908 462.278L238.899 467.313L233.942 462.357L229.038 467.261L223.977 462.226L228.986 457.191L233.942 462.148ZM229.273 469.765L233.916 465.122L238.586 469.791L233.942 474.435L229.273 469.765ZM285.297 471.539C282.305 471.539 279.584 471.157 277.131 470.391C274.679 469.626 272.575 468.478 270.818 466.948C269.079 465.435 267.723 463.539 266.749 461.261C265.792 459 265.314 456.365 265.314 453.357C265.314 450.47 265.766 447.591 266.67 444.722C267.592 441.852 268.949 439.043 270.74 436.296L276.61 440.522C276.262 440.991 275.853 441.696 275.384 442.635C274.914 443.574 274.462 444.643 274.027 445.843C273.592 447.043 273.227 448.322 272.931 449.678C272.636 451.017 272.488 452.313 272.488 453.565C272.488 455.009 272.81 456.313 273.453 457.478C274.114 458.643 274.984 459.643 276.062 460.478C277.157 461.313 278.41 461.965 279.818 462.435C281.244 462.904 282.723 463.157 284.253 463.191C286.097 463.226 287.87 462.983 289.575 462.461C291.279 461.957 292.766 461.235 294.036 460.296C295.323 459.374 296.331 458.27 297.062 456.983C297.792 455.713 298.123 454.33 298.053 452.835C298.018 452.087 297.879 451.243 297.636 450.304C297.392 449.365 297.097 448.409 296.749 447.435C296.418 446.443 296.044 445.47 295.627 444.513C295.227 443.539 294.844 442.652 294.479 441.852C294.131 441.052 293.827 440.365 293.566 439.791C293.305 439.217 293.14 438.826 293.071 438.617L300.166 434.678C300.236 434.748 300.41 435.087 300.688 435.696C300.966 436.304 301.288 437.096 301.653 438.07C302.036 439.026 302.436 440.122 302.853 441.357C303.288 442.591 303.679 443.87 304.027 445.191C304.375 446.513 304.662 447.826 304.888 449.13C305.131 450.435 305.253 451.635 305.253 452.73C305.253 454.278 305.079 455.817 304.731 457.348C304.384 458.878 303.844 460.339 303.114 461.73C302.401 463.139 301.497 464.435 300.401 465.617C299.323 466.817 298.044 467.852 296.566 468.722C295.088 469.609 293.41 470.296 291.531 470.783C289.653 471.287 287.575 471.539 285.297 471.539ZM285.479 440.157L279.688 434.365L285.479 428.574L291.271 434.365L285.479 440.157ZM322.404 453.565C320.23 453.565 318.386 453.27 316.873 452.678C315.36 452.104 314.125 451.304 313.169 450.278C312.212 449.252 311.517 448.043 311.082 446.652C310.664 445.243 310.456 443.722 310.456 442.087C310.456 441.252 310.473 440.217 310.508 438.983C310.543 437.73 310.56 436.287 310.56 434.652C310.56 433.017 310.551 431.226 310.534 429.278C310.517 427.313 310.464 425.348 310.377 423.383C310.308 421.417 310.195 419.53 310.038 417.722C309.899 415.913 309.699 414.339 309.438 413L317.238 410.626C317.464 411.774 317.647 413.13 317.786 414.696C317.943 416.243 318.064 417.87 318.151 419.574C318.238 421.278 318.299 422.991 318.334 424.713C318.386 426.435 318.421 428.035 318.438 429.513C318.456 430.817 318.43 432.191 318.36 433.635C318.308 435.061 318.264 436.435 318.23 437.757C318.195 439.061 318.204 440.243 318.256 441.304C318.325 442.365 318.491 443.174 318.751 443.73C318.908 444.13 319.099 444.435 319.325 444.643C319.569 444.852 319.847 445.009 320.16 445.113C320.473 445.217 320.812 445.278 321.177 445.296C321.56 445.313 321.977 445.322 322.43 445.322H323.134V453.565H322.404ZM345.371 445.322V453.565H344.771C343.936 453.565 343.11 453.496 342.293 453.357C341.493 453.217 340.736 453.017 340.023 452.757C339.31 452.513 338.649 452.217 338.04 451.87C337.449 451.522 336.936 451.148 336.501 450.748C335.684 451.374 334.745 451.87 333.684 452.235C332.64 452.6 331.527 452.878 330.345 453.07C329.18 453.278 327.971 453.409 326.719 453.461C325.484 453.53 324.267 453.565 323.067 453.565H322.101V445.322H323.067C324.319 445.322 325.432 445.287 326.406 445.217C327.397 445.148 328.258 445.026 328.988 444.852C329.736 444.678 330.362 444.452 330.867 444.174C331.371 443.878 331.78 443.513 332.093 443.078C332.493 442.522 332.736 441.904 332.823 441.226C332.927 440.548 332.936 439.852 332.849 439.139C332.78 438.409 332.649 437.687 332.458 436.974C332.267 436.243 332.093 435.548 331.936 434.887L339.527 432.722C339.736 433.504 339.91 434.217 340.049 434.861C340.206 435.504 340.336 436.13 340.44 436.739C340.562 437.348 340.667 437.965 340.753 438.591C340.84 439.217 340.936 439.896 341.04 440.626C341.11 441.096 341.197 441.609 341.301 442.165C341.423 442.704 341.614 443.209 341.875 443.678C342.136 444.148 342.493 444.539 342.945 444.852C343.414 445.165 344.023 445.322 344.771 445.322H345.371ZM332.275 461.209L327.371 466.113L322.31 461.078L327.319 456.043L332.275 461L337.18 456.096L342.24 461.13L337.232 466.165L332.275 461.209ZM344.308 445.322H347.83C348.561 445.322 349.361 445.261 350.23 445.139C351.117 445.017 351.934 444.826 352.682 444.565C353.447 444.287 354.082 443.922 354.587 443.47C355.108 443 355.369 442.426 355.369 441.748C355.369 441.33 355.247 440.713 355.004 439.896C354.761 439.061 354.439 438.139 354.039 437.13C353.639 436.104 353.187 435.035 352.682 433.922C352.178 432.809 351.674 431.748 351.169 430.739L358.63 427.035C359.117 428.13 359.595 429.296 360.065 430.53C360.552 431.765 360.987 433.017 361.369 434.287C361.752 435.557 362.056 436.826 362.282 438.096C362.526 439.348 362.647 440.548 362.647 441.696C362.647 443.783 362.3 445.574 361.604 447.07C360.908 448.565 359.934 449.8 358.682 450.774C357.43 451.73 355.934 452.435 354.195 452.887C352.456 453.339 350.543 453.565 348.456 453.565H344.308V445.322ZM352.63 424.296L346.839 418.504L352.63 412.713L358.421 418.504L352.63 424.296ZM367.428 453.643C367.515 452.217 367.602 450.739 367.689 449.209C367.776 447.678 367.845 446.165 367.897 444.67C367.967 443.174 368.01 441.722 368.028 440.313C368.045 438.904 368.028 437.609 367.976 436.426C367.871 433.957 367.767 431.791 367.662 429.93C367.576 428.052 367.48 426.391 367.376 424.948C367.289 423.504 367.193 422.243 367.089 421.165C367.002 420.07 366.906 419.07 366.802 418.165C366.697 417.261 366.584 416.417 366.462 415.635C366.341 414.835 366.21 414.009 366.071 413.157L374.132 410.496C374.515 412.826 374.819 415.174 375.045 417.539C375.289 419.904 375.471 422.174 375.593 424.348C375.715 426.504 375.793 428.513 375.828 430.374C375.88 432.235 375.906 433.826 375.906 435.148C375.906 436.348 375.897 437.643 375.88 439.035C375.88 440.426 375.862 441.87 375.828 443.365C375.81 444.861 375.776 446.374 375.723 447.904C375.671 449.435 375.593 450.93 375.489 452.391L367.428 453.643ZM398.988 453.565C398.606 453.565 398.101 453.539 397.475 453.487C396.849 453.435 396.136 453.243 395.336 452.913C394.953 455.07 394.232 457.113 393.171 459.043C392.127 460.991 390.832 462.809 389.284 464.496C387.736 466.2 385.971 467.765 383.988 469.191C382.006 470.617 379.892 471.896 377.649 473.026L372.875 466.426C374.11 465.8 375.353 465.113 376.606 464.365C377.858 463.635 379.049 462.852 380.179 462.017C381.327 461.2 382.388 460.339 383.362 459.435C384.353 458.548 385.214 457.626 385.945 456.67C386.675 455.713 387.249 454.73 387.666 453.722C388.084 452.73 388.292 451.722 388.292 450.696C388.292 450.017 388.162 449.157 387.901 448.113C387.64 447.07 387.31 445.948 386.91 444.748C386.51 443.548 386.066 442.339 385.579 441.122C385.092 439.904 384.623 438.791 384.171 437.783L391.71 434.496C392.406 436.583 393.066 438.322 393.692 439.713C394.336 441.104 394.953 442.217 395.545 443.052C396.136 443.887 396.701 444.478 397.24 444.826C397.797 445.157 398.345 445.322 398.884 445.322H399.51V453.565H398.988ZM398.449 445.322H404.71C405.458 445.322 406.284 445.287 407.188 445.217C408.092 445.13 408.936 444.965 409.719 444.722C410.519 444.478 411.179 444.122 411.701 443.652C412.24 443.165 412.51 442.53 412.51 441.748C412.51 441.33 412.379 440.713 412.119 439.896C411.875 439.061 411.545 438.139 411.127 437.13C410.727 436.104 410.266 435.035 409.745 433.922C409.24 432.809 408.736 431.748 408.232 430.739L415.692 427.035C416.179 428.13 416.658 429.296 417.127 430.53C417.614 431.765 418.049 433.017 418.432 434.287C418.814 435.557 419.119 436.826 419.345 438.096C419.588 439.348 419.71 440.548 419.71 441.696C419.71 443.852 419.31 445.687 418.51 447.2C417.727 448.696 416.658 449.922 415.301 450.878C413.945 451.817 412.353 452.496 410.527 452.913C408.701 453.348 406.745 453.565 404.658 453.565H398.449V445.322ZM408.623 461.209L403.719 466.113L398.658 461.078L403.666 456.043L408.623 461L413.527 456.096L418.588 461.13L413.579 466.165L408.623 461.209ZM424.557 453.643C424.644 452.217 424.731 450.739 424.817 449.209C424.904 447.678 424.974 446.165 425.026 444.67C425.096 443.174 425.139 441.722 425.157 440.313C425.174 438.904 425.157 437.609 425.104 436.426C425 433.957 424.896 431.791 424.791 429.93C424.704 428.052 424.609 426.391 424.504 424.948C424.417 423.504 424.322 422.243 424.217 421.165C424.131 420.07 424.035 419.07 423.931 418.165C423.826 417.261 423.713 416.417 423.591 415.635C423.47 414.835 423.339 414.009 423.2 413.157L431.261 410.496C431.644 412.826 431.948 415.174 432.174 417.539C432.417 419.904 432.6 422.174 432.722 424.348C432.844 426.504 432.922 428.513 432.957 430.374C433.009 432.235 433.035 433.826 433.035 435.148C433.035 436.348 433.026 437.643 433.009 439.035C433.009 440.426 432.991 441.87 432.957 443.365C432.939 444.861 432.904 446.374 432.852 447.904C432.8 449.435 432.722 450.93 432.617 452.391L424.557 453.643Z" fill="white"/>
</g>
</svg>
