<svg width="25" height="24" viewBox="0 0 25 24" fill="none" xmlns="http://www.w3.org/2000/svg">
<path d="M5.89752 10C4.80286 10 3.90723 10.9 3.90723 12C3.90723 13.1 4.80286 14 5.89752 14C6.99218 14 7.88781 13.1 7.88781 12C7.88781 10.9 6.99218 10 5.89752 10Z" fill="#0165E1" stroke="#0165E1" stroke-width="1.5"/>
<path d="M19.8292 10C18.7345 10 17.8389 10.9 17.8389 12C17.8389 13.1 18.7345 14 19.8292 14C20.9238 14 21.8194 13.1 21.8194 12C21.8194 10.9 20.9238 10 19.8292 10Z" fill="#0165E1" stroke="#0165E1" stroke-width="1.5"/>
<path d="M12.8633 10C11.7687 10 10.873 10.9 10.873 12C10.873 13.1 11.7687 14 12.8633 14C13.958 14 14.8536 13.1 14.8536 12C14.8536 10.9 13.958 10 12.8633 10Z" fill="#0165E1" stroke="#0165E1" stroke-width="1.5"/>
</svg>
