<svg width="307" height="202" viewBox="0 0 307 202" fill="none" xmlns="http://www.w3.org/2000/svg">
<g filter="url(#filter0_f_4484_153582)">
<path d="M298.183 93.7988C298.183 143.562 257.1 183.934 206.385 183.934C155.669 183.934 114.587 143.562 114.587 93.7988C114.587 44.0358 155.669 3.66406 206.385 3.66406C257.1 3.66406 298.183 44.0358 298.183 93.7988Z" stroke="#EAF3FE" stroke-width="2"/>
</g>
<g filter="url(#filter1_f_4484_153582)">
<path d="M284.213 154.667C284.213 164.969 276.008 173.291 265.922 173.291C255.836 173.291 247.631 164.969 247.631 154.667C247.631 144.365 255.836 136.043 265.922 136.043C276.008 136.043 284.213 144.365 284.213 154.667Z" stroke="#FFEEC2" stroke-width="2"/>
</g>
<path d="M31.5826 128.505C26.1059 128.505 21.625 124.024 21.625 118.547V35.899C21.625 30.4223 26.1059 25.9414 31.5826 25.9414H171.985C177.461 25.9414 181.942 30.4223 181.942 35.899V118.547C181.942 124.024 177.461 128.505 171.985 128.505H31.5826Z" fill="#0165E1"/>
<path d="M178.623 34.2394V116.887C178.623 121.368 174.972 125.185 170.325 125.185H29.923C25.2761 125.185 21.625 121.534 21.625 116.887V34.2394C21.625 29.7585 25.2761 25.9414 29.923 25.9414H170.325C174.972 25.9414 178.623 29.7585 178.623 34.2394Z" fill="#E6F0FC" stroke="#0165E1" stroke-width="0.25" stroke-miterlimit="10"/>
<path d="M56.3106 25.9414L21.625 60.6271V32.2479C21.625 28.7627 24.4463 26.1074 27.7655 26.1074H56.3106V25.9414Z" fill="#0165E1"/>
<path d="M158.542 50.1702C163.125 50.1702 166.84 46.4551 166.84 41.8722C166.84 37.2894 163.125 33.5742 158.542 33.5742C153.959 33.5742 150.244 37.2894 150.244 41.8722C150.244 46.4551 153.959 50.1702 158.542 50.1702Z" fill="#0165E1"/>
<path d="M168.501 94.3182H148.752C146.926 94.3182 145.433 92.8246 145.433 90.999V62.288C145.433 60.4624 146.926 58.9688 148.752 58.9688H168.501C170.327 58.9688 171.82 60.4624 171.82 62.288V90.999C171.82 92.8246 170.327 94.3182 168.501 94.3182Z" fill="#CCE0F9"/>
<path opacity="0.4" d="M82.3663 40.213H117.882C119.541 40.213 120.703 38.8853 120.703 37.3916C120.703 35.732 119.375 34.5703 117.882 34.5703H82.3663C80.7066 34.5703 79.5449 35.898 79.5449 37.3916C79.5449 38.8853 80.7066 40.213 82.3663 40.213Z" fill="#4E94EA"/>
<path d="M51.8287 78.3856H41.7052C37.0583 78.3856 33.2412 74.5686 33.2412 69.9217V66.1046C33.2412 61.4577 37.0583 57.6406 41.7052 57.6406H51.8287C56.4756 57.6406 60.2927 61.4577 60.2927 66.1046V69.9217C60.2927 74.5686 56.4756 78.3856 51.8287 78.3856Z" fill="#0165E1"/>
<mask id="mask0_4484_153582" style="mask-type:luminance" maskUnits="userSpaceOnUse" x="33" y="57" width="28" height="22">
<path d="M51.9957 78.3856H41.5402C36.8933 78.3856 33.2422 74.7345 33.2422 70.0876V65.9386C33.2422 61.2917 36.8933 57.6406 41.5402 57.6406H51.9957C56.6426 57.6406 60.2937 61.2917 60.2937 65.9386V70.0876C60.2937 74.5685 56.4766 78.3856 51.9957 78.3856Z" fill="white"/>
</mask>
<g mask="url(#mask0_4484_153582)">
<path d="M40.0459 57.4766H40.8757V78.2216H40.0459V57.4766Z" fill="#CCE0F9"/>
<path d="M33.2422 73.5741H60.2937V74.4039H33.2422V73.5741ZM33.2422 61.625H60.2937V62.4548H33.2422V61.625ZM33.2422 65.608H40.5444V66.4378H33.2422V65.608ZM33.2422 69.5911H40.5444V70.4209H33.2422V69.5911Z" fill="#CCE0F9"/>
<path d="M53.656 73.9075H52.9922V65.9414H60.2944V66.7712H53.656V73.9075Z" fill="#CCE0F9"/>
<path d="M53.3252 69.7576H60.1296V70.5874H53.3252V69.7576ZM45.0272 57.4766H45.857V61.9575H45.0272V57.4766ZM49.5082 57.4766H50.338V61.9575H49.5082V57.4766ZM53.9891 57.4766H54.8189V61.9575H53.9891V57.4766ZM44.6953 73.9066H45.5251V78.2216H44.6953V73.9066ZM49.3422 73.9066H50.172V78.2216H49.3422V73.9066ZM52.9933 73.9066H53.8231V78.2216H52.9933V73.9066Z" fill="#CCE0F9"/>
</g>
<path d="M30.4206 71.744L26.6035 68.0928V67.9269L30.4206 64.2758C30.5866 64.1098 30.7525 64.2758 30.7525 64.4417V71.9099C30.7525 71.744 30.5866 71.9099 30.4206 71.744Z" fill="#0165E1"/>
<path d="M76.2271 115.392H36.2308C33.4094 115.392 31.252 113.235 31.252 110.414V107.924C31.252 105.103 33.4094 102.945 36.2308 102.945H76.2271C79.0484 102.945 81.2059 105.103 81.2059 107.924V110.414C81.2059 113.069 79.0484 115.392 76.2271 115.392Z" fill="#CCE0F9"/>
<path d="M134.812 50.832H100.126M134.812 59.9598H88.3428M134.812 69.0876H100.126M134.812 78.2154H95.645M134.812 87.3432H90.8322M134.812 96.3051H104.773" stroke="#0165E1" stroke-miterlimit="10" stroke-linecap="round"/>
<path d="M79.2135 89.8346H33.4085C32.2468 89.8346 31.417 88.8388 31.417 87.8431C31.417 86.6814 32.4128 85.8516 33.4085 85.8516H79.2135C80.3752 85.8516 81.205 86.8473 81.205 87.8431C81.205 88.8388 80.3752 89.8346 79.2135 89.8346ZM54.1535 96.307H33.4085C32.2468 96.307 31.417 95.3113 31.417 94.3155C31.417 93.1538 32.4128 92.324 33.4085 92.324H54.1535C55.3152 92.324 56.145 93.3198 56.145 94.3155C56.311 95.4772 55.3152 96.307 54.1535 96.307Z" fill="#CCE0F9"/>
<path d="M153.228 201.342C236.843 201.342 304.626 196.615 304.626 190.784C304.626 184.953 236.843 180.227 153.228 180.227C69.6132 180.227 1.83008 184.953 1.83008 190.784C1.83008 196.615 69.6132 201.342 153.228 201.342Z" fill="#F0F0F0"/>
<g filter="url(#filter2_f_4484_153582)">
<ellipse cx="239.15" cy="185.592" rx="3.9913" ry="1.33044" fill="#A7A7A7"/>
</g>
<path d="M235.824 83.4883C235.824 81.8314 237.167 80.4883 238.824 80.4883H239.476C241.133 80.4883 242.476 81.8314 242.476 83.4883V183.258C242.476 184.915 241.133 186.258 239.476 186.258H238.824C237.167 186.258 235.824 184.915 235.824 183.258V83.4883Z" fill="#505050"/>
<path d="M236.849 81C236.849 80.7174 237.078 80.4883 237.36 80.4883C237.643 80.4883 237.872 80.7174 237.872 81V185.746C237.872 186.029 237.643 186.258 237.36 186.258C237.078 186.258 236.849 186.029 236.849 185.746V81Z" fill="#707070"/>
<ellipse cx="239.15" cy="78.4915" rx="26.6087" ry="26.6087" fill="white"/>
<path fill-rule="evenodd" clipRule="evenodd" d="M236.045 68.3891C236.045 68.3891 234.011 69.0913 232.699 69.5444C232.543 69.5982 232.37 69.5462 232.27 69.4154C232.169 69.2845 232.164 69.1042 232.256 68.9675C233.859 66.5984 237.967 60.5239 238.946 59.0772C238.993 59.007 239.072 58.965 239.157 58.9648C239.242 58.9648 239.321 59.007 239.369 59.0771C240.346 60.5213 244.446 66.5773 246.045 68.9388C246.138 69.0753 246.132 69.2555 246.032 69.3863C245.932 69.5172 245.76 69.5694 245.604 69.5161C244.314 69.074 242.331 68.3949 242.331 68.3949L242.27 97.9392L235.983 97.9277L236.045 68.3891Z" fill="#505050"/>
<path fill-rule="evenodd" clipRule="evenodd" d="M239.15 51.6797C253.947 51.6797 265.961 63.6933 265.961 78.4908C265.961 93.2882 253.947 105.302 239.15 105.302C224.352 105.302 212.339 93.2882 212.339 78.4908C212.339 63.6933 224.352 51.6797 239.15 51.6797ZM239.15 56.2515C251.424 56.2515 261.389 66.2166 261.389 78.4908C261.389 90.765 251.424 100.73 239.15 100.73C226.876 100.73 216.911 90.765 216.911 78.4908C216.911 66.2166 226.876 56.2515 239.15 56.2515Z" fill="#E14856"/>
<path fill-rule="evenodd" clipRule="evenodd" d="M221.267 59.6094L218.06 63.2745L257.033 97.3777L260.24 93.7126L221.267 59.6094Z" fill="#E14856"/>
<path d="M56.9406 177.012L98.6431 178.375H190.889L230.689 176.353V167.659L225.586 160.288L211.71 155.386L194.102 160.288L187.117 166.88L108.129 167.659L92.6561 156.383L80.5624 152.02L62.8344 156.603L58.5105 164.532L55.9561 172.515L56.9406 177.012Z" fill="#263238"/>
<path opacity="0.6" d="M56.9406 177.012L98.6431 178.375H190.889L230.689 176.353V167.659L225.586 160.288L211.71 155.386L194.102 160.288L187.117 166.88L108.129 167.659L92.6561 156.383L80.5624 152.02L62.8344 156.603L58.5105 164.532L55.9561 172.515L56.9406 177.012Z" fill="black"/>
<path d="M59.3689 170.418C60.8723 166.779 66.7661 160.725 70.3915 159.209C73.9172 157.732 82.2856 157.452 85.6915 159.209C89.2837 161.065 93.8271 168.522 95.0578 172.387C95.5101 173.81 95.3771 177.229 95.2307 179.484L193.683 180.522C193.477 177.788 193.337 174.016 193.982 172.44C195.472 168.808 201.38 162.754 205.005 161.238C208.531 159.754 216.899 159.481 220.305 161.238C223.897 163.087 228.447 170.551 229.678 174.416C229.975 175.888 230.073 177.394 229.971 178.892C230.726 178.337 231.398 177.676 231.966 176.93L232.891 175.679C234.127 174.016 234.794 171.998 234.793 169.925V166.712C234.793 164.941 234.307 163.205 233.39 161.69L231.022 157.798V131.349C231.023 130.048 230.76 128.761 230.25 127.564L220.791 105.326C220.07 103.632 218.881 102.18 217.363 101.139C215.846 100.099 214.062 99.5133 212.223 99.4522C202.065 99.1063 182.135 98.5076 174.039 98.787C162.265 99.1861 130.693 102.406 121.281 103.384C119.543 103.565 117.91 104.302 116.624 105.486L88.685 131.163L60.8723 143.263C59.7115 143.774 58.686 144.549 57.8775 145.526C57.0691 146.503 56.5 147.655 56.2158 148.891L53.5948 160.2L52.7234 161.337C51.4338 163.027 50.8539 165.154 51.1069 167.264L51.6457 171.668C51.9012 173.755 52.955 175.663 54.586 176.99L54.9319 177.269C56.129 178.247 57.581 178.861 59.1161 179.039C58.8766 176.298 58.6771 172.094 59.3689 170.418Z" fill="#4E94EA"/>
<path d="M76.7567 192.146C85.1148 192.146 91.8904 185.371 91.8904 177.013C91.8904 168.654 85.1148 161.879 76.7567 161.879C68.3986 161.879 61.623 168.654 61.623 177.013C61.623 185.371 68.3986 192.146 76.7567 192.146Z" fill="#263238"/>
<path opacity="0.5" d="M76.7576 187.556C82.5807 187.556 87.3013 182.836 87.3013 177.012C87.3013 171.189 82.5807 166.469 76.7576 166.469C70.9344 166.469 66.2139 171.189 66.2139 177.012C66.2139 182.836 70.9344 187.556 76.7576 187.556Z" fill="white"/>
<g opacity="0.5">
<path d="M72.8466 173.542L72.1148 171.346C72.0379 171.112 71.9009 170.901 71.7175 170.736C71.5341 170.57 71.3107 170.456 71.0693 170.403C70.828 170.351 70.5771 170.363 70.3416 170.437C70.1061 170.511 69.8941 170.646 69.7267 170.828C68.9042 171.758 68.2755 172.844 67.8774 174.021C67.8029 174.257 67.7914 174.509 67.844 174.751C67.8967 174.993 68.0117 175.218 68.1777 175.402C68.3437 175.586 68.5549 175.724 68.7904 175.801C69.026 175.878 69.2776 175.893 69.5205 175.843L71.7822 175.384C71.9797 175.345 72.1664 175.264 72.33 175.146C72.4936 175.029 72.6304 174.878 72.7311 174.704C72.8318 174.529 72.8942 174.336 72.9141 174.135C72.934 173.935 72.911 173.732 72.8466 173.542Z" fill="black"/>
<path d="M77.823 171.911L79.353 170.175C79.5182 169.992 79.6326 169.769 79.6848 169.528C79.737 169.287 79.7252 169.037 79.6505 168.802C79.5758 168.567 79.4408 168.356 79.2591 168.189C79.0773 168.023 78.8551 167.907 78.6146 167.853C77.3907 167.596 76.1266 167.596 74.9027 167.853C74.6633 167.909 74.4426 168.026 74.2624 168.193C74.0822 168.36 73.9489 168.572 73.8757 168.806C73.8024 169.041 73.7917 169.291 73.8447 169.531C73.8976 169.771 74.0124 169.993 74.1776 170.175L75.7143 171.911C75.8466 172.06 76.009 172.179 76.1907 172.261C76.3724 172.342 76.5694 172.385 76.7686 172.385C76.9679 172.385 77.1649 172.342 77.3466 172.261C77.5283 172.179 77.6907 172.06 77.823 171.911Z" fill="black"/>
<path d="M81.7002 175.365L83.9686 175.824C84.2114 175.874 84.4631 175.86 84.6987 175.783C84.9343 175.705 85.1454 175.568 85.311 175.383C85.4767 175.199 85.591 174.974 85.6426 174.731C85.6942 174.489 85.6813 174.237 85.6051 174.001C85.2098 172.825 84.5833 171.739 83.7624 170.808C83.595 170.626 83.383 170.492 83.1475 170.417C82.912 170.343 82.6612 170.331 82.4198 170.384C82.1785 170.436 81.955 170.551 81.7716 170.716C81.5882 170.882 81.4513 171.092 81.3743 171.327L80.6359 173.522C80.5726 173.713 80.5504 173.915 80.5708 174.115C80.5913 174.315 80.6538 174.508 80.7543 174.682C80.8549 174.857 80.9912 175.007 81.1542 175.125C81.3172 175.243 81.5033 175.324 81.7002 175.365Z" fill="black"/>
<path d="M80.6359 180.48L81.3743 182.675C81.4513 182.91 81.5882 183.12 81.7716 183.285C81.955 183.451 82.1785 183.566 82.4198 183.618C82.6612 183.67 82.912 183.659 83.1475 183.584C83.383 183.51 83.595 183.375 83.7624 183.194C84.5833 182.263 85.2098 181.177 85.6051 180.001C85.6813 179.765 85.6942 179.513 85.6426 179.27C85.591 179.028 85.4767 178.803 85.311 178.619C85.1454 178.434 84.9343 178.296 84.6987 178.219C84.4631 178.142 84.2114 178.128 83.9686 178.178L81.7002 178.637C81.5033 178.678 81.3172 178.759 81.1542 178.877C80.9912 178.994 80.8549 179.145 80.7543 179.319C80.6538 179.493 80.5913 179.687 80.5708 179.887C80.5504 180.087 80.5726 180.289 80.6359 180.48Z" fill="black"/>
<path d="M75.6939 182.11L74.1772 183.846C74.0119 184.029 73.8977 184.253 73.8459 184.494C73.7941 184.736 73.8065 184.986 73.8819 185.221C73.9573 185.456 74.0931 185.667 74.2756 185.833C74.4582 186 74.6811 186.115 74.9222 186.168C76.1462 186.425 77.4102 186.425 78.6341 186.168C78.8746 186.114 79.0968 185.998 79.2786 185.832C79.4603 185.665 79.5953 185.454 79.67 185.219C79.7447 184.984 79.7565 184.734 79.7043 184.493C79.6521 184.252 79.5377 184.029 79.3725 183.846L77.8425 182.11C77.7101 181.954 77.5455 181.829 77.36 181.743C77.1745 181.658 76.9725 181.613 76.7682 181.613C76.5638 181.613 76.3619 181.658 76.1764 181.743C75.9909 181.829 75.8262 181.954 75.6939 182.11Z" fill="black"/>
<path d="M71.8087 178.634L69.5469 178.175C69.3019 178.123 69.0476 178.138 68.8097 178.216C68.5718 178.294 68.3588 178.434 68.1921 178.621C68.0255 178.808 67.911 179.035 67.8604 179.28C67.8098 179.526 67.8248 179.78 67.9039 180.018C68.302 181.194 68.9307 182.28 69.7532 183.211C69.9206 183.392 70.1325 183.527 70.368 183.601C70.6035 183.676 70.8544 183.687 71.0958 183.635C71.3371 183.582 71.5606 183.468 71.744 183.302C71.9274 183.137 72.0643 182.926 72.1413 182.692L72.873 180.496C72.9408 180.305 72.9665 180.1 72.9482 179.897C72.93 179.695 72.8683 179.498 72.7673 179.322C72.6663 179.145 72.5284 178.992 72.3629 178.873C72.1975 178.755 72.0085 178.673 71.8087 178.634Z" fill="black"/>
</g>
<g opacity="0.5">
<path d="M75.3876 176.353C75.7807 176.353 76.0993 176.035 76.0993 175.641C76.0993 175.248 75.7807 174.93 75.3876 174.93C74.9945 174.93 74.6758 175.248 74.6758 175.641C74.6758 176.035 74.9945 176.353 75.3876 176.353Z" fill="white"/>
<path d="M78.8327 175.641C78.8327 175.782 78.791 175.92 78.7128 176.037C78.6346 176.154 78.5234 176.245 78.3934 176.299C78.2633 176.353 78.1202 176.367 77.9821 176.34C77.844 176.312 77.7172 176.244 77.6177 176.145C77.5181 176.045 77.4503 175.918 77.4229 175.78C77.3954 175.642 77.4095 175.499 77.4634 175.369C77.5172 175.239 77.6085 175.128 77.7255 175.05C77.8426 174.971 77.9802 174.93 78.121 174.93C78.3097 174.93 78.4908 175.005 78.6243 175.138C78.7578 175.272 78.8327 175.453 78.8327 175.641Z" fill="white"/>
<path d="M76.0993 178.376C76.0993 178.517 76.0576 178.654 75.9794 178.771C75.9012 178.888 75.79 178.98 75.6599 179.033C75.5299 179.087 75.3868 179.101 75.2487 179.074C75.1106 179.047 74.9838 178.979 74.8843 178.879C74.7847 178.78 74.7169 178.653 74.6895 178.515C74.662 178.377 74.6761 178.234 74.73 178.103C74.7838 177.973 74.8751 177.862 74.9921 177.784C75.1092 177.706 75.2468 177.664 75.3876 177.664C75.5763 177.664 75.7574 177.739 75.8909 177.873C76.0244 178.006 76.0993 178.187 76.0993 178.376Z" fill="white"/>
<path d="M78.8327 178.376C78.8327 178.517 78.791 178.654 78.7128 178.771C78.6346 178.888 78.5234 178.98 78.3934 179.033C78.2633 179.087 78.1202 179.101 77.9821 179.074C77.844 179.047 77.7172 178.979 77.6177 178.879C77.5181 178.78 77.4503 178.653 77.4229 178.515C77.3954 178.377 77.4095 178.234 77.4634 178.103C77.5172 177.973 77.6085 177.862 77.7255 177.784C77.8426 177.706 77.9802 177.664 78.121 177.664C78.3097 177.664 78.4908 177.739 78.6243 177.873C78.7578 178.006 78.8327 178.187 78.8327 178.376Z" fill="white"/>
</g>
<path d="M212.369 192.146C220.727 192.146 227.503 185.371 227.503 177.013C227.503 168.654 220.727 161.879 212.369 161.879C204.011 161.879 197.235 168.654 197.235 177.013C197.235 185.371 204.011 192.146 212.369 192.146Z" fill="#263238"/>
<path opacity="0.5" d="M212.37 187.556C218.193 187.556 222.914 182.836 222.914 177.012C222.914 171.189 218.193 166.469 212.37 166.469C206.547 166.469 201.826 171.189 201.826 177.012C201.826 182.836 206.547 187.556 212.37 187.556Z" fill="white"/>
<g opacity="0.5">
<path d="M208.483 173.542L207.752 171.346C207.675 171.112 207.538 170.901 207.354 170.736C207.171 170.57 206.947 170.456 206.706 170.403C206.465 170.351 206.214 170.363 205.978 170.437C205.743 170.511 205.531 170.646 205.363 170.828C204.541 171.758 203.912 172.844 203.514 174.021C203.44 174.257 203.428 174.509 203.481 174.751C203.533 174.993 203.648 175.218 203.814 175.402C203.98 175.586 204.192 175.724 204.427 175.801C204.663 175.878 204.914 175.893 205.157 175.843L207.419 175.384C207.616 175.345 207.803 175.264 207.967 175.146C208.13 175.029 208.267 174.878 208.368 174.704C208.468 174.529 208.531 174.336 208.551 174.135C208.571 173.935 208.548 173.732 208.483 173.542Z" fill="black"/>
<path d="M213.432 171.911L214.962 170.175C215.128 169.992 215.242 169.769 215.294 169.528C215.346 169.287 215.335 169.037 215.26 168.802C215.185 168.567 215.05 168.356 214.868 168.189C214.687 168.023 214.464 167.907 214.224 167.853C213 167.596 211.736 167.596 210.512 167.853C210.271 167.906 210.048 168.021 209.865 168.187C209.683 168.353 209.547 168.565 209.472 168.8C209.396 169.035 209.384 169.285 209.436 169.527C209.488 169.768 209.602 169.991 209.767 170.175L211.304 171.911C211.436 172.063 211.6 172.185 211.783 172.269C211.967 172.353 212.166 172.396 212.368 172.396C212.57 172.396 212.769 172.353 212.953 172.269C213.136 172.185 213.3 172.063 213.432 171.911Z" fill="black"/>
<path d="M217.311 175.363L219.579 175.822C219.817 175.864 220.061 175.845 220.289 175.767C220.516 175.689 220.721 175.554 220.882 175.375C221.043 175.195 221.156 174.978 221.21 174.743C221.263 174.508 221.256 174.264 221.189 174.032C220.794 172.856 220.167 171.77 219.347 170.839C219.179 170.658 218.967 170.523 218.732 170.449C218.496 170.374 218.245 170.363 218.004 170.415C217.763 170.468 217.539 170.582 217.356 170.748C217.172 170.913 217.035 171.124 216.958 171.358L216.22 173.553C216.162 173.744 216.145 173.945 216.17 174.142C216.195 174.34 216.261 174.53 216.364 174.7C216.466 174.871 216.604 175.018 216.767 175.132C216.93 175.246 217.116 175.325 217.311 175.363Z" fill="black"/>
<path d="M216.247 180.479L216.985 182.674C217.062 182.909 217.199 183.12 217.383 183.285C217.566 183.45 217.789 183.565 218.031 183.618C218.272 183.67 218.523 183.658 218.758 183.584C218.994 183.51 219.206 183.375 219.373 183.193C220.182 182.266 220.8 181.188 221.189 180.02C221.266 179.784 221.279 179.533 221.227 179.29C221.175 179.048 221.061 178.823 220.895 178.638C220.73 178.454 220.519 178.316 220.283 178.239C220.047 178.161 219.796 178.147 219.553 178.198L217.285 178.657C217.092 178.701 216.911 178.784 216.753 178.902C216.595 179.019 216.463 179.169 216.365 179.34C216.268 179.511 216.207 179.701 216.186 179.897C216.166 180.093 216.187 180.291 216.247 180.479Z" fill="black"/>
<path d="M211.304 182.11L209.767 183.846C209.602 184.03 209.488 184.253 209.436 184.494C209.384 184.736 209.396 184.986 209.472 185.221C209.547 185.456 209.683 185.667 209.865 185.834C210.048 186 210.271 186.115 210.512 186.168C211.736 186.425 213 186.425 214.224 186.168C214.464 186.114 214.687 185.998 214.868 185.832C215.05 185.665 215.185 185.454 215.26 185.219C215.335 184.984 215.346 184.734 215.294 184.493C215.242 184.252 215.128 184.029 214.962 183.846L213.432 182.11C213.3 181.958 213.136 181.836 212.953 181.752C212.769 181.668 212.57 181.625 212.368 181.625C212.166 181.625 211.967 181.668 211.783 181.752C211.6 181.836 211.436 181.958 211.304 182.11Z" fill="black"/>
<path d="M207.419 178.636L205.157 178.177C204.914 178.128 204.663 178.142 204.427 178.22C204.192 178.297 203.98 178.435 203.814 178.619C203.648 178.803 203.533 179.027 203.481 179.27C203.428 179.512 203.44 179.764 203.514 180C203.912 181.177 204.541 182.262 205.363 183.193C205.531 183.375 205.743 183.509 205.978 183.584C206.214 183.658 206.465 183.67 206.706 183.617C206.947 183.565 207.171 183.45 207.354 183.285C207.538 183.119 207.675 182.909 207.752 182.674L208.483 180.479C208.548 180.288 208.571 180.086 208.551 179.886C208.531 179.685 208.468 179.491 208.368 179.317C208.267 179.143 208.13 178.992 207.967 178.874C207.803 178.757 207.616 178.676 207.419 178.636Z" fill="black"/>
</g>
<g opacity="0.5">
<path d="M211.71 175.641C211.71 175.782 211.668 175.92 211.59 176.037C211.512 176.154 211.4 176.245 211.27 176.299C211.14 176.353 210.997 176.367 210.859 176.34C210.721 176.312 210.594 176.244 210.495 176.145C210.395 176.045 210.327 175.918 210.3 175.78C210.272 175.642 210.286 175.499 210.34 175.369C210.394 175.239 210.485 175.128 210.602 175.05C210.72 174.971 210.857 174.93 210.998 174.93C211.187 174.93 211.368 175.005 211.501 175.138C211.635 175.272 211.71 175.453 211.71 175.641Z" fill="white"/>
<path d="M213.731 176.353C214.124 176.353 214.443 176.035 214.443 175.641C214.443 175.248 214.124 174.93 213.731 174.93C213.338 174.93 213.02 175.248 213.02 175.641C213.02 176.035 213.338 176.353 213.731 176.353Z" fill="white"/>
<path d="M211.71 178.376C211.71 178.517 211.668 178.654 211.59 178.771C211.512 178.888 211.4 178.98 211.27 179.033C211.14 179.087 210.997 179.101 210.859 179.074C210.721 179.047 210.594 178.979 210.495 178.879C210.395 178.78 210.327 178.653 210.3 178.515C210.272 178.377 210.286 178.234 210.34 178.103C210.394 177.973 210.485 177.862 210.602 177.784C210.72 177.706 210.857 177.664 210.998 177.664C211.187 177.664 211.368 177.739 211.501 177.873C211.635 178.006 211.71 178.187 211.71 178.376Z" fill="white"/>
<path d="M214.443 178.376C214.443 178.517 214.401 178.654 214.323 178.771C214.245 178.888 214.134 178.98 214.004 179.033C213.874 179.087 213.731 179.101 213.592 179.074C213.454 179.047 213.328 178.979 213.228 178.879C213.128 178.78 213.061 178.653 213.033 178.515C213.006 178.377 213.02 178.234 213.074 178.103C213.128 177.973 213.219 177.862 213.336 177.784C213.453 177.706 213.591 177.664 213.731 177.664C213.92 177.664 214.101 177.739 214.235 177.873C214.368 178.006 214.443 178.187 214.443 178.376Z" fill="white"/>
</g>
<path d="M115.759 109.79C116.275 109.318 116.583 108.661 116.618 107.963C116.653 107.264 116.411 106.58 115.946 106.059L88.6186 131.157L87.8203 131.503C87.8735 131.57 87.9135 131.636 87.9733 131.703C88.4507 132.222 89.1147 132.531 89.8195 132.561C90.5243 132.591 91.2121 132.339 91.7318 131.862L115.759 109.79Z" fill="#B1C7E1"/>
<path opacity="0.5" d="M57.2466 161.871C57.2041 161.871 57.162 161.862 57.123 161.845C57.0841 161.828 57.0491 161.803 57.0203 161.772C56.9915 161.741 56.9695 161.704 56.9558 161.664C56.9421 161.623 56.9369 161.581 56.9406 161.538L58.2112 148.607C58.2159 148.561 58.2307 148.517 58.2545 148.478C58.2783 148.439 58.3105 148.406 58.3488 148.381C58.3871 148.357 58.4304 148.341 58.4757 148.335C58.5209 148.329 58.5669 148.333 58.6103 148.347L59.7678 148.733C60.467 148.953 61.0589 149.427 61.4279 150.06C61.7969 150.694 61.9165 151.442 61.7634 152.159L60.1669 159.543C60.0252 160.209 59.6565 160.805 59.1239 161.23C58.5913 161.655 57.9277 161.881 57.2466 161.871Z" fill="white"/>
<g opacity="0.2">
<path d="M64.4504 153.331C64.4478 153.2 64.471 153.069 64.5187 152.947C64.5664 152.825 64.6377 152.714 64.7285 152.619C64.8193 152.525 64.9278 152.449 65.0479 152.396C65.168 152.344 65.2972 152.315 65.4283 152.313L223.53 149.246C223.794 149.244 224.048 149.345 224.238 149.528C224.428 149.711 224.54 149.96 224.548 150.224C224.552 150.489 224.45 150.745 224.266 150.936C224.081 151.127 223.829 151.237 223.564 151.242L65.4682 154.308C65.3369 154.312 65.2062 154.289 65.0838 154.242C64.9613 154.195 64.8495 154.123 64.7548 154.032C64.6601 153.941 64.5844 153.832 64.5322 153.712C64.4799 153.592 64.4521 153.462 64.4504 153.331Z" fill="white"/>
</g>
<path d="M164.254 134.645L193.677 134.133C194.428 134.12 195.168 133.947 195.847 133.626C196.526 133.304 197.129 132.842 197.615 132.269C198.101 131.696 198.459 131.026 198.666 130.303C198.872 129.581 198.922 128.823 198.812 128.079L195.912 108.282C195.827 107.721 195.547 107.208 195.121 106.833C194.696 106.458 194.151 106.246 193.584 106.234C188.481 106.114 183.366 106.027 179.301 106.027C177.306 106.027 175.623 106.027 174.272 106.094C171.611 106.187 167.414 106.486 162.498 106.899C161.926 106.945 161.389 107.196 160.986 107.605C160.583 108.014 160.341 108.554 160.303 109.127L158.926 128.997C158.875 129.725 158.976 130.455 159.222 131.142C159.467 131.829 159.852 132.458 160.353 132.988C160.854 133.519 161.459 133.94 162.13 134.225C162.802 134.51 163.525 134.653 164.254 134.645Z" fill="#B1C7E1"/>
<path d="M223.292 130.014L213.979 108.195C213.805 107.782 213.516 107.428 213.147 107.175C212.778 106.921 212.344 106.779 211.897 106.765C210.267 106.711 208.192 106.638 205.85 106.572C205.498 106.56 205.148 106.626 204.825 106.764C204.501 106.903 204.212 107.111 203.978 107.374C203.744 107.637 203.57 107.948 203.469 108.285C203.369 108.622 203.343 108.978 203.395 109.326L206.356 129.282C206.552 130.547 207.199 131.699 208.176 132.527C209.154 133.354 210.397 133.801 211.677 133.786L220.751 133.633C221.352 133.637 221.937 133.444 222.418 133.083C222.898 132.723 223.247 132.215 223.412 131.637C223.542 131.097 223.5 130.529 223.292 130.014Z" fill="#B1C7E1"/>
<path d="M150.211 107.994C139.435 109.006 128.498 110.136 123.842 110.655C122.335 110.811 120.918 111.451 119.804 112.478L103.486 127.465C102.788 128.115 102.303 128.961 102.096 129.892C101.888 130.822 101.967 131.794 102.323 132.679C102.679 133.563 103.295 134.319 104.089 134.847C104.883 135.375 105.819 135.649 106.772 135.634L146.32 134.969C147.641 134.947 148.907 134.43 149.865 133.519C150.823 132.609 151.405 131.372 151.495 130.053L152.825 110.569C152.852 110.221 152.802 109.871 152.68 109.543C152.557 109.216 152.365 108.92 152.116 108.675C151.867 108.43 151.568 108.242 151.239 108.124C150.91 108.007 150.559 107.962 150.211 107.994Z" fill="#B1C7E1"/>
<path d="M195.365 139.793L188.493 139.926C188.232 139.931 187.984 140.039 187.801 140.225C187.618 140.412 187.516 140.663 187.516 140.924C187.516 141.057 187.542 141.188 187.593 141.311C187.645 141.433 187.72 141.544 187.815 141.637C187.91 141.73 188.022 141.803 188.145 141.852C188.269 141.901 188.401 141.925 188.533 141.922L195.405 141.789C195.666 141.784 195.915 141.676 196.098 141.49C196.281 141.303 196.383 141.052 196.383 140.791C196.383 140.658 196.357 140.527 196.305 140.404C196.254 140.282 196.178 140.171 196.084 140.078C195.989 139.985 195.877 139.912 195.753 139.863C195.63 139.814 195.498 139.791 195.365 139.793Z" fill="#263238"/>
<path d="M147.157 141.74C147.157 141.607 147.131 141.476 147.08 141.354C147.028 141.231 146.953 141.12 146.858 141.027C146.763 140.935 146.651 140.862 146.528 140.813C146.404 140.764 146.272 140.74 146.14 140.742L139.268 140.875C139.007 140.881 138.758 140.988 138.575 141.175C138.392 141.361 138.29 141.612 138.29 141.873C138.29 142.006 138.316 142.137 138.368 142.26C138.419 142.382 138.495 142.493 138.589 142.586C138.684 142.679 138.796 142.752 138.92 142.801C139.043 142.85 139.175 142.874 139.308 142.871L146.18 142.738C146.441 142.735 146.691 142.628 146.874 142.441C147.057 142.254 147.159 142.002 147.157 141.74Z" fill="#263238"/>
<g opacity="0.2">
<path d="M59.3689 170.422C60.1017 168.861 61.0561 167.414 62.2027 166.125L53.8808 166.285C53.319 166.293 52.7679 166.13 52.3009 165.817C51.8339 165.505 51.4731 165.058 51.2665 164.535C51.0616 165.431 51.012 166.356 51.1202 167.269L51.659 171.673C51.9145 173.76 52.9682 175.667 54.5992 176.995L54.9452 177.274C56.1422 178.251 57.5942 178.866 59.1294 179.044C58.8766 176.303 58.677 172.099 59.3689 170.422Z" fill="black"/>
<path d="M193.677 180.523C193.47 177.789 193.331 174.018 193.976 172.441C195.047 169.82 198.426 165.942 201.579 163.414L91.5791 165.549C93.0081 167.68 94.1741 169.977 95.0515 172.388C95.5039 173.811 95.3708 177.231 95.2245 179.486L193.677 180.523Z" fill="black"/>
<path d="M229.657 174.418C229.954 175.891 230.053 177.397 229.95 178.895C230.706 178.34 231.378 177.679 231.946 176.933L232.87 175.682C234.106 174.018 234.773 172.001 234.773 169.928V166.715C234.772 164.944 234.287 163.207 233.369 161.693L232.498 160.289C232.454 160.973 232.157 161.616 231.665 162.093C231.173 162.57 230.522 162.847 229.837 162.87L222.593 163.01C225.679 166.308 228.08 170.186 229.657 174.418Z" fill="black"/>
</g>
<g opacity="0.2">
<path d="M101.257 171.211C101.257 170.858 101.397 170.52 101.647 170.27C101.896 170.021 102.234 169.881 102.587 169.881L187.263 168.211C187.616 168.211 187.954 168.351 188.204 168.601C188.453 168.85 188.593 169.189 188.593 169.541C188.593 169.894 188.453 170.233 188.204 170.482C187.954 170.732 187.616 170.872 187.263 170.872L102.547 172.515C102.206 172.505 101.882 172.364 101.641 172.121C101.401 171.878 101.264 171.552 101.257 171.211Z" fill="white"/>
</g>
<path opacity="0.6" d="M108.135 123.168L103.479 127.439C102.77 128.087 102.276 128.935 102.063 129.871C101.85 130.808 101.927 131.787 102.285 132.677C102.643 133.568 103.265 134.329 104.066 134.857C104.868 135.385 105.812 135.657 106.772 135.634H108.149L108.135 123.168Z" fill="#0165E1"/>
<path d="M114.496 124.277H112.148C111.583 124.277 111.042 124.502 110.643 124.901C110.243 125.3 110.019 125.842 110.019 126.406V129.679L106.108 130.437C105.871 130.482 105.658 130.609 105.505 130.795C105.352 130.981 105.268 131.214 105.27 131.455V132.38C105.269 132.548 105.309 132.715 105.387 132.864C105.466 133.014 105.579 133.141 105.719 133.237C105.858 133.332 106.018 133.391 106.186 133.41C106.353 133.429 106.523 133.406 106.68 133.344L110.412 131.901C110.649 132.255 110.986 132.53 111.381 132.69C111.776 132.85 112.21 132.888 112.627 132.799L114.842 132.307C115.177 132.23 115.476 132.043 115.691 131.774C115.906 131.506 116.024 131.173 116.026 130.83V125.788C116.026 125.588 115.986 125.39 115.909 125.205C115.832 125.02 115.719 124.853 115.577 124.713C115.434 124.572 115.266 124.461 115.08 124.387C114.895 124.312 114.696 124.275 114.496 124.277Z" fill="#407BFF"/>
<circle cx="30.3259" cy="36.7351" r="27.8718" fill="#D8AB35"/>
<circle cx="32.5123" cy="35.7662" r="27.192" fill="#F6D57E"/>
<path d="M16.3118 38.3971H48.4867C49.9902 38.3971 51.0427 37.1943 51.0427 35.8411C51.0427 34.3376 49.8399 33.2852 48.4867 33.2852H16.3118C14.8083 33.2852 13.7559 34.488 13.7559 35.8411C13.7559 37.1943 14.8083 38.3971 16.3118 38.3971Z" fill="white"/>
<path fill-rule="evenodd" clipRule="evenodd" d="M264.314 154.366L264.227 153.336C264.208 153.107 264.005 152.929 263.76 152.929H259.274C258.994 152.929 258.74 153.087 258.629 153.329L258.154 154.366H264.314ZM269.659 154.366C270.221 154.366 270.657 154.828 270.59 155.354L266.074 190.923H262.107L262.05 189.857C261.92 187.475 259.834 185.606 257.303 185.606H253.808C250.877 185.606 248.24 187.283 247.143 189.844L246.681 190.923H242.714L251.499 155.39C251.647 154.79 252.214 154.366 252.868 154.366H256.463L257.35 152.46C257.575 151.979 258.079 151.668 258.637 151.668H264.898C265.384 151.668 265.79 152.019 265.832 152.475L266.004 154.366H269.659Z" fill="#D0B204"/>
<path fill-rule="evenodd" clipRule="evenodd" d="M264.979 154.366L264.892 153.336C264.873 153.107 264.67 152.929 264.425 152.929H259.939C259.658 152.929 259.405 153.087 259.294 153.329L258.818 154.366H264.979ZM270.324 154.366C270.886 154.366 271.322 154.828 271.255 155.354L266.739 190.923H262.772L262.715 189.857C262.586 187.475 260.499 185.606 257.968 185.606H254.473C251.543 185.606 248.905 187.283 247.808 189.844L247.346 190.923H243.379L252.164 155.39C252.312 154.79 252.879 154.366 253.533 154.366H257.128L258.015 152.46C258.24 151.979 258.744 151.668 259.302 151.668H265.563C266.049 151.668 266.455 152.019 266.497 152.475L266.669 154.366H270.324Z" fill="#EAB830"/>
<path fill-rule="evenodd" clipRule="evenodd" d="M265.267 154.53L264.792 153.43C264.681 153.173 264.428 153.007 264.147 153.007H259.661C259.417 153.007 259.213 153.195 259.194 153.438L259.107 154.53H265.267ZM257.417 154.53L257.59 152.524C257.631 152.04 258.037 151.668 258.523 151.668H264.784C265.341 151.668 265.846 151.998 266.071 152.509L266.958 154.53H270.553C271.207 154.53 271.774 154.981 271.922 155.617L280.707 193.32H276.74L276.278 192.175C275.181 189.458 272.544 187.678 269.613 187.678H266.118C263.587 187.678 261.5 189.661 261.371 192.189L261.313 193.32H257.347L252.831 155.579C252.764 155.021 253.2 154.53 253.762 154.53H257.417Z" fill="#D0B204"/>
<path fill-rule="evenodd" clipRule="evenodd" d="M265.951 154.53L265.476 153.43C265.365 153.173 265.111 153.007 264.831 153.007H260.344C260.1 153.007 259.897 153.195 259.877 153.438L259.79 154.53H265.951ZM258.1 154.53L258.273 152.524C258.315 152.04 258.721 151.668 259.207 151.668H265.467C266.025 151.668 266.53 151.998 266.754 152.509L267.641 154.53H271.237C271.89 154.53 272.457 154.981 272.606 155.617L281.391 193.32H277.424L276.961 192.175C275.864 189.458 273.227 187.678 270.297 187.678H266.802C264.271 187.678 262.184 189.661 262.055 192.189L261.997 193.32H258.03L253.515 155.579C253.448 155.021 253.883 154.53 254.445 154.53H258.1Z" fill="#FFD35E"/>
<defs>
<filter id="filter0_f_4484_153582" x="111.587" y="0.664062" width="189.596" height="186.27" filterUnits="userSpaceOnUse" color-interpolation-filters="sRGB">
<feFlood flood-opacity="0" result="BackgroundImageFix"/>
<feBlend mode="normal" in="SourceGraphic" in2="BackgroundImageFix" result="shape"/>
<feGaussianBlur stdDeviation="1" result="effect1_foregroundBlur_4484_153582"/>
</filter>
<filter id="filter1_f_4484_153582" x="244.631" y="133.043" width="42.583" height="43.2461" filterUnits="userSpaceOnUse" color-interpolation-filters="sRGB">
<feFlood flood-opacity="0" result="BackgroundImageFix"/>
<feBlend mode="normal" in="SourceGraphic" in2="BackgroundImageFix" result="shape"/>
<feGaussianBlur stdDeviation="1" result="effect1_foregroundBlur_4484_153582"/>
</filter>
<filter id="filter2_f_4484_153582" x="227.859" y="176.962" width="22.5824" height="17.2602" filterUnits="userSpaceOnUse" color-interpolation-filters="sRGB">
<feFlood flood-opacity="0" result="BackgroundImageFix"/>
<feBlend mode="normal" in="SourceGraphic" in2="BackgroundImageFix" result="shape"/>
<feGaussianBlur stdDeviation="3.65" result="effect1_foregroundBlur_4484_153582"/>
</filter>
</defs>
</svg>
