<svg width="74" height="45" viewBox="0 0 74 45" fill="none" xmlns="http://www.w3.org/2000/svg">
<g clipPath="url(#clip0_4078_73429)">
<rect x="2.23828" y="1.83984" width="67.3252" height="19.2903" rx="3.25" fill="white" stroke="#A6A9BD" stroke-width="1.5"/>
<path d="M57.1875 0.851562V21.2223" stroke="#A6A9BD"/>
<path d="M6.73047 5.94531V16.1307" stroke="#A6A9BD" stroke-linecap="round"/>
</g>
<path d="M67.1212 39.6592L59.3956 32.1507L67.1212 39.6592ZM59.3956 32.1507C60.7171 30.8664 61.7654 29.3416 62.4806 27.6635C63.1957 25.9854 63.5638 24.1868 63.5638 22.3704C63.5638 20.5541 63.1957 18.7555 62.4806 17.0774C61.7654 15.3993 60.7171 13.8745 59.3956 12.5902C58.0741 11.3058 56.5053 10.287 54.7787 9.59191C53.0521 8.89682 51.2016 8.53906 49.3327 8.53906C47.4638 8.53906 45.6133 8.89682 43.8867 9.59191C42.1601 10.287 40.5912 11.3058 39.2698 12.5902C36.6009 15.1841 35.1016 18.7021 35.1016 22.3704C35.1016 26.0388 36.6009 29.5568 39.2698 32.1507C41.9386 34.7446 45.5584 36.2018 49.3327 36.2018C53.107 36.2018 56.7268 34.7446 59.3956 32.1507Z" fill="white"/>
<path d="M67.1212 39.6592L59.3956 32.1507M59.3956 32.1507C60.7171 30.8664 61.7654 29.3416 62.4806 27.6635C63.1957 25.9854 63.5638 24.1868 63.5638 22.3704C63.5638 20.5541 63.1957 18.7555 62.4806 17.0774C61.7654 15.3993 60.7171 13.8745 59.3956 12.5902C58.0741 11.3058 56.5053 10.287 54.7787 9.59191C53.0521 8.89682 51.2016 8.53906 49.3327 8.53906C47.4638 8.53906 45.6133 8.89682 43.8867 9.59191C42.1601 10.287 40.5912 11.3058 39.2698 12.5902C36.6009 15.1841 35.1016 18.7021 35.1016 22.3704C35.1016 26.0388 36.6009 29.5568 39.2698 32.1507C41.9386 34.7446 45.5584 36.2018 49.3327 36.2018C53.107 36.2018 56.7268 34.7446 59.3956 32.1507Z" stroke="#A6A9BD" stroke-linecap="round" stroke-linejoin="round"/>
<path d="M60.0059 22.4037C59.9993 24.456 59.3665 26.4603 58.1876 28.163C57.0086 29.8656 55.3365 31.1901 53.3828 31.9688C51.4291 32.7476 49.2817 32.9455 47.2122 32.5377C45.1427 32.1299 43.2442 31.1346 41.7569 29.6777C40.2696 28.2209 39.2603 26.3679 38.8568 24.3534C38.4533 22.3389 38.6737 20.2534 39.4902 18.3607C40.3066 16.468 41.6823 14.8532 43.4432 13.7206C45.2042 12.588 47.2713 11.9886 49.3828 11.9982C50.7851 11.9973 52.1737 12.2665 53.4684 12.7901C54.7631 13.3137 55.9382 14.0814 56.9259 15.0489C57.9136 16.0164 58.6943 17.1645 59.223 18.4268C59.7516 19.6892 60.0177 21.0408 60.0059 22.4037ZM58.2524 22.3916C58.2544 20.6777 57.7338 19.0015 56.7565 17.5749C55.7791 16.1482 54.3888 15.035 52.7609 14.3758C51.1331 13.7166 49.3408 13.5409 47.6103 13.871C45.8799 14.2011 44.2888 15.0221 43.0381 16.2304C41.7874 17.4387 40.933 18.9801 40.583 20.66C40.2329 22.3398 40.4028 24.0829 41.0712 25.669C41.7396 27.255 42.8766 28.613 44.3385 29.5715C45.8005 30.53 47.5219 31.0461 49.2853 31.0545C50.4632 31.0714 51.6326 30.8594 52.7249 30.4307C53.8172 30.002 54.8103 29.3654 55.6457 28.5582C56.4812 27.7511 57.1422 26.7898 57.5899 25.7308C58.0375 24.6718 58.2627 23.5365 58.2524 22.3916Z" fill="#A6A9BD"/>
<path d="M51.1115 16.2739C51.1115 16.7649 50.6611 17.1013 49.8928 17.117C48.8167 17.145 47.7677 17.4072 46.8474 17.8779C46.4533 18.0854 46.0841 18.3245 45.7448 18.5919C45.1807 19.0125 44.6469 19.0164 44.2383 18.6232C44.1472 18.5341 44.0792 18.43 44.0388 18.3174C43.9984 18.2049 43.9865 18.0865 44.0038 17.9698C44.0211 17.8531 44.0672 17.7408 44.1391 17.64C44.2111 17.5393 44.3074 17.4524 44.4216 17.3849C45.9185 16.1669 47.9119 15.4782 49.9926 15.4601C50.1304 15.4474 50.2699 15.4587 50.4023 15.4934C50.5347 15.5281 50.6572 15.5854 50.7622 15.6618C50.8671 15.7381 50.9523 15.8319 51.0124 15.9372C51.0725 16.0425 51.1062 16.1571 51.1115 16.2739Z" fill="#A6A9BD"/>
<defs>
<clipPath id="clip0_4078_73429">
<rect width="74" height="21.8205" fill="white"/>
</clipPath>
</defs>
</svg>
