<svg width="28" height="28" viewBox="0 0 28 28" fill="none" xmlns="http://www.w3.org/2000/svg">
<rect width="28" height="28" rx="6" fill="#FFEDBE"/>
<path d="M17.3333 5.66797H10.6667C7.75 5.66797 6.5 7.33464 6.5 9.83464V18.168C6.5 20.668 7.75 22.3346 10.6667 22.3346H17.3333C20.25 22.3346 21.5 20.668 21.5 18.168V9.83464C21.5 7.33464 20.25 5.66797 17.3333 5.66797ZM10.6667 14.2096H14C14.3417 14.2096 14.625 14.493 14.625 14.8346C14.625 15.1763 14.3417 15.4596 14 15.4596H10.6667C10.325 15.4596 10.0417 15.1763 10.0417 14.8346C10.0417 14.493 10.325 14.2096 10.6667 14.2096ZM17.3333 18.793H10.6667C10.325 18.793 10.0417 18.5096 10.0417 18.168C10.0417 17.8263 10.325 17.543 10.6667 17.543H17.3333C17.675 17.543 17.9583 17.8263 17.9583 18.168C17.9583 18.5096 17.675 18.793 17.3333 18.793ZM19.4167 11.7096H17.75C16.4833 11.7096 15.4583 10.6846 15.4583 9.41797V7.7513C15.4583 7.40964 15.7417 7.1263 16.0833 7.1263C16.425 7.1263 16.7083 7.40964 16.7083 7.7513V9.41797C16.7083 9.99297 17.175 10.4596 17.75 10.4596H19.4167C19.7583 10.4596 20.0417 10.743 20.0417 11.0846C20.0417 11.4263 19.7583 11.7096 19.4167 11.7096Z" fill="#F5B000"/>
</svg>
