<svg width="28" height="28" viewBox="0 0 28 28" fill="none" xmlns="http://www.w3.org/2000/svg">
<rect width="28" height="28" rx="6" fill="#FFEDBE"/>
<path d="M23.3073 14.7898C23.1667 13.2113 22.935 12.9039 22.8475 12.7883C22.6463 12.5211 22.3245 12.3465 21.9839 12.1633C21.9646 12.1531 21.948 12.1386 21.9353 12.1209C21.9226 12.1031 21.9142 12.0827 21.9107 12.0612C21.9073 12.0397 21.9089 12.0177 21.9154 11.9969C21.9219 11.9761 21.9332 11.9571 21.9483 11.9414C22.0114 11.8774 22.0599 11.8006 22.0904 11.7161C22.121 11.6316 22.1328 11.5415 22.1253 11.452C22.1106 11.2932 22.0367 11.1458 21.9184 11.0389C21.8001 10.932 21.646 10.8735 21.4866 10.875H20.8772C20.8511 10.8752 20.825 10.8769 20.7991 10.8801C20.7813 10.8724 20.7629 10.8662 20.744 10.8617C20.3831 10.0988 19.8889 9.0543 18.8647 8.54453C17.3456 7.78906 14.5471 7.75 14.0003 7.75C13.4534 7.75 10.6549 7.78906 9.13776 8.54336C8.11354 9.05312 7.6194 10.0977 7.25846 10.8605L7.25533 10.8668C7.23733 10.8693 7.21965 10.8738 7.2026 10.8801C7.17668 10.8769 7.15059 10.8752 7.12447 10.875H6.51393C6.35451 10.8735 6.20037 10.932 6.08206 11.0389C5.96376 11.1458 5.88995 11.2932 5.87526 11.452C5.86832 11.5413 5.88075 11.631 5.91169 11.7151C5.94263 11.7992 5.99137 11.8756 6.05455 11.9391C6.06967 11.9548 6.08093 11.9737 6.08745 11.9945C6.09397 12.0153 6.09557 12.0374 6.09213 12.0589C6.08868 12.0804 6.08028 12.1008 6.06759 12.1185C6.0549 12.1362 6.03827 12.1508 6.01901 12.1609C5.67838 12.3453 5.35494 12.5199 5.15533 12.7859C5.06783 12.9031 4.83658 13.209 4.69557 14.7875C4.61744 15.6758 4.60572 16.5953 4.66705 17.1875C4.79557 18.418 5.03658 19.1617 5.04674 19.1926C5.08372 19.3049 5.1518 19.4044 5.24307 19.4795C5.33434 19.5547 5.44506 19.6024 5.56237 19.6172V19.625C5.56237 19.7908 5.62821 19.9497 5.74542 20.0669C5.86263 20.1842 6.0216 20.25 6.18737 20.25H8.37487C8.54063 20.25 8.6996 20.1842 8.81681 20.0669C8.93402 19.9497 8.99987 19.7908 8.99987 19.625C9.33619 19.625 9.57018 19.5648 9.81822 19.5008C10.1763 19.4043 10.5424 19.3401 10.912 19.309C12.1038 19.1953 13.2889 19.1562 14.0003 19.1562C14.6971 19.1562 15.9346 19.1953 17.1284 19.309C17.4994 19.3402 17.8669 19.4046 18.2264 19.5016C18.4639 19.5625 18.6893 19.6187 19.0014 19.6246C19.0014 19.7904 19.0673 19.9493 19.1845 20.0666C19.3017 20.1838 19.4607 20.2496 19.6264 20.2496H21.8139C21.9797 20.2496 22.1387 20.1838 22.2559 20.0666C22.3731 19.9493 22.4389 19.7904 22.4389 19.6246V19.6199C22.5565 19.6054 22.6676 19.5578 22.7591 19.4827C22.8507 19.4075 22.919 19.3078 22.9561 19.1953C22.9663 19.1645 23.2073 18.4207 23.3358 17.1902C23.3971 16.5977 23.3862 15.6797 23.3073 14.7898ZM8.38815 11.3949C8.70065 10.7309 9.05807 9.9793 9.6944 9.6625C10.6139 9.20469 12.5198 8.99844 14.0003 8.99844C15.4807 8.99844 17.3866 9.20313 18.3061 9.6625C18.9424 9.9793 19.2983 10.7312 19.6124 11.3949L19.6514 11.4797C19.6743 11.5279 19.6844 11.5812 19.6808 11.6345C19.6771 11.6878 19.66 11.7392 19.6308 11.784C19.6017 11.8287 19.5615 11.8652 19.5143 11.8901C19.467 11.9149 19.4142 11.9272 19.3608 11.9258C18.0628 11.8906 15.3284 11.7781 14.0003 11.7781C12.6721 11.7781 9.93776 11.8934 8.63776 11.9285C8.58438 11.9299 8.53155 11.9176 8.48428 11.8928C8.43701 11.868 8.39689 11.8314 8.36775 11.7867C8.33861 11.742 8.32141 11.6905 8.3178 11.6372C8.31419 11.584 8.32429 11.5307 8.34713 11.4824C8.3608 11.4535 8.37526 11.4242 8.38815 11.3949ZM8.85416 14.5055C8.18221 14.5863 7.50596 14.6263 6.82916 14.625C6.4151 14.625 5.98815 14.5078 5.90885 14.1391C5.85455 13.891 5.86041 13.7516 5.88971 13.6113C5.91432 13.4922 5.95338 13.4055 6.14869 13.375C6.65651 13.2969 6.94049 13.3949 7.77174 13.6398C8.32291 13.802 8.72057 14.018 8.94713 14.1891C9.0608 14.2734 9.00026 14.4938 8.85416 14.5055ZM17.5018 17.7086C16.9878 17.7672 15.9596 17.7457 14.012 17.7457C12.0643 17.7457 11.0366 17.7672 10.5225 17.7086C9.99205 17.6496 9.31588 17.148 9.7776 16.7012C10.085 16.4066 10.8022 16.1863 11.7573 16.0625C12.7124 15.9387 13.1167 15.875 14.0081 15.875C14.8995 15.875 15.2628 15.9141 16.2589 16.0629C17.2549 16.2117 18.0077 16.4348 18.2385 16.7016C18.6596 17.1797 18.0319 17.6465 17.5018 17.7109V17.7086ZM22.0917 14.1387C22.0135 14.509 21.5838 14.6246 21.1713 14.6246C20.4816 14.6248 19.7924 14.5849 19.1073 14.5051C18.9878 14.4937 18.9323 14.284 19.0534 14.1887C19.2764 14.0133 19.6784 13.8016 20.2288 13.6395C21.06 13.3945 21.5393 13.2965 21.951 13.3781C22.0514 13.398 22.1046 13.5059 22.1108 13.5734C22.1384 13.7616 22.1319 13.9532 22.0917 14.1391V14.1387Z" fill="#F5B000"/>
</svg>
