<svg width="64" height="64" viewBox="0 0 64 64" fill="none" xmlns="http://www.w3.org/2000/svg">
<g clipPath="url(#clip0_6475_23916)">
<path d="M38.4306 0.868164C39.7673 1.04483 41.049 1.43816 42.3156 1.87983C45.794 3.08816 48.9823 4.81816 51.854 7.13816C55.039 9.71316 57.6907 12.7465 59.7107 16.3032C61.3273 19.1532 62.4956 22.1865 63.1406 25.4165C63.454 26.9865 63.6423 28.5598 63.759 30.1565C64.024 33.7732 63.529 37.2848 62.6523 40.7832C62.339 42.0332 61.9373 43.2698 61.4273 44.4048C60.4973 46.4782 59.4273 48.5065 58.0956 50.3798C56.7023 52.3398 55.084 54.0898 53.3456 55.7298C51.809 57.1798 50.0923 58.4098 48.2756 59.4898C45.4223 61.1865 42.379 62.4265 39.144 63.1732C37.7373 63.4982 36.3223 63.8198 34.8673 63.8632C34.7523 63.8665 34.6106 63.8215 34.5573 63.9865H29.1957C29.154 63.9482 29.114 63.8782 29.0707 63.8765C27.8823 63.8415 26.7273 63.5882 25.564 63.3682C22.0107 62.6965 18.7073 61.3682 15.6073 59.5432C12.999 58.0082 10.659 56.1115 8.58898 53.8998C7.96232 53.2298 7.33065 52.5498 6.83398 51.7682C7.06065 51.7215 7.22732 51.8348 7.40232 51.9582C8.98232 53.0698 10.6557 54.0165 12.4257 54.7965C14.359 55.6482 16.369 56.2582 18.4206 56.7198C18.9156 56.8315 19.4423 57.0898 19.9857 56.8615C20.3957 56.9882 20.8073 57.1165 21.2173 57.2432C24.2423 58.6798 27.4673 59.3032 30.7756 59.4815C33.2773 59.6165 35.7606 59.3382 38.2056 58.7515C44.0806 57.3415 48.9673 54.3215 52.874 49.7265C54.294 48.0565 55.5073 46.2382 56.4923 44.2682C57.6007 42.0498 58.3856 39.7232 58.8523 37.2998C59.2423 35.2798 59.3156 33.2282 59.2756 31.1632C59.2373 29.2098 58.9757 27.3015 58.529 25.4165C57.479 20.9765 55.284 17.1298 52.2956 13.7265C51.5756 12.9065 50.8323 12.0832 49.924 11.4482C49.5857 11.1265 49.2456 10.8048 48.9073 10.4848C48.9623 10.1998 48.759 10.0165 48.6206 9.8215C47.8106 8.6715 46.9007 7.59816 45.9173 6.59983C43.9523 4.6065 41.759 2.89316 39.319 1.50316C39.009 1.3265 38.6173 1.23483 38.434 0.869831L38.4306 0.868164Z" fill="#E14856"/>
<path d="M19.9831 56.8618C19.4398 57.0918 18.9131 56.8318 18.4181 56.7201C16.3664 56.2585 14.3564 55.6485 12.4231 54.7968C10.6531 54.0168 8.97976 53.0701 7.39977 51.9585C7.22477 51.8351 7.0581 51.7201 6.83143 51.7685C6.74143 51.6835 6.6331 51.6118 6.56476 51.5135C5.2581 49.6201 3.99143 47.7102 3.0131 45.6118C1.6131 42.6052 0.649766 39.4885 0.244766 36.1901C0.183099 35.6901 0.291432 35.1485 0.00976562 34.6801V29.4418C0.349766 28.9518 0.174766 28.3751 0.249766 27.8451C0.701432 24.6101 1.5981 21.5301 3.0031 18.5685C4.06977 16.3185 5.37477 14.2435 6.88143 12.2768C8.61643 10.0135 10.6681 8.07848 12.9548 6.38681C14.9114 4.94015 16.9881 3.69181 19.2331 2.74848C21.8364 1.65348 24.5214 0.846812 27.3381 0.500146C28.9531 0.301812 30.5748 0.0984791 32.1964 0.155146C34.1598 0.223479 36.1364 0.286812 38.0598 0.780146C38.1614 0.906812 38.2998 0.881813 38.4348 0.875146L38.4281 0.863479C38.6114 1.22848 39.0031 1.32015 39.3131 1.49681C41.7531 2.88681 43.9464 4.60015 45.9114 6.59348C46.8948 7.59015 47.8048 8.66515 48.6148 9.81515C48.7514 10.0101 48.9564 10.1935 48.9014 10.4785C48.6898 10.4318 48.5398 10.2851 48.3781 10.1568C46.6748 8.81515 44.7764 7.78681 42.8064 6.92015C39.9931 5.68348 37.0231 4.99181 33.9581 4.75848C31.7898 4.59348 29.6148 4.63515 27.4714 5.02181C24.2781 5.59681 21.2381 6.61848 18.4114 8.25181C13.2931 11.2085 9.50643 15.3651 6.99143 20.7101C6.09643 22.6135 5.4381 24.6035 5.04477 26.6435C4.62143 28.8368 4.47643 31.0718 4.5681 33.3368C4.67143 35.9101 5.18143 38.3818 5.96477 40.7935C6.6731 42.9735 7.67143 45.0418 8.95143 46.9685C11.1631 50.2968 13.9014 53.0785 17.3014 55.1935C18.1948 55.7485 19.0864 56.3052 19.9798 56.8618H19.9831Z" fill="#E14856" fill-opacity="0.6"/>
<path d="M38.4375 0.879805C38.3025 0.888138 38.1642 0.911471 38.0625 0.784805C38.1992 0.769805 38.3475 0.708138 38.4375 0.879805Z" fill="#E14856"/>
<path d="M19.9829 56.8617C19.0896 56.3051 18.1979 55.7501 17.3046 55.1934C13.9046 53.0784 11.1663 50.2967 8.95459 46.9684C7.67459 45.0417 6.67626 42.9734 5.96792 40.7934C5.18459 38.3817 4.67459 35.9101 4.57126 33.3367C4.47959 31.0717 4.62459 28.8367 5.04792 26.6434C5.44126 24.6051 6.09959 22.6134 6.99459 20.7101C9.50792 15.3651 13.2946 11.2084 18.4146 8.25173C21.2413 6.61839 24.2813 5.59673 27.4746 5.02173C29.6179 4.63506 31.7929 4.59339 33.9613 4.75839C37.0263 4.99173 39.9963 5.6834 42.8096 6.92006C44.7796 7.78673 46.6779 8.81506 48.3813 10.1567C48.5429 10.2851 48.6929 10.4317 48.9046 10.4784C49.2446 10.8001 49.5829 11.1217 49.9213 11.4434C49.8529 11.6701 49.9763 11.8317 50.0846 12.0151C51.4979 14.3967 52.6179 16.9067 53.3229 19.5901C53.8113 21.4501 54.1346 23.3334 54.2879 25.2584C54.4379 27.1484 54.3679 29.0151 54.1563 30.8901C54.0329 31.9751 53.7729 33.0334 53.5896 34.1051C53.4896 34.6884 53.5079 35.3367 53.0463 35.8151C53.3679 33.7251 53.5113 31.6334 53.2813 29.5151C53.0146 27.0584 52.3613 24.7217 51.2846 22.5101C49.4396 18.7234 46.6813 15.7467 43.1129 13.5317C40.2829 11.7751 37.1696 10.7851 33.8663 10.5217C31.9529 10.3684 30.0279 10.4584 28.1129 10.8351C24.0813 11.6267 20.5663 13.3767 17.5663 16.1817C15.8713 17.7667 14.4446 19.5534 13.3113 21.5801C11.7829 24.3151 10.9013 27.2617 10.6413 30.3634C10.4796 32.2784 10.6063 34.2084 10.9813 36.1151C11.7163 39.8617 13.3263 43.1834 15.8313 46.0451C17.9446 48.4601 20.4646 50.3651 23.4396 51.6317C25.9979 52.7201 28.6596 53.3351 31.4463 53.3884C32.6496 53.4117 33.8396 53.3217 35.0346 53.1534C37.5029 52.8067 39.8279 52.0501 42.0113 50.8601C42.9146 50.3684 43.7813 49.8067 44.6646 49.2767C44.4763 49.8517 43.9513 50.1067 43.5329 50.4617C41.1929 52.4467 38.5729 53.9651 35.7429 55.1334C33.4396 56.0851 31.0513 56.7017 28.5813 57.0317C26.5513 57.3034 24.5279 57.5217 22.4746 57.2751C22.0696 57.2267 21.6396 57.0917 21.2179 57.2417C20.8079 57.1151 20.3963 56.9867 19.9863 56.8601L19.9829 56.8617Z" fill="#E14856" fill-opacity="0.4"/>
<path d="M53.0426 35.818C53.5043 35.3396 53.4859 34.6913 53.5859 34.108C53.7693 33.0363 54.0309 31.978 54.1526 30.893C54.3643 29.018 54.4359 27.153 54.2843 25.2613C54.1309 23.3363 53.8059 21.453 53.3193 19.593C52.6159 16.9096 51.4943 14.3996 50.0809 12.018C49.9726 11.8346 49.8493 11.673 49.9176 11.4463C50.8259 12.083 51.5693 12.9046 52.2893 13.7246C55.2759 17.1296 57.4726 20.9763 58.5226 25.4146C58.9693 27.2996 59.2309 29.208 59.2693 31.1613C59.3093 33.2263 59.2359 35.278 58.8459 37.298C58.3793 39.7213 57.5943 42.048 56.4859 44.2663C55.5009 46.238 54.2876 48.0546 52.8676 49.7246C48.9609 54.3196 44.0743 57.3396 38.1993 58.7496C35.7543 59.3363 33.2726 59.6146 30.7693 59.4796C27.4609 59.3013 24.2343 58.678 21.2109 57.2413C21.6326 57.093 22.0609 57.2263 22.4676 57.2746C24.5209 57.5213 26.5443 57.303 28.5743 57.0313C31.0459 56.7013 33.4326 56.083 35.7359 55.133C38.5659 53.9646 41.1859 52.4463 43.5259 50.4613C43.9443 50.1063 44.4693 49.8513 44.6576 49.2763C44.9259 49.2846 45.1326 49.213 45.1509 48.898C45.9643 48.1346 46.7909 47.388 47.4926 46.5113C50.0526 43.3146 52.1276 39.8696 53.0376 35.818H53.0426Z" fill="#E14856" fill-opacity="0.6"/>
<path d="M41.59 43.4919H40.873C40.4897 43.3801 40.144 43.1661 39.873 42.8729C37.4243 40.4162 34.9733 37.9626 32.52 35.5119C32.23 35.2219 32.229 35.2219 31.937 35.5119L24.599 42.8549C24.3227 43.1561 23.9698 43.3766 23.578 43.4929H22.867C22.4816 43.388 22.1345 43.1745 21.867 42.8779C21.476 42.4699 21.078 42.0689 20.667 41.6779C20.3512 41.396 20.1203 41.0317 20 40.6259V39.9079C20.1395 39.4912 20.384 39.1175 20.71 38.8229C23.1347 36.4075 25.5553 33.9875 27.972 31.5629C28.272 31.2629 28.272 31.2629 27.972 30.9629C25.5527 28.5422 23.132 26.1222 20.71 23.7029C20.3829 23.4092 20.1381 23.0352 20 22.6179V21.9019C20.0847 21.5853 20.2453 21.2942 20.468 21.0539C20.9807 20.5432 21.4927 20.0309 22.004 19.5169C22.2094 19.3018 22.471 19.1487 22.759 19.0749C23.0719 18.9896 23.4024 18.9928 23.7136 19.0841C24.0248 19.1754 24.3047 19.3511 24.522 19.5919C26.9927 22.0726 29.4677 24.5502 31.947 27.0249C32.225 27.3029 32.232 27.3029 32.513 27.0249L37.73 21.8059C38.484 21.0519 39.23 20.2929 39.994 19.5439C40.2551 19.2518 40.6126 19.0635 41.0012 19.0134C41.3897 18.9633 41.7833 19.0547 42.11 19.2709C42.8925 19.8853 43.6015 20.5879 44.223 21.3649C44.2516 21.4044 44.2751 21.4475 44.293 21.4929C44.4637 21.8345 44.5163 22.2231 44.4427 22.5978C44.369 22.9725 44.1733 23.3123 43.886 23.5639L38.179 29.2699L36.407 31.0439C36.207 31.2439 36.207 31.2849 36.407 31.4909L36.593 31.6769C39.0263 34.1095 41.4577 36.5429 43.887 38.9769C44.0734 39.1383 44.2229 39.338 44.3253 39.5623C44.4277 39.7866 44.4808 40.0303 44.4808 40.2769C44.4808 40.5235 44.4277 40.7672 44.3253 40.9915C44.2229 41.2158 44.0734 41.4154 43.887 41.5769C43.455 42.0119 43.015 42.4389 42.587 42.8769C42.3201 43.1728 41.9742 43.3862 41.59 43.4919Z" fill="#E14856"/>
</g>
<defs>
<clipPath id="clip0_6475_23916">
<rect width="64" height="64" fill="white"/>
</clipPath>
</defs>
</svg>
