<svg width="24" height="24" viewBox="0 0 24 24" fill="none" xmlns="http://www.w3.org/2000/svg">
<path d="M21.972 18.331C21.972 18.691 21.892 19.061 21.722 19.421C21.552 19.781 21.332 20.121 21.042 20.441C20.552 20.981 20.012 21.371 19.402 21.621C18.802 21.871 18.152 22.001 17.452 22.001C16.432 22.001 15.342 21.761 14.192 21.271C13.042 20.781 11.892 20.121 10.752 19.291C9.60195 18.451 8.51195 17.521 7.47195 16.491C6.44195 15.451 5.51195 14.361 4.68195 13.221C3.86195 12.081 3.20195 10.941 2.72195 9.81098C2.24195 8.67098 2.00195 7.58098 2.00195 6.54098C2.00195 5.86098 2.12195 5.21098 2.36195 4.61098C2.60195 4.00098 2.98195 3.44098 3.51195 2.94098C4.15195 2.31098 4.85195 2.00098 5.59195 2.00098C5.87195 2.00098 6.15195 2.06098 6.40195 2.18098C6.66195 2.30098 6.89195 2.48098 7.07195 2.74098L9.39195 6.01098C9.57195 6.26098 9.70195 6.49098 9.79195 6.71098C9.88195 6.92098 9.93195 7.13098 9.93195 7.32098C9.93195 7.56098 9.86195 7.80098 9.72195 8.03098C9.59195 8.26098 9.40195 8.50098 9.16195 8.74098L8.40195 9.53098C8.29195 9.64098 8.24195 9.77098 8.24195 9.93098C8.24195 10.011 8.25195 10.081 8.27195 10.161C8.30195 10.241 8.33195 10.301 8.35195 10.361C8.53195 10.691 8.84195 11.121 9.28195 11.641C9.73195 12.161 10.212 12.691 10.732 13.221C11.272 13.751 11.792 14.241 12.322 14.691C12.842 15.131 13.272 15.431 13.612 15.611C13.662 15.631 13.722 15.661 13.792 15.691C13.872 15.721 13.952 15.731 14.042 15.731C14.212 15.731 14.342 15.671 14.452 15.561L15.212 14.811C15.462 14.561 15.702 14.371 15.932 14.251C16.162 14.111 16.392 14.041 16.642 14.041C16.832 14.041 17.032 14.081 17.252 14.171C17.472 14.261 17.702 14.391 17.952 14.561L21.262 16.911C21.522 17.091 21.702 17.301 21.812 17.551C21.912 17.801 21.972 18.051 21.972 18.331Z" stroke="#4E94EA" stroke-miterlimit="10"/>
</svg>
