<svg width="20" height="20" viewBox="0 0 20 20" fill="none" xmlns="http://www.w3.org/2000/svg">
<path d="M17.0557 2.94677C15.3688 1.26153 13.7167 1.2181 11.9864 2.94677L10.9343 3.99787C10.8473 4.08474 10.8125 4.22373 10.8473 4.34534C11.5081 6.64734 13.3515 8.48894 15.6557 9.14913C15.6905 9.15782 15.7253 9.1665 15.7601 9.1665C15.8557 9.1665 15.9427 9.13176 16.0122 9.06226L17.0557 8.01116C17.9165 7.15986 18.3339 6.33461 18.3339 5.50068C18.3425 4.64069 17.9252 3.80676 17.0557 2.94677Z" fill="#4E94EA"/>
<path d="M14.1806 10.2896C13.901 10.1544 13.6311 10.0193 13.3708 9.86486C13.1587 9.73938 12.9562 9.60425 12.7538 9.45946C12.5899 9.35328 12.3971 9.19884 12.2139 9.0444C12.1946 9.03475 12.1271 8.97683 12.05 8.89961C11.7319 8.62934 11.3752 8.28185 11.057 7.89575C11.0281 7.87645 10.9799 7.80888 10.9124 7.72201C10.816 7.60618 10.6522 7.41313 10.5075 7.19112C10.3919 7.04633 10.2569 6.83398 10.1316 6.62162C9.97732 6.361 9.84235 6.10039 9.70739 5.83012C9.69099 5.79495 9.67503 5.75992 9.65946 5.72506C9.51071 5.39202 9.07591 5.29442 8.81816 5.5525L3.31576 11.0618C3.19043 11.1873 3.07474 11.4286 3.04582 11.5927L2.52524 15.2896C2.42883 15.9459 2.612 16.5637 3.0169 16.9788C3.36396 17.3166 3.84598 17.5 4.36657 17.5C4.48225 17.5 4.59794 17.4903 4.71362 17.471L8.41556 16.9498C8.58909 16.9208 8.8301 16.805 8.94579 16.6795L14.4423 11.1762C14.7015 10.9166 14.6037 10.4713 14.2666 10.3267C14.2382 10.3145 14.2095 10.3021 14.1806 10.2896Z" fill="#4E94EA"/>
</svg>
