<svg width="65" height="64" viewBox="0 0 65 64" fill="none" xmlns="http://www.w3.org/2000/svg">
<g clipPath="url(#clip0_4211_93553)">
<path d="M38.9306 0.869141C40.2673 1.04581 41.549 1.43914 42.8156 1.88081C46.294 3.08914 49.4823 4.81914 52.354 7.13914C55.539 9.71414 58.1907 12.7475 60.2107 16.3041C61.8273 19.1541 62.9956 22.1875 63.6406 25.4175C63.954 26.9875 64.1423 28.5608 64.259 30.1575C64.524 33.7741 64.029 37.2858 63.1523 40.7841C62.839 42.0341 62.4373 43.2708 61.9273 44.4058C60.9973 46.4791 59.9273 48.5075 58.5956 50.3808C57.2023 52.3408 55.584 54.0908 53.8456 55.7308C52.309 57.1808 50.5923 58.4108 48.7756 59.4908C45.9223 61.1875 42.879 62.4275 39.644 63.1741C38.2373 63.4991 36.8223 63.8208 35.3673 63.8641C35.2523 63.8675 35.1106 63.8225 35.0573 63.9875H29.6957C29.654 63.9491 29.614 63.8791 29.5707 63.8775C28.3823 63.8425 27.2273 63.5891 26.064 63.3691C22.5107 62.6975 19.2073 61.3691 16.1073 59.5441C13.499 58.0091 11.159 56.1125 9.08898 53.9008C8.46232 53.2308 7.83065 52.5508 7.33398 51.7691C7.56065 51.7225 7.72732 51.8358 7.90232 51.9591C9.48232 53.0708 11.1557 54.0175 12.9257 54.7975C14.859 55.6491 16.869 56.2591 18.9206 56.7208C19.4156 56.8325 19.9423 57.0908 20.4857 56.8625C20.8957 56.9891 21.3073 57.1175 21.7173 57.2441C24.7423 58.6808 27.9673 59.3041 31.2756 59.4825C33.7773 59.6175 36.2606 59.3391 38.7056 58.7525C44.5806 57.3425 49.4673 54.3225 53.374 49.7275C54.794 48.0575 56.0073 46.2391 56.9923 44.2691C58.1007 42.0508 58.8856 39.7241 59.3523 37.3008C59.7423 35.2808 59.8156 33.2291 59.7756 31.1641C59.7373 29.2108 59.4757 27.3025 59.029 25.4175C57.979 20.9775 55.784 17.1308 52.7956 13.7275C52.0756 12.9075 51.3323 12.0841 50.424 11.4491C50.0857 11.1275 49.7456 10.8058 49.4073 10.4858C49.4623 10.2008 49.259 10.0175 49.1206 9.82247C48.3106 8.67247 47.4007 7.59914 46.4173 6.60081C44.4523 4.60747 42.259 2.89414 39.819 1.50414C39.509 1.32747 39.1173 1.23581 38.934 0.870807L38.9306 0.869141Z" fill="#0165E1"/>
<path d="M20.4831 56.8608C19.9398 57.0908 19.4131 56.8308 18.9181 56.7192C16.8664 56.2575 14.8564 55.6475 12.9231 54.7958C11.1531 54.0158 9.47976 53.0692 7.89977 51.9575C7.72477 51.8342 7.5581 51.7192 7.33143 51.7675C7.24143 51.6825 7.1331 51.6108 7.06476 51.5125C5.7581 49.6192 4.49143 47.7092 3.5131 45.6108C2.1131 42.6042 1.14977 39.4875 0.744766 36.1892C0.683099 35.6892 0.791432 35.1475 0.509766 34.6792V29.4408C0.849766 28.9508 0.674766 28.3742 0.749766 27.8442C1.20143 24.6092 2.0981 21.5292 3.5031 18.5675C4.56977 16.3175 5.87477 14.2425 7.38143 12.2758C9.11643 10.0125 11.1681 8.0775 13.4548 6.38584C15.4114 4.93917 17.4881 3.69084 19.7331 2.7475C22.3364 1.6525 25.0214 0.845836 27.8381 0.499169C29.4531 0.300836 31.0748 0.0975026 32.6964 0.154169C34.6598 0.222503 36.6364 0.285836 38.5598 0.779169C38.6614 0.905836 38.7998 0.880836 38.9348 0.874169L38.9281 0.862503C39.1114 1.2275 39.5031 1.31917 39.8131 1.49584C42.2531 2.88584 44.4464 4.59917 46.4114 6.5925C47.3948 7.58917 48.3048 8.66417 49.1148 9.81417C49.2514 10.0092 49.4564 10.1925 49.4014 10.4775C49.1898 10.4308 49.0398 10.2842 48.8781 10.1558C47.1748 8.81417 45.2764 7.78584 43.3064 6.91917C40.4931 5.6825 37.5231 4.99084 34.4581 4.7575C32.2898 4.5925 30.1148 4.63417 27.9714 5.02084C24.7781 5.59584 21.7381 6.6175 18.9114 8.25084C13.7931 11.2075 10.0064 15.3642 7.49143 20.7092C6.59643 22.6125 5.9381 24.6025 5.54477 26.6425C5.12143 28.8358 4.97643 31.0708 5.0681 33.3358C5.17143 35.9092 5.68143 38.3808 6.46477 40.7925C7.1731 42.9725 8.17143 45.0408 9.45143 46.9675C11.6631 50.2958 14.4014 53.0775 17.8014 55.1925C18.6948 55.7475 19.5864 56.3042 20.4798 56.8608H20.4831Z" fill="#99C1F3"/>
<path d="M38.9375 0.879805C38.8025 0.888138 38.6642 0.911471 38.5625 0.784805C38.6992 0.769805 38.8475 0.708138 38.9375 0.879805Z" fill="#0165E1"/>
<path d="M20.4829 56.8608C19.5896 56.3041 18.6979 55.7491 17.8046 55.1924C14.4046 53.0774 11.6663 50.2957 9.45459 46.9674C8.17459 45.0407 7.17626 42.9724 6.46792 40.7924C5.68459 38.3807 5.17459 35.9091 5.07126 33.3358C4.97959 31.0708 5.12459 28.8358 5.54792 26.6424C5.94126 24.6041 6.59959 22.6124 7.49459 20.7091C10.0079 15.3641 13.7946 11.2074 18.9146 8.25075C21.7413 6.61742 24.7813 5.59575 27.9746 5.02075C30.1179 4.63408 32.2929 4.59242 34.4613 4.75742C37.5263 4.99075 40.4963 5.68242 43.3096 6.91909C45.2796 7.78575 47.1779 8.81408 48.8813 10.1558C49.0429 10.2841 49.1929 10.4308 49.4046 10.4774C49.7446 10.7991 50.0829 11.1208 50.4213 11.4424C50.3529 11.6691 50.4763 11.8308 50.5846 12.0141C51.9979 14.3958 53.1179 16.9058 53.8229 19.5891C54.3113 21.4491 54.6346 23.3324 54.7879 25.2574C54.9379 27.1474 54.8679 29.0141 54.6563 30.8891C54.5329 31.9741 54.2729 33.0324 54.0896 34.1041C53.9896 34.6874 54.0079 35.3357 53.5463 35.8141C53.8679 33.7241 54.0113 31.6324 53.7813 29.5141C53.5146 27.0574 52.8613 24.7207 51.7846 22.5091C49.9396 18.7224 47.1813 15.7458 43.6129 13.5308C40.7829 11.7741 37.6696 10.7841 34.3663 10.5208C32.4529 10.3674 30.5279 10.4574 28.6129 10.8341C24.5813 11.6258 21.0663 13.3757 18.0663 16.1807C16.3713 17.7657 14.9446 19.5524 13.8113 21.5791C12.2829 24.3141 11.4013 27.2607 11.1413 30.3624C10.9796 32.2774 11.1063 34.2074 11.4813 36.1141C12.2163 39.8607 13.8263 43.1824 16.3313 46.0441C18.4446 48.4591 20.9646 50.3641 23.9396 51.6307C26.4979 52.7191 29.1596 53.3341 31.9463 53.3874C33.1496 53.4107 34.3396 53.3208 35.5346 53.1524C38.0029 52.8058 40.3279 52.0491 42.5113 50.8591C43.4146 50.3674 44.2813 49.8057 45.1646 49.2757C44.9763 49.8507 44.4513 50.1057 44.0329 50.4607C41.6929 52.4457 39.0729 53.9641 36.2429 55.1324C33.9396 56.0841 31.5513 56.7007 29.0813 57.0308C27.0513 57.3024 25.0279 57.5207 22.9746 57.2741C22.5696 57.2257 22.1396 57.0908 21.7179 57.2407C21.3079 57.1141 20.8963 56.9857 20.4863 56.8591L20.4829 56.8608Z" fill="#CCE0F9"/>
<path opacity="0.8" d="M53.5426 35.8189C54.0043 35.3406 53.9859 34.6923 54.0859 34.1089C54.2693 33.0373 54.5309 31.9789 54.6526 30.8939C54.8643 29.0189 54.9359 27.1539 54.7843 25.2623C54.6309 23.3373 54.3059 21.4539 53.8193 19.5939C53.1159 16.9106 51.9943 14.4006 50.5809 12.0189C50.4726 11.8356 50.3493 11.6739 50.4176 11.4473C51.3259 12.0839 52.0693 12.9056 52.7893 13.7256C55.7759 17.1306 57.9726 20.9773 59.0226 25.4156C59.4693 27.3006 59.7309 29.2089 59.7693 31.1623C59.8093 33.2273 59.7359 35.2789 59.3459 37.2989C58.8793 39.7223 58.0943 42.0489 56.9859 44.2673C56.0009 46.2389 54.7876 48.0556 53.3676 49.7256C49.4609 54.3206 44.5743 57.3406 38.6993 58.7506C36.2543 59.3373 33.7726 59.6156 31.2693 59.4806C27.9609 59.3023 24.7343 58.6789 21.7109 57.2423C22.1326 57.0939 22.5609 57.2273 22.9676 57.2756C25.0209 57.5223 27.0443 57.3039 29.0743 57.0323C31.5459 56.7023 33.9326 56.0839 36.2359 55.1339C39.0659 53.9656 41.6859 52.4473 44.0259 50.4623C44.4443 50.1073 44.9693 49.8523 45.1576 49.2773C45.4259 49.2856 45.6326 49.2139 45.6509 48.8989C46.4643 48.1356 47.2909 47.3889 47.9926 46.5123C50.5526 43.3156 52.6276 39.8706 53.5376 35.8189H53.5426Z" fill="#4E94EA"/>
<path d="M32.9905 16.9418C33.2931 17.0747 33.6263 17.1008 33.9143 17.29C34.9721 17.9881 35.614 18.942 35.6362 20.3601C35.6515 21.3484 35.3375 22.1651 34.7331 22.8481C34.2521 23.3915 33.6447 23.7001 32.9492 23.8061C31.991 23.9516 31.1354 23.6732 30.4161 23.002C29.7942 22.4208 29.4434 21.6495 29.3752 20.7302C29.3055 19.7948 29.5146 18.9664 30.0531 18.2354C30.5226 17.5979 31.1132 17.1781 31.8454 17.0066C31.8898 16.9965 31.9427 17.0099 31.9588 16.9418L32.3027 16.9418C32.341 17.0066 32.3793 17.0066 32.4176 16.9418L32.5325 16.9418C32.5899 17.0225 32.6474 17.0225 32.7041 16.9418L32.9905 16.9418Z" fill="#0165E1"/>
<path d="M34.5353 26.3216C35.0661 26.6606 35.4273 27.1237 35.6859 27.6747C35.8645 28.0535 35.9574 28.4507 35.9655 28.8532C35.9743 29.3461 36.0333 29.8351 36.0463 30.3272C36.0713 31.2693 36.1561 32.2091 36.2175 33.1504C36.2773 34.0818 36.3541 35.0124 36.3937 35.9445C36.426 36.6999 36.4987 37.4522 36.5294 38.2083C36.5553 38.8473 36.5949 39.4894 36.6514 40.1261C36.7322 41.0376 36.7629 41.9514 36.8139 42.8636C36.8365 43.2593 36.9189 43.6519 36.8841 44.0521C36.7888 45.145 36.2765 45.9967 35.2867 46.5807C34.6832 46.9365 34.0077 47.0238 33.3192 47.046C32.8062 47.062 32.2915 47.0636 31.7776 47.046C31.2298 47.0268 30.6852 46.984 30.1616 46.7911C29.4699 46.5363 28.9609 46.0901 28.5739 45.5077C28.0866 44.7738 28.043 43.9725 28.1674 43.1376C28.2175 42.8039 28.2208 42.458 28.2232 42.122C28.2297 41.2121 28.3412 40.3098 28.3686 39.4014C28.388 38.7524 28.4373 38.1019 28.4834 37.4537C28.5545 36.4458 28.611 35.4379 28.6668 34.43C28.6999 33.8285 28.7654 33.2285 28.7904 32.6254C28.8033 32.307 28.8066 31.9833 28.8478 31.6665C28.9334 31.0114 28.9011 30.3517 28.969 29.6981C29.0344 29.0706 28.9722 28.4224 29.2267 27.8201C29.6873 26.7311 30.5195 26.0354 31.7396 25.8112C32.7011 25.6344 33.636 25.7033 34.465 26.2757L34.5353 26.3216Z" fill="#0165E1"/>
</g>
<defs>
<clipPath id="clip0_4211_93553">
<rect width="64" height="64" fill="white" transform="translate(0.5)"/>
</clipPath>
</defs>
</svg>
