<svg width="64" height="64" viewBox="0 0 64 64" fill="none" xmlns="http://www.w3.org/2000/svg">
<circle cx="32" cy="32" r="32" fill="#E6F0FC"/>
<path d="M44.157 44.443C42.3762 44.4355 40.8853 42.9455 40.9025 41.1891C40.9197 39.4134 42.4236 37.9373 44.185 37.9672C46.01 37.9983 47.4148 39.392 47.4353 41.2169C47.4547 42.9829 45.9378 44.4516 44.157 44.4441V44.443Z" fill="#0165E1"/>
<path d="M20.3092 37.9822C22.0922 37.8443 23.6349 39.2113 23.7329 41.1035C23.8158 42.7145 22.634 44.258 20.7358 44.4302C18.9507 44.5917 17.3552 43.2183 17.2303 41.4159C17.1053 39.6017 18.5338 38.0443 20.3092 37.9833V37.9822Z" fill="#0165E1"/>
<path fill-rule="evenodd" clipRule="evenodd" d="M21.8963 31.8652H23.8668C24.6329 31.8652 24.9927 31.5152 24.9927 30.7544C24.9933 29.8876 24.9931 29.0208 24.993 28.154V28.154V28.154V28.154C24.993 28.0487 24.993 27.9433 24.993 27.838C25.2049 27.5602 25.4162 27.2819 25.6267 27.003C26.3658 26.0232 27.3192 25.5504 28.5527 25.5547C32.6378 25.5676 36.723 25.5686 40.8081 25.5547C42.1407 25.5504 43.1426 26.0778 43.845 27.1999C44.2475 27.8429 44.6534 28.4837 45.0593 29.1245L45.0597 29.1252L45.0598 29.1253C45.5828 29.9509 46.1058 30.7765 46.6213 31.6069C46.8432 31.9642 47.1168 32.2198 47.5068 32.3888C47.9013 32.5602 48.2918 32.7408 48.6821 32.9213C49.2204 33.1703 49.7585 33.4191 50.3067 33.6436C51.1136 33.9741 51.7083 34.4768 52.0003 35.3048V39.223H51.9992C51.7008 39.9963 51.2418 40.6125 50.3843 40.8349C49.9874 40.9381 49.584 40.9205 49.1823 40.9031C49.0923 40.8992 49.0024 40.8953 48.9127 40.8927C48.6927 40.8867 48.6797 40.714 48.6682 40.5599C48.6655 40.5231 48.6628 40.4874 48.6574 40.4552C48.5065 39.5599 48.1273 38.7726 47.4907 38.1319C46.2248 36.8568 44.6929 36.383 42.9487 36.8804C41.1152 37.4034 40.0422 38.6753 39.6726 40.5194C39.6123 40.82 39.51 40.9109 39.2148 40.9109C34.6244 40.9045 30.0329 40.9034 25.4425 40.912C25.1366 40.912 25.0277 40.7986 24.975 40.5173C24.558 38.2913 22.8914 36.7841 20.6323 36.7017C18.4497 36.6215 16.4384 38.0902 15.9956 40.4969C15.931 40.851 15.7898 40.913 15.4785 40.9109C14.0565 40.9045 13.1224 39.9953 13.1138 38.5844C13.1095 37.8434 13.1117 37.1036 13.1138 36.3627L13.1138 36.3616C13.117 35.1379 13.7139 34.3506 14.9032 34.0233C16.0386 33.7104 17.1751 33.403 18.3115 33.0956L18.3117 33.0955C18.7721 32.971 19.2326 32.8464 19.6929 32.7215C19.8442 32.6804 19.9952 32.6386 20.1463 32.5967C20.5063 32.497 20.8664 32.3972 21.2292 32.3075C21.5113 32.2378 21.7209 32.0927 21.8963 31.8652Z" fill="#0165E1"/>
<path d="M22.1777 22.1007C21.8135 22.1007 21.4493 22.1035 21.0844 22.1C20.7793 22.0971 20.6837 22.0055 20.6829 21.7165C20.6807 21.0397 20.6815 20.3622 20.6829 19.6853C20.6829 19.6274 20.6589 19.5487 20.7143 19.5186C20.791 19.4779 20.8333 19.5623 20.8793 19.6052C21.7018 20.3657 22.5237 21.1277 23.3433 21.8911C23.3937 21.9383 23.498 21.9791 23.4579 22.0613C23.4214 22.1357 23.3207 22.0985 23.2484 22.0992C22.8915 22.1028 22.5346 22.1007 22.1784 22.1007H22.1777Z" fill="#F5B000"/>
<path fill-rule="evenodd" clipRule="evenodd" d="M14.3848 19.8601V24.8876L14.3862 24.889V29.9164C14.3862 30.5896 14.7169 30.9102 15.4095 30.9102H23.0913C23.7051 30.9102 23.9934 30.6297 23.9934 30.0201C23.9939 29.3257 23.9938 28.6312 23.9937 27.9367C23.9934 26.374 23.9932 24.8114 23.9993 23.2492C24 23.0145 23.9175 22.9623 23.6964 22.9652C22.8227 22.9752 21.9483 22.973 21.0747 22.968C20.2821 22.963 19.7967 22.4829 19.796 21.711V19.3422C19.7955 19.1156 19.6763 19.0023 19.4383 19.0023H16.4291C16.3107 19.0023 16.1922 19.0017 16.0737 19.0012C15.797 18.9998 15.5202 18.9985 15.2438 19.0045C14.6534 19.0181 14.3848 19.2899 14.3848 19.8601ZM16.0193 27.7988C15.8458 27.7988 15.7051 27.9395 15.7051 28.113C15.7051 28.2866 15.8458 28.4272 16.0193 28.4272H22.3384C22.5119 28.4272 22.6526 28.2866 22.6526 28.113C22.6526 27.9395 22.5119 27.7988 22.3384 27.7988H16.0193ZM15.7051 26.2263C15.7051 26.0528 15.8458 25.9121 16.0193 25.9121H22.3384C22.5119 25.9121 22.6526 26.0528 22.6526 26.2263C22.6526 26.3998 22.5119 26.5405 22.3384 26.5405H16.0193C15.8458 26.5405 15.7051 26.3998 15.7051 26.2263ZM16.0193 24.0273C15.8458 24.0273 15.7051 24.168 15.7051 24.3415C15.7051 24.5151 15.8458 24.6557 16.0193 24.6557H22.3384C22.5119 24.6557 22.6526 24.5151 22.6526 24.3415C22.6526 24.168 22.5119 24.0273 22.3384 24.0273H16.0193Z" fill="#F5B000"/>
</svg>
