<svg width="20" height="20" viewBox="0 0 20 20" fill="none" xmlns="http://www.w3.org/2000/svg">
<mask id="mask0_4589_130258" style="mask-type:alpha" maskUnits="userSpaceOnUse" x="0" y="0" width="20" height="20">
<rect width="20" height="20" fill="#D9D9D9"/>
</mask>
<g mask="url(#mask0_4589_130258)">
<path d="M17.7141 2.28726C15.677 0.250183 13.7046 0.201681 11.6191 2.28726L10.3418 3.56448C10.2286 3.67765 10.1964 3.83932 10.2287 3.98483C11.0089 6.72341 13.1689 8.91319 15.8904 9.73569C15.974 9.76097 16.0585 9.78889 16.1459 9.78889C16.259 9.78889 16.3722 9.74039 16.4531 9.65955L17.7141 8.3985C18.7488 7.3638 19.25 6.37759 19.25 5.37522C19.25 4.32434 18.7488 3.32197 17.7141 2.28726Z" fill="#4E94EA"/>
<path d="M14.1374 10.7101C13.8302 10.5646 13.5392 10.4191 13.2643 10.2412C13.038 10.1119 12.8117 9.9664 12.6015 9.80473C12.4545 9.71119 12.2854 9.58453 12.1125 9.44299C12.0395 9.38318 11.9853 9.35071 11.916 9.28666C11.8673 9.24174 11.8001 9.1689 11.7504 9.12515C11.4817 8.8886 11.1873 8.59716 10.9051 8.28863C10.7964 8.16982 10.6861 8.04713 10.5967 7.91315C10.4836 7.78381 10.3219 7.57364 10.1602 7.3473C10.0309 7.18562 9.88539 6.95928 9.75606 6.73294C9.59438 6.4581 9.43271 6.16708 9.30337 5.87607C9.11411 5.45549 8.56545 5.33676 8.23933 5.66288L2.83645 11.0658C2.43227 11.47 2.06042 12.2137 1.97959 12.7633L1.51072 16.1261C1.39755 16.8375 1.6077 17.5004 2.04422 17.953C2.41607 18.3249 2.93346 18.5189 3.49932 18.5189C3.62865 18.5189 3.74179 18.5027 3.87113 18.4866L7.23396 18.0177C7.78365 17.9369 8.52732 17.565 8.93151 17.1609L14.3494 11.743C14.6685 11.4239 14.5533 10.8852 14.1374 10.7101Z" fill="#4E94EA"/>
</g>
</svg>
