<svg width="292" height="239" viewBox="0 0 292 239" fill="none" xmlns="http://www.w3.org/2000/svg">
<path d="M9.9082 109.844V112.314" stroke="#EFEFEF" stroke-width="2.921" stroke-linecap="round"/>
<path d="M4.35938 111.182L6.37749 113.26" stroke="#EFEFEF" stroke-width="2.921" stroke-linecap="round"/>
<path d="M2 116.713H4.85359" stroke="#EFEFEF" stroke-width="2.921" stroke-linecap="round"/>
<path d="M4.12891 122.342L6.14702 120.264" stroke="#EFEFEF" stroke-width="2.921" stroke-linecap="round"/>
<path d="M9.9082 123.017V120.547" stroke="#EFEFEF" stroke-width="2.921" stroke-linecap="round"/>
<path d="M14.0234 121.37L12.377 119.724" stroke="#EFEFEF" stroke-width="2.921" stroke-linecap="round"/>
<path d="M17.3174 117.254H14.8477" stroke="#EFEFEF" stroke-width="2.921" stroke-linecap="round"/>
<path d="M15.6699 111.491L14.0234 113.138" stroke="#EFEFEF" stroke-width="2.921" stroke-linecap="round"/>
<path d="M142.449 2V3.64648" stroke="#EFEFEF" stroke-width="2.921" stroke-linecap="round"/>
<path d="M137.51 6.93945H139.156" stroke="#EFEFEF" stroke-width="2.921" stroke-linecap="round"/>
<path d="M142.449 11.8789V10.2324" stroke="#EFEFEF" stroke-width="2.921" stroke-linecap="round"/>
<path d="M146.564 6.93945H144.918" stroke="#EFEFEF" stroke-width="2.921" stroke-linecap="round"/>
<path d="M46.9531 71.1523V73.6221" stroke="#EFEFEF" stroke-width="2.921" stroke-linecap="round"/>
<path d="M39.5449 78.5615H42.0146" stroke="#EFEFEF" stroke-width="2.921" stroke-linecap="round"/>
<path d="M46.9531 85.147V82.6772" stroke="#EFEFEF" stroke-width="2.921" stroke-linecap="round"/>
<path d="M53.54 78.5615H51.0703" stroke="#EFEFEF" stroke-width="2.921" stroke-linecap="round"/>
<path d="M224.159 160.917C226.126 160.917 227.722 162.513 227.722 164.481C227.722 166.45 226.126 168.045 224.159 168.045C222.191 168.045 220.596 166.45 220.596 164.481" stroke="#EFEFEF" stroke-width="2.921" stroke-linecap="round"/>
<path fill-rule="evenodd" clipRule="evenodd" d="M240.465 128.584C242.58 127.924 245.823 125.337 246.574 122.553C247.255 125.014 250.108 127.924 252.683 128.144C249.785 129.171 247.014 132.219 246.574 134.614C246.275 132.173 242.442 128.94 240.465 128.584Z" fill="#EBECEE"/>
<path fill-rule="evenodd" clipRule="evenodd" d="M23.3027 159.82C24.3609 159.49 25.9816 158.197 26.3569 156.805C26.6973 158.034 28.1237 159.49 29.4111 159.6C27.9623 160.113 26.5771 161.637 26.3569 162.835C26.2074 161.614 24.291 159.997 23.3027 159.82Z" fill="#EBECEE"/>
<path fill-rule="evenodd" clipRule="evenodd" d="M42.9395 45.3001C42.9395 46.8269 41.7025 48.0635 40.1768 48.0635C38.6504 48.0635 37.4141 46.8269 37.4141 45.3001C37.4141 43.774 38.6504 42.5366 40.1768 42.5366C41.7025 42.5366 42.9395 43.774 42.9395 45.3001Z" fill="#C2C2C2"/>
<path fill-rule="evenodd" clipRule="evenodd" d="M227.423 52.7204C227.423 55.2713 225.355 57.3392 222.806 57.3392C220.255 57.3392 218.188 55.2713 218.188 52.7204C218.188 50.1694 220.255 48.1016 222.806 48.1016C225.355 48.1016 227.423 50.1694 227.423 52.7204Z" fill="#EBECEE"/>
<path fill-rule="evenodd" clipRule="evenodd" d="M291.386 40.2059C291.386 42.2297 289.746 43.8697 287.723 43.8697C285.7 43.8697 284.061 42.2297 284.061 40.2059C284.061 38.182 285.7 36.542 287.723 36.542C289.746 36.542 291.386 38.182 291.386 40.2059Z" fill="#EBECEE"/>
<path fill-rule="evenodd" clipRule="evenodd" d="M94.5727 211.323C94.5727 212.599 93.539 213.633 92.2635 213.633C90.9887 213.633 89.9551 212.599 89.9551 211.323C89.9551 210.048 90.9887 209.014 92.2635 209.014C93.539 209.014 94.5727 210.048 94.5727 211.323Z" stroke="#EFEFEF" stroke-width="2.921" stroke-linecap="round"/>
<path fill-rule="evenodd" clipRule="evenodd" d="M93.1993 27.5467C93.1993 29.0735 91.9623 30.3101 90.4366 30.3101C88.9109 30.3101 87.6738 29.0735 87.6738 27.5467C87.6738 26.0206 88.9109 24.7832 90.4366 24.7832C91.9623 24.7832 93.1993 26.0206 93.1993 27.5467Z" stroke="#EFEFEF" stroke-width="2.921" stroke-linecap="round"/>
<path fill-rule="evenodd" clipRule="evenodd" d="M163.671 236.9C161.905 237.572 159.929 236.685 159.258 234.92C158.586 233.154 159.472 231.177 161.238 230.506C163.003 229.834 164.979 230.72 165.651 232.486C166.323 234.252 165.436 236.228 163.671 236.9Z" stroke="#EFEFEF" stroke-width="2.921" stroke-linecap="round"/>
<path d="M144.5 211C188.959 211 225 174.959 225 130.5C225 86.0411 188.959 50 144.5 50C100.041 50 64 86.0411 64 130.5C64 174.959 100.041 211 144.5 211Z" fill="#EFEFEF"/>
<path d="M192.799 211H96.1992V106.887C100.752 106.882 105.117 105.071 108.337 101.851C111.556 98.6316 113.367 94.2665 113.373 89.7134H175.626C175.621 91.9689 176.064 94.2029 176.928 96.2862C177.792 98.3696 179.061 100.261 180.661 101.851C182.251 103.451 184.142 104.72 186.226 105.585C188.309 106.449 190.543 106.892 192.799 106.887V211Z" fill="white"/>
<path d="M144.5 159.48C158.727 159.48 170.26 147.947 170.26 133.72C170.26 119.493 158.727 107.96 144.5 107.96C130.273 107.96 118.74 119.493 118.74 133.72C118.74 147.947 130.273 159.48 144.5 159.48Z" fill="#EFEFEF"/>
<path d="M153.608 145.864L144.5 136.756L135.392 145.864L132.357 142.828L141.464 133.72L132.357 124.613L135.392 121.577L144.5 130.684L153.608 121.577L156.643 124.613L147.536 133.72L156.643 142.828L153.608 145.864Z" fill="white"/>
<path d="M158.453 165.92H130.546C128.768 165.92 127.326 167.362 127.326 169.14C127.326 170.918 128.768 172.36 130.546 172.36H158.453C160.231 172.36 161.673 170.918 161.673 169.14C161.673 167.362 160.231 165.92 158.453 165.92Z" fill="#F4F4F4"/>
<path d="M168.113 178.8H120.886C119.108 178.8 117.666 180.241 117.666 182.02C117.666 183.798 119.108 185.24 120.886 185.24H168.113C169.891 185.24 171.333 183.798 171.333 182.02C171.333 180.241 169.891 178.8 168.113 178.8Z" fill="#F4F4F4"/>
</svg>
