<svg width="20" height="20" viewBox="0 0 20 20" fill="none" xmlns="http://www.w3.org/2000/svg">
<path d="M18.3329 9.13906V10.8557C18.3329 11.3141 17.9662 11.6891 17.4995 11.7057H15.8662C14.9662 11.7057 14.1412 11.0474 14.0662 10.1474C14.0162 9.6224 14.2162 9.13073 14.5662 8.78906C14.8745 8.4724 15.2995 8.28906 15.7662 8.28906H17.4995C17.9662 8.30573 18.3329 8.68073 18.3329 9.13906Z" fill="#0165E1"/>
<path d="M17.0577 12.9557H15.866C14.2827 12.9557 12.9493 11.7641 12.816 10.2474C12.741 9.38073 13.0577 8.51406 13.691 7.8974C14.2243 7.3474 14.966 7.03906 15.766 7.03906H17.0577C17.2993 7.03906 17.4993 6.83906 17.4743 6.5974C17.291 4.5724 15.9493 3.18906 13.9577 2.95573C13.7577 2.9224 13.5493 2.91406 13.3327 2.91406H5.83268C5.59935 2.91406 5.37435 2.93073 5.15768 2.96406C3.03268 3.23073 1.66602 4.81406 1.66602 7.08073V12.9141C1.66602 15.2141 3.53268 17.0807 5.83268 17.0807H13.3327C15.666 17.0807 17.2743 15.6224 17.4743 13.3974C17.4993 13.1557 17.2993 12.9557 17.0577 12.9557ZM10.8327 8.1224H5.83268C5.49102 8.1224 5.20768 7.83906 5.20768 7.4974C5.20768 7.15573 5.49102 6.8724 5.83268 6.8724H10.8327C11.1743 6.8724 11.4577 7.15573 11.4577 7.4974C11.4577 7.83906 11.1743 8.1224 10.8327 8.1224Z" fill="#0165E1"/>
</svg>
